G04 MADE WITH FRITZING*
G04 WWW.FRITZING.ORG*
G04 SINGLE SIDED*
G04 HOLES NOT PLATED*
G04 CONTOUR ON CENTER OF CONTOUR VECTOR*
%ASAXBY*%
%FSLAX23Y23*%
%MOIN*%
%OFA0B0*%
%SFA1.0B1.0*%
%ADD10C,0.020830X0.0107903*%
%ADD11R,3.937010X2.755910X3.921010X2.739910*%
%ADD12C,0.008000*%
%ADD13C,0.008031*%
%ADD14C,0.005020*%
%ADD15R,0.001000X0.001000*%
%LNSILK1*%
G90*
G70*
G54D10*
X275Y1451D03*
G54D12*
X4Y2752D02*
X3933Y2752D01*
X3933Y4D01*
X4Y4D01*
X4Y2752D01*
D02*
G54D13*
X559Y1595D02*
X584Y1613D01*
D02*
X584Y1613D02*
X634Y1613D01*
D02*
X634Y1613D02*
X659Y1595D01*
D02*
X659Y1557D02*
X634Y1538D01*
D02*
X634Y1538D02*
X584Y1538D01*
D02*
X584Y1538D02*
X559Y1557D01*
D02*
X383Y1613D02*
X433Y1613D01*
D02*
X433Y1613D02*
X458Y1595D01*
D02*
X458Y1557D02*
X433Y1538D01*
D02*
X458Y1595D02*
X483Y1613D01*
D02*
X483Y1613D02*
X534Y1613D01*
D02*
X534Y1613D02*
X559Y1595D01*
D02*
X559Y1557D02*
X534Y1538D01*
D02*
X534Y1538D02*
X483Y1538D01*
D02*
X483Y1538D02*
X458Y1557D01*
D02*
X258Y1595D02*
X283Y1613D01*
D02*
X283Y1613D02*
X333Y1613D01*
D02*
X333Y1613D02*
X358Y1595D01*
D02*
X358Y1557D02*
X333Y1538D01*
D02*
X333Y1538D02*
X283Y1538D01*
D02*
X283Y1538D02*
X258Y1557D01*
D02*
X383Y1613D02*
X358Y1595D01*
D02*
X358Y1557D02*
X383Y1538D01*
D02*
X433Y1538D02*
X383Y1538D01*
D02*
X82Y1613D02*
X132Y1613D01*
D02*
X132Y1613D02*
X157Y1595D01*
D02*
X157Y1557D02*
X132Y1538D01*
D02*
X157Y1595D02*
X182Y1613D01*
D02*
X182Y1613D02*
X233Y1613D01*
D02*
X233Y1613D02*
X258Y1595D01*
D02*
X258Y1557D02*
X233Y1538D01*
D02*
X233Y1538D02*
X182Y1538D01*
D02*
X182Y1538D02*
X157Y1557D01*
D02*
X57Y1595D02*
X57Y1557D01*
D02*
X82Y1613D02*
X57Y1595D01*
D02*
X57Y1557D02*
X82Y1538D01*
D02*
X132Y1538D02*
X82Y1538D01*
D02*
X659Y1595D02*
X659Y1557D01*
G54D14*
D02*
X259Y1462D02*
X259Y1445D01*
D02*
X259Y1462D02*
X283Y1462D01*
D02*
X457Y1462D02*
X433Y1462D01*
D02*
X457Y1462D02*
X457Y1445D01*
D02*
X259Y1315D02*
X259Y1333D01*
D02*
X259Y1315D02*
X287Y1315D01*
D02*
X457Y1315D02*
X429Y1315D01*
D02*
X457Y1315D02*
X457Y1333D01*
G54D13*
X61Y1167D02*
X655Y1167D01*
X655Y1610D01*
X61Y1610D01*
X61Y1167D01*
D02*
G54D15*
X741Y2239D02*
X751Y2239D01*
X740Y2238D02*
X752Y2238D01*
X740Y2237D02*
X753Y2237D01*
X739Y2236D02*
X753Y2236D01*
X580Y2235D02*
X618Y2235D01*
X655Y2235D02*
X659Y2235D01*
X739Y2235D02*
X753Y2235D01*
X804Y2235D02*
X823Y2235D01*
X1012Y2235D02*
X1024Y2235D01*
X1049Y2235D02*
X1061Y2235D01*
X1159Y2235D02*
X1163Y2235D01*
X1452Y2235D02*
X1484Y2235D01*
X2023Y2235D02*
X2027Y2235D01*
X2063Y2235D02*
X2066Y2235D01*
X2311Y2235D02*
X2315Y2235D01*
X2596Y2235D02*
X2642Y2235D01*
X580Y2234D02*
X621Y2234D01*
X654Y2234D02*
X660Y2234D01*
X739Y2234D02*
X753Y2234D01*
X803Y2234D02*
X824Y2234D01*
X1012Y2234D02*
X1025Y2234D01*
X1048Y2234D02*
X1061Y2234D01*
X1158Y2234D02*
X1164Y2234D01*
X1450Y2234D02*
X1486Y2234D01*
X2022Y2234D02*
X2028Y2234D01*
X2061Y2234D02*
X2068Y2234D01*
X2310Y2234D02*
X2316Y2234D01*
X2596Y2234D02*
X2644Y2234D01*
X580Y2233D02*
X623Y2233D01*
X653Y2233D02*
X661Y2233D01*
X739Y2233D02*
X753Y2233D01*
X802Y2233D02*
X825Y2233D01*
X1012Y2233D02*
X1026Y2233D01*
X1047Y2233D02*
X1061Y2233D01*
X1157Y2233D02*
X1165Y2233D01*
X1448Y2233D02*
X1488Y2233D01*
X2021Y2233D02*
X2029Y2233D01*
X2061Y2233D02*
X2068Y2233D01*
X2309Y2233D02*
X2317Y2233D01*
X2596Y2233D02*
X2644Y2233D01*
X580Y2232D02*
X624Y2232D01*
X653Y2232D02*
X661Y2232D01*
X739Y2232D02*
X753Y2232D01*
X801Y2232D02*
X825Y2232D01*
X1012Y2232D02*
X1027Y2232D01*
X1047Y2232D02*
X1061Y2232D01*
X1157Y2232D02*
X1165Y2232D01*
X1447Y2232D02*
X1489Y2232D01*
X2021Y2232D02*
X2029Y2232D01*
X2060Y2232D02*
X2069Y2232D01*
X2309Y2232D02*
X2317Y2232D01*
X2596Y2232D02*
X2645Y2232D01*
X580Y2231D02*
X625Y2231D01*
X652Y2231D02*
X661Y2231D01*
X739Y2231D02*
X753Y2231D01*
X801Y2231D02*
X825Y2231D01*
X1012Y2231D02*
X1027Y2231D01*
X1046Y2231D02*
X1061Y2231D01*
X1156Y2231D02*
X1165Y2231D01*
X1446Y2231D02*
X1490Y2231D01*
X2020Y2231D02*
X2029Y2231D01*
X2060Y2231D02*
X2069Y2231D01*
X2249Y2231D02*
X2252Y2231D01*
X2308Y2231D02*
X2317Y2231D01*
X2596Y2231D02*
X2645Y2231D01*
X3113Y2231D02*
X3116Y2231D01*
X580Y2230D02*
X626Y2230D01*
X652Y2230D02*
X661Y2230D01*
X739Y2230D02*
X753Y2230D01*
X801Y2230D02*
X825Y2230D01*
X1012Y2230D02*
X1028Y2230D01*
X1045Y2230D02*
X1061Y2230D01*
X1156Y2230D02*
X1165Y2230D01*
X1446Y2230D02*
X1491Y2230D01*
X2020Y2230D02*
X2029Y2230D01*
X2060Y2230D02*
X2069Y2230D01*
X2248Y2230D02*
X2254Y2230D01*
X2308Y2230D02*
X2317Y2230D01*
X2596Y2230D02*
X2645Y2230D01*
X3112Y2230D02*
X3118Y2230D01*
X580Y2229D02*
X626Y2229D01*
X652Y2229D02*
X661Y2229D01*
X739Y2229D02*
X753Y2229D01*
X802Y2229D02*
X825Y2229D01*
X1012Y2229D02*
X1029Y2229D01*
X1045Y2229D02*
X1061Y2229D01*
X1156Y2229D02*
X1165Y2229D01*
X1445Y2229D02*
X1491Y2229D01*
X2020Y2229D02*
X2029Y2229D01*
X2060Y2229D02*
X2069Y2229D01*
X2247Y2229D02*
X2255Y2229D01*
X2308Y2229D02*
X2317Y2229D01*
X2596Y2229D02*
X2645Y2229D01*
X3111Y2229D02*
X3119Y2229D01*
X580Y2228D02*
X627Y2228D01*
X652Y2228D02*
X661Y2228D01*
X740Y2228D02*
X752Y2228D01*
X802Y2228D02*
X825Y2228D01*
X1012Y2228D02*
X1029Y2228D01*
X1044Y2228D02*
X1061Y2228D01*
X1156Y2228D02*
X1165Y2228D01*
X1445Y2228D02*
X1492Y2228D01*
X2020Y2228D02*
X2029Y2228D01*
X2060Y2228D02*
X2069Y2228D01*
X2246Y2228D02*
X2255Y2228D01*
X2308Y2228D02*
X2317Y2228D01*
X2596Y2228D02*
X2644Y2228D01*
X3110Y2228D02*
X3119Y2228D01*
X580Y2227D02*
X628Y2227D01*
X652Y2227D02*
X661Y2227D01*
X741Y2227D02*
X751Y2227D01*
X803Y2227D02*
X825Y2227D01*
X1012Y2227D02*
X1030Y2227D01*
X1043Y2227D02*
X1061Y2227D01*
X1156Y2227D02*
X1165Y2227D01*
X1445Y2227D02*
X1492Y2227D01*
X2020Y2227D02*
X2029Y2227D01*
X2060Y2227D02*
X2069Y2227D01*
X2246Y2227D02*
X2255Y2227D01*
X2308Y2227D02*
X2317Y2227D01*
X2596Y2227D02*
X2643Y2227D01*
X3110Y2227D02*
X3119Y2227D01*
X580Y2226D02*
X628Y2226D01*
X652Y2226D02*
X661Y2226D01*
X742Y2226D02*
X750Y2226D01*
X805Y2226D02*
X825Y2226D01*
X1012Y2226D02*
X1031Y2226D01*
X1043Y2226D02*
X1061Y2226D01*
X1156Y2226D02*
X1165Y2226D01*
X1444Y2226D02*
X1493Y2226D01*
X2020Y2226D02*
X2029Y2226D01*
X2060Y2226D02*
X2069Y2226D01*
X2246Y2226D02*
X2255Y2226D01*
X2308Y2226D02*
X2317Y2226D01*
X2596Y2226D02*
X2642Y2226D01*
X3110Y2226D02*
X3119Y2226D01*
X580Y2225D02*
X589Y2225D01*
X617Y2225D02*
X628Y2225D01*
X652Y2225D02*
X661Y2225D01*
X816Y2225D02*
X825Y2225D01*
X1012Y2225D02*
X1031Y2225D01*
X1042Y2225D02*
X1061Y2225D01*
X1156Y2225D02*
X1165Y2225D01*
X1444Y2225D02*
X1454Y2225D01*
X1482Y2225D02*
X1493Y2225D01*
X2020Y2225D02*
X2029Y2225D01*
X2060Y2225D02*
X2069Y2225D01*
X2246Y2225D02*
X2255Y2225D01*
X2308Y2225D02*
X2317Y2225D01*
X2596Y2225D02*
X2605Y2225D01*
X3110Y2225D02*
X3119Y2225D01*
X580Y2224D02*
X589Y2224D01*
X619Y2224D02*
X629Y2224D01*
X652Y2224D02*
X661Y2224D01*
X816Y2224D02*
X825Y2224D01*
X1012Y2224D02*
X1032Y2224D01*
X1041Y2224D02*
X1061Y2224D01*
X1156Y2224D02*
X1165Y2224D01*
X1444Y2224D02*
X1453Y2224D01*
X1483Y2224D02*
X1493Y2224D01*
X2020Y2224D02*
X2029Y2224D01*
X2060Y2224D02*
X2069Y2224D01*
X2246Y2224D02*
X2255Y2224D01*
X2308Y2224D02*
X2317Y2224D01*
X2596Y2224D02*
X2605Y2224D01*
X3110Y2224D02*
X3119Y2224D01*
X580Y2223D02*
X589Y2223D01*
X619Y2223D02*
X629Y2223D01*
X652Y2223D02*
X661Y2223D01*
X816Y2223D02*
X825Y2223D01*
X1012Y2223D02*
X1033Y2223D01*
X1041Y2223D02*
X1061Y2223D01*
X1156Y2223D02*
X1165Y2223D01*
X1444Y2223D02*
X1454Y2223D01*
X1484Y2223D02*
X1493Y2223D01*
X2020Y2223D02*
X2029Y2223D01*
X2060Y2223D02*
X2069Y2223D01*
X2246Y2223D02*
X2255Y2223D01*
X2308Y2223D02*
X2317Y2223D01*
X2596Y2223D02*
X2605Y2223D01*
X3110Y2223D02*
X3119Y2223D01*
X580Y2222D02*
X589Y2222D01*
X620Y2222D02*
X629Y2222D01*
X652Y2222D02*
X661Y2222D01*
X816Y2222D02*
X825Y2222D01*
X1012Y2222D02*
X1034Y2222D01*
X1040Y2222D02*
X1061Y2222D01*
X1156Y2222D02*
X1165Y2222D01*
X1445Y2222D02*
X1455Y2222D01*
X1484Y2222D02*
X1493Y2222D01*
X2020Y2222D02*
X2029Y2222D01*
X2060Y2222D02*
X2069Y2222D01*
X2246Y2222D02*
X2255Y2222D01*
X2308Y2222D02*
X2317Y2222D01*
X2596Y2222D02*
X2605Y2222D01*
X3110Y2222D02*
X3119Y2222D01*
X580Y2221D02*
X589Y2221D01*
X620Y2221D02*
X629Y2221D01*
X652Y2221D02*
X661Y2221D01*
X816Y2221D02*
X825Y2221D01*
X1012Y2221D02*
X1034Y2221D01*
X1039Y2221D02*
X1050Y2221D01*
X1052Y2221D02*
X1061Y2221D01*
X1156Y2221D02*
X1165Y2221D01*
X1445Y2221D02*
X1456Y2221D01*
X1484Y2221D02*
X1493Y2221D01*
X2020Y2221D02*
X2029Y2221D01*
X2060Y2221D02*
X2069Y2221D01*
X2246Y2221D02*
X2255Y2221D01*
X2308Y2221D02*
X2317Y2221D01*
X2596Y2221D02*
X2605Y2221D01*
X3110Y2221D02*
X3119Y2221D01*
X580Y2220D02*
X589Y2220D01*
X620Y2220D02*
X629Y2220D01*
X652Y2220D02*
X661Y2220D01*
X816Y2220D02*
X825Y2220D01*
X1012Y2220D02*
X1021Y2220D01*
X1024Y2220D02*
X1035Y2220D01*
X1038Y2220D02*
X1050Y2220D01*
X1052Y2220D02*
X1061Y2220D01*
X1156Y2220D02*
X1165Y2220D01*
X1445Y2220D02*
X1456Y2220D01*
X1485Y2220D02*
X1493Y2220D01*
X2020Y2220D02*
X2029Y2220D01*
X2060Y2220D02*
X2069Y2220D01*
X2246Y2220D02*
X2255Y2220D01*
X2308Y2220D02*
X2317Y2220D01*
X2596Y2220D02*
X2605Y2220D01*
X3110Y2220D02*
X3119Y2220D01*
X580Y2219D02*
X589Y2219D01*
X620Y2219D02*
X629Y2219D01*
X652Y2219D02*
X661Y2219D01*
X816Y2219D02*
X825Y2219D01*
X1012Y2219D02*
X1021Y2219D01*
X1024Y2219D02*
X1036Y2219D01*
X1038Y2219D02*
X1049Y2219D01*
X1052Y2219D02*
X1061Y2219D01*
X1156Y2219D02*
X1165Y2219D01*
X1446Y2219D02*
X1457Y2219D01*
X1485Y2219D02*
X1492Y2219D01*
X2020Y2219D02*
X2029Y2219D01*
X2060Y2219D02*
X2069Y2219D01*
X2246Y2219D02*
X2255Y2219D01*
X2308Y2219D02*
X2317Y2219D01*
X2596Y2219D02*
X2605Y2219D01*
X3110Y2219D02*
X3119Y2219D01*
X580Y2218D02*
X589Y2218D01*
X620Y2218D02*
X629Y2218D01*
X652Y2218D02*
X661Y2218D01*
X816Y2218D02*
X825Y2218D01*
X1012Y2218D02*
X1021Y2218D01*
X1025Y2218D02*
X1048Y2218D01*
X1052Y2218D02*
X1061Y2218D01*
X1156Y2218D02*
X1165Y2218D01*
X1446Y2218D02*
X1458Y2218D01*
X1486Y2218D02*
X1491Y2218D01*
X2020Y2218D02*
X2029Y2218D01*
X2060Y2218D02*
X2069Y2218D01*
X2246Y2218D02*
X2255Y2218D01*
X2308Y2218D02*
X2317Y2218D01*
X2596Y2218D02*
X2605Y2218D01*
X3110Y2218D02*
X3119Y2218D01*
X580Y2217D02*
X589Y2217D01*
X620Y2217D02*
X629Y2217D01*
X652Y2217D02*
X661Y2217D01*
X816Y2217D02*
X825Y2217D01*
X1012Y2217D02*
X1021Y2217D01*
X1026Y2217D02*
X1048Y2217D01*
X1052Y2217D02*
X1061Y2217D01*
X1156Y2217D02*
X1165Y2217D01*
X1447Y2217D02*
X1459Y2217D01*
X2020Y2217D02*
X2029Y2217D01*
X2060Y2217D02*
X2069Y2217D01*
X2246Y2217D02*
X2255Y2217D01*
X2308Y2217D02*
X2317Y2217D01*
X2596Y2217D02*
X2605Y2217D01*
X3110Y2217D02*
X3119Y2217D01*
X580Y2216D02*
X589Y2216D01*
X620Y2216D02*
X629Y2216D01*
X652Y2216D02*
X661Y2216D01*
X816Y2216D02*
X825Y2216D01*
X1012Y2216D02*
X1021Y2216D01*
X1026Y2216D02*
X1047Y2216D01*
X1052Y2216D02*
X1061Y2216D01*
X1156Y2216D02*
X1165Y2216D01*
X1448Y2216D02*
X1460Y2216D01*
X1519Y2216D02*
X1523Y2216D01*
X1536Y2216D02*
X1545Y2216D01*
X2020Y2216D02*
X2029Y2216D01*
X2060Y2216D02*
X2069Y2216D01*
X2246Y2216D02*
X2255Y2216D01*
X2308Y2216D02*
X2317Y2216D01*
X2596Y2216D02*
X2605Y2216D01*
X3110Y2216D02*
X3119Y2216D01*
X580Y2215D02*
X589Y2215D01*
X620Y2215D02*
X629Y2215D01*
X652Y2215D02*
X661Y2215D01*
X816Y2215D02*
X825Y2215D01*
X1012Y2215D02*
X1021Y2215D01*
X1027Y2215D02*
X1046Y2215D01*
X1052Y2215D02*
X1061Y2215D01*
X1156Y2215D02*
X1165Y2215D01*
X1448Y2215D02*
X1460Y2215D01*
X1518Y2215D02*
X1524Y2215D01*
X1534Y2215D02*
X1548Y2215D01*
X2020Y2215D02*
X2029Y2215D01*
X2060Y2215D02*
X2069Y2215D01*
X2246Y2215D02*
X2255Y2215D01*
X2308Y2215D02*
X2317Y2215D01*
X2596Y2215D02*
X2605Y2215D01*
X3110Y2215D02*
X3119Y2215D01*
X580Y2214D02*
X589Y2214D01*
X620Y2214D02*
X629Y2214D01*
X652Y2214D02*
X661Y2214D01*
X676Y2214D02*
X689Y2214D01*
X732Y2214D02*
X750Y2214D01*
X816Y2214D02*
X825Y2214D01*
X879Y2214D02*
X907Y2214D01*
X1012Y2214D02*
X1021Y2214D01*
X1028Y2214D02*
X1046Y2214D01*
X1052Y2214D02*
X1061Y2214D01*
X1097Y2214D02*
X1121Y2214D01*
X1156Y2214D02*
X1165Y2214D01*
X1194Y2214D02*
X1197Y2214D01*
X1243Y2214D02*
X1262Y2214D01*
X1303Y2214D02*
X1306Y2214D01*
X1323Y2214D02*
X1338Y2214D01*
X1449Y2214D02*
X1461Y2214D01*
X1517Y2214D02*
X1525Y2214D01*
X1532Y2214D02*
X1550Y2214D01*
X1601Y2214D02*
X1625Y2214D01*
X1680Y2214D02*
X1706Y2214D01*
X1747Y2214D02*
X1766Y2214D01*
X2020Y2214D02*
X2029Y2214D01*
X2060Y2214D02*
X2069Y2214D01*
X2107Y2214D02*
X2126Y2214D01*
X2177Y2214D02*
X2201Y2214D01*
X2239Y2214D02*
X2277Y2214D01*
X2308Y2214D02*
X2317Y2214D01*
X2332Y2214D02*
X2345Y2214D01*
X2395Y2214D02*
X2414Y2214D01*
X2455Y2214D02*
X2458Y2214D01*
X2475Y2214D02*
X2490Y2214D01*
X2596Y2214D02*
X2605Y2214D01*
X2683Y2214D02*
X2702Y2214D01*
X2743Y2214D02*
X2746Y2214D01*
X2763Y2214D02*
X2778Y2214D01*
X2827Y2214D02*
X2846Y2214D01*
X2904Y2214D02*
X2930Y2214D01*
X2969Y2214D02*
X2993Y2214D01*
X3039Y2214D02*
X3067Y2214D01*
X3103Y2214D02*
X3141Y2214D01*
X3187Y2214D02*
X3206Y2214D01*
X3247Y2214D02*
X3250Y2214D01*
X3267Y2214D02*
X3282Y2214D01*
X580Y2213D02*
X589Y2213D01*
X620Y2213D02*
X629Y2213D01*
X652Y2213D02*
X661Y2213D01*
X674Y2213D02*
X691Y2213D01*
X731Y2213D02*
X752Y2213D01*
X816Y2213D02*
X825Y2213D01*
X876Y2213D02*
X909Y2213D01*
X1012Y2213D02*
X1021Y2213D01*
X1028Y2213D02*
X1045Y2213D01*
X1052Y2213D02*
X1061Y2213D01*
X1096Y2213D02*
X1123Y2213D01*
X1156Y2213D02*
X1165Y2213D01*
X1192Y2213D02*
X1199Y2213D01*
X1240Y2213D02*
X1265Y2213D01*
X1302Y2213D02*
X1308Y2213D01*
X1321Y2213D02*
X1341Y2213D01*
X1450Y2213D02*
X1462Y2213D01*
X1517Y2213D02*
X1525Y2213D01*
X1531Y2213D02*
X1551Y2213D01*
X1600Y2213D02*
X1627Y2213D01*
X1677Y2213D02*
X1708Y2213D01*
X1744Y2213D02*
X1769Y2213D01*
X2020Y2213D02*
X2029Y2213D01*
X2060Y2213D02*
X2069Y2213D01*
X2104Y2213D02*
X2129Y2213D01*
X2176Y2213D02*
X2203Y2213D01*
X2238Y2213D02*
X2279Y2213D01*
X2308Y2213D02*
X2317Y2213D01*
X2330Y2213D02*
X2347Y2213D01*
X2392Y2213D02*
X2417Y2213D01*
X2454Y2213D02*
X2460Y2213D01*
X2473Y2213D02*
X2493Y2213D01*
X2596Y2213D02*
X2605Y2213D01*
X2680Y2213D02*
X2705Y2213D01*
X2742Y2213D02*
X2748Y2213D01*
X2761Y2213D02*
X2781Y2213D01*
X2824Y2213D02*
X2849Y2213D01*
X2901Y2213D02*
X2932Y2213D01*
X2968Y2213D02*
X2995Y2213D01*
X3036Y2213D02*
X3069Y2213D01*
X3102Y2213D02*
X3143Y2213D01*
X3184Y2213D02*
X3209Y2213D01*
X3246Y2213D02*
X3252Y2213D01*
X3265Y2213D02*
X3285Y2213D01*
X580Y2212D02*
X589Y2212D01*
X620Y2212D02*
X629Y2212D01*
X652Y2212D02*
X661Y2212D01*
X672Y2212D02*
X693Y2212D01*
X730Y2212D02*
X752Y2212D01*
X816Y2212D02*
X825Y2212D01*
X875Y2212D02*
X911Y2212D01*
X1012Y2212D02*
X1021Y2212D01*
X1029Y2212D02*
X1044Y2212D01*
X1052Y2212D02*
X1061Y2212D01*
X1095Y2212D02*
X1125Y2212D01*
X1156Y2212D02*
X1165Y2212D01*
X1191Y2212D02*
X1199Y2212D01*
X1239Y2212D02*
X1267Y2212D01*
X1301Y2212D02*
X1309Y2212D01*
X1320Y2212D02*
X1342Y2212D01*
X1451Y2212D02*
X1463Y2212D01*
X1516Y2212D02*
X1525Y2212D01*
X1529Y2212D02*
X1553Y2212D01*
X1599Y2212D02*
X1629Y2212D01*
X1675Y2212D02*
X1708Y2212D01*
X1743Y2212D02*
X1771Y2212D01*
X2020Y2212D02*
X2029Y2212D01*
X2060Y2212D02*
X2069Y2212D01*
X2103Y2212D02*
X2131Y2212D01*
X2175Y2212D02*
X2205Y2212D01*
X2237Y2212D02*
X2279Y2212D01*
X2308Y2212D02*
X2317Y2212D01*
X2328Y2212D02*
X2349Y2212D01*
X2391Y2212D02*
X2419Y2212D01*
X2453Y2212D02*
X2461Y2212D01*
X2472Y2212D02*
X2494Y2212D01*
X2596Y2212D02*
X2605Y2212D01*
X2679Y2212D02*
X2707Y2212D01*
X2741Y2212D02*
X2749Y2212D01*
X2760Y2212D02*
X2782Y2212D01*
X2823Y2212D02*
X2851Y2212D01*
X2899Y2212D02*
X2932Y2212D01*
X2967Y2212D02*
X2997Y2212D01*
X3035Y2212D02*
X3071Y2212D01*
X3101Y2212D02*
X3143Y2212D01*
X3183Y2212D02*
X3211Y2212D01*
X3245Y2212D02*
X3253Y2212D01*
X3264Y2212D02*
X3286Y2212D01*
X580Y2211D02*
X589Y2211D01*
X620Y2211D02*
X629Y2211D01*
X652Y2211D02*
X661Y2211D01*
X670Y2211D02*
X694Y2211D01*
X729Y2211D02*
X753Y2211D01*
X816Y2211D02*
X825Y2211D01*
X874Y2211D02*
X912Y2211D01*
X1012Y2211D02*
X1021Y2211D01*
X1030Y2211D02*
X1043Y2211D01*
X1052Y2211D02*
X1061Y2211D01*
X1094Y2211D02*
X1126Y2211D01*
X1156Y2211D02*
X1165Y2211D01*
X1190Y2211D02*
X1200Y2211D01*
X1237Y2211D02*
X1268Y2211D01*
X1301Y2211D02*
X1309Y2211D01*
X1319Y2211D02*
X1344Y2211D01*
X1452Y2211D02*
X1463Y2211D01*
X1516Y2211D02*
X1525Y2211D01*
X1528Y2211D02*
X1554Y2211D01*
X1598Y2211D02*
X1630Y2211D01*
X1674Y2211D02*
X1709Y2211D01*
X1741Y2211D02*
X1772Y2211D01*
X2020Y2211D02*
X2029Y2211D01*
X2060Y2211D02*
X2069Y2211D01*
X2101Y2211D02*
X2132Y2211D01*
X2174Y2211D02*
X2206Y2211D01*
X2237Y2211D02*
X2280Y2211D01*
X2308Y2211D02*
X2317Y2211D01*
X2326Y2211D02*
X2350Y2211D01*
X2389Y2211D02*
X2420Y2211D01*
X2453Y2211D02*
X2461Y2211D01*
X2471Y2211D02*
X2496Y2211D01*
X2596Y2211D02*
X2605Y2211D01*
X2677Y2211D02*
X2708Y2211D01*
X2741Y2211D02*
X2749Y2211D01*
X2759Y2211D02*
X2784Y2211D01*
X2821Y2211D02*
X2852Y2211D01*
X2898Y2211D02*
X2933Y2211D01*
X2966Y2211D02*
X2998Y2211D01*
X3033Y2211D02*
X3072Y2211D01*
X3101Y2211D02*
X3144Y2211D01*
X3181Y2211D02*
X3212Y2211D01*
X3245Y2211D02*
X3253Y2211D01*
X3263Y2211D02*
X3288Y2211D01*
X580Y2210D02*
X589Y2210D01*
X620Y2210D02*
X629Y2210D01*
X652Y2210D02*
X661Y2210D01*
X669Y2210D02*
X695Y2210D01*
X729Y2210D02*
X753Y2210D01*
X816Y2210D02*
X825Y2210D01*
X873Y2210D02*
X913Y2210D01*
X1012Y2210D02*
X1021Y2210D01*
X1031Y2210D02*
X1043Y2210D01*
X1052Y2210D02*
X1061Y2210D01*
X1094Y2210D02*
X1127Y2210D01*
X1156Y2210D02*
X1165Y2210D01*
X1189Y2210D02*
X1200Y2210D01*
X1236Y2210D02*
X1269Y2210D01*
X1300Y2210D02*
X1309Y2210D01*
X1318Y2210D02*
X1345Y2210D01*
X1452Y2210D02*
X1464Y2210D01*
X1516Y2210D02*
X1525Y2210D01*
X1527Y2210D02*
X1555Y2210D01*
X1598Y2210D02*
X1631Y2210D01*
X1673Y2210D02*
X1709Y2210D01*
X1740Y2210D02*
X1773Y2210D01*
X2020Y2210D02*
X2029Y2210D01*
X2044Y2210D02*
X2046Y2210D01*
X2060Y2210D02*
X2069Y2210D01*
X2100Y2210D02*
X2133Y2210D01*
X2174Y2210D02*
X2207Y2210D01*
X2236Y2210D02*
X2280Y2210D01*
X2308Y2210D02*
X2317Y2210D01*
X2325Y2210D02*
X2351Y2210D01*
X2388Y2210D02*
X2421Y2210D01*
X2452Y2210D02*
X2461Y2210D01*
X2470Y2210D02*
X2497Y2210D01*
X2596Y2210D02*
X2631Y2210D01*
X2676Y2210D02*
X2709Y2210D01*
X2740Y2210D02*
X2749Y2210D01*
X2758Y2210D02*
X2785Y2210D01*
X2820Y2210D02*
X2853Y2210D01*
X2897Y2210D02*
X2933Y2210D01*
X2966Y2210D02*
X2999Y2210D01*
X3033Y2210D02*
X3073Y2210D01*
X3100Y2210D02*
X3144Y2210D01*
X3180Y2210D02*
X3213Y2210D01*
X3244Y2210D02*
X3253Y2210D01*
X3262Y2210D02*
X3289Y2210D01*
X580Y2209D02*
X589Y2209D01*
X620Y2209D02*
X629Y2209D01*
X652Y2209D02*
X661Y2209D01*
X667Y2209D02*
X696Y2209D01*
X729Y2209D02*
X753Y2209D01*
X816Y2209D02*
X825Y2209D01*
X872Y2209D02*
X914Y2209D01*
X1012Y2209D02*
X1021Y2209D01*
X1031Y2209D02*
X1042Y2209D01*
X1052Y2209D02*
X1061Y2209D01*
X1094Y2209D02*
X1128Y2209D01*
X1156Y2209D02*
X1165Y2209D01*
X1188Y2209D02*
X1200Y2209D01*
X1235Y2209D02*
X1271Y2209D01*
X1300Y2209D02*
X1309Y2209D01*
X1317Y2209D02*
X1346Y2209D01*
X1453Y2209D02*
X1465Y2209D01*
X1516Y2209D02*
X1556Y2209D01*
X1598Y2209D02*
X1632Y2209D01*
X1671Y2209D02*
X1709Y2209D01*
X1739Y2209D02*
X1775Y2209D01*
X2020Y2209D02*
X2029Y2209D01*
X2042Y2209D02*
X2047Y2209D01*
X2060Y2209D02*
X2069Y2209D01*
X2099Y2209D02*
X2135Y2209D01*
X2174Y2209D02*
X2208Y2209D01*
X2236Y2209D02*
X2280Y2209D01*
X2308Y2209D02*
X2317Y2209D01*
X2323Y2209D02*
X2352Y2209D01*
X2387Y2209D02*
X2423Y2209D01*
X2452Y2209D02*
X2461Y2209D01*
X2469Y2209D02*
X2498Y2209D01*
X2596Y2209D02*
X2633Y2209D01*
X2675Y2209D02*
X2710Y2209D01*
X2740Y2209D02*
X2749Y2209D01*
X2757Y2209D02*
X2786Y2209D01*
X2819Y2209D02*
X2855Y2209D01*
X2895Y2209D02*
X2933Y2209D01*
X2966Y2209D02*
X3000Y2209D01*
X3032Y2209D02*
X3074Y2209D01*
X3100Y2209D02*
X3144Y2209D01*
X3179Y2209D02*
X3215Y2209D01*
X3244Y2209D02*
X3253Y2209D01*
X3261Y2209D02*
X3290Y2209D01*
X580Y2208D02*
X589Y2208D01*
X620Y2208D02*
X629Y2208D01*
X652Y2208D02*
X661Y2208D01*
X665Y2208D02*
X697Y2208D01*
X729Y2208D02*
X753Y2208D01*
X816Y2208D02*
X825Y2208D01*
X871Y2208D02*
X915Y2208D01*
X1012Y2208D02*
X1021Y2208D01*
X1032Y2208D02*
X1041Y2208D01*
X1052Y2208D02*
X1061Y2208D01*
X1094Y2208D02*
X1129Y2208D01*
X1156Y2208D02*
X1165Y2208D01*
X1187Y2208D02*
X1200Y2208D01*
X1234Y2208D02*
X1272Y2208D01*
X1300Y2208D02*
X1309Y2208D01*
X1316Y2208D02*
X1346Y2208D01*
X1454Y2208D02*
X1466Y2208D01*
X1516Y2208D02*
X1557Y2208D01*
X1598Y2208D02*
X1633Y2208D01*
X1670Y2208D02*
X1709Y2208D01*
X1738Y2208D02*
X1776Y2208D01*
X2020Y2208D02*
X2029Y2208D01*
X2041Y2208D02*
X2048Y2208D01*
X2060Y2208D02*
X2069Y2208D01*
X2098Y2208D02*
X2136Y2208D01*
X2174Y2208D02*
X2209Y2208D01*
X2237Y2208D02*
X2280Y2208D01*
X2308Y2208D02*
X2317Y2208D01*
X2321Y2208D02*
X2353Y2208D01*
X2386Y2208D02*
X2424Y2208D01*
X2452Y2208D02*
X2461Y2208D01*
X2468Y2208D02*
X2498Y2208D01*
X2596Y2208D02*
X2634Y2208D01*
X2674Y2208D02*
X2712Y2208D01*
X2740Y2208D02*
X2749Y2208D01*
X2756Y2208D02*
X2786Y2208D01*
X2818Y2208D02*
X2856Y2208D01*
X2894Y2208D02*
X2933Y2208D01*
X2966Y2208D02*
X3001Y2208D01*
X3031Y2208D02*
X3075Y2208D01*
X3101Y2208D02*
X3144Y2208D01*
X3178Y2208D02*
X3216Y2208D01*
X3244Y2208D02*
X3253Y2208D01*
X3260Y2208D02*
X3290Y2208D01*
X580Y2207D02*
X589Y2207D01*
X620Y2207D02*
X629Y2207D01*
X652Y2207D02*
X661Y2207D01*
X664Y2207D02*
X698Y2207D01*
X730Y2207D02*
X753Y2207D01*
X816Y2207D02*
X825Y2207D01*
X871Y2207D02*
X916Y2207D01*
X1012Y2207D02*
X1021Y2207D01*
X1032Y2207D02*
X1041Y2207D01*
X1052Y2207D02*
X1061Y2207D01*
X1095Y2207D02*
X1130Y2207D01*
X1156Y2207D02*
X1165Y2207D01*
X1185Y2207D02*
X1199Y2207D01*
X1233Y2207D02*
X1273Y2207D01*
X1300Y2207D02*
X1309Y2207D01*
X1314Y2207D02*
X1347Y2207D01*
X1455Y2207D02*
X1467Y2207D01*
X1516Y2207D02*
X1558Y2207D01*
X1599Y2207D02*
X1634Y2207D01*
X1669Y2207D02*
X1708Y2207D01*
X1737Y2207D02*
X1777Y2207D01*
X2020Y2207D02*
X2029Y2207D01*
X2040Y2207D02*
X2049Y2207D01*
X2060Y2207D02*
X2069Y2207D01*
X2097Y2207D02*
X2137Y2207D01*
X2175Y2207D02*
X2210Y2207D01*
X2237Y2207D02*
X2279Y2207D01*
X2308Y2207D02*
X2317Y2207D01*
X2320Y2207D02*
X2354Y2207D01*
X2385Y2207D02*
X2425Y2207D01*
X2452Y2207D02*
X2461Y2207D01*
X2466Y2207D02*
X2499Y2207D01*
X2596Y2207D02*
X2635Y2207D01*
X2673Y2207D02*
X2713Y2207D01*
X2740Y2207D02*
X2749Y2207D01*
X2754Y2207D02*
X2787Y2207D01*
X2817Y2207D02*
X2857Y2207D01*
X2893Y2207D02*
X2932Y2207D01*
X2967Y2207D02*
X3002Y2207D01*
X3031Y2207D02*
X3076Y2207D01*
X3101Y2207D02*
X3143Y2207D01*
X3177Y2207D02*
X3217Y2207D01*
X3244Y2207D02*
X3253Y2207D01*
X3258Y2207D02*
X3291Y2207D01*
X580Y2206D02*
X589Y2206D01*
X620Y2206D02*
X629Y2206D01*
X652Y2206D02*
X698Y2206D01*
X731Y2206D02*
X753Y2206D01*
X816Y2206D02*
X825Y2206D01*
X870Y2206D02*
X916Y2206D01*
X1012Y2206D02*
X1021Y2206D01*
X1032Y2206D02*
X1041Y2206D01*
X1052Y2206D02*
X1061Y2206D01*
X1096Y2206D02*
X1130Y2206D01*
X1156Y2206D02*
X1165Y2206D01*
X1184Y2206D02*
X1199Y2206D01*
X1232Y2206D02*
X1274Y2206D01*
X1300Y2206D02*
X1309Y2206D01*
X1313Y2206D02*
X1348Y2206D01*
X1455Y2206D02*
X1467Y2206D01*
X1516Y2206D02*
X1537Y2206D01*
X1545Y2206D02*
X1559Y2206D01*
X1600Y2206D02*
X1634Y2206D01*
X1668Y2206D02*
X1708Y2206D01*
X1736Y2206D02*
X1778Y2206D01*
X2020Y2206D02*
X2029Y2206D01*
X2040Y2206D02*
X2049Y2206D01*
X2060Y2206D02*
X2069Y2206D01*
X2096Y2206D02*
X2138Y2206D01*
X2176Y2206D02*
X2210Y2206D01*
X2238Y2206D02*
X2279Y2206D01*
X2308Y2206D02*
X2354Y2206D01*
X2384Y2206D02*
X2426Y2206D01*
X2452Y2206D02*
X2461Y2206D01*
X2465Y2206D02*
X2500Y2206D01*
X2596Y2206D02*
X2635Y2206D01*
X2672Y2206D02*
X2714Y2206D01*
X2740Y2206D02*
X2749Y2206D01*
X2753Y2206D02*
X2788Y2206D01*
X2816Y2206D02*
X2858Y2206D01*
X2892Y2206D02*
X2932Y2206D01*
X2968Y2206D02*
X3002Y2206D01*
X3030Y2206D02*
X3076Y2206D01*
X3102Y2206D02*
X3143Y2206D01*
X3176Y2206D02*
X3218Y2206D01*
X3244Y2206D02*
X3253Y2206D01*
X3257Y2206D02*
X3292Y2206D01*
X580Y2205D02*
X589Y2205D01*
X620Y2205D02*
X629Y2205D01*
X652Y2205D02*
X699Y2205D01*
X732Y2205D02*
X753Y2205D01*
X816Y2205D02*
X825Y2205D01*
X870Y2205D02*
X916Y2205D01*
X1012Y2205D02*
X1021Y2205D01*
X1032Y2205D02*
X1041Y2205D01*
X1052Y2205D02*
X1061Y2205D01*
X1097Y2205D02*
X1131Y2205D01*
X1156Y2205D02*
X1165Y2205D01*
X1183Y2205D02*
X1198Y2205D01*
X1231Y2205D02*
X1274Y2205D01*
X1300Y2205D02*
X1309Y2205D01*
X1312Y2205D02*
X1348Y2205D01*
X1456Y2205D02*
X1468Y2205D01*
X1516Y2205D02*
X1536Y2205D01*
X1546Y2205D02*
X1560Y2205D01*
X1601Y2205D02*
X1635Y2205D01*
X1667Y2205D02*
X1706Y2205D01*
X1735Y2205D02*
X1778Y2205D01*
X2020Y2205D02*
X2029Y2205D01*
X2040Y2205D02*
X2049Y2205D01*
X2060Y2205D02*
X2069Y2205D01*
X2095Y2205D02*
X2138Y2205D01*
X2177Y2205D02*
X2211Y2205D01*
X2239Y2205D02*
X2277Y2205D01*
X2308Y2205D02*
X2355Y2205D01*
X2383Y2205D02*
X2426Y2205D01*
X2452Y2205D02*
X2461Y2205D01*
X2464Y2205D02*
X2500Y2205D01*
X2596Y2205D02*
X2635Y2205D01*
X2671Y2205D02*
X2714Y2205D01*
X2740Y2205D02*
X2749Y2205D01*
X2752Y2205D02*
X2788Y2205D01*
X2815Y2205D02*
X2858Y2205D01*
X2891Y2205D02*
X2930Y2205D01*
X2969Y2205D02*
X3003Y2205D01*
X3030Y2205D02*
X3076Y2205D01*
X3103Y2205D02*
X3141Y2205D01*
X3175Y2205D02*
X3218Y2205D01*
X3244Y2205D02*
X3253Y2205D01*
X3256Y2205D02*
X3292Y2205D01*
X580Y2204D02*
X589Y2204D01*
X620Y2204D02*
X629Y2204D01*
X652Y2204D02*
X677Y2204D01*
X688Y2204D02*
X699Y2204D01*
X744Y2204D02*
X753Y2204D01*
X816Y2204D02*
X825Y2204D01*
X870Y2204D02*
X880Y2204D01*
X905Y2204D02*
X916Y2204D01*
X1012Y2204D02*
X1021Y2204D01*
X1032Y2204D02*
X1041Y2204D01*
X1052Y2204D02*
X1061Y2204D01*
X1120Y2204D02*
X1131Y2204D01*
X1156Y2204D02*
X1165Y2204D01*
X1182Y2204D02*
X1196Y2204D01*
X1231Y2204D02*
X1244Y2204D01*
X1261Y2204D02*
X1275Y2204D01*
X1300Y2204D02*
X1325Y2204D01*
X1337Y2204D02*
X1348Y2204D01*
X1457Y2204D02*
X1469Y2204D01*
X1516Y2204D02*
X1535Y2204D01*
X1547Y2204D02*
X1561Y2204D01*
X1624Y2204D02*
X1635Y2204D01*
X1666Y2204D02*
X1681Y2204D01*
X1735Y2204D02*
X1748Y2204D01*
X1765Y2204D02*
X1779Y2204D01*
X2020Y2204D02*
X2029Y2204D01*
X2040Y2204D02*
X2049Y2204D01*
X2060Y2204D02*
X2069Y2204D01*
X2095Y2204D02*
X2108Y2204D01*
X2125Y2204D02*
X2139Y2204D01*
X2200Y2204D02*
X2211Y2204D01*
X2246Y2204D02*
X2255Y2204D01*
X2308Y2204D02*
X2333Y2204D01*
X2344Y2204D02*
X2355Y2204D01*
X2383Y2204D02*
X2396Y2204D01*
X2413Y2204D02*
X2427Y2204D01*
X2452Y2204D02*
X2477Y2204D01*
X2489Y2204D02*
X2500Y2204D01*
X2596Y2204D02*
X2635Y2204D01*
X2671Y2204D02*
X2684Y2204D01*
X2701Y2204D02*
X2715Y2204D01*
X2740Y2204D02*
X2765Y2204D01*
X2777Y2204D02*
X2788Y2204D01*
X2815Y2204D02*
X2828Y2204D01*
X2845Y2204D02*
X2859Y2204D01*
X2890Y2204D02*
X2905Y2204D01*
X2992Y2204D02*
X3003Y2204D01*
X3030Y2204D02*
X3040Y2204D01*
X3065Y2204D02*
X3076Y2204D01*
X3110Y2204D02*
X3119Y2204D01*
X3175Y2204D02*
X3188Y2204D01*
X3205Y2204D02*
X3219Y2204D01*
X3244Y2204D02*
X3269Y2204D01*
X3281Y2204D02*
X3292Y2204D01*
X580Y2203D02*
X589Y2203D01*
X620Y2203D02*
X629Y2203D01*
X652Y2203D02*
X675Y2203D01*
X689Y2203D02*
X699Y2203D01*
X744Y2203D02*
X753Y2203D01*
X816Y2203D02*
X825Y2203D01*
X870Y2203D02*
X879Y2203D01*
X907Y2203D02*
X915Y2203D01*
X1012Y2203D02*
X1021Y2203D01*
X1033Y2203D02*
X1041Y2203D01*
X1052Y2203D02*
X1061Y2203D01*
X1121Y2203D02*
X1131Y2203D01*
X1156Y2203D02*
X1165Y2203D01*
X1181Y2203D02*
X1195Y2203D01*
X1230Y2203D02*
X1242Y2203D01*
X1263Y2203D02*
X1276Y2203D01*
X1300Y2203D02*
X1324Y2203D01*
X1338Y2203D02*
X1349Y2203D01*
X1458Y2203D02*
X1470Y2203D01*
X1516Y2203D02*
X1534Y2203D01*
X1548Y2203D02*
X1562Y2203D01*
X1625Y2203D02*
X1635Y2203D01*
X1665Y2203D02*
X1679Y2203D01*
X1734Y2203D02*
X1746Y2203D01*
X1767Y2203D02*
X1780Y2203D01*
X2020Y2203D02*
X2029Y2203D01*
X2040Y2203D02*
X2049Y2203D01*
X2060Y2203D02*
X2069Y2203D01*
X2094Y2203D02*
X2106Y2203D01*
X2127Y2203D02*
X2140Y2203D01*
X2201Y2203D02*
X2211Y2203D01*
X2246Y2203D02*
X2255Y2203D01*
X2308Y2203D02*
X2331Y2203D01*
X2345Y2203D02*
X2355Y2203D01*
X2382Y2203D02*
X2394Y2203D01*
X2415Y2203D02*
X2428Y2203D01*
X2452Y2203D02*
X2476Y2203D01*
X2490Y2203D02*
X2501Y2203D01*
X2596Y2203D02*
X2635Y2203D01*
X2670Y2203D02*
X2682Y2203D01*
X2703Y2203D02*
X2716Y2203D01*
X2740Y2203D02*
X2764Y2203D01*
X2778Y2203D02*
X2789Y2203D01*
X2814Y2203D02*
X2826Y2203D01*
X2847Y2203D02*
X2860Y2203D01*
X2889Y2203D02*
X2903Y2203D01*
X2993Y2203D02*
X3003Y2203D01*
X3030Y2203D02*
X3039Y2203D01*
X3067Y2203D02*
X3075Y2203D01*
X3110Y2203D02*
X3119Y2203D01*
X3174Y2203D02*
X3186Y2203D01*
X3207Y2203D02*
X3220Y2203D01*
X3244Y2203D02*
X3268Y2203D01*
X3282Y2203D02*
X3293Y2203D01*
X580Y2202D02*
X589Y2202D01*
X620Y2202D02*
X629Y2202D01*
X652Y2202D02*
X674Y2202D01*
X690Y2202D02*
X700Y2202D01*
X744Y2202D02*
X753Y2202D01*
X816Y2202D02*
X825Y2202D01*
X870Y2202D02*
X879Y2202D01*
X908Y2202D02*
X915Y2202D01*
X1012Y2202D02*
X1021Y2202D01*
X1033Y2202D02*
X1040Y2202D01*
X1052Y2202D02*
X1061Y2202D01*
X1122Y2202D02*
X1132Y2202D01*
X1156Y2202D02*
X1165Y2202D01*
X1179Y2202D02*
X1194Y2202D01*
X1230Y2202D02*
X1241Y2202D01*
X1265Y2202D02*
X1276Y2202D01*
X1300Y2202D02*
X1323Y2202D01*
X1339Y2202D02*
X1349Y2202D01*
X1458Y2202D02*
X1470Y2202D01*
X1516Y2202D02*
X1533Y2202D01*
X1549Y2202D02*
X1563Y2202D01*
X1626Y2202D02*
X1636Y2202D01*
X1664Y2202D02*
X1678Y2202D01*
X1734Y2202D02*
X1745Y2202D01*
X1769Y2202D02*
X1780Y2202D01*
X2020Y2202D02*
X2029Y2202D01*
X2040Y2202D02*
X2049Y2202D01*
X2060Y2202D02*
X2069Y2202D01*
X2094Y2202D02*
X2105Y2202D01*
X2129Y2202D02*
X2140Y2202D01*
X2202Y2202D02*
X2212Y2202D01*
X2246Y2202D02*
X2255Y2202D01*
X2308Y2202D02*
X2330Y2202D01*
X2346Y2202D02*
X2356Y2202D01*
X2382Y2202D02*
X2393Y2202D01*
X2417Y2202D02*
X2428Y2202D01*
X2452Y2202D02*
X2475Y2202D01*
X2491Y2202D02*
X2501Y2202D01*
X2596Y2202D02*
X2634Y2202D01*
X2670Y2202D02*
X2681Y2202D01*
X2705Y2202D02*
X2716Y2202D01*
X2740Y2202D02*
X2763Y2202D01*
X2779Y2202D02*
X2789Y2202D01*
X2814Y2202D02*
X2825Y2202D01*
X2849Y2202D02*
X2860Y2202D01*
X2888Y2202D02*
X2902Y2202D01*
X2994Y2202D02*
X3004Y2202D01*
X3030Y2202D02*
X3039Y2202D01*
X3068Y2202D02*
X3075Y2202D01*
X3110Y2202D02*
X3119Y2202D01*
X3174Y2202D02*
X3185Y2202D01*
X3209Y2202D02*
X3220Y2202D01*
X3244Y2202D02*
X3267Y2202D01*
X3283Y2202D02*
X3293Y2202D01*
X580Y2201D02*
X589Y2201D01*
X620Y2201D02*
X629Y2201D01*
X652Y2201D02*
X672Y2201D01*
X690Y2201D02*
X700Y2201D01*
X744Y2201D02*
X753Y2201D01*
X816Y2201D02*
X825Y2201D01*
X870Y2201D02*
X879Y2201D01*
X910Y2201D02*
X914Y2201D01*
X1012Y2201D02*
X1021Y2201D01*
X1035Y2201D02*
X1039Y2201D01*
X1052Y2201D02*
X1061Y2201D01*
X1122Y2201D02*
X1132Y2201D01*
X1156Y2201D02*
X1165Y2201D01*
X1178Y2201D02*
X1193Y2201D01*
X1229Y2201D02*
X1240Y2201D01*
X1266Y2201D02*
X1276Y2201D01*
X1300Y2201D02*
X1322Y2201D01*
X1340Y2201D02*
X1349Y2201D01*
X1459Y2201D02*
X1471Y2201D01*
X1516Y2201D02*
X1532Y2201D01*
X1551Y2201D02*
X1563Y2201D01*
X1626Y2201D02*
X1636Y2201D01*
X1663Y2201D02*
X1677Y2201D01*
X1733Y2201D02*
X1744Y2201D01*
X1770Y2201D02*
X1780Y2201D01*
X1879Y2201D02*
X1923Y2201D01*
X2020Y2201D02*
X2029Y2201D01*
X2040Y2201D02*
X2049Y2201D01*
X2060Y2201D02*
X2069Y2201D01*
X2093Y2201D02*
X2104Y2201D01*
X2130Y2201D02*
X2140Y2201D01*
X2202Y2201D02*
X2212Y2201D01*
X2246Y2201D02*
X2255Y2201D01*
X2308Y2201D02*
X2328Y2201D01*
X2346Y2201D02*
X2356Y2201D01*
X2381Y2201D02*
X2392Y2201D01*
X2418Y2201D02*
X2428Y2201D01*
X2452Y2201D02*
X2474Y2201D01*
X2492Y2201D02*
X2501Y2201D01*
X2596Y2201D02*
X2633Y2201D01*
X2669Y2201D02*
X2680Y2201D01*
X2706Y2201D02*
X2716Y2201D01*
X2740Y2201D02*
X2762Y2201D01*
X2780Y2201D02*
X2789Y2201D01*
X2813Y2201D02*
X2824Y2201D01*
X2850Y2201D02*
X2860Y2201D01*
X2887Y2201D02*
X2901Y2201D01*
X2994Y2201D02*
X3004Y2201D01*
X3030Y2201D02*
X3039Y2201D01*
X3070Y2201D02*
X3074Y2201D01*
X3110Y2201D02*
X3119Y2201D01*
X3173Y2201D02*
X3184Y2201D01*
X3210Y2201D02*
X3220Y2201D01*
X3244Y2201D02*
X3266Y2201D01*
X3284Y2201D02*
X3293Y2201D01*
X580Y2200D02*
X589Y2200D01*
X619Y2200D02*
X629Y2200D01*
X652Y2200D02*
X671Y2200D01*
X691Y2200D02*
X700Y2200D01*
X744Y2200D02*
X753Y2200D01*
X816Y2200D02*
X825Y2200D01*
X870Y2200D02*
X879Y2200D01*
X1012Y2200D02*
X1021Y2200D01*
X1052Y2200D02*
X1061Y2200D01*
X1122Y2200D02*
X1132Y2200D01*
X1156Y2200D02*
X1165Y2200D01*
X1177Y2200D02*
X1192Y2200D01*
X1229Y2200D02*
X1239Y2200D01*
X1267Y2200D02*
X1277Y2200D01*
X1300Y2200D02*
X1321Y2200D01*
X1340Y2200D02*
X1349Y2200D01*
X1460Y2200D02*
X1472Y2200D01*
X1516Y2200D02*
X1531Y2200D01*
X1552Y2200D02*
X1564Y2200D01*
X1626Y2200D02*
X1636Y2200D01*
X1663Y2200D02*
X1676Y2200D01*
X1733Y2200D02*
X1743Y2200D01*
X1771Y2200D02*
X1781Y2200D01*
X1878Y2200D02*
X1924Y2200D01*
X2020Y2200D02*
X2029Y2200D01*
X2040Y2200D02*
X2049Y2200D01*
X2060Y2200D02*
X2069Y2200D01*
X2093Y2200D02*
X2103Y2200D01*
X2131Y2200D02*
X2141Y2200D01*
X2202Y2200D02*
X2212Y2200D01*
X2246Y2200D02*
X2255Y2200D01*
X2308Y2200D02*
X2327Y2200D01*
X2347Y2200D02*
X2356Y2200D01*
X2381Y2200D02*
X2391Y2200D01*
X2419Y2200D02*
X2429Y2200D01*
X2452Y2200D02*
X2473Y2200D01*
X2492Y2200D02*
X2501Y2200D01*
X2596Y2200D02*
X2606Y2200D01*
X2669Y2200D02*
X2679Y2200D01*
X2707Y2200D02*
X2717Y2200D01*
X2740Y2200D02*
X2761Y2200D01*
X2780Y2200D02*
X2789Y2200D01*
X2813Y2200D02*
X2823Y2200D01*
X2851Y2200D02*
X2861Y2200D01*
X2887Y2200D02*
X2900Y2200D01*
X2994Y2200D02*
X3004Y2200D01*
X3030Y2200D02*
X3039Y2200D01*
X3110Y2200D02*
X3119Y2200D01*
X3173Y2200D02*
X3183Y2200D01*
X3211Y2200D02*
X3221Y2200D01*
X3244Y2200D02*
X3265Y2200D01*
X3284Y2200D02*
X3293Y2200D01*
X580Y2199D02*
X589Y2199D01*
X618Y2199D02*
X629Y2199D01*
X652Y2199D02*
X669Y2199D01*
X691Y2199D02*
X700Y2199D01*
X744Y2199D02*
X753Y2199D01*
X816Y2199D02*
X825Y2199D01*
X870Y2199D02*
X880Y2199D01*
X1012Y2199D02*
X1021Y2199D01*
X1052Y2199D02*
X1061Y2199D01*
X1123Y2199D02*
X1132Y2199D01*
X1156Y2199D02*
X1165Y2199D01*
X1176Y2199D02*
X1191Y2199D01*
X1229Y2199D02*
X1238Y2199D01*
X1267Y2199D02*
X1277Y2199D01*
X1300Y2199D02*
X1320Y2199D01*
X1340Y2199D02*
X1349Y2199D01*
X1461Y2199D02*
X1473Y2199D01*
X1516Y2199D02*
X1530Y2199D01*
X1553Y2199D02*
X1564Y2199D01*
X1627Y2199D02*
X1636Y2199D01*
X1662Y2199D02*
X1675Y2199D01*
X1733Y2199D02*
X1742Y2199D01*
X1771Y2199D02*
X1781Y2199D01*
X1877Y2199D02*
X1925Y2199D01*
X2020Y2199D02*
X2029Y2199D01*
X2040Y2199D02*
X2049Y2199D01*
X2060Y2199D02*
X2069Y2199D01*
X2093Y2199D02*
X2102Y2199D01*
X2131Y2199D02*
X2141Y2199D01*
X2203Y2199D02*
X2212Y2199D01*
X2246Y2199D02*
X2255Y2199D01*
X2308Y2199D02*
X2325Y2199D01*
X2347Y2199D02*
X2356Y2199D01*
X2381Y2199D02*
X2390Y2199D01*
X2419Y2199D02*
X2429Y2199D01*
X2452Y2199D02*
X2472Y2199D01*
X2492Y2199D02*
X2501Y2199D01*
X2596Y2199D02*
X2605Y2199D01*
X2669Y2199D02*
X2678Y2199D01*
X2707Y2199D02*
X2717Y2199D01*
X2740Y2199D02*
X2760Y2199D01*
X2780Y2199D02*
X2789Y2199D01*
X2813Y2199D02*
X2822Y2199D01*
X2851Y2199D02*
X2861Y2199D01*
X2886Y2199D02*
X2899Y2199D01*
X2995Y2199D02*
X3004Y2199D01*
X3030Y2199D02*
X3040Y2199D01*
X3110Y2199D02*
X3119Y2199D01*
X3173Y2199D02*
X3182Y2199D01*
X3211Y2199D02*
X3221Y2199D01*
X3244Y2199D02*
X3264Y2199D01*
X3284Y2199D02*
X3293Y2199D01*
X580Y2198D02*
X589Y2198D01*
X617Y2198D02*
X628Y2198D01*
X652Y2198D02*
X668Y2198D01*
X691Y2198D02*
X700Y2198D01*
X744Y2198D02*
X753Y2198D01*
X816Y2198D02*
X825Y2198D01*
X870Y2198D02*
X883Y2198D01*
X1012Y2198D02*
X1021Y2198D01*
X1052Y2198D02*
X1061Y2198D01*
X1123Y2198D02*
X1132Y2198D01*
X1156Y2198D02*
X1165Y2198D01*
X1175Y2198D02*
X1189Y2198D01*
X1228Y2198D02*
X1238Y2198D01*
X1268Y2198D02*
X1277Y2198D01*
X1300Y2198D02*
X1319Y2198D01*
X1340Y2198D02*
X1349Y2198D01*
X1462Y2198D02*
X1474Y2198D01*
X1516Y2198D02*
X1529Y2198D01*
X1554Y2198D02*
X1565Y2198D01*
X1627Y2198D02*
X1636Y2198D01*
X1661Y2198D02*
X1674Y2198D01*
X1732Y2198D02*
X1742Y2198D01*
X1772Y2198D02*
X1781Y2198D01*
X1877Y2198D02*
X1925Y2198D01*
X2020Y2198D02*
X2029Y2198D01*
X2040Y2198D02*
X2049Y2198D01*
X2060Y2198D02*
X2069Y2198D01*
X2092Y2198D02*
X2102Y2198D01*
X2132Y2198D02*
X2141Y2198D01*
X2203Y2198D02*
X2212Y2198D01*
X2246Y2198D02*
X2255Y2198D01*
X2308Y2198D02*
X2324Y2198D01*
X2347Y2198D02*
X2356Y2198D01*
X2380Y2198D02*
X2390Y2198D01*
X2420Y2198D02*
X2429Y2198D01*
X2452Y2198D02*
X2471Y2198D01*
X2492Y2198D02*
X2501Y2198D01*
X2596Y2198D02*
X2605Y2198D01*
X2668Y2198D02*
X2678Y2198D01*
X2708Y2198D02*
X2717Y2198D01*
X2740Y2198D02*
X2759Y2198D01*
X2780Y2198D02*
X2789Y2198D01*
X2812Y2198D02*
X2822Y2198D01*
X2852Y2198D02*
X2861Y2198D01*
X2885Y2198D02*
X2898Y2198D01*
X2995Y2198D02*
X3004Y2198D01*
X3030Y2198D02*
X3043Y2198D01*
X3110Y2198D02*
X3119Y2198D01*
X3172Y2198D02*
X3182Y2198D01*
X3212Y2198D02*
X3221Y2198D01*
X3244Y2198D02*
X3262Y2198D01*
X3284Y2198D02*
X3293Y2198D01*
X580Y2197D02*
X628Y2197D01*
X652Y2197D02*
X666Y2197D01*
X691Y2197D02*
X700Y2197D01*
X744Y2197D02*
X753Y2197D01*
X816Y2197D02*
X825Y2197D01*
X870Y2197D02*
X885Y2197D01*
X1012Y2197D02*
X1021Y2197D01*
X1052Y2197D02*
X1061Y2197D01*
X1123Y2197D02*
X1132Y2197D01*
X1156Y2197D02*
X1165Y2197D01*
X1174Y2197D02*
X1188Y2197D01*
X1228Y2197D02*
X1237Y2197D01*
X1268Y2197D02*
X1277Y2197D01*
X1300Y2197D02*
X1317Y2197D01*
X1340Y2197D02*
X1349Y2197D01*
X1462Y2197D02*
X1474Y2197D01*
X1516Y2197D02*
X1528Y2197D01*
X1555Y2197D02*
X1565Y2197D01*
X1627Y2197D02*
X1636Y2197D01*
X1661Y2197D02*
X1672Y2197D01*
X1732Y2197D02*
X1741Y2197D01*
X1772Y2197D02*
X1781Y2197D01*
X1876Y2197D02*
X1925Y2197D01*
X2020Y2197D02*
X2029Y2197D01*
X2040Y2197D02*
X2049Y2197D01*
X2060Y2197D02*
X2069Y2197D01*
X2092Y2197D02*
X2101Y2197D01*
X2132Y2197D02*
X2141Y2197D01*
X2203Y2197D02*
X2212Y2197D01*
X2246Y2197D02*
X2255Y2197D01*
X2308Y2197D02*
X2322Y2197D01*
X2347Y2197D02*
X2356Y2197D01*
X2380Y2197D02*
X2389Y2197D01*
X2420Y2197D02*
X2429Y2197D01*
X2452Y2197D02*
X2469Y2197D01*
X2492Y2197D02*
X2501Y2197D01*
X2596Y2197D02*
X2605Y2197D01*
X2668Y2197D02*
X2677Y2197D01*
X2708Y2197D02*
X2717Y2197D01*
X2740Y2197D02*
X2757Y2197D01*
X2780Y2197D02*
X2789Y2197D01*
X2812Y2197D02*
X2821Y2197D01*
X2852Y2197D02*
X2861Y2197D01*
X2885Y2197D02*
X2896Y2197D01*
X2995Y2197D02*
X3004Y2197D01*
X3030Y2197D02*
X3045Y2197D01*
X3110Y2197D02*
X3119Y2197D01*
X3172Y2197D02*
X3181Y2197D01*
X3212Y2197D02*
X3221Y2197D01*
X3244Y2197D02*
X3261Y2197D01*
X3284Y2197D02*
X3293Y2197D01*
X580Y2196D02*
X627Y2196D01*
X652Y2196D02*
X665Y2196D01*
X691Y2196D02*
X700Y2196D01*
X744Y2196D02*
X753Y2196D01*
X816Y2196D02*
X825Y2196D01*
X871Y2196D02*
X887Y2196D01*
X1012Y2196D02*
X1021Y2196D01*
X1052Y2196D02*
X1061Y2196D01*
X1123Y2196D02*
X1132Y2196D01*
X1156Y2196D02*
X1165Y2196D01*
X1172Y2196D02*
X1187Y2196D01*
X1228Y2196D02*
X1237Y2196D01*
X1268Y2196D02*
X1277Y2196D01*
X1300Y2196D02*
X1316Y2196D01*
X1340Y2196D02*
X1349Y2196D01*
X1463Y2196D02*
X1475Y2196D01*
X1516Y2196D02*
X1527Y2196D01*
X1556Y2196D02*
X1565Y2196D01*
X1627Y2196D02*
X1636Y2196D01*
X1661Y2196D02*
X1671Y2196D01*
X1732Y2196D02*
X1741Y2196D01*
X1772Y2196D02*
X1781Y2196D01*
X1876Y2196D02*
X1925Y2196D01*
X2020Y2196D02*
X2029Y2196D01*
X2040Y2196D02*
X2049Y2196D01*
X2060Y2196D02*
X2069Y2196D01*
X2092Y2196D02*
X2101Y2196D01*
X2132Y2196D02*
X2141Y2196D01*
X2203Y2196D02*
X2212Y2196D01*
X2246Y2196D02*
X2255Y2196D01*
X2308Y2196D02*
X2321Y2196D01*
X2347Y2196D02*
X2356Y2196D01*
X2380Y2196D02*
X2389Y2196D01*
X2420Y2196D02*
X2429Y2196D01*
X2452Y2196D02*
X2468Y2196D01*
X2492Y2196D02*
X2501Y2196D01*
X2596Y2196D02*
X2605Y2196D01*
X2668Y2196D02*
X2677Y2196D01*
X2708Y2196D02*
X2717Y2196D01*
X2740Y2196D02*
X2756Y2196D01*
X2780Y2196D02*
X2789Y2196D01*
X2812Y2196D02*
X2821Y2196D01*
X2852Y2196D02*
X2861Y2196D01*
X2885Y2196D02*
X2895Y2196D01*
X2995Y2196D02*
X3004Y2196D01*
X3031Y2196D02*
X3047Y2196D01*
X3110Y2196D02*
X3119Y2196D01*
X3172Y2196D02*
X3181Y2196D01*
X3212Y2196D02*
X3221Y2196D01*
X3244Y2196D02*
X3260Y2196D01*
X3284Y2196D02*
X3293Y2196D01*
X580Y2195D02*
X627Y2195D01*
X652Y2195D02*
X663Y2195D01*
X691Y2195D02*
X700Y2195D01*
X744Y2195D02*
X753Y2195D01*
X816Y2195D02*
X825Y2195D01*
X871Y2195D02*
X890Y2195D01*
X1012Y2195D02*
X1021Y2195D01*
X1052Y2195D02*
X1061Y2195D01*
X1123Y2195D02*
X1132Y2195D01*
X1156Y2195D02*
X1165Y2195D01*
X1171Y2195D02*
X1186Y2195D01*
X1228Y2195D02*
X1237Y2195D01*
X1268Y2195D02*
X1277Y2195D01*
X1300Y2195D02*
X1315Y2195D01*
X1340Y2195D02*
X1349Y2195D01*
X1464Y2195D02*
X1476Y2195D01*
X1516Y2195D02*
X1526Y2195D01*
X1556Y2195D02*
X1565Y2195D01*
X1627Y2195D02*
X1636Y2195D01*
X1661Y2195D02*
X1670Y2195D01*
X1732Y2195D02*
X1741Y2195D01*
X1772Y2195D02*
X1781Y2195D01*
X1876Y2195D02*
X1925Y2195D01*
X2020Y2195D02*
X2029Y2195D01*
X2040Y2195D02*
X2049Y2195D01*
X2060Y2195D02*
X2069Y2195D01*
X2092Y2195D02*
X2101Y2195D01*
X2132Y2195D02*
X2141Y2195D01*
X2203Y2195D02*
X2212Y2195D01*
X2246Y2195D02*
X2255Y2195D01*
X2308Y2195D02*
X2319Y2195D01*
X2347Y2195D02*
X2356Y2195D01*
X2380Y2195D02*
X2389Y2195D01*
X2420Y2195D02*
X2429Y2195D01*
X2452Y2195D02*
X2467Y2195D01*
X2492Y2195D02*
X2501Y2195D01*
X2596Y2195D02*
X2605Y2195D01*
X2668Y2195D02*
X2677Y2195D01*
X2708Y2195D02*
X2717Y2195D01*
X2740Y2195D02*
X2755Y2195D01*
X2780Y2195D02*
X2789Y2195D01*
X2812Y2195D02*
X2821Y2195D01*
X2852Y2195D02*
X2861Y2195D01*
X2885Y2195D02*
X2894Y2195D01*
X2995Y2195D02*
X3004Y2195D01*
X3031Y2195D02*
X3050Y2195D01*
X3110Y2195D02*
X3119Y2195D01*
X3172Y2195D02*
X3181Y2195D01*
X3212Y2195D02*
X3221Y2195D01*
X3244Y2195D02*
X3259Y2195D01*
X3284Y2195D02*
X3293Y2195D01*
X580Y2194D02*
X626Y2194D01*
X652Y2194D02*
X662Y2194D01*
X691Y2194D02*
X700Y2194D01*
X744Y2194D02*
X753Y2194D01*
X816Y2194D02*
X825Y2194D01*
X872Y2194D02*
X892Y2194D01*
X1012Y2194D02*
X1021Y2194D01*
X1052Y2194D02*
X1061Y2194D01*
X1123Y2194D02*
X1132Y2194D01*
X1156Y2194D02*
X1165Y2194D01*
X1170Y2194D02*
X1185Y2194D01*
X1228Y2194D02*
X1237Y2194D01*
X1268Y2194D02*
X1277Y2194D01*
X1300Y2194D02*
X1314Y2194D01*
X1341Y2194D02*
X1348Y2194D01*
X1465Y2194D02*
X1477Y2194D01*
X1516Y2194D02*
X1526Y2194D01*
X1556Y2194D02*
X1565Y2194D01*
X1627Y2194D02*
X1636Y2194D01*
X1660Y2194D02*
X1670Y2194D01*
X1732Y2194D02*
X1741Y2194D01*
X1772Y2194D02*
X1781Y2194D01*
X1876Y2194D02*
X1925Y2194D01*
X2020Y2194D02*
X2029Y2194D01*
X2040Y2194D02*
X2049Y2194D01*
X2060Y2194D02*
X2069Y2194D01*
X2092Y2194D02*
X2101Y2194D01*
X2132Y2194D02*
X2141Y2194D01*
X2203Y2194D02*
X2212Y2194D01*
X2246Y2194D02*
X2255Y2194D01*
X2308Y2194D02*
X2318Y2194D01*
X2347Y2194D02*
X2356Y2194D01*
X2380Y2194D02*
X2389Y2194D01*
X2420Y2194D02*
X2429Y2194D01*
X2452Y2194D02*
X2466Y2194D01*
X2493Y2194D02*
X2500Y2194D01*
X2596Y2194D02*
X2605Y2194D01*
X2668Y2194D02*
X2677Y2194D01*
X2708Y2194D02*
X2717Y2194D01*
X2740Y2194D02*
X2754Y2194D01*
X2781Y2194D02*
X2788Y2194D01*
X2812Y2194D02*
X2821Y2194D01*
X2852Y2194D02*
X2861Y2194D01*
X2884Y2194D02*
X2894Y2194D01*
X2995Y2194D02*
X3004Y2194D01*
X3032Y2194D02*
X3052Y2194D01*
X3110Y2194D02*
X3119Y2194D01*
X3172Y2194D02*
X3181Y2194D01*
X3212Y2194D02*
X3221Y2194D01*
X3244Y2194D02*
X3258Y2194D01*
X3285Y2194D02*
X3292Y2194D01*
X580Y2193D02*
X625Y2193D01*
X652Y2193D02*
X661Y2193D01*
X691Y2193D02*
X700Y2193D01*
X744Y2193D02*
X753Y2193D01*
X816Y2193D02*
X825Y2193D01*
X873Y2193D02*
X894Y2193D01*
X1012Y2193D02*
X1021Y2193D01*
X1052Y2193D02*
X1061Y2193D01*
X1096Y2193D02*
X1121Y2193D01*
X1123Y2193D02*
X1132Y2193D01*
X1156Y2193D02*
X1165Y2193D01*
X1169Y2193D02*
X1184Y2193D01*
X1228Y2193D02*
X1237Y2193D01*
X1268Y2193D02*
X1277Y2193D01*
X1300Y2193D02*
X1313Y2193D01*
X1342Y2193D02*
X1347Y2193D01*
X1465Y2193D02*
X1477Y2193D01*
X1516Y2193D02*
X1525Y2193D01*
X1556Y2193D02*
X1565Y2193D01*
X1600Y2193D02*
X1625Y2193D01*
X1627Y2193D02*
X1636Y2193D01*
X1660Y2193D02*
X1669Y2193D01*
X1732Y2193D02*
X1741Y2193D01*
X1772Y2193D02*
X1781Y2193D01*
X1876Y2193D02*
X1925Y2193D01*
X2020Y2193D02*
X2029Y2193D01*
X2040Y2193D02*
X2049Y2193D01*
X2060Y2193D02*
X2069Y2193D01*
X2092Y2193D02*
X2101Y2193D01*
X2132Y2193D02*
X2141Y2193D01*
X2176Y2193D02*
X2201Y2193D01*
X2203Y2193D02*
X2212Y2193D01*
X2246Y2193D02*
X2255Y2193D01*
X2308Y2193D02*
X2317Y2193D01*
X2347Y2193D02*
X2356Y2193D01*
X2380Y2193D02*
X2389Y2193D01*
X2420Y2193D02*
X2429Y2193D01*
X2452Y2193D02*
X2465Y2193D01*
X2494Y2193D02*
X2499Y2193D01*
X2596Y2193D02*
X2605Y2193D01*
X2668Y2193D02*
X2677Y2193D01*
X2708Y2193D02*
X2717Y2193D01*
X2740Y2193D02*
X2753Y2193D01*
X2782Y2193D02*
X2787Y2193D01*
X2812Y2193D02*
X2821Y2193D01*
X2852Y2193D02*
X2861Y2193D01*
X2884Y2193D02*
X2893Y2193D01*
X2968Y2193D02*
X2993Y2193D01*
X2995Y2193D02*
X3004Y2193D01*
X3033Y2193D02*
X3054Y2193D01*
X3110Y2193D02*
X3119Y2193D01*
X3172Y2193D02*
X3181Y2193D01*
X3212Y2193D02*
X3221Y2193D01*
X3244Y2193D02*
X3257Y2193D01*
X3286Y2193D02*
X3291Y2193D01*
X580Y2192D02*
X625Y2192D01*
X652Y2192D02*
X661Y2192D01*
X691Y2192D02*
X700Y2192D01*
X744Y2192D02*
X753Y2192D01*
X816Y2192D02*
X825Y2192D01*
X874Y2192D02*
X897Y2192D01*
X1012Y2192D02*
X1021Y2192D01*
X1052Y2192D02*
X1061Y2192D01*
X1093Y2192D02*
X1132Y2192D01*
X1156Y2192D02*
X1165Y2192D01*
X1168Y2192D02*
X1182Y2192D01*
X1228Y2192D02*
X1237Y2192D01*
X1268Y2192D02*
X1277Y2192D01*
X1300Y2192D02*
X1312Y2192D01*
X1344Y2192D02*
X1345Y2192D01*
X1466Y2192D02*
X1478Y2192D01*
X1516Y2192D02*
X1525Y2192D01*
X1556Y2192D02*
X1565Y2192D01*
X1597Y2192D02*
X1636Y2192D01*
X1660Y2192D02*
X1669Y2192D01*
X1732Y2192D02*
X1741Y2192D01*
X1772Y2192D02*
X1781Y2192D01*
X1876Y2192D02*
X1925Y2192D01*
X2020Y2192D02*
X2029Y2192D01*
X2040Y2192D02*
X2049Y2192D01*
X2060Y2192D02*
X2069Y2192D01*
X2092Y2192D02*
X2101Y2192D01*
X2132Y2192D02*
X2141Y2192D01*
X2173Y2192D02*
X2212Y2192D01*
X2246Y2192D02*
X2255Y2192D01*
X2308Y2192D02*
X2317Y2192D01*
X2347Y2192D02*
X2356Y2192D01*
X2380Y2192D02*
X2389Y2192D01*
X2420Y2192D02*
X2429Y2192D01*
X2452Y2192D02*
X2464Y2192D01*
X2496Y2192D02*
X2497Y2192D01*
X2596Y2192D02*
X2605Y2192D01*
X2668Y2192D02*
X2677Y2192D01*
X2708Y2192D02*
X2717Y2192D01*
X2740Y2192D02*
X2752Y2192D01*
X2784Y2192D02*
X2785Y2192D01*
X2812Y2192D02*
X2821Y2192D01*
X2852Y2192D02*
X2861Y2192D01*
X2884Y2192D02*
X2893Y2192D01*
X2965Y2192D02*
X3004Y2192D01*
X3034Y2192D02*
X3057Y2192D01*
X3110Y2192D02*
X3119Y2192D01*
X3172Y2192D02*
X3181Y2192D01*
X3212Y2192D02*
X3221Y2192D01*
X3244Y2192D02*
X3256Y2192D01*
X3288Y2192D02*
X3289Y2192D01*
X580Y2191D02*
X623Y2191D01*
X652Y2191D02*
X661Y2191D01*
X691Y2191D02*
X700Y2191D01*
X744Y2191D02*
X753Y2191D01*
X816Y2191D02*
X825Y2191D01*
X875Y2191D02*
X899Y2191D01*
X1012Y2191D02*
X1021Y2191D01*
X1052Y2191D02*
X1061Y2191D01*
X1091Y2191D02*
X1132Y2191D01*
X1156Y2191D02*
X1181Y2191D01*
X1228Y2191D02*
X1237Y2191D01*
X1268Y2191D02*
X1277Y2191D01*
X1300Y2191D02*
X1310Y2191D01*
X1467Y2191D02*
X1479Y2191D01*
X1516Y2191D02*
X1525Y2191D01*
X1556Y2191D02*
X1565Y2191D01*
X1595Y2191D02*
X1636Y2191D01*
X1660Y2191D02*
X1669Y2191D01*
X1732Y2191D02*
X1741Y2191D01*
X1772Y2191D02*
X1781Y2191D01*
X1877Y2191D02*
X1925Y2191D01*
X2020Y2191D02*
X2029Y2191D01*
X2040Y2191D02*
X2049Y2191D01*
X2060Y2191D02*
X2069Y2191D01*
X2092Y2191D02*
X2101Y2191D01*
X2132Y2191D02*
X2141Y2191D01*
X2171Y2191D02*
X2212Y2191D01*
X2246Y2191D02*
X2255Y2191D01*
X2308Y2191D02*
X2317Y2191D01*
X2347Y2191D02*
X2356Y2191D01*
X2380Y2191D02*
X2389Y2191D01*
X2420Y2191D02*
X2429Y2191D01*
X2452Y2191D02*
X2462Y2191D01*
X2596Y2191D02*
X2605Y2191D01*
X2668Y2191D02*
X2677Y2191D01*
X2708Y2191D02*
X2717Y2191D01*
X2740Y2191D02*
X2750Y2191D01*
X2812Y2191D02*
X2821Y2191D01*
X2852Y2191D02*
X2861Y2191D01*
X2884Y2191D02*
X2893Y2191D01*
X2963Y2191D02*
X3004Y2191D01*
X3035Y2191D02*
X3059Y2191D01*
X3110Y2191D02*
X3119Y2191D01*
X3172Y2191D02*
X3181Y2191D01*
X3212Y2191D02*
X3221Y2191D01*
X3244Y2191D02*
X3254Y2191D01*
X580Y2190D02*
X622Y2190D01*
X652Y2190D02*
X661Y2190D01*
X691Y2190D02*
X700Y2190D01*
X744Y2190D02*
X753Y2190D01*
X816Y2190D02*
X825Y2190D01*
X877Y2190D02*
X901Y2190D01*
X1012Y2190D02*
X1021Y2190D01*
X1052Y2190D02*
X1061Y2190D01*
X1090Y2190D02*
X1132Y2190D01*
X1156Y2190D02*
X1180Y2190D01*
X1228Y2190D02*
X1237Y2190D01*
X1268Y2190D02*
X1277Y2190D01*
X1300Y2190D02*
X1309Y2190D01*
X1468Y2190D02*
X1480Y2190D01*
X1516Y2190D02*
X1525Y2190D01*
X1556Y2190D02*
X1565Y2190D01*
X1594Y2190D02*
X1636Y2190D01*
X1660Y2190D02*
X1669Y2190D01*
X1732Y2190D02*
X1741Y2190D01*
X1772Y2190D02*
X1781Y2190D01*
X1877Y2190D02*
X1924Y2190D01*
X2020Y2190D02*
X2029Y2190D01*
X2040Y2190D02*
X2049Y2190D01*
X2060Y2190D02*
X2069Y2190D01*
X2092Y2190D02*
X2101Y2190D01*
X2132Y2190D02*
X2141Y2190D01*
X2170Y2190D02*
X2212Y2190D01*
X2246Y2190D02*
X2255Y2190D01*
X2308Y2190D02*
X2317Y2190D01*
X2347Y2190D02*
X2356Y2190D01*
X2380Y2190D02*
X2389Y2190D01*
X2420Y2190D02*
X2429Y2190D01*
X2452Y2190D02*
X2461Y2190D01*
X2596Y2190D02*
X2605Y2190D01*
X2668Y2190D02*
X2677Y2190D01*
X2708Y2190D02*
X2717Y2190D01*
X2740Y2190D02*
X2749Y2190D01*
X2812Y2190D02*
X2821Y2190D01*
X2852Y2190D02*
X2861Y2190D01*
X2884Y2190D02*
X2893Y2190D01*
X2962Y2190D02*
X3004Y2190D01*
X3037Y2190D02*
X3061Y2190D01*
X3110Y2190D02*
X3119Y2190D01*
X3172Y2190D02*
X3181Y2190D01*
X3212Y2190D02*
X3221Y2190D01*
X3244Y2190D02*
X3253Y2190D01*
X580Y2189D02*
X620Y2189D01*
X652Y2189D02*
X661Y2189D01*
X691Y2189D02*
X700Y2189D01*
X744Y2189D02*
X753Y2189D01*
X816Y2189D02*
X825Y2189D01*
X879Y2189D02*
X904Y2189D01*
X1012Y2189D02*
X1021Y2189D01*
X1052Y2189D02*
X1061Y2189D01*
X1089Y2189D02*
X1132Y2189D01*
X1156Y2189D02*
X1179Y2189D01*
X1228Y2189D02*
X1277Y2189D01*
X1300Y2189D02*
X1309Y2189D01*
X1469Y2189D02*
X1481Y2189D01*
X1516Y2189D02*
X1525Y2189D01*
X1556Y2189D02*
X1565Y2189D01*
X1593Y2189D02*
X1636Y2189D01*
X1660Y2189D02*
X1669Y2189D01*
X1732Y2189D02*
X1781Y2189D01*
X1878Y2189D02*
X1924Y2189D01*
X2020Y2189D02*
X2029Y2189D01*
X2040Y2189D02*
X2049Y2189D01*
X2060Y2189D02*
X2069Y2189D01*
X2092Y2189D02*
X2141Y2189D01*
X2169Y2189D02*
X2212Y2189D01*
X2246Y2189D02*
X2255Y2189D01*
X2308Y2189D02*
X2317Y2189D01*
X2347Y2189D02*
X2356Y2189D01*
X2380Y2189D02*
X2429Y2189D01*
X2452Y2189D02*
X2461Y2189D01*
X2596Y2189D02*
X2605Y2189D01*
X2668Y2189D02*
X2677Y2189D01*
X2708Y2189D02*
X2717Y2189D01*
X2740Y2189D02*
X2749Y2189D01*
X2812Y2189D02*
X2861Y2189D01*
X2884Y2189D02*
X2893Y2189D01*
X2961Y2189D02*
X3004Y2189D01*
X3039Y2189D02*
X3064Y2189D01*
X3110Y2189D02*
X3119Y2189D01*
X3172Y2189D02*
X3221Y2189D01*
X3244Y2189D02*
X3253Y2189D01*
X580Y2188D02*
X618Y2188D01*
X652Y2188D02*
X661Y2188D01*
X691Y2188D02*
X700Y2188D01*
X744Y2188D02*
X753Y2188D01*
X816Y2188D02*
X825Y2188D01*
X882Y2188D02*
X906Y2188D01*
X1012Y2188D02*
X1021Y2188D01*
X1052Y2188D02*
X1061Y2188D01*
X1088Y2188D02*
X1132Y2188D01*
X1156Y2188D02*
X1178Y2188D01*
X1228Y2188D02*
X1277Y2188D01*
X1300Y2188D02*
X1309Y2188D01*
X1469Y2188D02*
X1481Y2188D01*
X1516Y2188D02*
X1525Y2188D01*
X1556Y2188D02*
X1565Y2188D01*
X1592Y2188D02*
X1636Y2188D01*
X1660Y2188D02*
X1669Y2188D01*
X1732Y2188D02*
X1781Y2188D01*
X1879Y2188D02*
X1922Y2188D01*
X2020Y2188D02*
X2029Y2188D01*
X2040Y2188D02*
X2049Y2188D01*
X2060Y2188D02*
X2069Y2188D01*
X2092Y2188D02*
X2141Y2188D01*
X2168Y2188D02*
X2212Y2188D01*
X2246Y2188D02*
X2255Y2188D01*
X2308Y2188D02*
X2317Y2188D01*
X2347Y2188D02*
X2356Y2188D01*
X2380Y2188D02*
X2429Y2188D01*
X2452Y2188D02*
X2461Y2188D01*
X2596Y2188D02*
X2605Y2188D01*
X2668Y2188D02*
X2677Y2188D01*
X2708Y2188D02*
X2717Y2188D01*
X2740Y2188D02*
X2749Y2188D01*
X2812Y2188D02*
X2861Y2188D01*
X2884Y2188D02*
X2893Y2188D01*
X2960Y2188D02*
X3004Y2188D01*
X3042Y2188D02*
X3066Y2188D01*
X3110Y2188D02*
X3119Y2188D01*
X3172Y2188D02*
X3221Y2188D01*
X3244Y2188D02*
X3253Y2188D01*
X580Y2187D02*
X589Y2187D01*
X652Y2187D02*
X661Y2187D01*
X691Y2187D02*
X700Y2187D01*
X744Y2187D02*
X753Y2187D01*
X816Y2187D02*
X825Y2187D01*
X884Y2187D02*
X908Y2187D01*
X1012Y2187D02*
X1021Y2187D01*
X1052Y2187D02*
X1061Y2187D01*
X1087Y2187D02*
X1132Y2187D01*
X1156Y2187D02*
X1179Y2187D01*
X1228Y2187D02*
X1277Y2187D01*
X1300Y2187D02*
X1309Y2187D01*
X1470Y2187D02*
X1482Y2187D01*
X1516Y2187D02*
X1525Y2187D01*
X1556Y2187D02*
X1565Y2187D01*
X1591Y2187D02*
X1636Y2187D01*
X1660Y2187D02*
X1669Y2187D01*
X1732Y2187D02*
X1781Y2187D01*
X2020Y2187D02*
X2029Y2187D01*
X2040Y2187D02*
X2049Y2187D01*
X2060Y2187D02*
X2069Y2187D01*
X2092Y2187D02*
X2141Y2187D01*
X2167Y2187D02*
X2212Y2187D01*
X2246Y2187D02*
X2255Y2187D01*
X2308Y2187D02*
X2317Y2187D01*
X2347Y2187D02*
X2356Y2187D01*
X2380Y2187D02*
X2429Y2187D01*
X2452Y2187D02*
X2461Y2187D01*
X2596Y2187D02*
X2605Y2187D01*
X2668Y2187D02*
X2677Y2187D01*
X2708Y2187D02*
X2717Y2187D01*
X2740Y2187D02*
X2749Y2187D01*
X2812Y2187D02*
X2861Y2187D01*
X2884Y2187D02*
X2893Y2187D01*
X2959Y2187D02*
X3004Y2187D01*
X3044Y2187D02*
X3068Y2187D01*
X3110Y2187D02*
X3119Y2187D01*
X3172Y2187D02*
X3221Y2187D01*
X3244Y2187D02*
X3253Y2187D01*
X580Y2186D02*
X589Y2186D01*
X652Y2186D02*
X661Y2186D01*
X691Y2186D02*
X700Y2186D01*
X744Y2186D02*
X753Y2186D01*
X816Y2186D02*
X825Y2186D01*
X886Y2186D02*
X910Y2186D01*
X1012Y2186D02*
X1021Y2186D01*
X1052Y2186D02*
X1061Y2186D01*
X1086Y2186D02*
X1132Y2186D01*
X1156Y2186D02*
X1181Y2186D01*
X1228Y2186D02*
X1277Y2186D01*
X1300Y2186D02*
X1309Y2186D01*
X1471Y2186D02*
X1483Y2186D01*
X1516Y2186D02*
X1525Y2186D01*
X1556Y2186D02*
X1565Y2186D01*
X1590Y2186D02*
X1636Y2186D01*
X1660Y2186D02*
X1669Y2186D01*
X1732Y2186D02*
X1781Y2186D01*
X2020Y2186D02*
X2029Y2186D01*
X2040Y2186D02*
X2049Y2186D01*
X2060Y2186D02*
X2069Y2186D01*
X2092Y2186D02*
X2141Y2186D01*
X2166Y2186D02*
X2212Y2186D01*
X2246Y2186D02*
X2255Y2186D01*
X2308Y2186D02*
X2317Y2186D01*
X2347Y2186D02*
X2356Y2186D01*
X2380Y2186D02*
X2429Y2186D01*
X2452Y2186D02*
X2461Y2186D01*
X2596Y2186D02*
X2605Y2186D01*
X2668Y2186D02*
X2677Y2186D01*
X2708Y2186D02*
X2717Y2186D01*
X2740Y2186D02*
X2749Y2186D01*
X2812Y2186D02*
X2861Y2186D01*
X2884Y2186D02*
X2893Y2186D01*
X2958Y2186D02*
X3004Y2186D01*
X3046Y2186D02*
X3070Y2186D01*
X3110Y2186D02*
X3119Y2186D01*
X3172Y2186D02*
X3221Y2186D01*
X3244Y2186D02*
X3253Y2186D01*
X580Y2185D02*
X589Y2185D01*
X652Y2185D02*
X661Y2185D01*
X691Y2185D02*
X700Y2185D01*
X744Y2185D02*
X753Y2185D01*
X816Y2185D02*
X825Y2185D01*
X889Y2185D02*
X911Y2185D01*
X1012Y2185D02*
X1021Y2185D01*
X1052Y2185D02*
X1061Y2185D01*
X1086Y2185D02*
X1132Y2185D01*
X1156Y2185D02*
X1182Y2185D01*
X1228Y2185D02*
X1277Y2185D01*
X1300Y2185D02*
X1309Y2185D01*
X1472Y2185D02*
X1484Y2185D01*
X1516Y2185D02*
X1525Y2185D01*
X1556Y2185D02*
X1565Y2185D01*
X1590Y2185D02*
X1636Y2185D01*
X1660Y2185D02*
X1669Y2185D01*
X1732Y2185D02*
X1781Y2185D01*
X2020Y2185D02*
X2029Y2185D01*
X2040Y2185D02*
X2049Y2185D01*
X2060Y2185D02*
X2069Y2185D01*
X2092Y2185D02*
X2141Y2185D01*
X2166Y2185D02*
X2212Y2185D01*
X2246Y2185D02*
X2255Y2185D01*
X2308Y2185D02*
X2317Y2185D01*
X2347Y2185D02*
X2356Y2185D01*
X2380Y2185D02*
X2429Y2185D01*
X2452Y2185D02*
X2461Y2185D01*
X2596Y2185D02*
X2605Y2185D01*
X2668Y2185D02*
X2677Y2185D01*
X2708Y2185D02*
X2717Y2185D01*
X2740Y2185D02*
X2749Y2185D01*
X2812Y2185D02*
X2861Y2185D01*
X2884Y2185D02*
X2893Y2185D01*
X2958Y2185D02*
X3004Y2185D01*
X3049Y2185D02*
X3071Y2185D01*
X3110Y2185D02*
X3119Y2185D01*
X3172Y2185D02*
X3221Y2185D01*
X3244Y2185D02*
X3253Y2185D01*
X580Y2184D02*
X589Y2184D01*
X652Y2184D02*
X661Y2184D01*
X691Y2184D02*
X700Y2184D01*
X744Y2184D02*
X753Y2184D01*
X816Y2184D02*
X825Y2184D01*
X891Y2184D02*
X912Y2184D01*
X1012Y2184D02*
X1021Y2184D01*
X1052Y2184D02*
X1061Y2184D01*
X1085Y2184D02*
X1132Y2184D01*
X1156Y2184D02*
X1183Y2184D01*
X1228Y2184D02*
X1277Y2184D01*
X1300Y2184D02*
X1309Y2184D01*
X1472Y2184D02*
X1484Y2184D01*
X1516Y2184D02*
X1525Y2184D01*
X1556Y2184D02*
X1565Y2184D01*
X1589Y2184D02*
X1636Y2184D01*
X1660Y2184D02*
X1669Y2184D01*
X1732Y2184D02*
X1781Y2184D01*
X2020Y2184D02*
X2029Y2184D01*
X2040Y2184D02*
X2049Y2184D01*
X2060Y2184D02*
X2069Y2184D01*
X2092Y2184D02*
X2141Y2184D01*
X2165Y2184D02*
X2212Y2184D01*
X2246Y2184D02*
X2255Y2184D01*
X2308Y2184D02*
X2317Y2184D01*
X2347Y2184D02*
X2356Y2184D01*
X2380Y2184D02*
X2429Y2184D01*
X2452Y2184D02*
X2461Y2184D01*
X2596Y2184D02*
X2605Y2184D01*
X2668Y2184D02*
X2677Y2184D01*
X2708Y2184D02*
X2717Y2184D01*
X2740Y2184D02*
X2749Y2184D01*
X2812Y2184D02*
X2861Y2184D01*
X2884Y2184D02*
X2893Y2184D01*
X2957Y2184D02*
X3004Y2184D01*
X3051Y2184D02*
X3072Y2184D01*
X3110Y2184D02*
X3119Y2184D01*
X3172Y2184D02*
X3221Y2184D01*
X3244Y2184D02*
X3253Y2184D01*
X580Y2183D02*
X589Y2183D01*
X652Y2183D02*
X661Y2183D01*
X691Y2183D02*
X700Y2183D01*
X744Y2183D02*
X753Y2183D01*
X816Y2183D02*
X825Y2183D01*
X893Y2183D02*
X913Y2183D01*
X1012Y2183D02*
X1021Y2183D01*
X1052Y2183D02*
X1061Y2183D01*
X1085Y2183D02*
X1097Y2183D01*
X1120Y2183D02*
X1132Y2183D01*
X1156Y2183D02*
X1184Y2183D01*
X1228Y2183D02*
X1277Y2183D01*
X1300Y2183D02*
X1309Y2183D01*
X1473Y2183D02*
X1485Y2183D01*
X1516Y2183D02*
X1525Y2183D01*
X1556Y2183D02*
X1565Y2183D01*
X1589Y2183D02*
X1601Y2183D01*
X1624Y2183D02*
X1636Y2183D01*
X1660Y2183D02*
X1669Y2183D01*
X1732Y2183D02*
X1781Y2183D01*
X2020Y2183D02*
X2029Y2183D01*
X2040Y2183D02*
X2049Y2183D01*
X2060Y2183D02*
X2069Y2183D01*
X2092Y2183D02*
X2141Y2183D01*
X2165Y2183D02*
X2177Y2183D01*
X2200Y2183D02*
X2212Y2183D01*
X2246Y2183D02*
X2255Y2183D01*
X2308Y2183D02*
X2317Y2183D01*
X2347Y2183D02*
X2356Y2183D01*
X2380Y2183D02*
X2429Y2183D01*
X2452Y2183D02*
X2461Y2183D01*
X2596Y2183D02*
X2605Y2183D01*
X2668Y2183D02*
X2677Y2183D01*
X2708Y2183D02*
X2717Y2183D01*
X2740Y2183D02*
X2749Y2183D01*
X2812Y2183D02*
X2861Y2183D01*
X2884Y2183D02*
X2893Y2183D01*
X2957Y2183D02*
X2969Y2183D01*
X2992Y2183D02*
X3004Y2183D01*
X3053Y2183D02*
X3073Y2183D01*
X3110Y2183D02*
X3119Y2183D01*
X3172Y2183D02*
X3221Y2183D01*
X3244Y2183D02*
X3253Y2183D01*
X580Y2182D02*
X589Y2182D01*
X652Y2182D02*
X661Y2182D01*
X691Y2182D02*
X700Y2182D01*
X744Y2182D02*
X753Y2182D01*
X816Y2182D02*
X825Y2182D01*
X895Y2182D02*
X914Y2182D01*
X1012Y2182D02*
X1021Y2182D01*
X1052Y2182D02*
X1061Y2182D01*
X1085Y2182D02*
X1095Y2182D01*
X1122Y2182D02*
X1132Y2182D01*
X1156Y2182D02*
X1185Y2182D01*
X1228Y2182D02*
X1277Y2182D01*
X1300Y2182D02*
X1309Y2182D01*
X1474Y2182D02*
X1486Y2182D01*
X1516Y2182D02*
X1525Y2182D01*
X1556Y2182D02*
X1565Y2182D01*
X1589Y2182D02*
X1599Y2182D01*
X1626Y2182D02*
X1636Y2182D01*
X1660Y2182D02*
X1669Y2182D01*
X1732Y2182D02*
X1781Y2182D01*
X2020Y2182D02*
X2029Y2182D01*
X2040Y2182D02*
X2049Y2182D01*
X2060Y2182D02*
X2069Y2182D01*
X2092Y2182D02*
X2141Y2182D01*
X2165Y2182D02*
X2175Y2182D01*
X2202Y2182D02*
X2212Y2182D01*
X2246Y2182D02*
X2255Y2182D01*
X2308Y2182D02*
X2317Y2182D01*
X2347Y2182D02*
X2356Y2182D01*
X2380Y2182D02*
X2429Y2182D01*
X2452Y2182D02*
X2461Y2182D01*
X2596Y2182D02*
X2605Y2182D01*
X2668Y2182D02*
X2677Y2182D01*
X2708Y2182D02*
X2717Y2182D01*
X2740Y2182D02*
X2749Y2182D01*
X2812Y2182D02*
X2861Y2182D01*
X2884Y2182D02*
X2893Y2182D01*
X2957Y2182D02*
X2967Y2182D01*
X2994Y2182D02*
X3004Y2182D01*
X3055Y2182D02*
X3074Y2182D01*
X3110Y2182D02*
X3119Y2182D01*
X3172Y2182D02*
X3221Y2182D01*
X3244Y2182D02*
X3253Y2182D01*
X580Y2181D02*
X589Y2181D01*
X652Y2181D02*
X661Y2181D01*
X691Y2181D02*
X700Y2181D01*
X744Y2181D02*
X753Y2181D01*
X816Y2181D02*
X825Y2181D01*
X898Y2181D02*
X915Y2181D01*
X1012Y2181D02*
X1021Y2181D01*
X1052Y2181D02*
X1061Y2181D01*
X1085Y2181D02*
X1094Y2181D01*
X1122Y2181D02*
X1132Y2181D01*
X1156Y2181D02*
X1169Y2181D01*
X1172Y2181D02*
X1187Y2181D01*
X1228Y2181D02*
X1276Y2181D01*
X1300Y2181D02*
X1309Y2181D01*
X1475Y2181D02*
X1487Y2181D01*
X1516Y2181D02*
X1525Y2181D01*
X1556Y2181D02*
X1565Y2181D01*
X1589Y2181D02*
X1598Y2181D01*
X1626Y2181D02*
X1636Y2181D01*
X1660Y2181D02*
X1669Y2181D01*
X1732Y2181D02*
X1780Y2181D01*
X2020Y2181D02*
X2029Y2181D01*
X2040Y2181D02*
X2049Y2181D01*
X2060Y2181D02*
X2069Y2181D01*
X2092Y2181D02*
X2140Y2181D01*
X2165Y2181D02*
X2174Y2181D01*
X2202Y2181D02*
X2212Y2181D01*
X2246Y2181D02*
X2255Y2181D01*
X2308Y2181D02*
X2317Y2181D01*
X2347Y2181D02*
X2356Y2181D01*
X2380Y2181D02*
X2428Y2181D01*
X2452Y2181D02*
X2461Y2181D01*
X2596Y2181D02*
X2605Y2181D01*
X2668Y2181D02*
X2677Y2181D01*
X2708Y2181D02*
X2717Y2181D01*
X2740Y2181D02*
X2749Y2181D01*
X2812Y2181D02*
X2860Y2181D01*
X2884Y2181D02*
X2893Y2181D01*
X2957Y2181D02*
X2966Y2181D01*
X2994Y2181D02*
X3004Y2181D01*
X3058Y2181D02*
X3075Y2181D01*
X3110Y2181D02*
X3119Y2181D01*
X3172Y2181D02*
X3220Y2181D01*
X3244Y2181D02*
X3253Y2181D01*
X580Y2180D02*
X589Y2180D01*
X652Y2180D02*
X661Y2180D01*
X691Y2180D02*
X700Y2180D01*
X744Y2180D02*
X753Y2180D01*
X816Y2180D02*
X825Y2180D01*
X900Y2180D02*
X915Y2180D01*
X1012Y2180D02*
X1021Y2180D01*
X1052Y2180D02*
X1061Y2180D01*
X1084Y2180D02*
X1094Y2180D01*
X1123Y2180D02*
X1132Y2180D01*
X1156Y2180D02*
X1168Y2180D01*
X1173Y2180D02*
X1188Y2180D01*
X1228Y2180D02*
X1275Y2180D01*
X1300Y2180D02*
X1309Y2180D01*
X1476Y2180D02*
X1488Y2180D01*
X1516Y2180D02*
X1525Y2180D01*
X1556Y2180D02*
X1565Y2180D01*
X1588Y2180D02*
X1598Y2180D01*
X1627Y2180D02*
X1636Y2180D01*
X1660Y2180D02*
X1669Y2180D01*
X1732Y2180D02*
X1779Y2180D01*
X2020Y2180D02*
X2029Y2180D01*
X2040Y2180D02*
X2049Y2180D01*
X2060Y2180D02*
X2069Y2180D01*
X2092Y2180D02*
X2139Y2180D01*
X2164Y2180D02*
X2174Y2180D01*
X2203Y2180D02*
X2212Y2180D01*
X2246Y2180D02*
X2255Y2180D01*
X2308Y2180D02*
X2317Y2180D01*
X2347Y2180D02*
X2356Y2180D01*
X2380Y2180D02*
X2427Y2180D01*
X2452Y2180D02*
X2461Y2180D01*
X2596Y2180D02*
X2605Y2180D01*
X2668Y2180D02*
X2677Y2180D01*
X2708Y2180D02*
X2717Y2180D01*
X2740Y2180D02*
X2749Y2180D01*
X2812Y2180D02*
X2859Y2180D01*
X2884Y2180D02*
X2893Y2180D01*
X2956Y2180D02*
X2966Y2180D01*
X2995Y2180D02*
X3004Y2180D01*
X3060Y2180D02*
X3075Y2180D01*
X3110Y2180D02*
X3119Y2180D01*
X3172Y2180D02*
X3219Y2180D01*
X3244Y2180D02*
X3253Y2180D01*
X580Y2179D02*
X589Y2179D01*
X652Y2179D02*
X661Y2179D01*
X691Y2179D02*
X700Y2179D01*
X744Y2179D02*
X753Y2179D01*
X816Y2179D02*
X825Y2179D01*
X902Y2179D02*
X916Y2179D01*
X1012Y2179D02*
X1021Y2179D01*
X1052Y2179D02*
X1061Y2179D01*
X1084Y2179D02*
X1094Y2179D01*
X1123Y2179D02*
X1133Y2179D01*
X1156Y2179D02*
X1167Y2179D01*
X1174Y2179D02*
X1189Y2179D01*
X1228Y2179D02*
X1272Y2179D01*
X1300Y2179D02*
X1309Y2179D01*
X1476Y2179D02*
X1488Y2179D01*
X1516Y2179D02*
X1525Y2179D01*
X1556Y2179D02*
X1565Y2179D01*
X1588Y2179D02*
X1598Y2179D01*
X1627Y2179D02*
X1637Y2179D01*
X1660Y2179D02*
X1670Y2179D01*
X1732Y2179D02*
X1776Y2179D01*
X2020Y2179D02*
X2029Y2179D01*
X2040Y2179D02*
X2049Y2179D01*
X2060Y2179D02*
X2069Y2179D01*
X2092Y2179D02*
X2136Y2179D01*
X2164Y2179D02*
X2174Y2179D01*
X2203Y2179D02*
X2213Y2179D01*
X2246Y2179D02*
X2255Y2179D01*
X2308Y2179D02*
X2317Y2179D01*
X2347Y2179D02*
X2356Y2179D01*
X2380Y2179D02*
X2424Y2179D01*
X2452Y2179D02*
X2461Y2179D01*
X2596Y2179D02*
X2605Y2179D01*
X2668Y2179D02*
X2677Y2179D01*
X2708Y2179D02*
X2717Y2179D01*
X2740Y2179D02*
X2749Y2179D01*
X2812Y2179D02*
X2856Y2179D01*
X2884Y2179D02*
X2894Y2179D01*
X2956Y2179D02*
X2966Y2179D01*
X2995Y2179D02*
X3005Y2179D01*
X3062Y2179D02*
X3076Y2179D01*
X3110Y2179D02*
X3119Y2179D01*
X3172Y2179D02*
X3216Y2179D01*
X3244Y2179D02*
X3253Y2179D01*
X580Y2178D02*
X589Y2178D01*
X652Y2178D02*
X661Y2178D01*
X691Y2178D02*
X701Y2178D01*
X744Y2178D02*
X753Y2178D01*
X816Y2178D02*
X825Y2178D01*
X905Y2178D02*
X916Y2178D01*
X1012Y2178D02*
X1021Y2178D01*
X1052Y2178D02*
X1061Y2178D01*
X1084Y2178D02*
X1093Y2178D01*
X1123Y2178D02*
X1133Y2178D01*
X1156Y2178D02*
X1166Y2178D01*
X1175Y2178D02*
X1190Y2178D01*
X1228Y2178D02*
X1237Y2178D01*
X1300Y2178D02*
X1309Y2178D01*
X1477Y2178D02*
X1489Y2178D01*
X1516Y2178D02*
X1526Y2178D01*
X1556Y2178D02*
X1565Y2178D01*
X1588Y2178D02*
X1597Y2178D01*
X1627Y2178D02*
X1637Y2178D01*
X1661Y2178D02*
X1670Y2178D01*
X1732Y2178D02*
X1741Y2178D01*
X2020Y2178D02*
X2029Y2178D01*
X2040Y2178D02*
X2049Y2178D01*
X2060Y2178D02*
X2069Y2178D01*
X2092Y2178D02*
X2101Y2178D01*
X2164Y2178D02*
X2173Y2178D01*
X2203Y2178D02*
X2213Y2178D01*
X2246Y2178D02*
X2255Y2178D01*
X2308Y2178D02*
X2317Y2178D01*
X2347Y2178D02*
X2357Y2178D01*
X2380Y2178D02*
X2389Y2178D01*
X2452Y2178D02*
X2461Y2178D01*
X2596Y2178D02*
X2605Y2178D01*
X2668Y2178D02*
X2677Y2178D01*
X2708Y2178D02*
X2717Y2178D01*
X2740Y2178D02*
X2749Y2178D01*
X2812Y2178D02*
X2821Y2178D01*
X2885Y2178D02*
X2894Y2178D01*
X2956Y2178D02*
X2965Y2178D01*
X2995Y2178D02*
X3005Y2178D01*
X3065Y2178D02*
X3076Y2178D01*
X3110Y2178D02*
X3119Y2178D01*
X3172Y2178D02*
X3181Y2178D01*
X3244Y2178D02*
X3253Y2178D01*
X580Y2177D02*
X589Y2177D01*
X652Y2177D02*
X661Y2177D01*
X691Y2177D02*
X701Y2177D01*
X744Y2177D02*
X753Y2177D01*
X816Y2177D02*
X825Y2177D01*
X906Y2177D02*
X916Y2177D01*
X1012Y2177D02*
X1021Y2177D01*
X1052Y2177D02*
X1061Y2177D01*
X1084Y2177D02*
X1093Y2177D01*
X1123Y2177D02*
X1133Y2177D01*
X1156Y2177D02*
X1165Y2177D01*
X1177Y2177D02*
X1191Y2177D01*
X1228Y2177D02*
X1237Y2177D01*
X1300Y2177D02*
X1309Y2177D01*
X1478Y2177D02*
X1490Y2177D01*
X1516Y2177D02*
X1526Y2177D01*
X1556Y2177D02*
X1565Y2177D01*
X1588Y2177D02*
X1597Y2177D01*
X1627Y2177D02*
X1637Y2177D01*
X1661Y2177D02*
X1671Y2177D01*
X1732Y2177D02*
X1741Y2177D01*
X2020Y2177D02*
X2029Y2177D01*
X2040Y2177D02*
X2049Y2177D01*
X2060Y2177D02*
X2069Y2177D01*
X2092Y2177D02*
X2101Y2177D01*
X2164Y2177D02*
X2173Y2177D01*
X2203Y2177D02*
X2213Y2177D01*
X2246Y2177D02*
X2255Y2177D01*
X2308Y2177D02*
X2317Y2177D01*
X2347Y2177D02*
X2357Y2177D01*
X2380Y2177D02*
X2389Y2177D01*
X2452Y2177D02*
X2461Y2177D01*
X2596Y2177D02*
X2605Y2177D01*
X2668Y2177D02*
X2677Y2177D01*
X2708Y2177D02*
X2717Y2177D01*
X2740Y2177D02*
X2749Y2177D01*
X2812Y2177D02*
X2821Y2177D01*
X2885Y2177D02*
X2895Y2177D01*
X2956Y2177D02*
X2965Y2177D01*
X2995Y2177D02*
X3005Y2177D01*
X3066Y2177D02*
X3076Y2177D01*
X3110Y2177D02*
X3119Y2177D01*
X3172Y2177D02*
X3181Y2177D01*
X3244Y2177D02*
X3253Y2177D01*
X580Y2176D02*
X589Y2176D01*
X652Y2176D02*
X661Y2176D01*
X692Y2176D02*
X701Y2176D01*
X744Y2176D02*
X753Y2176D01*
X816Y2176D02*
X825Y2176D01*
X907Y2176D02*
X917Y2176D01*
X1012Y2176D02*
X1021Y2176D01*
X1052Y2176D02*
X1061Y2176D01*
X1084Y2176D02*
X1093Y2176D01*
X1123Y2176D02*
X1133Y2176D01*
X1156Y2176D02*
X1165Y2176D01*
X1178Y2176D02*
X1192Y2176D01*
X1228Y2176D02*
X1237Y2176D01*
X1300Y2176D02*
X1309Y2176D01*
X1448Y2176D02*
X1450Y2176D01*
X1479Y2176D02*
X1491Y2176D01*
X1516Y2176D02*
X1527Y2176D01*
X1556Y2176D02*
X1565Y2176D01*
X1588Y2176D02*
X1597Y2176D01*
X1627Y2176D02*
X1637Y2176D01*
X1661Y2176D02*
X1672Y2176D01*
X1732Y2176D02*
X1741Y2176D01*
X2020Y2176D02*
X2029Y2176D01*
X2040Y2176D02*
X2049Y2176D01*
X2060Y2176D02*
X2069Y2176D01*
X2092Y2176D02*
X2101Y2176D01*
X2164Y2176D02*
X2173Y2176D01*
X2203Y2176D02*
X2213Y2176D01*
X2246Y2176D02*
X2255Y2176D01*
X2279Y2176D02*
X2282Y2176D01*
X2308Y2176D02*
X2317Y2176D01*
X2348Y2176D02*
X2357Y2176D01*
X2380Y2176D02*
X2389Y2176D01*
X2452Y2176D02*
X2461Y2176D01*
X2596Y2176D02*
X2605Y2176D01*
X2668Y2176D02*
X2677Y2176D01*
X2708Y2176D02*
X2717Y2176D01*
X2740Y2176D02*
X2749Y2176D01*
X2812Y2176D02*
X2821Y2176D01*
X2885Y2176D02*
X2896Y2176D01*
X2956Y2176D02*
X2965Y2176D01*
X2995Y2176D02*
X3005Y2176D01*
X3067Y2176D02*
X3077Y2176D01*
X3110Y2176D02*
X3119Y2176D01*
X3143Y2176D02*
X3146Y2176D01*
X3172Y2176D02*
X3181Y2176D01*
X3244Y2176D02*
X3253Y2176D01*
X580Y2175D02*
X589Y2175D01*
X652Y2175D02*
X661Y2175D01*
X692Y2175D02*
X701Y2175D01*
X744Y2175D02*
X753Y2175D01*
X816Y2175D02*
X825Y2175D01*
X907Y2175D02*
X917Y2175D01*
X1012Y2175D02*
X1021Y2175D01*
X1052Y2175D02*
X1061Y2175D01*
X1084Y2175D02*
X1093Y2175D01*
X1123Y2175D02*
X1133Y2175D01*
X1156Y2175D02*
X1165Y2175D01*
X1179Y2175D02*
X1194Y2175D01*
X1228Y2175D02*
X1238Y2175D01*
X1300Y2175D02*
X1309Y2175D01*
X1446Y2175D02*
X1452Y2175D01*
X1479Y2175D02*
X1491Y2175D01*
X1516Y2175D02*
X1528Y2175D01*
X1555Y2175D02*
X1565Y2175D01*
X1588Y2175D02*
X1597Y2175D01*
X1627Y2175D02*
X1637Y2175D01*
X1661Y2175D02*
X1673Y2175D01*
X1732Y2175D02*
X1742Y2175D01*
X2020Y2175D02*
X2029Y2175D01*
X2040Y2175D02*
X2049Y2175D01*
X2060Y2175D02*
X2069Y2175D01*
X2092Y2175D02*
X2102Y2175D01*
X2164Y2175D02*
X2173Y2175D01*
X2203Y2175D02*
X2213Y2175D01*
X2246Y2175D02*
X2255Y2175D01*
X2278Y2175D02*
X2283Y2175D01*
X2308Y2175D02*
X2317Y2175D01*
X2348Y2175D02*
X2357Y2175D01*
X2380Y2175D02*
X2390Y2175D01*
X2452Y2175D02*
X2461Y2175D01*
X2596Y2175D02*
X2605Y2175D01*
X2668Y2175D02*
X2678Y2175D01*
X2708Y2175D02*
X2717Y2175D01*
X2740Y2175D02*
X2749Y2175D01*
X2812Y2175D02*
X2822Y2175D01*
X2885Y2175D02*
X2897Y2175D01*
X2956Y2175D02*
X2965Y2175D01*
X2995Y2175D02*
X3005Y2175D01*
X3067Y2175D02*
X3077Y2175D01*
X3110Y2175D02*
X3119Y2175D01*
X3142Y2175D02*
X3147Y2175D01*
X3172Y2175D02*
X3182Y2175D01*
X3244Y2175D02*
X3253Y2175D01*
X580Y2174D02*
X589Y2174D01*
X652Y2174D02*
X661Y2174D01*
X692Y2174D02*
X701Y2174D01*
X744Y2174D02*
X753Y2174D01*
X816Y2174D02*
X825Y2174D01*
X908Y2174D02*
X917Y2174D01*
X1012Y2174D02*
X1021Y2174D01*
X1052Y2174D02*
X1061Y2174D01*
X1084Y2174D02*
X1093Y2174D01*
X1123Y2174D02*
X1133Y2174D01*
X1156Y2174D02*
X1165Y2174D01*
X1180Y2174D02*
X1195Y2174D01*
X1228Y2174D02*
X1238Y2174D01*
X1300Y2174D02*
X1309Y2174D01*
X1445Y2174D02*
X1452Y2174D01*
X1480Y2174D02*
X1492Y2174D01*
X1516Y2174D02*
X1529Y2174D01*
X1554Y2174D02*
X1564Y2174D01*
X1588Y2174D02*
X1597Y2174D01*
X1627Y2174D02*
X1637Y2174D01*
X1662Y2174D02*
X1674Y2174D01*
X1732Y2174D02*
X1742Y2174D01*
X2020Y2174D02*
X2029Y2174D01*
X2040Y2174D02*
X2049Y2174D01*
X2060Y2174D02*
X2069Y2174D01*
X2092Y2174D02*
X2102Y2174D01*
X2164Y2174D02*
X2173Y2174D01*
X2203Y2174D02*
X2213Y2174D01*
X2246Y2174D02*
X2255Y2174D01*
X2277Y2174D02*
X2284Y2174D01*
X2308Y2174D02*
X2317Y2174D01*
X2348Y2174D02*
X2357Y2174D01*
X2380Y2174D02*
X2390Y2174D01*
X2452Y2174D02*
X2461Y2174D01*
X2596Y2174D02*
X2605Y2174D01*
X2668Y2174D02*
X2678Y2174D01*
X2708Y2174D02*
X2717Y2174D01*
X2740Y2174D02*
X2749Y2174D01*
X2812Y2174D02*
X2822Y2174D01*
X2886Y2174D02*
X2898Y2174D01*
X2956Y2174D02*
X2965Y2174D01*
X2995Y2174D02*
X3005Y2174D01*
X3068Y2174D02*
X3077Y2174D01*
X3110Y2174D02*
X3119Y2174D01*
X3141Y2174D02*
X3148Y2174D01*
X3172Y2174D02*
X3182Y2174D01*
X3244Y2174D02*
X3253Y2174D01*
X580Y2173D02*
X589Y2173D01*
X652Y2173D02*
X661Y2173D01*
X692Y2173D02*
X701Y2173D01*
X744Y2173D02*
X753Y2173D01*
X816Y2173D02*
X825Y2173D01*
X908Y2173D02*
X917Y2173D01*
X1012Y2173D02*
X1021Y2173D01*
X1052Y2173D02*
X1061Y2173D01*
X1084Y2173D02*
X1093Y2173D01*
X1121Y2173D02*
X1133Y2173D01*
X1156Y2173D02*
X1165Y2173D01*
X1181Y2173D02*
X1196Y2173D01*
X1229Y2173D02*
X1238Y2173D01*
X1300Y2173D02*
X1309Y2173D01*
X1445Y2173D02*
X1453Y2173D01*
X1481Y2173D02*
X1492Y2173D01*
X1516Y2173D02*
X1530Y2173D01*
X1553Y2173D02*
X1564Y2173D01*
X1588Y2173D02*
X1597Y2173D01*
X1625Y2173D02*
X1637Y2173D01*
X1662Y2173D02*
X1675Y2173D01*
X1733Y2173D02*
X1742Y2173D01*
X2020Y2173D02*
X2029Y2173D01*
X2040Y2173D02*
X2049Y2173D01*
X2060Y2173D02*
X2069Y2173D01*
X2093Y2173D02*
X2102Y2173D01*
X2164Y2173D02*
X2173Y2173D01*
X2201Y2173D02*
X2213Y2173D01*
X2246Y2173D02*
X2255Y2173D01*
X2276Y2173D02*
X2285Y2173D01*
X2308Y2173D02*
X2317Y2173D01*
X2348Y2173D02*
X2357Y2173D01*
X2381Y2173D02*
X2390Y2173D01*
X2452Y2173D02*
X2461Y2173D01*
X2596Y2173D02*
X2605Y2173D01*
X2669Y2173D02*
X2678Y2173D01*
X2707Y2173D02*
X2717Y2173D01*
X2740Y2173D02*
X2749Y2173D01*
X2813Y2173D02*
X2822Y2173D01*
X2886Y2173D02*
X2899Y2173D01*
X2956Y2173D02*
X2965Y2173D01*
X2993Y2173D02*
X3005Y2173D01*
X3068Y2173D02*
X3077Y2173D01*
X3110Y2173D02*
X3119Y2173D01*
X3140Y2173D02*
X3149Y2173D01*
X3173Y2173D02*
X3182Y2173D01*
X3244Y2173D02*
X3253Y2173D01*
X580Y2172D02*
X589Y2172D01*
X652Y2172D02*
X661Y2172D01*
X692Y2172D02*
X701Y2172D01*
X744Y2172D02*
X753Y2172D01*
X816Y2172D02*
X825Y2172D01*
X873Y2172D02*
X873Y2172D01*
X907Y2172D02*
X917Y2172D01*
X1012Y2172D02*
X1021Y2172D01*
X1052Y2172D02*
X1061Y2172D01*
X1084Y2172D02*
X1094Y2172D01*
X1120Y2172D02*
X1133Y2172D01*
X1156Y2172D02*
X1165Y2172D01*
X1182Y2172D02*
X1197Y2172D01*
X1229Y2172D02*
X1239Y2172D01*
X1300Y2172D02*
X1309Y2172D01*
X1444Y2172D02*
X1453Y2172D01*
X1482Y2172D02*
X1493Y2172D01*
X1516Y2172D02*
X1531Y2172D01*
X1552Y2172D02*
X1564Y2172D01*
X1588Y2172D02*
X1598Y2172D01*
X1624Y2172D02*
X1637Y2172D01*
X1663Y2172D02*
X1676Y2172D01*
X1733Y2172D02*
X1743Y2172D01*
X2020Y2172D02*
X2030Y2172D01*
X2040Y2172D02*
X2050Y2172D01*
X2060Y2172D02*
X2069Y2172D01*
X2093Y2172D02*
X2103Y2172D01*
X2164Y2172D02*
X2174Y2172D01*
X2200Y2172D02*
X2213Y2172D01*
X2246Y2172D02*
X2255Y2172D01*
X2276Y2172D02*
X2285Y2172D01*
X2308Y2172D02*
X2317Y2172D01*
X2348Y2172D02*
X2357Y2172D01*
X2381Y2172D02*
X2391Y2172D01*
X2452Y2172D02*
X2461Y2172D01*
X2596Y2172D02*
X2605Y2172D01*
X2669Y2172D02*
X2679Y2172D01*
X2706Y2172D02*
X2717Y2172D01*
X2740Y2172D02*
X2749Y2172D01*
X2813Y2172D02*
X2823Y2172D01*
X2887Y2172D02*
X2900Y2172D01*
X2956Y2172D02*
X2966Y2172D01*
X2992Y2172D02*
X3005Y2172D01*
X3067Y2172D02*
X3077Y2172D01*
X3110Y2172D02*
X3119Y2172D01*
X3140Y2172D02*
X3149Y2172D01*
X3173Y2172D02*
X3183Y2172D01*
X3244Y2172D02*
X3253Y2172D01*
X580Y2171D02*
X589Y2171D01*
X652Y2171D02*
X661Y2171D01*
X692Y2171D02*
X701Y2171D01*
X744Y2171D02*
X753Y2171D01*
X816Y2171D02*
X825Y2171D01*
X870Y2171D02*
X875Y2171D01*
X907Y2171D02*
X917Y2171D01*
X1012Y2171D02*
X1021Y2171D01*
X1052Y2171D02*
X1061Y2171D01*
X1084Y2171D02*
X1094Y2171D01*
X1118Y2171D02*
X1133Y2171D01*
X1156Y2171D02*
X1165Y2171D01*
X1184Y2171D02*
X1198Y2171D01*
X1229Y2171D02*
X1240Y2171D01*
X1300Y2171D02*
X1309Y2171D01*
X1444Y2171D02*
X1453Y2171D01*
X1483Y2171D02*
X1493Y2171D01*
X1516Y2171D02*
X1532Y2171D01*
X1550Y2171D02*
X1563Y2171D01*
X1588Y2171D02*
X1598Y2171D01*
X1622Y2171D02*
X1637Y2171D01*
X1663Y2171D02*
X1677Y2171D01*
X1733Y2171D02*
X1744Y2171D01*
X2020Y2171D02*
X2030Y2171D01*
X2039Y2171D02*
X2050Y2171D01*
X2059Y2171D02*
X2069Y2171D01*
X2093Y2171D02*
X2104Y2171D01*
X2164Y2171D02*
X2174Y2171D01*
X2198Y2171D02*
X2213Y2171D01*
X2246Y2171D02*
X2256Y2171D01*
X2276Y2171D02*
X2285Y2171D01*
X2308Y2171D02*
X2317Y2171D01*
X2348Y2171D02*
X2357Y2171D01*
X2381Y2171D02*
X2392Y2171D01*
X2452Y2171D02*
X2461Y2171D01*
X2596Y2171D02*
X2605Y2171D01*
X2669Y2171D02*
X2680Y2171D01*
X2705Y2171D02*
X2716Y2171D01*
X2740Y2171D02*
X2749Y2171D01*
X2813Y2171D02*
X2824Y2171D01*
X2887Y2171D02*
X2901Y2171D01*
X2956Y2171D02*
X2966Y2171D01*
X2990Y2171D02*
X3005Y2171D01*
X3030Y2171D02*
X3035Y2171D01*
X3067Y2171D02*
X3077Y2171D01*
X3110Y2171D02*
X3120Y2171D01*
X3140Y2171D02*
X3149Y2171D01*
X3173Y2171D02*
X3184Y2171D01*
X3244Y2171D02*
X3253Y2171D01*
X580Y2170D02*
X589Y2170D01*
X652Y2170D02*
X661Y2170D01*
X692Y2170D02*
X701Y2170D01*
X744Y2170D02*
X753Y2170D01*
X816Y2170D02*
X825Y2170D01*
X869Y2170D02*
X877Y2170D01*
X907Y2170D02*
X917Y2170D01*
X1012Y2170D02*
X1021Y2170D01*
X1052Y2170D02*
X1061Y2170D01*
X1085Y2170D02*
X1094Y2170D01*
X1116Y2170D02*
X1133Y2170D01*
X1156Y2170D02*
X1165Y2170D01*
X1185Y2170D02*
X1199Y2170D01*
X1229Y2170D02*
X1242Y2170D01*
X1300Y2170D02*
X1309Y2170D01*
X1444Y2170D02*
X1454Y2170D01*
X1483Y2170D02*
X1493Y2170D01*
X1516Y2170D02*
X1533Y2170D01*
X1549Y2170D02*
X1563Y2170D01*
X1589Y2170D02*
X1598Y2170D01*
X1620Y2170D02*
X1637Y2170D01*
X1664Y2170D02*
X1679Y2170D01*
X1733Y2170D02*
X1746Y2170D01*
X2020Y2170D02*
X2031Y2170D01*
X2038Y2170D02*
X2051Y2170D01*
X2058Y2170D02*
X2069Y2170D01*
X2093Y2170D02*
X2105Y2170D01*
X2165Y2170D02*
X2174Y2170D01*
X2196Y2170D02*
X2213Y2170D01*
X2246Y2170D02*
X2256Y2170D01*
X2275Y2170D02*
X2285Y2170D01*
X2308Y2170D02*
X2317Y2170D01*
X2348Y2170D02*
X2357Y2170D01*
X2381Y2170D02*
X2393Y2170D01*
X2452Y2170D02*
X2461Y2170D01*
X2596Y2170D02*
X2605Y2170D01*
X2669Y2170D02*
X2681Y2170D01*
X2704Y2170D02*
X2716Y2170D01*
X2740Y2170D02*
X2749Y2170D01*
X2813Y2170D02*
X2825Y2170D01*
X2888Y2170D02*
X2903Y2170D01*
X2957Y2170D02*
X2966Y2170D01*
X2988Y2170D02*
X3005Y2170D01*
X3029Y2170D02*
X3037Y2170D01*
X3067Y2170D02*
X3077Y2170D01*
X3110Y2170D02*
X3120Y2170D01*
X3139Y2170D02*
X3149Y2170D01*
X3173Y2170D02*
X3185Y2170D01*
X3244Y2170D02*
X3253Y2170D01*
X580Y2169D02*
X589Y2169D01*
X652Y2169D02*
X661Y2169D01*
X692Y2169D02*
X701Y2169D01*
X744Y2169D02*
X753Y2169D01*
X816Y2169D02*
X825Y2169D01*
X869Y2169D02*
X878Y2169D01*
X906Y2169D02*
X916Y2169D01*
X1012Y2169D02*
X1021Y2169D01*
X1052Y2169D02*
X1061Y2169D01*
X1085Y2169D02*
X1095Y2169D01*
X1115Y2169D02*
X1133Y2169D01*
X1156Y2169D02*
X1165Y2169D01*
X1186Y2169D02*
X1201Y2169D01*
X1230Y2169D02*
X1243Y2169D01*
X1300Y2169D02*
X1309Y2169D01*
X1445Y2169D02*
X1454Y2169D01*
X1484Y2169D02*
X1493Y2169D01*
X1516Y2169D02*
X1534Y2169D01*
X1548Y2169D02*
X1562Y2169D01*
X1589Y2169D02*
X1599Y2169D01*
X1619Y2169D02*
X1637Y2169D01*
X1665Y2169D02*
X1680Y2169D01*
X1734Y2169D02*
X1747Y2169D01*
X2021Y2169D02*
X2032Y2169D01*
X2038Y2169D02*
X2051Y2169D01*
X2058Y2169D02*
X2069Y2169D01*
X2094Y2169D02*
X2107Y2169D01*
X2165Y2169D02*
X2175Y2169D01*
X2195Y2169D02*
X2213Y2169D01*
X2247Y2169D02*
X2257Y2169D01*
X2274Y2169D02*
X2285Y2169D01*
X2308Y2169D02*
X2317Y2169D01*
X2348Y2169D02*
X2357Y2169D01*
X2382Y2169D02*
X2395Y2169D01*
X2452Y2169D02*
X2461Y2169D01*
X2596Y2169D02*
X2605Y2169D01*
X2670Y2169D02*
X2683Y2169D01*
X2703Y2169D02*
X2715Y2169D01*
X2740Y2169D02*
X2749Y2169D01*
X2814Y2169D02*
X2827Y2169D01*
X2889Y2169D02*
X2904Y2169D01*
X2957Y2169D02*
X2967Y2169D01*
X2987Y2169D02*
X3005Y2169D01*
X3029Y2169D02*
X3038Y2169D01*
X3066Y2169D02*
X3076Y2169D01*
X3111Y2169D02*
X3121Y2169D01*
X3138Y2169D02*
X3149Y2169D01*
X3174Y2169D02*
X3187Y2169D01*
X3244Y2169D02*
X3253Y2169D01*
X580Y2168D02*
X589Y2168D01*
X652Y2168D02*
X661Y2168D01*
X692Y2168D02*
X701Y2168D01*
X744Y2168D02*
X753Y2168D01*
X816Y2168D02*
X825Y2168D01*
X868Y2168D02*
X881Y2168D01*
X904Y2168D02*
X916Y2168D01*
X1012Y2168D02*
X1021Y2168D01*
X1052Y2168D02*
X1061Y2168D01*
X1085Y2168D02*
X1098Y2168D01*
X1113Y2168D02*
X1133Y2168D01*
X1156Y2168D02*
X1165Y2168D01*
X1187Y2168D02*
X1202Y2168D01*
X1230Y2168D02*
X1245Y2168D01*
X1300Y2168D02*
X1309Y2168D01*
X1445Y2168D02*
X1456Y2168D01*
X1483Y2168D02*
X1493Y2168D01*
X1516Y2168D02*
X1535Y2168D01*
X1547Y2168D02*
X1561Y2168D01*
X1589Y2168D02*
X1602Y2168D01*
X1617Y2168D02*
X1637Y2168D01*
X1666Y2168D02*
X1682Y2168D01*
X1734Y2168D02*
X1749Y2168D01*
X2021Y2168D02*
X2032Y2168D01*
X2037Y2168D02*
X2052Y2168D01*
X2057Y2168D02*
X2068Y2168D01*
X2094Y2168D02*
X2109Y2168D01*
X2165Y2168D02*
X2177Y2168D01*
X2193Y2168D02*
X2213Y2168D01*
X2247Y2168D02*
X2259Y2168D01*
X2272Y2168D02*
X2284Y2168D01*
X2308Y2168D02*
X2317Y2168D01*
X2348Y2168D02*
X2357Y2168D01*
X2382Y2168D02*
X2397Y2168D01*
X2452Y2168D02*
X2461Y2168D01*
X2596Y2168D02*
X2605Y2168D01*
X2670Y2168D02*
X2685Y2168D01*
X2700Y2168D02*
X2715Y2168D01*
X2740Y2168D02*
X2749Y2168D01*
X2814Y2168D02*
X2829Y2168D01*
X2890Y2168D02*
X2906Y2168D01*
X2957Y2168D02*
X2969Y2168D01*
X2985Y2168D02*
X3005Y2168D01*
X3028Y2168D02*
X3041Y2168D01*
X3064Y2168D02*
X3076Y2168D01*
X3111Y2168D02*
X3123Y2168D01*
X3136Y2168D02*
X3148Y2168D01*
X3174Y2168D02*
X3189Y2168D01*
X3244Y2168D02*
X3253Y2168D01*
X580Y2167D02*
X589Y2167D01*
X652Y2167D02*
X661Y2167D01*
X692Y2167D02*
X701Y2167D01*
X732Y2167D02*
X766Y2167D01*
X804Y2167D02*
X838Y2167D01*
X868Y2167D02*
X916Y2167D01*
X1012Y2167D02*
X1021Y2167D01*
X1052Y2167D02*
X1061Y2167D01*
X1085Y2167D02*
X1133Y2167D01*
X1156Y2167D02*
X1165Y2167D01*
X1188Y2167D02*
X1203Y2167D01*
X1231Y2167D02*
X1275Y2167D01*
X1300Y2167D02*
X1309Y2167D01*
X1445Y2167D02*
X1493Y2167D01*
X1516Y2167D02*
X1536Y2167D01*
X1546Y2167D02*
X1560Y2167D01*
X1589Y2167D02*
X1637Y2167D01*
X1668Y2167D02*
X1707Y2167D01*
X1735Y2167D02*
X1779Y2167D01*
X2022Y2167D02*
X2067Y2167D01*
X2095Y2167D02*
X2139Y2167D01*
X2165Y2167D02*
X2213Y2167D01*
X2247Y2167D02*
X2284Y2167D01*
X2308Y2167D02*
X2317Y2167D01*
X2348Y2167D02*
X2357Y2167D01*
X2383Y2167D02*
X2427Y2167D01*
X2452Y2167D02*
X2461Y2167D01*
X2596Y2167D02*
X2605Y2167D01*
X2671Y2167D02*
X2714Y2167D01*
X2740Y2167D02*
X2749Y2167D01*
X2815Y2167D02*
X2859Y2167D01*
X2892Y2167D02*
X2931Y2167D01*
X2957Y2167D02*
X3005Y2167D01*
X3028Y2167D02*
X3076Y2167D01*
X3111Y2167D02*
X3148Y2167D01*
X3175Y2167D02*
X3219Y2167D01*
X3244Y2167D02*
X3253Y2167D01*
X580Y2166D02*
X589Y2166D01*
X652Y2166D02*
X661Y2166D01*
X692Y2166D02*
X701Y2166D01*
X730Y2166D02*
X767Y2166D01*
X802Y2166D02*
X839Y2166D01*
X868Y2166D02*
X915Y2166D01*
X1012Y2166D02*
X1021Y2166D01*
X1052Y2166D02*
X1061Y2166D01*
X1086Y2166D02*
X1133Y2166D01*
X1156Y2166D02*
X1165Y2166D01*
X1189Y2166D02*
X1204Y2166D01*
X1232Y2166D02*
X1276Y2166D01*
X1300Y2166D02*
X1309Y2166D01*
X1445Y2166D02*
X1493Y2166D01*
X1516Y2166D02*
X1538Y2166D01*
X1544Y2166D02*
X1559Y2166D01*
X1590Y2166D02*
X1637Y2166D01*
X1669Y2166D02*
X1708Y2166D01*
X1736Y2166D02*
X1780Y2166D01*
X2023Y2166D02*
X2067Y2166D01*
X2096Y2166D02*
X2140Y2166D01*
X2166Y2166D02*
X2213Y2166D01*
X2248Y2166D02*
X2283Y2166D01*
X2308Y2166D02*
X2317Y2166D01*
X2348Y2166D02*
X2357Y2166D01*
X2384Y2166D02*
X2428Y2166D01*
X2452Y2166D02*
X2461Y2166D01*
X2596Y2166D02*
X2605Y2166D01*
X2672Y2166D02*
X2713Y2166D01*
X2740Y2166D02*
X2749Y2166D01*
X2816Y2166D02*
X2860Y2166D01*
X2893Y2166D02*
X2932Y2166D01*
X2958Y2166D02*
X3005Y2166D01*
X3028Y2166D02*
X3075Y2166D01*
X3112Y2166D02*
X3147Y2166D01*
X3176Y2166D02*
X3220Y2166D01*
X3244Y2166D02*
X3253Y2166D01*
X580Y2165D02*
X589Y2165D01*
X652Y2165D02*
X661Y2165D01*
X692Y2165D02*
X701Y2165D01*
X730Y2165D02*
X768Y2165D01*
X802Y2165D02*
X840Y2165D01*
X869Y2165D02*
X915Y2165D01*
X1012Y2165D02*
X1021Y2165D01*
X1052Y2165D02*
X1061Y2165D01*
X1086Y2165D02*
X1133Y2165D01*
X1156Y2165D02*
X1165Y2165D01*
X1191Y2165D02*
X1205Y2165D01*
X1233Y2165D02*
X1277Y2165D01*
X1300Y2165D02*
X1309Y2165D01*
X1446Y2165D02*
X1492Y2165D01*
X1516Y2165D02*
X1558Y2165D01*
X1590Y2165D02*
X1637Y2165D01*
X1670Y2165D02*
X1709Y2165D01*
X1737Y2165D02*
X1781Y2165D01*
X2023Y2165D02*
X2066Y2165D01*
X2097Y2165D02*
X2141Y2165D01*
X2166Y2165D02*
X2213Y2165D01*
X2248Y2165D02*
X2283Y2165D01*
X2308Y2165D02*
X2317Y2165D01*
X2348Y2165D02*
X2357Y2165D01*
X2385Y2165D02*
X2429Y2165D01*
X2452Y2165D02*
X2461Y2165D01*
X2596Y2165D02*
X2605Y2165D01*
X2673Y2165D02*
X2712Y2165D01*
X2740Y2165D02*
X2749Y2165D01*
X2817Y2165D02*
X2861Y2165D01*
X2894Y2165D02*
X2933Y2165D01*
X2958Y2165D02*
X3005Y2165D01*
X3029Y2165D02*
X3075Y2165D01*
X3112Y2165D02*
X3147Y2165D01*
X3177Y2165D02*
X3221Y2165D01*
X3244Y2165D02*
X3253Y2165D01*
X580Y2164D02*
X589Y2164D01*
X652Y2164D02*
X661Y2164D01*
X692Y2164D02*
X701Y2164D01*
X729Y2164D02*
X768Y2164D01*
X801Y2164D02*
X840Y2164D01*
X869Y2164D02*
X914Y2164D01*
X1012Y2164D02*
X1021Y2164D01*
X1052Y2164D02*
X1061Y2164D01*
X1087Y2164D02*
X1133Y2164D01*
X1156Y2164D02*
X1165Y2164D01*
X1192Y2164D02*
X1205Y2164D01*
X1234Y2164D02*
X1277Y2164D01*
X1300Y2164D02*
X1309Y2164D01*
X1446Y2164D02*
X1492Y2164D01*
X1516Y2164D02*
X1557Y2164D01*
X1591Y2164D02*
X1637Y2164D01*
X1671Y2164D02*
X1709Y2164D01*
X1738Y2164D02*
X1781Y2164D01*
X2024Y2164D02*
X2066Y2164D01*
X2098Y2164D02*
X2141Y2164D01*
X2167Y2164D02*
X2213Y2164D01*
X2249Y2164D02*
X2282Y2164D01*
X2308Y2164D02*
X2317Y2164D01*
X2348Y2164D02*
X2357Y2164D01*
X2386Y2164D02*
X2429Y2164D01*
X2452Y2164D02*
X2461Y2164D01*
X2596Y2164D02*
X2605Y2164D01*
X2674Y2164D02*
X2711Y2164D01*
X2740Y2164D02*
X2749Y2164D01*
X2818Y2164D02*
X2861Y2164D01*
X2895Y2164D02*
X2933Y2164D01*
X2959Y2164D02*
X3005Y2164D01*
X3029Y2164D02*
X3074Y2164D01*
X3113Y2164D02*
X3146Y2164D01*
X3178Y2164D02*
X3221Y2164D01*
X3244Y2164D02*
X3253Y2164D01*
X580Y2163D02*
X589Y2163D01*
X652Y2163D02*
X661Y2163D01*
X692Y2163D02*
X701Y2163D01*
X729Y2163D02*
X768Y2163D01*
X801Y2163D02*
X840Y2163D01*
X870Y2163D02*
X913Y2163D01*
X1012Y2163D02*
X1021Y2163D01*
X1052Y2163D02*
X1061Y2163D01*
X1088Y2163D02*
X1133Y2163D01*
X1156Y2163D02*
X1165Y2163D01*
X1193Y2163D02*
X1205Y2163D01*
X1235Y2163D02*
X1277Y2163D01*
X1300Y2163D02*
X1309Y2163D01*
X1447Y2163D02*
X1491Y2163D01*
X1516Y2163D02*
X1556Y2163D01*
X1592Y2163D02*
X1637Y2163D01*
X1672Y2163D02*
X1709Y2163D01*
X1739Y2163D02*
X1781Y2163D01*
X2024Y2163D02*
X2065Y2163D01*
X2099Y2163D02*
X2141Y2163D01*
X2168Y2163D02*
X2213Y2163D01*
X2250Y2163D02*
X2281Y2163D01*
X2308Y2163D02*
X2317Y2163D01*
X2348Y2163D02*
X2357Y2163D01*
X2387Y2163D02*
X2429Y2163D01*
X2452Y2163D02*
X2461Y2163D01*
X2596Y2163D02*
X2605Y2163D01*
X2675Y2163D02*
X2710Y2163D01*
X2740Y2163D02*
X2749Y2163D01*
X2819Y2163D02*
X2861Y2163D01*
X2896Y2163D02*
X2933Y2163D01*
X2960Y2163D02*
X3005Y2163D01*
X3030Y2163D02*
X3073Y2163D01*
X3114Y2163D02*
X3145Y2163D01*
X3179Y2163D02*
X3221Y2163D01*
X3244Y2163D02*
X3253Y2163D01*
X580Y2162D02*
X589Y2162D01*
X652Y2162D02*
X661Y2162D01*
X692Y2162D02*
X701Y2162D01*
X729Y2162D02*
X768Y2162D01*
X801Y2162D02*
X840Y2162D01*
X872Y2162D02*
X912Y2162D01*
X1012Y2162D02*
X1021Y2162D01*
X1052Y2162D02*
X1061Y2162D01*
X1089Y2162D02*
X1122Y2162D01*
X1124Y2162D02*
X1133Y2162D01*
X1156Y2162D02*
X1165Y2162D01*
X1194Y2162D02*
X1205Y2162D01*
X1236Y2162D02*
X1277Y2162D01*
X1300Y2162D02*
X1309Y2162D01*
X1448Y2162D02*
X1490Y2162D01*
X1516Y2162D02*
X1525Y2162D01*
X1528Y2162D02*
X1554Y2162D01*
X1593Y2162D02*
X1626Y2162D01*
X1628Y2162D02*
X1637Y2162D01*
X1673Y2162D02*
X1709Y2162D01*
X1740Y2162D02*
X1781Y2162D01*
X2025Y2162D02*
X2064Y2162D01*
X2100Y2162D02*
X2141Y2162D01*
X2169Y2162D02*
X2202Y2162D01*
X2204Y2162D02*
X2213Y2162D01*
X2251Y2162D02*
X2280Y2162D01*
X2308Y2162D02*
X2317Y2162D01*
X2348Y2162D02*
X2357Y2162D01*
X2388Y2162D02*
X2429Y2162D01*
X2452Y2162D02*
X2461Y2162D01*
X2596Y2162D02*
X2605Y2162D01*
X2676Y2162D02*
X2709Y2162D01*
X2740Y2162D02*
X2749Y2162D01*
X2820Y2162D02*
X2861Y2162D01*
X2897Y2162D02*
X2933Y2162D01*
X2961Y2162D02*
X2994Y2162D01*
X2996Y2162D02*
X3005Y2162D01*
X3032Y2162D02*
X3072Y2162D01*
X3115Y2162D02*
X3144Y2162D01*
X3180Y2162D02*
X3221Y2162D01*
X3244Y2162D02*
X3253Y2162D01*
X581Y2161D02*
X589Y2161D01*
X653Y2161D02*
X661Y2161D01*
X692Y2161D02*
X701Y2161D01*
X730Y2161D02*
X768Y2161D01*
X802Y2161D02*
X840Y2161D01*
X873Y2161D02*
X911Y2161D01*
X1013Y2161D02*
X1021Y2161D01*
X1052Y2161D02*
X1061Y2161D01*
X1090Y2161D02*
X1120Y2161D01*
X1124Y2161D02*
X1133Y2161D01*
X1157Y2161D02*
X1165Y2161D01*
X1195Y2161D02*
X1205Y2161D01*
X1238Y2161D02*
X1277Y2161D01*
X1301Y2161D02*
X1309Y2161D01*
X1449Y2161D02*
X1489Y2161D01*
X1516Y2161D02*
X1525Y2161D01*
X1529Y2161D02*
X1553Y2161D01*
X1594Y2161D02*
X1624Y2161D01*
X1628Y2161D02*
X1637Y2161D01*
X1675Y2161D02*
X1709Y2161D01*
X1742Y2161D02*
X1781Y2161D01*
X2025Y2161D02*
X2064Y2161D01*
X2102Y2161D02*
X2141Y2161D01*
X2170Y2161D02*
X2200Y2161D01*
X2204Y2161D02*
X2213Y2161D01*
X2252Y2161D02*
X2279Y2161D01*
X2309Y2161D02*
X2317Y2161D01*
X2348Y2161D02*
X2357Y2161D01*
X2390Y2161D02*
X2429Y2161D01*
X2453Y2161D02*
X2461Y2161D01*
X2597Y2161D02*
X2605Y2161D01*
X2678Y2161D02*
X2708Y2161D01*
X2741Y2161D02*
X2749Y2161D01*
X2822Y2161D02*
X2861Y2161D01*
X2899Y2161D02*
X2933Y2161D01*
X2962Y2161D02*
X2992Y2161D01*
X2996Y2161D02*
X3005Y2161D01*
X3033Y2161D02*
X3071Y2161D01*
X3116Y2161D02*
X3143Y2161D01*
X3182Y2161D02*
X3221Y2161D01*
X3245Y2161D02*
X3253Y2161D01*
X581Y2160D02*
X588Y2160D01*
X653Y2160D02*
X660Y2160D01*
X693Y2160D02*
X700Y2160D01*
X730Y2160D02*
X767Y2160D01*
X802Y2160D02*
X839Y2160D01*
X875Y2160D02*
X910Y2160D01*
X1013Y2160D02*
X1020Y2160D01*
X1053Y2160D02*
X1060Y2160D01*
X1091Y2160D02*
X1118Y2160D01*
X1125Y2160D02*
X1132Y2160D01*
X1157Y2160D02*
X1164Y2160D01*
X1196Y2160D02*
X1204Y2160D01*
X1239Y2160D02*
X1276Y2160D01*
X1301Y2160D02*
X1308Y2160D01*
X1450Y2160D02*
X1488Y2160D01*
X1516Y2160D02*
X1525Y2160D01*
X1530Y2160D02*
X1552Y2160D01*
X1595Y2160D02*
X1622Y2160D01*
X1629Y2160D02*
X1636Y2160D01*
X1676Y2160D02*
X1708Y2160D01*
X1743Y2160D02*
X1780Y2160D01*
X2026Y2160D02*
X2043Y2160D01*
X2046Y2160D02*
X2063Y2160D01*
X2103Y2160D02*
X2140Y2160D01*
X2171Y2160D02*
X2198Y2160D01*
X2205Y2160D02*
X2212Y2160D01*
X2253Y2160D02*
X2278Y2160D01*
X2309Y2160D02*
X2316Y2160D01*
X2349Y2160D02*
X2356Y2160D01*
X2391Y2160D02*
X2428Y2160D01*
X2453Y2160D02*
X2460Y2160D01*
X2597Y2160D02*
X2604Y2160D01*
X2679Y2160D02*
X2706Y2160D01*
X2741Y2160D02*
X2748Y2160D01*
X2823Y2160D02*
X2860Y2160D01*
X2900Y2160D02*
X2932Y2160D01*
X2963Y2160D02*
X2990Y2160D01*
X2997Y2160D02*
X3004Y2160D01*
X3035Y2160D02*
X3070Y2160D01*
X3117Y2160D02*
X3142Y2160D01*
X3183Y2160D02*
X3220Y2160D01*
X3245Y2160D02*
X3252Y2160D01*
X582Y2159D02*
X588Y2159D01*
X654Y2159D02*
X660Y2159D01*
X694Y2159D02*
X699Y2159D01*
X731Y2159D02*
X766Y2159D01*
X803Y2159D02*
X838Y2159D01*
X877Y2159D02*
X908Y2159D01*
X1014Y2159D02*
X1020Y2159D01*
X1054Y2159D02*
X1059Y2159D01*
X1093Y2159D02*
X1117Y2159D01*
X1126Y2159D02*
X1131Y2159D01*
X1158Y2159D02*
X1164Y2159D01*
X1198Y2159D02*
X1203Y2159D01*
X1241Y2159D02*
X1275Y2159D01*
X1302Y2159D02*
X1308Y2159D01*
X1452Y2159D02*
X1487Y2159D01*
X1516Y2159D02*
X1525Y2159D01*
X1531Y2159D02*
X1551Y2159D01*
X1597Y2159D02*
X1621Y2159D01*
X1630Y2159D02*
X1635Y2159D01*
X1678Y2159D02*
X1707Y2159D01*
X1745Y2159D02*
X1779Y2159D01*
X2027Y2159D02*
X2042Y2159D01*
X2047Y2159D02*
X2062Y2159D01*
X2105Y2159D02*
X2139Y2159D01*
X2173Y2159D02*
X2197Y2159D01*
X2206Y2159D02*
X2211Y2159D01*
X2255Y2159D02*
X2276Y2159D01*
X2310Y2159D02*
X2316Y2159D01*
X2350Y2159D02*
X2355Y2159D01*
X2393Y2159D02*
X2427Y2159D01*
X2454Y2159D02*
X2460Y2159D01*
X2598Y2159D02*
X2604Y2159D01*
X2681Y2159D02*
X2704Y2159D01*
X2742Y2159D02*
X2748Y2159D01*
X2825Y2159D02*
X2859Y2159D01*
X2902Y2159D02*
X2931Y2159D01*
X2965Y2159D02*
X2989Y2159D01*
X2998Y2159D02*
X3003Y2159D01*
X3037Y2159D02*
X3068Y2159D01*
X3119Y2159D02*
X3140Y2159D01*
X3185Y2159D02*
X3219Y2159D01*
X3246Y2159D02*
X3251Y2159D01*
X584Y2158D02*
X586Y2158D01*
X656Y2158D02*
X658Y2158D01*
X696Y2158D02*
X697Y2158D01*
X733Y2158D02*
X764Y2158D01*
X805Y2158D02*
X836Y2158D01*
X881Y2158D02*
X904Y2158D01*
X1016Y2158D02*
X1018Y2158D01*
X1056Y2158D02*
X1057Y2158D01*
X1097Y2158D02*
X1115Y2158D01*
X1128Y2158D02*
X1129Y2158D01*
X1160Y2158D02*
X1162Y2158D01*
X1200Y2158D02*
X1201Y2158D01*
X1244Y2158D02*
X1273Y2158D01*
X1304Y2158D02*
X1306Y2158D01*
X1455Y2158D02*
X1484Y2158D01*
X1516Y2158D02*
X1525Y2158D01*
X1532Y2158D02*
X1549Y2158D01*
X1601Y2158D02*
X1619Y2158D01*
X1632Y2158D02*
X1633Y2158D01*
X1681Y2158D02*
X1705Y2158D01*
X1748Y2158D02*
X1777Y2158D01*
X2029Y2158D02*
X2040Y2158D01*
X2049Y2158D02*
X2061Y2158D01*
X2108Y2158D02*
X2137Y2158D01*
X2177Y2158D02*
X2195Y2158D01*
X2208Y2158D02*
X2209Y2158D01*
X2259Y2158D02*
X2273Y2158D01*
X2312Y2158D02*
X2314Y2158D01*
X2352Y2158D02*
X2353Y2158D01*
X2396Y2158D02*
X2425Y2158D01*
X2456Y2158D02*
X2458Y2158D01*
X2600Y2158D02*
X2602Y2158D01*
X2685Y2158D02*
X2701Y2158D01*
X2744Y2158D02*
X2746Y2158D01*
X2828Y2158D02*
X2857Y2158D01*
X2905Y2158D02*
X2929Y2158D01*
X2969Y2158D02*
X2987Y2158D01*
X3000Y2158D02*
X3001Y2158D01*
X3041Y2158D02*
X3064Y2158D01*
X3123Y2158D02*
X3137Y2158D01*
X3188Y2158D02*
X3217Y2158D01*
X3248Y2158D02*
X3250Y2158D01*
X1516Y2157D02*
X1525Y2157D01*
X1534Y2157D02*
X1548Y2157D01*
X1516Y2156D02*
X1525Y2156D01*
X1537Y2156D02*
X1545Y2156D01*
X1516Y2155D02*
X1525Y2155D01*
X1516Y2154D02*
X1525Y2154D01*
X1516Y2153D02*
X1525Y2153D01*
X1516Y2152D02*
X1525Y2152D01*
X1516Y2151D02*
X1525Y2151D01*
X1516Y2150D02*
X1525Y2150D01*
X1516Y2149D02*
X1525Y2149D01*
X1516Y2148D02*
X1525Y2148D01*
X1516Y2147D02*
X1525Y2147D01*
X1516Y2146D02*
X1525Y2146D01*
X1516Y2145D02*
X1525Y2145D01*
X1516Y2144D02*
X1525Y2144D01*
X1516Y2143D02*
X1525Y2143D01*
X1516Y2142D02*
X1525Y2142D01*
X1516Y2141D02*
X1525Y2141D01*
X1517Y2140D02*
X1525Y2140D01*
X1517Y2139D02*
X1525Y2139D01*
X1518Y2138D02*
X1524Y2138D01*
X1519Y2137D02*
X1522Y2137D01*
X1618Y2089D02*
X1624Y2089D01*
X1616Y2088D02*
X1626Y2088D01*
X1615Y2087D02*
X1627Y2087D01*
X1615Y2086D02*
X1628Y2086D01*
X1614Y2085D02*
X1628Y2085D01*
X1530Y2084D02*
X1534Y2084D01*
X1614Y2084D02*
X1628Y2084D01*
X1679Y2084D02*
X1698Y2084D01*
X1962Y2084D02*
X1966Y2084D01*
X1528Y2083D02*
X1535Y2083D01*
X1614Y2083D02*
X1628Y2083D01*
X1677Y2083D02*
X1699Y2083D01*
X1960Y2083D02*
X1967Y2083D01*
X1528Y2082D02*
X1536Y2082D01*
X1614Y2082D02*
X1628Y2082D01*
X1677Y2082D02*
X1700Y2082D01*
X1960Y2082D02*
X1968Y2082D01*
X1528Y2081D02*
X1536Y2081D01*
X1614Y2081D02*
X1628Y2081D01*
X1676Y2081D02*
X1700Y2081D01*
X1960Y2081D02*
X1968Y2081D01*
X1527Y2080D02*
X1536Y2080D01*
X1614Y2080D02*
X1628Y2080D01*
X1676Y2080D02*
X1700Y2080D01*
X1959Y2080D02*
X1968Y2080D01*
X1527Y2079D02*
X1536Y2079D01*
X1614Y2079D02*
X1628Y2079D01*
X1676Y2079D02*
X1700Y2079D01*
X1959Y2079D02*
X1968Y2079D01*
X1527Y2078D02*
X1536Y2078D01*
X1615Y2078D02*
X1628Y2078D01*
X1677Y2078D02*
X1700Y2078D01*
X1959Y2078D02*
X1968Y2078D01*
X1527Y2077D02*
X1536Y2077D01*
X1615Y2077D02*
X1627Y2077D01*
X1677Y2077D02*
X1700Y2077D01*
X1959Y2077D02*
X1968Y2077D01*
X1527Y2076D02*
X1536Y2076D01*
X1616Y2076D02*
X1626Y2076D01*
X1678Y2076D02*
X1700Y2076D01*
X1959Y2076D02*
X1968Y2076D01*
X1527Y2075D02*
X1536Y2075D01*
X1619Y2075D02*
X1624Y2075D01*
X1681Y2075D02*
X1700Y2075D01*
X1959Y2075D02*
X1968Y2075D01*
X1527Y2074D02*
X1536Y2074D01*
X1691Y2074D02*
X1700Y2074D01*
X1959Y2074D02*
X1968Y2074D01*
X1527Y2073D02*
X1536Y2073D01*
X1691Y2073D02*
X1700Y2073D01*
X1959Y2073D02*
X1968Y2073D01*
X1527Y2072D02*
X1536Y2072D01*
X1691Y2072D02*
X1700Y2072D01*
X1959Y2072D02*
X1968Y2072D01*
X1527Y2071D02*
X1536Y2071D01*
X1691Y2071D02*
X1700Y2071D01*
X1959Y2071D02*
X1968Y2071D01*
X1527Y2070D02*
X1536Y2070D01*
X1691Y2070D02*
X1700Y2070D01*
X1959Y2070D02*
X1968Y2070D01*
X1527Y2069D02*
X1536Y2069D01*
X1691Y2069D02*
X1700Y2069D01*
X1959Y2069D02*
X1968Y2069D01*
X1527Y2068D02*
X1536Y2068D01*
X1691Y2068D02*
X1700Y2068D01*
X1959Y2068D02*
X1968Y2068D01*
X1527Y2067D02*
X1536Y2067D01*
X1691Y2067D02*
X1700Y2067D01*
X1959Y2067D02*
X1968Y2067D01*
X1527Y2066D02*
X1536Y2066D01*
X1691Y2066D02*
X1700Y2066D01*
X1959Y2066D02*
X1968Y2066D01*
X1458Y2065D02*
X1462Y2065D01*
X1474Y2065D02*
X1485Y2065D01*
X1527Y2065D02*
X1536Y2065D01*
X1691Y2065D02*
X1700Y2065D01*
X1959Y2065D02*
X1968Y2065D01*
X2250Y2065D02*
X2254Y2065D01*
X2266Y2065D02*
X2277Y2065D01*
X1457Y2064D02*
X1463Y2064D01*
X1472Y2064D02*
X1487Y2064D01*
X1527Y2064D02*
X1536Y2064D01*
X1691Y2064D02*
X1700Y2064D01*
X1959Y2064D02*
X1968Y2064D01*
X2249Y2064D02*
X2255Y2064D01*
X2264Y2064D02*
X2279Y2064D01*
X1169Y2063D02*
X1173Y2063D01*
X1211Y2063D02*
X1215Y2063D01*
X1241Y2063D02*
X1245Y2063D01*
X1283Y2063D02*
X1287Y2063D01*
X1313Y2063D02*
X1317Y2063D01*
X1355Y2063D02*
X1359Y2063D01*
X1456Y2063D02*
X1464Y2063D01*
X1471Y2063D02*
X1489Y2063D01*
X1527Y2063D02*
X1536Y2063D01*
X1551Y2063D02*
X1565Y2063D01*
X1607Y2063D02*
X1626Y2063D01*
X1691Y2063D02*
X1700Y2063D01*
X1753Y2063D02*
X1782Y2063D01*
X1817Y2063D02*
X1821Y2063D01*
X1829Y2063D02*
X1836Y2063D01*
X1849Y2063D02*
X1855Y2063D01*
X1900Y2063D02*
X1925Y2063D01*
X1959Y2063D02*
X1968Y2063D01*
X1997Y2063D02*
X2001Y2063D01*
X2045Y2063D02*
X2066Y2063D01*
X2106Y2063D02*
X2110Y2063D01*
X2125Y2063D02*
X2142Y2063D01*
X2185Y2063D02*
X2214Y2063D01*
X2248Y2063D02*
X2256Y2063D01*
X2263Y2063D02*
X2281Y2063D01*
X2332Y2063D02*
X2357Y2063D01*
X2410Y2063D02*
X2438Y2063D01*
X2477Y2063D02*
X2498Y2063D01*
X2626Y2063D02*
X2654Y2063D01*
X2693Y2063D02*
X2714Y2063D01*
X2753Y2063D02*
X2757Y2063D01*
X2765Y2063D02*
X2772Y2063D01*
X2785Y2063D02*
X2791Y2063D01*
X1168Y2062D02*
X1174Y2062D01*
X1209Y2062D02*
X1216Y2062D01*
X1240Y2062D02*
X1246Y2062D01*
X1281Y2062D02*
X1288Y2062D01*
X1312Y2062D02*
X1318Y2062D01*
X1353Y2062D02*
X1360Y2062D01*
X1456Y2062D02*
X1464Y2062D01*
X1469Y2062D02*
X1491Y2062D01*
X1527Y2062D02*
X1536Y2062D01*
X1548Y2062D02*
X1567Y2062D01*
X1606Y2062D02*
X1627Y2062D01*
X1691Y2062D02*
X1700Y2062D01*
X1751Y2062D02*
X1785Y2062D01*
X1816Y2062D02*
X1822Y2062D01*
X1827Y2062D02*
X1838Y2062D01*
X1847Y2062D02*
X1857Y2062D01*
X1899Y2062D02*
X1927Y2062D01*
X1959Y2062D02*
X1968Y2062D01*
X1995Y2062D02*
X2002Y2062D01*
X2043Y2062D02*
X2068Y2062D01*
X2105Y2062D02*
X2111Y2062D01*
X2124Y2062D02*
X2144Y2062D01*
X2183Y2062D02*
X2217Y2062D01*
X2248Y2062D02*
X2256Y2062D01*
X2261Y2062D02*
X2283Y2062D01*
X2331Y2062D02*
X2359Y2062D01*
X2408Y2062D02*
X2439Y2062D01*
X2475Y2062D02*
X2500Y2062D01*
X2624Y2062D02*
X2655Y2062D01*
X2691Y2062D02*
X2716Y2062D01*
X2752Y2062D02*
X2758Y2062D01*
X2763Y2062D02*
X2774Y2062D01*
X2783Y2062D02*
X2793Y2062D01*
X1167Y2061D02*
X1175Y2061D01*
X1209Y2061D02*
X1216Y2061D01*
X1239Y2061D02*
X1247Y2061D01*
X1281Y2061D02*
X1288Y2061D01*
X1311Y2061D02*
X1319Y2061D01*
X1353Y2061D02*
X1360Y2061D01*
X1455Y2061D02*
X1464Y2061D01*
X1468Y2061D02*
X1492Y2061D01*
X1527Y2061D02*
X1536Y2061D01*
X1546Y2061D02*
X1568Y2061D01*
X1605Y2061D02*
X1628Y2061D01*
X1691Y2061D02*
X1700Y2061D01*
X1749Y2061D02*
X1786Y2061D01*
X1815Y2061D02*
X1823Y2061D01*
X1825Y2061D02*
X1840Y2061D01*
X1845Y2061D02*
X1859Y2061D01*
X1898Y2061D02*
X1928Y2061D01*
X1959Y2061D02*
X1968Y2061D01*
X1994Y2061D02*
X2003Y2061D01*
X2041Y2061D02*
X2070Y2061D01*
X2104Y2061D02*
X2112Y2061D01*
X2123Y2061D02*
X2146Y2061D01*
X2181Y2061D02*
X2218Y2061D01*
X2247Y2061D02*
X2256Y2061D01*
X2260Y2061D02*
X2284Y2061D01*
X2330Y2061D02*
X2360Y2061D01*
X2406Y2061D02*
X2440Y2061D01*
X2473Y2061D02*
X2502Y2061D01*
X2622Y2061D02*
X2656Y2061D01*
X2689Y2061D02*
X2718Y2061D01*
X2751Y2061D02*
X2759Y2061D01*
X2761Y2061D02*
X2776Y2061D01*
X2781Y2061D02*
X2795Y2061D01*
X1167Y2060D02*
X1175Y2060D01*
X1208Y2060D02*
X1217Y2060D01*
X1239Y2060D02*
X1247Y2060D01*
X1280Y2060D02*
X1289Y2060D01*
X1311Y2060D02*
X1319Y2060D01*
X1352Y2060D02*
X1361Y2060D01*
X1455Y2060D02*
X1464Y2060D01*
X1467Y2060D02*
X1493Y2060D01*
X1527Y2060D02*
X1536Y2060D01*
X1545Y2060D02*
X1570Y2060D01*
X1604Y2060D02*
X1628Y2060D01*
X1691Y2060D02*
X1700Y2060D01*
X1748Y2060D02*
X1788Y2060D01*
X1815Y2060D02*
X1841Y2060D01*
X1844Y2060D02*
X1860Y2060D01*
X1897Y2060D02*
X1930Y2060D01*
X1959Y2060D02*
X1968Y2060D01*
X1993Y2060D02*
X2003Y2060D01*
X2040Y2060D02*
X2071Y2060D01*
X2104Y2060D02*
X2112Y2060D01*
X2122Y2060D02*
X2147Y2060D01*
X2180Y2060D02*
X2220Y2060D01*
X2247Y2060D02*
X2256Y2060D01*
X2259Y2060D02*
X2285Y2060D01*
X2329Y2060D02*
X2362Y2060D01*
X2405Y2060D02*
X2440Y2060D01*
X2472Y2060D02*
X2503Y2060D01*
X2621Y2060D02*
X2656Y2060D01*
X2688Y2060D02*
X2719Y2060D01*
X2751Y2060D02*
X2777Y2060D01*
X2780Y2060D02*
X2796Y2060D01*
X1166Y2059D02*
X1175Y2059D01*
X1208Y2059D02*
X1217Y2059D01*
X1238Y2059D02*
X1247Y2059D01*
X1280Y2059D02*
X1289Y2059D01*
X1310Y2059D02*
X1319Y2059D01*
X1352Y2059D02*
X1361Y2059D01*
X1455Y2059D02*
X1464Y2059D01*
X1466Y2059D02*
X1494Y2059D01*
X1527Y2059D02*
X1536Y2059D01*
X1543Y2059D02*
X1571Y2059D01*
X1604Y2059D02*
X1628Y2059D01*
X1691Y2059D02*
X1700Y2059D01*
X1747Y2059D02*
X1789Y2059D01*
X1815Y2059D02*
X1861Y2059D01*
X1897Y2059D02*
X1931Y2059D01*
X1959Y2059D02*
X1968Y2059D01*
X1992Y2059D02*
X2003Y2059D01*
X2039Y2059D02*
X2073Y2059D01*
X2103Y2059D02*
X2112Y2059D01*
X2121Y2059D02*
X2148Y2059D01*
X2179Y2059D02*
X2221Y2059D01*
X2247Y2059D02*
X2256Y2059D01*
X2258Y2059D02*
X2286Y2059D01*
X2329Y2059D02*
X2363Y2059D01*
X2403Y2059D02*
X2440Y2059D01*
X2471Y2059D02*
X2505Y2059D01*
X2619Y2059D02*
X2656Y2059D01*
X2687Y2059D02*
X2721Y2059D01*
X2751Y2059D02*
X2797Y2059D01*
X1166Y2058D02*
X1175Y2058D01*
X1208Y2058D02*
X1217Y2058D01*
X1238Y2058D02*
X1247Y2058D01*
X1280Y2058D02*
X1289Y2058D01*
X1310Y2058D02*
X1319Y2058D01*
X1352Y2058D02*
X1361Y2058D01*
X1455Y2058D02*
X1495Y2058D01*
X1527Y2058D02*
X1536Y2058D01*
X1542Y2058D02*
X1572Y2058D01*
X1604Y2058D02*
X1628Y2058D01*
X1691Y2058D02*
X1700Y2058D01*
X1747Y2058D02*
X1790Y2058D01*
X1815Y2058D02*
X1861Y2058D01*
X1897Y2058D02*
X1932Y2058D01*
X1959Y2058D02*
X1968Y2058D01*
X1990Y2058D02*
X2003Y2058D01*
X2038Y2058D02*
X2074Y2058D01*
X2103Y2058D02*
X2112Y2058D01*
X2120Y2058D02*
X2149Y2058D01*
X2179Y2058D02*
X2222Y2058D01*
X2247Y2058D02*
X2287Y2058D01*
X2329Y2058D02*
X2364Y2058D01*
X2402Y2058D02*
X2440Y2058D01*
X2470Y2058D02*
X2506Y2058D01*
X2618Y2058D02*
X2656Y2058D01*
X2686Y2058D02*
X2722Y2058D01*
X2751Y2058D02*
X2797Y2058D01*
X1166Y2057D02*
X1175Y2057D01*
X1208Y2057D02*
X1217Y2057D01*
X1238Y2057D02*
X1247Y2057D01*
X1280Y2057D02*
X1289Y2057D01*
X1310Y2057D02*
X1319Y2057D01*
X1352Y2057D02*
X1361Y2057D01*
X1455Y2057D02*
X1496Y2057D01*
X1527Y2057D02*
X1536Y2057D01*
X1540Y2057D02*
X1572Y2057D01*
X1605Y2057D02*
X1628Y2057D01*
X1691Y2057D02*
X1700Y2057D01*
X1746Y2057D02*
X1790Y2057D01*
X1815Y2057D02*
X1862Y2057D01*
X1898Y2057D02*
X1932Y2057D01*
X1959Y2057D02*
X1968Y2057D01*
X1989Y2057D02*
X2003Y2057D01*
X2037Y2057D02*
X2075Y2057D01*
X2103Y2057D02*
X2112Y2057D01*
X2118Y2057D02*
X2150Y2057D01*
X2178Y2057D02*
X2222Y2057D01*
X2247Y2057D02*
X2288Y2057D01*
X2330Y2057D02*
X2364Y2057D01*
X2401Y2057D02*
X2440Y2057D01*
X2469Y2057D02*
X2507Y2057D01*
X2617Y2057D02*
X2656Y2057D01*
X2685Y2057D02*
X2723Y2057D01*
X2751Y2057D02*
X2798Y2057D01*
X1166Y2056D02*
X1175Y2056D01*
X1208Y2056D02*
X1217Y2056D01*
X1238Y2056D02*
X1247Y2056D01*
X1280Y2056D02*
X1289Y2056D01*
X1310Y2056D02*
X1319Y2056D01*
X1352Y2056D02*
X1361Y2056D01*
X1455Y2056D02*
X1498Y2056D01*
X1527Y2056D02*
X1536Y2056D01*
X1539Y2056D02*
X1573Y2056D01*
X1605Y2056D02*
X1628Y2056D01*
X1691Y2056D02*
X1700Y2056D01*
X1746Y2056D02*
X1791Y2056D01*
X1815Y2056D02*
X1863Y2056D01*
X1898Y2056D02*
X1933Y2056D01*
X1959Y2056D02*
X1968Y2056D01*
X1988Y2056D02*
X2002Y2056D01*
X2036Y2056D02*
X2076Y2056D01*
X2103Y2056D02*
X2112Y2056D01*
X2117Y2056D02*
X2150Y2056D01*
X2178Y2056D02*
X2223Y2056D01*
X2247Y2056D02*
X2290Y2056D01*
X2330Y2056D02*
X2365Y2056D01*
X2400Y2056D02*
X2439Y2056D01*
X2468Y2056D02*
X2508Y2056D01*
X2616Y2056D02*
X2655Y2056D01*
X2684Y2056D02*
X2724Y2056D01*
X2751Y2056D02*
X2799Y2056D01*
X1166Y2055D02*
X1175Y2055D01*
X1208Y2055D02*
X1217Y2055D01*
X1238Y2055D02*
X1247Y2055D01*
X1280Y2055D02*
X1289Y2055D01*
X1310Y2055D02*
X1319Y2055D01*
X1352Y2055D02*
X1361Y2055D01*
X1455Y2055D02*
X1476Y2055D01*
X1484Y2055D02*
X1499Y2055D01*
X1527Y2055D02*
X1574Y2055D01*
X1606Y2055D02*
X1628Y2055D01*
X1691Y2055D02*
X1700Y2055D01*
X1745Y2055D02*
X1791Y2055D01*
X1815Y2055D02*
X1863Y2055D01*
X1899Y2055D02*
X1934Y2055D01*
X1959Y2055D02*
X1968Y2055D01*
X1987Y2055D02*
X2001Y2055D01*
X2035Y2055D02*
X2077Y2055D01*
X2103Y2055D02*
X2112Y2055D01*
X2116Y2055D02*
X2151Y2055D01*
X2177Y2055D02*
X2223Y2055D01*
X2247Y2055D02*
X2268Y2055D01*
X2276Y2055D02*
X2291Y2055D01*
X2331Y2055D02*
X2365Y2055D01*
X2399Y2055D02*
X2438Y2055D01*
X2467Y2055D02*
X2509Y2055D01*
X2615Y2055D02*
X2654Y2055D01*
X2683Y2055D02*
X2725Y2055D01*
X2751Y2055D02*
X2799Y2055D01*
X1166Y2054D02*
X1176Y2054D01*
X1208Y2054D02*
X1217Y2054D01*
X1238Y2054D02*
X1248Y2054D01*
X1280Y2054D02*
X1289Y2054D01*
X1310Y2054D02*
X1320Y2054D01*
X1352Y2054D02*
X1361Y2054D01*
X1455Y2054D02*
X1474Y2054D01*
X1485Y2054D02*
X1500Y2054D01*
X1527Y2054D02*
X1574Y2054D01*
X1608Y2054D02*
X1628Y2054D01*
X1691Y2054D02*
X1700Y2054D01*
X1745Y2054D02*
X1791Y2054D01*
X1815Y2054D02*
X1863Y2054D01*
X1901Y2054D02*
X1934Y2054D01*
X1959Y2054D02*
X1968Y2054D01*
X1986Y2054D02*
X2000Y2054D01*
X2034Y2054D02*
X2078Y2054D01*
X2103Y2054D02*
X2112Y2054D01*
X2115Y2054D02*
X2151Y2054D01*
X2177Y2054D02*
X2223Y2054D01*
X2247Y2054D02*
X2266Y2054D01*
X2277Y2054D02*
X2292Y2054D01*
X2333Y2054D02*
X2366Y2054D01*
X2398Y2054D02*
X2437Y2054D01*
X2466Y2054D02*
X2510Y2054D01*
X2614Y2054D02*
X2653Y2054D01*
X2682Y2054D02*
X2726Y2054D01*
X2751Y2054D02*
X2799Y2054D01*
X1166Y2053D02*
X1176Y2053D01*
X1208Y2053D02*
X1217Y2053D01*
X1238Y2053D02*
X1248Y2053D01*
X1280Y2053D02*
X1289Y2053D01*
X1310Y2053D02*
X1320Y2053D01*
X1352Y2053D02*
X1361Y2053D01*
X1455Y2053D02*
X1473Y2053D01*
X1486Y2053D02*
X1500Y2053D01*
X1527Y2053D02*
X1552Y2053D01*
X1563Y2053D02*
X1574Y2053D01*
X1619Y2053D02*
X1628Y2053D01*
X1691Y2053D02*
X1700Y2053D01*
X1745Y2053D02*
X1755Y2053D01*
X1781Y2053D02*
X1791Y2053D01*
X1815Y2053D02*
X1830Y2053D01*
X1835Y2053D02*
X1850Y2053D01*
X1854Y2053D02*
X1863Y2053D01*
X1923Y2053D02*
X1934Y2053D01*
X1959Y2053D02*
X1968Y2053D01*
X1985Y2053D02*
X1999Y2053D01*
X2033Y2053D02*
X2046Y2053D01*
X2065Y2053D02*
X2078Y2053D01*
X2103Y2053D02*
X2128Y2053D01*
X2140Y2053D02*
X2151Y2053D01*
X2177Y2053D02*
X2187Y2053D01*
X2213Y2053D02*
X2223Y2053D01*
X2247Y2053D02*
X2265Y2053D01*
X2278Y2053D02*
X2292Y2053D01*
X2355Y2053D02*
X2366Y2053D01*
X2397Y2053D02*
X2412Y2053D01*
X2465Y2053D02*
X2478Y2053D01*
X2497Y2053D02*
X2510Y2053D01*
X2613Y2053D02*
X2628Y2053D01*
X2681Y2053D02*
X2694Y2053D01*
X2713Y2053D02*
X2726Y2053D01*
X2751Y2053D02*
X2766Y2053D01*
X2771Y2053D02*
X2786Y2053D01*
X2790Y2053D02*
X2799Y2053D01*
X1166Y2052D02*
X1176Y2052D01*
X1208Y2052D02*
X1217Y2052D01*
X1238Y2052D02*
X1248Y2052D01*
X1280Y2052D02*
X1289Y2052D01*
X1310Y2052D02*
X1320Y2052D01*
X1352Y2052D02*
X1361Y2052D01*
X1455Y2052D02*
X1473Y2052D01*
X1488Y2052D02*
X1501Y2052D01*
X1527Y2052D02*
X1550Y2052D01*
X1564Y2052D02*
X1574Y2052D01*
X1619Y2052D02*
X1628Y2052D01*
X1691Y2052D02*
X1700Y2052D01*
X1745Y2052D02*
X1754Y2052D01*
X1782Y2052D02*
X1790Y2052D01*
X1815Y2052D02*
X1829Y2052D01*
X1835Y2052D02*
X1849Y2052D01*
X1854Y2052D02*
X1863Y2052D01*
X1924Y2052D02*
X1934Y2052D01*
X1959Y2052D02*
X1968Y2052D01*
X1983Y2052D02*
X1998Y2052D01*
X2033Y2052D02*
X2045Y2052D01*
X2067Y2052D02*
X2079Y2052D01*
X2103Y2052D02*
X2127Y2052D01*
X2142Y2052D02*
X2152Y2052D01*
X2177Y2052D02*
X2186Y2052D01*
X2214Y2052D02*
X2222Y2052D01*
X2247Y2052D02*
X2265Y2052D01*
X2280Y2052D02*
X2293Y2052D01*
X2356Y2052D02*
X2366Y2052D01*
X2396Y2052D02*
X2410Y2052D01*
X2465Y2052D02*
X2477Y2052D01*
X2499Y2052D02*
X2511Y2052D01*
X2612Y2052D02*
X2626Y2052D01*
X2681Y2052D02*
X2693Y2052D01*
X2715Y2052D02*
X2727Y2052D01*
X2751Y2052D02*
X2765Y2052D01*
X2771Y2052D02*
X2785Y2052D01*
X2790Y2052D02*
X2799Y2052D01*
X1166Y2051D02*
X1176Y2051D01*
X1208Y2051D02*
X1217Y2051D01*
X1238Y2051D02*
X1248Y2051D01*
X1280Y2051D02*
X1289Y2051D01*
X1310Y2051D02*
X1320Y2051D01*
X1352Y2051D02*
X1361Y2051D01*
X1455Y2051D02*
X1472Y2051D01*
X1489Y2051D02*
X1502Y2051D01*
X1527Y2051D02*
X1549Y2051D01*
X1565Y2051D02*
X1575Y2051D01*
X1619Y2051D02*
X1628Y2051D01*
X1691Y2051D02*
X1700Y2051D01*
X1745Y2051D02*
X1754Y2051D01*
X1784Y2051D02*
X1790Y2051D01*
X1815Y2051D02*
X1828Y2051D01*
X1835Y2051D02*
X1848Y2051D01*
X1854Y2051D02*
X1863Y2051D01*
X1925Y2051D02*
X1935Y2051D01*
X1959Y2051D02*
X1968Y2051D01*
X1982Y2051D02*
X1997Y2051D01*
X2032Y2051D02*
X2044Y2051D01*
X2068Y2051D02*
X2079Y2051D01*
X2103Y2051D02*
X2126Y2051D01*
X2142Y2051D02*
X2152Y2051D01*
X2177Y2051D02*
X2186Y2051D01*
X2216Y2051D02*
X2222Y2051D01*
X2247Y2051D02*
X2264Y2051D01*
X2281Y2051D02*
X2294Y2051D01*
X2357Y2051D02*
X2367Y2051D01*
X2395Y2051D02*
X2409Y2051D01*
X2464Y2051D02*
X2476Y2051D01*
X2500Y2051D02*
X2511Y2051D01*
X2611Y2051D02*
X2625Y2051D01*
X2680Y2051D02*
X2692Y2051D01*
X2716Y2051D02*
X2727Y2051D01*
X2751Y2051D02*
X2764Y2051D01*
X2771Y2051D02*
X2784Y2051D01*
X2790Y2051D02*
X2799Y2051D01*
X1167Y2050D02*
X1176Y2050D01*
X1208Y2050D02*
X1217Y2050D01*
X1239Y2050D02*
X1248Y2050D01*
X1280Y2050D02*
X1289Y2050D01*
X1311Y2050D02*
X1320Y2050D01*
X1352Y2050D02*
X1361Y2050D01*
X1455Y2050D02*
X1471Y2050D01*
X1490Y2050D02*
X1503Y2050D01*
X1527Y2050D02*
X1547Y2050D01*
X1565Y2050D02*
X1575Y2050D01*
X1619Y2050D02*
X1628Y2050D01*
X1691Y2050D02*
X1700Y2050D01*
X1745Y2050D02*
X1754Y2050D01*
X1785Y2050D02*
X1788Y2050D01*
X1815Y2050D02*
X1827Y2050D01*
X1835Y2050D02*
X1847Y2050D01*
X1854Y2050D02*
X1863Y2050D01*
X1925Y2050D02*
X1935Y2050D01*
X1959Y2050D02*
X1968Y2050D01*
X1981Y2050D02*
X1996Y2050D01*
X2032Y2050D02*
X2043Y2050D01*
X2069Y2050D02*
X2079Y2050D01*
X2103Y2050D02*
X2125Y2050D01*
X2143Y2050D02*
X2152Y2050D01*
X2177Y2050D02*
X2186Y2050D01*
X2217Y2050D02*
X2220Y2050D01*
X2247Y2050D02*
X2263Y2050D01*
X2282Y2050D02*
X2295Y2050D01*
X2357Y2050D02*
X2367Y2050D01*
X2394Y2050D02*
X2408Y2050D01*
X2464Y2050D02*
X2475Y2050D01*
X2501Y2050D02*
X2511Y2050D01*
X2610Y2050D02*
X2624Y2050D01*
X2680Y2050D02*
X2691Y2050D01*
X2717Y2050D02*
X2727Y2050D01*
X2751Y2050D02*
X2763Y2050D01*
X2771Y2050D02*
X2783Y2050D01*
X2790Y2050D02*
X2799Y2050D01*
X1167Y2049D02*
X1176Y2049D01*
X1208Y2049D02*
X1217Y2049D01*
X1239Y2049D02*
X1248Y2049D01*
X1280Y2049D02*
X1289Y2049D01*
X1311Y2049D02*
X1320Y2049D01*
X1352Y2049D02*
X1361Y2049D01*
X1455Y2049D02*
X1470Y2049D01*
X1491Y2049D02*
X1503Y2049D01*
X1527Y2049D02*
X1545Y2049D01*
X1566Y2049D02*
X1575Y2049D01*
X1619Y2049D02*
X1628Y2049D01*
X1691Y2049D02*
X1700Y2049D01*
X1745Y2049D02*
X1754Y2049D01*
X1815Y2049D02*
X1826Y2049D01*
X1835Y2049D02*
X1846Y2049D01*
X1854Y2049D02*
X1863Y2049D01*
X1926Y2049D02*
X1935Y2049D01*
X1959Y2049D02*
X1968Y2049D01*
X1980Y2049D02*
X1994Y2049D01*
X2032Y2049D02*
X2042Y2049D01*
X2070Y2049D02*
X2080Y2049D01*
X2103Y2049D02*
X2124Y2049D01*
X2143Y2049D02*
X2152Y2049D01*
X2177Y2049D02*
X2186Y2049D01*
X2247Y2049D02*
X2262Y2049D01*
X2283Y2049D02*
X2295Y2049D01*
X2358Y2049D02*
X2367Y2049D01*
X2393Y2049D02*
X2407Y2049D01*
X2464Y2049D02*
X2474Y2049D01*
X2502Y2049D02*
X2512Y2049D01*
X2609Y2049D02*
X2623Y2049D01*
X2680Y2049D02*
X2690Y2049D01*
X2718Y2049D02*
X2728Y2049D01*
X2751Y2049D02*
X2762Y2049D01*
X2771Y2049D02*
X2782Y2049D01*
X2790Y2049D02*
X2799Y2049D01*
X1167Y2048D02*
X1176Y2048D01*
X1208Y2048D02*
X1217Y2048D01*
X1239Y2048D02*
X1248Y2048D01*
X1280Y2048D02*
X1289Y2048D01*
X1311Y2048D02*
X1320Y2048D01*
X1352Y2048D02*
X1361Y2048D01*
X1455Y2048D02*
X1469Y2048D01*
X1492Y2048D02*
X1503Y2048D01*
X1527Y2048D02*
X1544Y2048D01*
X1566Y2048D02*
X1575Y2048D01*
X1619Y2048D02*
X1628Y2048D01*
X1691Y2048D02*
X1700Y2048D01*
X1745Y2048D02*
X1756Y2048D01*
X1815Y2048D02*
X1825Y2048D01*
X1835Y2048D02*
X1844Y2048D01*
X1854Y2048D02*
X1864Y2048D01*
X1926Y2048D02*
X1935Y2048D01*
X1959Y2048D02*
X1968Y2048D01*
X1979Y2048D02*
X1993Y2048D01*
X2032Y2048D02*
X2041Y2048D01*
X2070Y2048D02*
X2080Y2048D01*
X2103Y2048D02*
X2122Y2048D01*
X2143Y2048D02*
X2152Y2048D01*
X2177Y2048D02*
X2188Y2048D01*
X2247Y2048D02*
X2261Y2048D01*
X2284Y2048D02*
X2295Y2048D01*
X2358Y2048D02*
X2367Y2048D01*
X2393Y2048D02*
X2406Y2048D01*
X2464Y2048D02*
X2473Y2048D01*
X2502Y2048D02*
X2512Y2048D01*
X2609Y2048D02*
X2622Y2048D01*
X2680Y2048D02*
X2689Y2048D01*
X2718Y2048D02*
X2728Y2048D01*
X2751Y2048D02*
X2761Y2048D01*
X2771Y2048D02*
X2780Y2048D01*
X2790Y2048D02*
X2800Y2048D01*
X1167Y2047D02*
X1176Y2047D01*
X1208Y2047D02*
X1217Y2047D01*
X1239Y2047D02*
X1248Y2047D01*
X1280Y2047D02*
X1289Y2047D01*
X1311Y2047D02*
X1320Y2047D01*
X1352Y2047D02*
X1361Y2047D01*
X1455Y2047D02*
X1468Y2047D01*
X1493Y2047D02*
X1504Y2047D01*
X1527Y2047D02*
X1542Y2047D01*
X1566Y2047D02*
X1575Y2047D01*
X1619Y2047D02*
X1628Y2047D01*
X1691Y2047D02*
X1700Y2047D01*
X1745Y2047D02*
X1758Y2047D01*
X1815Y2047D02*
X1824Y2047D01*
X1835Y2047D02*
X1844Y2047D01*
X1855Y2047D02*
X1864Y2047D01*
X1926Y2047D02*
X1935Y2047D01*
X1959Y2047D02*
X1968Y2047D01*
X1978Y2047D02*
X1992Y2047D01*
X2031Y2047D02*
X2041Y2047D01*
X2071Y2047D02*
X2080Y2047D01*
X2103Y2047D02*
X2121Y2047D01*
X2143Y2047D02*
X2152Y2047D01*
X2177Y2047D02*
X2190Y2047D01*
X2247Y2047D02*
X2260Y2047D01*
X2285Y2047D02*
X2296Y2047D01*
X2358Y2047D02*
X2367Y2047D01*
X2392Y2047D02*
X2404Y2047D01*
X2463Y2047D02*
X2473Y2047D01*
X2503Y2047D02*
X2512Y2047D01*
X2608Y2047D02*
X2620Y2047D01*
X2679Y2047D02*
X2689Y2047D01*
X2719Y2047D02*
X2728Y2047D01*
X2751Y2047D02*
X2760Y2047D01*
X2771Y2047D02*
X2780Y2047D01*
X2791Y2047D02*
X2800Y2047D01*
X1167Y2046D02*
X1176Y2046D01*
X1190Y2046D02*
X1194Y2046D01*
X1208Y2046D02*
X1217Y2046D01*
X1239Y2046D02*
X1248Y2046D01*
X1262Y2046D02*
X1266Y2046D01*
X1280Y2046D02*
X1289Y2046D01*
X1311Y2046D02*
X1320Y2046D01*
X1334Y2046D02*
X1338Y2046D01*
X1352Y2046D02*
X1361Y2046D01*
X1455Y2046D02*
X1467Y2046D01*
X1494Y2046D02*
X1504Y2046D01*
X1527Y2046D02*
X1541Y2046D01*
X1566Y2046D02*
X1575Y2046D01*
X1619Y2046D02*
X1628Y2046D01*
X1691Y2046D02*
X1700Y2046D01*
X1746Y2046D02*
X1761Y2046D01*
X1815Y2046D02*
X1824Y2046D01*
X1835Y2046D02*
X1844Y2046D01*
X1855Y2046D02*
X1864Y2046D01*
X1926Y2046D02*
X1935Y2046D01*
X1959Y2046D02*
X1968Y2046D01*
X1976Y2046D02*
X1991Y2046D01*
X2031Y2046D02*
X2040Y2046D01*
X2071Y2046D02*
X2080Y2046D01*
X2103Y2046D02*
X2120Y2046D01*
X2143Y2046D02*
X2152Y2046D01*
X2178Y2046D02*
X2193Y2046D01*
X2247Y2046D02*
X2259Y2046D01*
X2286Y2046D02*
X2296Y2046D01*
X2358Y2046D02*
X2367Y2046D01*
X2392Y2046D02*
X2403Y2046D01*
X2463Y2046D02*
X2472Y2046D01*
X2503Y2046D02*
X2512Y2046D01*
X2608Y2046D02*
X2619Y2046D01*
X2679Y2046D02*
X2688Y2046D01*
X2719Y2046D02*
X2728Y2046D01*
X2751Y2046D02*
X2760Y2046D01*
X2771Y2046D02*
X2780Y2046D01*
X2791Y2046D02*
X2800Y2046D01*
X1167Y2045D02*
X1176Y2045D01*
X1188Y2045D02*
X1195Y2045D01*
X1208Y2045D02*
X1217Y2045D01*
X1239Y2045D02*
X1248Y2045D01*
X1260Y2045D02*
X1267Y2045D01*
X1280Y2045D02*
X1289Y2045D01*
X1311Y2045D02*
X1320Y2045D01*
X1332Y2045D02*
X1339Y2045D01*
X1352Y2045D02*
X1361Y2045D01*
X1455Y2045D02*
X1466Y2045D01*
X1495Y2045D02*
X1504Y2045D01*
X1527Y2045D02*
X1539Y2045D01*
X1566Y2045D02*
X1575Y2045D01*
X1619Y2045D02*
X1628Y2045D01*
X1691Y2045D02*
X1700Y2045D01*
X1746Y2045D02*
X1763Y2045D01*
X1815Y2045D02*
X1824Y2045D01*
X1835Y2045D02*
X1844Y2045D01*
X1855Y2045D02*
X1864Y2045D01*
X1926Y2045D02*
X1935Y2045D01*
X1959Y2045D02*
X1968Y2045D01*
X1975Y2045D02*
X1990Y2045D01*
X2031Y2045D02*
X2040Y2045D01*
X2071Y2045D02*
X2080Y2045D01*
X2103Y2045D02*
X2119Y2045D01*
X2143Y2045D02*
X2152Y2045D01*
X2178Y2045D02*
X2195Y2045D01*
X2247Y2045D02*
X2258Y2045D01*
X2287Y2045D02*
X2296Y2045D01*
X2358Y2045D02*
X2367Y2045D01*
X2392Y2045D02*
X2402Y2045D01*
X2463Y2045D02*
X2472Y2045D01*
X2503Y2045D02*
X2512Y2045D01*
X2608Y2045D02*
X2618Y2045D01*
X2679Y2045D02*
X2688Y2045D01*
X2719Y2045D02*
X2728Y2045D01*
X2751Y2045D02*
X2760Y2045D01*
X2771Y2045D02*
X2780Y2045D01*
X2791Y2045D02*
X2800Y2045D01*
X1167Y2044D02*
X1176Y2044D01*
X1188Y2044D02*
X1196Y2044D01*
X1208Y2044D02*
X1217Y2044D01*
X1239Y2044D02*
X1248Y2044D01*
X1260Y2044D02*
X1268Y2044D01*
X1280Y2044D02*
X1289Y2044D01*
X1311Y2044D02*
X1320Y2044D01*
X1332Y2044D02*
X1340Y2044D01*
X1352Y2044D02*
X1361Y2044D01*
X1455Y2044D02*
X1465Y2044D01*
X1495Y2044D02*
X1504Y2044D01*
X1527Y2044D02*
X1538Y2044D01*
X1566Y2044D02*
X1575Y2044D01*
X1619Y2044D02*
X1628Y2044D01*
X1691Y2044D02*
X1700Y2044D01*
X1747Y2044D02*
X1765Y2044D01*
X1815Y2044D02*
X1824Y2044D01*
X1835Y2044D02*
X1844Y2044D01*
X1855Y2044D02*
X1864Y2044D01*
X1926Y2044D02*
X1935Y2044D01*
X1959Y2044D02*
X1968Y2044D01*
X1974Y2044D02*
X1989Y2044D01*
X2031Y2044D02*
X2040Y2044D01*
X2071Y2044D02*
X2080Y2044D01*
X2103Y2044D02*
X2118Y2044D01*
X2143Y2044D02*
X2152Y2044D01*
X2179Y2044D02*
X2197Y2044D01*
X2247Y2044D02*
X2257Y2044D01*
X2287Y2044D02*
X2296Y2044D01*
X2358Y2044D02*
X2367Y2044D01*
X2392Y2044D02*
X2401Y2044D01*
X2463Y2044D02*
X2472Y2044D01*
X2503Y2044D02*
X2512Y2044D01*
X2608Y2044D02*
X2617Y2044D01*
X2679Y2044D02*
X2688Y2044D01*
X2719Y2044D02*
X2728Y2044D01*
X2751Y2044D02*
X2760Y2044D01*
X2771Y2044D02*
X2780Y2044D01*
X2791Y2044D02*
X2800Y2044D01*
X1167Y2043D02*
X1176Y2043D01*
X1187Y2043D02*
X1196Y2043D01*
X1207Y2043D02*
X1217Y2043D01*
X1239Y2043D02*
X1248Y2043D01*
X1259Y2043D02*
X1268Y2043D01*
X1279Y2043D02*
X1289Y2043D01*
X1311Y2043D02*
X1320Y2043D01*
X1331Y2043D02*
X1340Y2043D01*
X1351Y2043D02*
X1361Y2043D01*
X1455Y2043D02*
X1465Y2043D01*
X1495Y2043D02*
X1504Y2043D01*
X1527Y2043D02*
X1537Y2043D01*
X1566Y2043D02*
X1575Y2043D01*
X1619Y2043D02*
X1628Y2043D01*
X1691Y2043D02*
X1700Y2043D01*
X1747Y2043D02*
X1768Y2043D01*
X1815Y2043D02*
X1824Y2043D01*
X1835Y2043D02*
X1844Y2043D01*
X1855Y2043D02*
X1864Y2043D01*
X1926Y2043D02*
X1935Y2043D01*
X1959Y2043D02*
X1968Y2043D01*
X1973Y2043D02*
X1987Y2043D01*
X2031Y2043D02*
X2040Y2043D01*
X2071Y2043D02*
X2080Y2043D01*
X2103Y2043D02*
X2117Y2043D01*
X2144Y2043D02*
X2151Y2043D01*
X2179Y2043D02*
X2200Y2043D01*
X2247Y2043D02*
X2257Y2043D01*
X2287Y2043D02*
X2296Y2043D01*
X2358Y2043D02*
X2367Y2043D01*
X2391Y2043D02*
X2401Y2043D01*
X2463Y2043D02*
X2472Y2043D01*
X2503Y2043D02*
X2512Y2043D01*
X2607Y2043D02*
X2617Y2043D01*
X2679Y2043D02*
X2688Y2043D01*
X2719Y2043D02*
X2728Y2043D01*
X2751Y2043D02*
X2760Y2043D01*
X2771Y2043D02*
X2780Y2043D01*
X2791Y2043D02*
X2800Y2043D01*
X1167Y2042D02*
X1176Y2042D01*
X1187Y2042D02*
X1196Y2042D01*
X1207Y2042D02*
X1217Y2042D01*
X1239Y2042D02*
X1248Y2042D01*
X1259Y2042D02*
X1268Y2042D01*
X1279Y2042D02*
X1289Y2042D01*
X1311Y2042D02*
X1320Y2042D01*
X1331Y2042D02*
X1340Y2042D01*
X1351Y2042D02*
X1361Y2042D01*
X1455Y2042D02*
X1464Y2042D01*
X1495Y2042D02*
X1504Y2042D01*
X1527Y2042D02*
X1536Y2042D01*
X1566Y2042D02*
X1575Y2042D01*
X1619Y2042D02*
X1628Y2042D01*
X1691Y2042D02*
X1700Y2042D01*
X1748Y2042D02*
X1770Y2042D01*
X1815Y2042D02*
X1824Y2042D01*
X1835Y2042D02*
X1844Y2042D01*
X1855Y2042D02*
X1864Y2042D01*
X1898Y2042D02*
X1935Y2042D01*
X1959Y2042D02*
X1968Y2042D01*
X1972Y2042D02*
X1986Y2042D01*
X2031Y2042D02*
X2040Y2042D01*
X2071Y2042D02*
X2080Y2042D01*
X2103Y2042D02*
X2115Y2042D01*
X2145Y2042D02*
X2150Y2042D01*
X2180Y2042D02*
X2202Y2042D01*
X2247Y2042D02*
X2256Y2042D01*
X2287Y2042D02*
X2296Y2042D01*
X2330Y2042D02*
X2367Y2042D01*
X2391Y2042D02*
X2400Y2042D01*
X2463Y2042D02*
X2472Y2042D01*
X2503Y2042D02*
X2512Y2042D01*
X2607Y2042D02*
X2616Y2042D01*
X2679Y2042D02*
X2688Y2042D01*
X2719Y2042D02*
X2728Y2042D01*
X2751Y2042D02*
X2760Y2042D01*
X2771Y2042D02*
X2780Y2042D01*
X2791Y2042D02*
X2800Y2042D01*
X1167Y2041D02*
X1176Y2041D01*
X1187Y2041D02*
X1196Y2041D01*
X1207Y2041D02*
X1217Y2041D01*
X1239Y2041D02*
X1248Y2041D01*
X1259Y2041D02*
X1268Y2041D01*
X1279Y2041D02*
X1289Y2041D01*
X1311Y2041D02*
X1320Y2041D01*
X1331Y2041D02*
X1340Y2041D01*
X1351Y2041D02*
X1361Y2041D01*
X1455Y2041D02*
X1464Y2041D01*
X1495Y2041D02*
X1504Y2041D01*
X1527Y2041D02*
X1536Y2041D01*
X1566Y2041D02*
X1575Y2041D01*
X1619Y2041D02*
X1628Y2041D01*
X1691Y2041D02*
X1700Y2041D01*
X1749Y2041D02*
X1772Y2041D01*
X1815Y2041D02*
X1824Y2041D01*
X1835Y2041D02*
X1844Y2041D01*
X1855Y2041D02*
X1864Y2041D01*
X1896Y2041D02*
X1935Y2041D01*
X1959Y2041D02*
X1968Y2041D01*
X1971Y2041D02*
X1985Y2041D01*
X2031Y2041D02*
X2040Y2041D01*
X2071Y2041D02*
X2080Y2041D01*
X2103Y2041D02*
X2114Y2041D01*
X2181Y2041D02*
X2204Y2041D01*
X2247Y2041D02*
X2256Y2041D01*
X2287Y2041D02*
X2296Y2041D01*
X2328Y2041D02*
X2367Y2041D01*
X2391Y2041D02*
X2400Y2041D01*
X2463Y2041D02*
X2472Y2041D01*
X2503Y2041D02*
X2512Y2041D01*
X2607Y2041D02*
X2616Y2041D01*
X2679Y2041D02*
X2688Y2041D01*
X2719Y2041D02*
X2728Y2041D01*
X2751Y2041D02*
X2760Y2041D01*
X2771Y2041D02*
X2780Y2041D01*
X2791Y2041D02*
X2800Y2041D01*
X1167Y2040D02*
X1176Y2040D01*
X1187Y2040D02*
X1196Y2040D01*
X1207Y2040D02*
X1216Y2040D01*
X1239Y2040D02*
X1248Y2040D01*
X1259Y2040D02*
X1268Y2040D01*
X1279Y2040D02*
X1288Y2040D01*
X1311Y2040D02*
X1320Y2040D01*
X1331Y2040D02*
X1340Y2040D01*
X1351Y2040D02*
X1360Y2040D01*
X1455Y2040D02*
X1464Y2040D01*
X1495Y2040D02*
X1504Y2040D01*
X1527Y2040D02*
X1536Y2040D01*
X1566Y2040D02*
X1575Y2040D01*
X1619Y2040D02*
X1628Y2040D01*
X1691Y2040D02*
X1700Y2040D01*
X1751Y2040D02*
X1775Y2040D01*
X1815Y2040D02*
X1824Y2040D01*
X1835Y2040D02*
X1844Y2040D01*
X1855Y2040D02*
X1864Y2040D01*
X1894Y2040D02*
X1935Y2040D01*
X1959Y2040D02*
X1984Y2040D01*
X2031Y2040D02*
X2040Y2040D01*
X2071Y2040D02*
X2080Y2040D01*
X2103Y2040D02*
X2113Y2040D01*
X2183Y2040D02*
X2207Y2040D01*
X2247Y2040D02*
X2256Y2040D01*
X2287Y2040D02*
X2296Y2040D01*
X2326Y2040D02*
X2367Y2040D01*
X2391Y2040D02*
X2400Y2040D01*
X2463Y2040D02*
X2472Y2040D01*
X2503Y2040D02*
X2512Y2040D01*
X2607Y2040D02*
X2616Y2040D01*
X2679Y2040D02*
X2688Y2040D01*
X2719Y2040D02*
X2728Y2040D01*
X2751Y2040D02*
X2760Y2040D01*
X2771Y2040D02*
X2780Y2040D01*
X2791Y2040D02*
X2800Y2040D01*
X1167Y2039D02*
X1176Y2039D01*
X1187Y2039D02*
X1196Y2039D01*
X1207Y2039D02*
X1216Y2039D01*
X1239Y2039D02*
X1248Y2039D01*
X1259Y2039D02*
X1268Y2039D01*
X1279Y2039D02*
X1288Y2039D01*
X1311Y2039D02*
X1320Y2039D01*
X1331Y2039D02*
X1340Y2039D01*
X1351Y2039D02*
X1360Y2039D01*
X1455Y2039D02*
X1464Y2039D01*
X1495Y2039D02*
X1504Y2039D01*
X1527Y2039D02*
X1536Y2039D01*
X1566Y2039D02*
X1575Y2039D01*
X1619Y2039D02*
X1628Y2039D01*
X1691Y2039D02*
X1700Y2039D01*
X1753Y2039D02*
X1777Y2039D01*
X1815Y2039D02*
X1824Y2039D01*
X1835Y2039D02*
X1844Y2039D01*
X1855Y2039D02*
X1864Y2039D01*
X1893Y2039D02*
X1935Y2039D01*
X1959Y2039D02*
X1983Y2039D01*
X2031Y2039D02*
X2040Y2039D01*
X2071Y2039D02*
X2080Y2039D01*
X2103Y2039D02*
X2112Y2039D01*
X2185Y2039D02*
X2209Y2039D01*
X2247Y2039D02*
X2256Y2039D01*
X2287Y2039D02*
X2296Y2039D01*
X2325Y2039D02*
X2367Y2039D01*
X2391Y2039D02*
X2400Y2039D01*
X2463Y2039D02*
X2472Y2039D01*
X2503Y2039D02*
X2512Y2039D01*
X2607Y2039D02*
X2616Y2039D01*
X2679Y2039D02*
X2688Y2039D01*
X2719Y2039D02*
X2728Y2039D01*
X2751Y2039D02*
X2760Y2039D01*
X2771Y2039D02*
X2780Y2039D01*
X2791Y2039D02*
X2800Y2039D01*
X1167Y2038D02*
X1176Y2038D01*
X1187Y2038D02*
X1196Y2038D01*
X1207Y2038D02*
X1216Y2038D01*
X1239Y2038D02*
X1248Y2038D01*
X1259Y2038D02*
X1268Y2038D01*
X1279Y2038D02*
X1288Y2038D01*
X1311Y2038D02*
X1320Y2038D01*
X1331Y2038D02*
X1340Y2038D01*
X1351Y2038D02*
X1360Y2038D01*
X1402Y2038D02*
X1414Y2038D01*
X1455Y2038D02*
X1464Y2038D01*
X1495Y2038D02*
X1504Y2038D01*
X1527Y2038D02*
X1536Y2038D01*
X1566Y2038D02*
X1575Y2038D01*
X1619Y2038D02*
X1628Y2038D01*
X1691Y2038D02*
X1700Y2038D01*
X1755Y2038D02*
X1779Y2038D01*
X1815Y2038D02*
X1824Y2038D01*
X1835Y2038D02*
X1844Y2038D01*
X1855Y2038D02*
X1864Y2038D01*
X1892Y2038D02*
X1935Y2038D01*
X1959Y2038D02*
X1982Y2038D01*
X2031Y2038D02*
X2080Y2038D01*
X2103Y2038D02*
X2112Y2038D01*
X2187Y2038D02*
X2211Y2038D01*
X2247Y2038D02*
X2256Y2038D01*
X2287Y2038D02*
X2296Y2038D01*
X2324Y2038D02*
X2367Y2038D01*
X2391Y2038D02*
X2400Y2038D01*
X2463Y2038D02*
X2512Y2038D01*
X2554Y2038D02*
X2566Y2038D01*
X2607Y2038D02*
X2616Y2038D01*
X2679Y2038D02*
X2688Y2038D01*
X2719Y2038D02*
X2728Y2038D01*
X2751Y2038D02*
X2760Y2038D01*
X2771Y2038D02*
X2780Y2038D01*
X2791Y2038D02*
X2800Y2038D01*
X1167Y2037D02*
X1176Y2037D01*
X1187Y2037D02*
X1196Y2037D01*
X1207Y2037D02*
X1216Y2037D01*
X1239Y2037D02*
X1248Y2037D01*
X1259Y2037D02*
X1268Y2037D01*
X1279Y2037D02*
X1288Y2037D01*
X1311Y2037D02*
X1320Y2037D01*
X1331Y2037D02*
X1340Y2037D01*
X1351Y2037D02*
X1360Y2037D01*
X1400Y2037D02*
X1415Y2037D01*
X1455Y2037D02*
X1464Y2037D01*
X1495Y2037D02*
X1504Y2037D01*
X1527Y2037D02*
X1536Y2037D01*
X1566Y2037D02*
X1575Y2037D01*
X1619Y2037D02*
X1628Y2037D01*
X1691Y2037D02*
X1700Y2037D01*
X1757Y2037D02*
X1781Y2037D01*
X1815Y2037D02*
X1824Y2037D01*
X1835Y2037D02*
X1844Y2037D01*
X1855Y2037D02*
X1864Y2037D01*
X1891Y2037D02*
X1935Y2037D01*
X1959Y2037D02*
X1982Y2037D01*
X2031Y2037D02*
X2080Y2037D01*
X2103Y2037D02*
X2112Y2037D01*
X2189Y2037D02*
X2213Y2037D01*
X2247Y2037D02*
X2256Y2037D01*
X2287Y2037D02*
X2296Y2037D01*
X2323Y2037D02*
X2367Y2037D01*
X2391Y2037D02*
X2400Y2037D01*
X2463Y2037D02*
X2512Y2037D01*
X2552Y2037D02*
X2567Y2037D01*
X2607Y2037D02*
X2616Y2037D01*
X2679Y2037D02*
X2688Y2037D01*
X2719Y2037D02*
X2728Y2037D01*
X2751Y2037D02*
X2760Y2037D01*
X2771Y2037D02*
X2780Y2037D01*
X2791Y2037D02*
X2800Y2037D01*
X1167Y2036D02*
X1176Y2036D01*
X1187Y2036D02*
X1196Y2036D01*
X1207Y2036D02*
X1216Y2036D01*
X1239Y2036D02*
X1248Y2036D01*
X1259Y2036D02*
X1268Y2036D01*
X1279Y2036D02*
X1288Y2036D01*
X1311Y2036D02*
X1320Y2036D01*
X1331Y2036D02*
X1340Y2036D01*
X1351Y2036D02*
X1360Y2036D01*
X1399Y2036D02*
X1416Y2036D01*
X1455Y2036D02*
X1464Y2036D01*
X1495Y2036D02*
X1504Y2036D01*
X1527Y2036D02*
X1536Y2036D01*
X1566Y2036D02*
X1575Y2036D01*
X1619Y2036D02*
X1628Y2036D01*
X1691Y2036D02*
X1700Y2036D01*
X1759Y2036D02*
X1784Y2036D01*
X1815Y2036D02*
X1824Y2036D01*
X1835Y2036D02*
X1844Y2036D01*
X1855Y2036D02*
X1864Y2036D01*
X1890Y2036D02*
X1935Y2036D01*
X1959Y2036D02*
X1983Y2036D01*
X2031Y2036D02*
X2080Y2036D01*
X2103Y2036D02*
X2112Y2036D01*
X2191Y2036D02*
X2216Y2036D01*
X2247Y2036D02*
X2256Y2036D01*
X2287Y2036D02*
X2296Y2036D01*
X2322Y2036D02*
X2367Y2036D01*
X2391Y2036D02*
X2400Y2036D01*
X2463Y2036D02*
X2512Y2036D01*
X2551Y2036D02*
X2568Y2036D01*
X2607Y2036D02*
X2616Y2036D01*
X2679Y2036D02*
X2688Y2036D01*
X2719Y2036D02*
X2728Y2036D01*
X2751Y2036D02*
X2760Y2036D01*
X2771Y2036D02*
X2780Y2036D01*
X2791Y2036D02*
X2800Y2036D01*
X1167Y2035D02*
X1176Y2035D01*
X1187Y2035D02*
X1196Y2035D01*
X1207Y2035D02*
X1216Y2035D01*
X1239Y2035D02*
X1248Y2035D01*
X1259Y2035D02*
X1268Y2035D01*
X1279Y2035D02*
X1288Y2035D01*
X1311Y2035D02*
X1320Y2035D01*
X1331Y2035D02*
X1340Y2035D01*
X1351Y2035D02*
X1360Y2035D01*
X1398Y2035D02*
X1417Y2035D01*
X1455Y2035D02*
X1464Y2035D01*
X1495Y2035D02*
X1504Y2035D01*
X1527Y2035D02*
X1536Y2035D01*
X1566Y2035D02*
X1575Y2035D01*
X1619Y2035D02*
X1628Y2035D01*
X1691Y2035D02*
X1700Y2035D01*
X1762Y2035D02*
X1785Y2035D01*
X1815Y2035D02*
X1824Y2035D01*
X1835Y2035D02*
X1844Y2035D01*
X1855Y2035D02*
X1864Y2035D01*
X1889Y2035D02*
X1935Y2035D01*
X1959Y2035D02*
X1984Y2035D01*
X2031Y2035D02*
X2080Y2035D01*
X2103Y2035D02*
X2112Y2035D01*
X2194Y2035D02*
X2217Y2035D01*
X2247Y2035D02*
X2256Y2035D01*
X2287Y2035D02*
X2296Y2035D01*
X2321Y2035D02*
X2367Y2035D01*
X2391Y2035D02*
X2400Y2035D01*
X2463Y2035D02*
X2512Y2035D01*
X2550Y2035D02*
X2569Y2035D01*
X2607Y2035D02*
X2616Y2035D01*
X2679Y2035D02*
X2688Y2035D01*
X2719Y2035D02*
X2728Y2035D01*
X2751Y2035D02*
X2760Y2035D01*
X2771Y2035D02*
X2780Y2035D01*
X2791Y2035D02*
X2800Y2035D01*
X1167Y2034D02*
X1176Y2034D01*
X1187Y2034D02*
X1196Y2034D01*
X1207Y2034D02*
X1216Y2034D01*
X1239Y2034D02*
X1248Y2034D01*
X1259Y2034D02*
X1268Y2034D01*
X1279Y2034D02*
X1288Y2034D01*
X1311Y2034D02*
X1320Y2034D01*
X1331Y2034D02*
X1340Y2034D01*
X1351Y2034D02*
X1360Y2034D01*
X1398Y2034D02*
X1417Y2034D01*
X1455Y2034D02*
X1464Y2034D01*
X1495Y2034D02*
X1504Y2034D01*
X1527Y2034D02*
X1536Y2034D01*
X1566Y2034D02*
X1575Y2034D01*
X1619Y2034D02*
X1628Y2034D01*
X1691Y2034D02*
X1700Y2034D01*
X1764Y2034D02*
X1787Y2034D01*
X1815Y2034D02*
X1824Y2034D01*
X1835Y2034D02*
X1844Y2034D01*
X1855Y2034D02*
X1864Y2034D01*
X1889Y2034D02*
X1935Y2034D01*
X1959Y2034D02*
X1985Y2034D01*
X2031Y2034D02*
X2080Y2034D01*
X2103Y2034D02*
X2112Y2034D01*
X2196Y2034D02*
X2219Y2034D01*
X2247Y2034D02*
X2256Y2034D01*
X2287Y2034D02*
X2296Y2034D01*
X2321Y2034D02*
X2367Y2034D01*
X2391Y2034D02*
X2400Y2034D01*
X2463Y2034D02*
X2512Y2034D01*
X2550Y2034D02*
X2569Y2034D01*
X2607Y2034D02*
X2616Y2034D01*
X2679Y2034D02*
X2688Y2034D01*
X2719Y2034D02*
X2728Y2034D01*
X2751Y2034D02*
X2760Y2034D01*
X2771Y2034D02*
X2780Y2034D01*
X2791Y2034D02*
X2800Y2034D01*
X1167Y2033D02*
X1176Y2033D01*
X1187Y2033D02*
X1196Y2033D01*
X1207Y2033D02*
X1216Y2033D01*
X1239Y2033D02*
X1248Y2033D01*
X1259Y2033D02*
X1268Y2033D01*
X1279Y2033D02*
X1288Y2033D01*
X1311Y2033D02*
X1320Y2033D01*
X1331Y2033D02*
X1340Y2033D01*
X1351Y2033D02*
X1360Y2033D01*
X1398Y2033D02*
X1417Y2033D01*
X1455Y2033D02*
X1464Y2033D01*
X1495Y2033D02*
X1504Y2033D01*
X1527Y2033D02*
X1536Y2033D01*
X1566Y2033D02*
X1575Y2033D01*
X1619Y2033D02*
X1628Y2033D01*
X1691Y2033D02*
X1700Y2033D01*
X1766Y2033D02*
X1788Y2033D01*
X1815Y2033D02*
X1824Y2033D01*
X1835Y2033D02*
X1844Y2033D01*
X1855Y2033D02*
X1864Y2033D01*
X1888Y2033D02*
X1935Y2033D01*
X1959Y2033D02*
X1986Y2033D01*
X2031Y2033D02*
X2080Y2033D01*
X2103Y2033D02*
X2112Y2033D01*
X2198Y2033D02*
X2220Y2033D01*
X2247Y2033D02*
X2256Y2033D01*
X2287Y2033D02*
X2296Y2033D01*
X2320Y2033D02*
X2367Y2033D01*
X2391Y2033D02*
X2400Y2033D01*
X2463Y2033D02*
X2512Y2033D01*
X2550Y2033D02*
X2569Y2033D01*
X2607Y2033D02*
X2616Y2033D01*
X2679Y2033D02*
X2688Y2033D01*
X2719Y2033D02*
X2728Y2033D01*
X2751Y2033D02*
X2760Y2033D01*
X2771Y2033D02*
X2780Y2033D01*
X2791Y2033D02*
X2800Y2033D01*
X1167Y2032D02*
X1176Y2032D01*
X1187Y2032D02*
X1196Y2032D01*
X1207Y2032D02*
X1216Y2032D01*
X1239Y2032D02*
X1248Y2032D01*
X1259Y2032D02*
X1268Y2032D01*
X1279Y2032D02*
X1288Y2032D01*
X1311Y2032D02*
X1320Y2032D01*
X1331Y2032D02*
X1340Y2032D01*
X1351Y2032D02*
X1360Y2032D01*
X1398Y2032D02*
X1417Y2032D01*
X1455Y2032D02*
X1464Y2032D01*
X1495Y2032D02*
X1504Y2032D01*
X1527Y2032D02*
X1536Y2032D01*
X1566Y2032D02*
X1575Y2032D01*
X1619Y2032D02*
X1628Y2032D01*
X1691Y2032D02*
X1700Y2032D01*
X1769Y2032D02*
X1788Y2032D01*
X1815Y2032D02*
X1824Y2032D01*
X1835Y2032D02*
X1844Y2032D01*
X1855Y2032D02*
X1864Y2032D01*
X1888Y2032D02*
X1899Y2032D01*
X1923Y2032D02*
X1935Y2032D01*
X1959Y2032D02*
X1987Y2032D01*
X2031Y2032D02*
X2080Y2032D01*
X2103Y2032D02*
X2112Y2032D01*
X2201Y2032D02*
X2220Y2032D01*
X2247Y2032D02*
X2256Y2032D01*
X2287Y2032D02*
X2296Y2032D01*
X2320Y2032D02*
X2331Y2032D01*
X2355Y2032D02*
X2367Y2032D01*
X2391Y2032D02*
X2400Y2032D01*
X2463Y2032D02*
X2512Y2032D01*
X2550Y2032D02*
X2569Y2032D01*
X2607Y2032D02*
X2616Y2032D01*
X2679Y2032D02*
X2688Y2032D01*
X2719Y2032D02*
X2728Y2032D01*
X2751Y2032D02*
X2760Y2032D01*
X2771Y2032D02*
X2780Y2032D01*
X2791Y2032D02*
X2800Y2032D01*
X1167Y2031D02*
X1176Y2031D01*
X1187Y2031D02*
X1196Y2031D01*
X1207Y2031D02*
X1216Y2031D01*
X1239Y2031D02*
X1248Y2031D01*
X1259Y2031D02*
X1268Y2031D01*
X1279Y2031D02*
X1288Y2031D01*
X1311Y2031D02*
X1320Y2031D01*
X1331Y2031D02*
X1340Y2031D01*
X1351Y2031D02*
X1360Y2031D01*
X1398Y2031D02*
X1417Y2031D01*
X1455Y2031D02*
X1464Y2031D01*
X1495Y2031D02*
X1504Y2031D01*
X1527Y2031D02*
X1536Y2031D01*
X1566Y2031D02*
X1575Y2031D01*
X1619Y2031D02*
X1628Y2031D01*
X1691Y2031D02*
X1700Y2031D01*
X1771Y2031D02*
X1789Y2031D01*
X1815Y2031D02*
X1824Y2031D01*
X1835Y2031D02*
X1844Y2031D01*
X1855Y2031D02*
X1864Y2031D01*
X1888Y2031D02*
X1898Y2031D01*
X1925Y2031D02*
X1935Y2031D01*
X1959Y2031D02*
X1989Y2031D01*
X2031Y2031D02*
X2080Y2031D01*
X2103Y2031D02*
X2112Y2031D01*
X2203Y2031D02*
X2221Y2031D01*
X2247Y2031D02*
X2256Y2031D01*
X2287Y2031D02*
X2296Y2031D01*
X2320Y2031D02*
X2330Y2031D01*
X2357Y2031D02*
X2367Y2031D01*
X2391Y2031D02*
X2400Y2031D01*
X2463Y2031D02*
X2512Y2031D01*
X2550Y2031D02*
X2569Y2031D01*
X2607Y2031D02*
X2616Y2031D01*
X2679Y2031D02*
X2688Y2031D01*
X2719Y2031D02*
X2728Y2031D01*
X2751Y2031D02*
X2760Y2031D01*
X2771Y2031D02*
X2780Y2031D01*
X2791Y2031D02*
X2800Y2031D01*
X1167Y2030D02*
X1176Y2030D01*
X1187Y2030D02*
X1196Y2030D01*
X1207Y2030D02*
X1216Y2030D01*
X1239Y2030D02*
X1248Y2030D01*
X1259Y2030D02*
X1268Y2030D01*
X1279Y2030D02*
X1288Y2030D01*
X1311Y2030D02*
X1320Y2030D01*
X1331Y2030D02*
X1340Y2030D01*
X1351Y2030D02*
X1360Y2030D01*
X1398Y2030D02*
X1417Y2030D01*
X1455Y2030D02*
X1464Y2030D01*
X1495Y2030D02*
X1504Y2030D01*
X1527Y2030D02*
X1536Y2030D01*
X1566Y2030D02*
X1575Y2030D01*
X1619Y2030D02*
X1628Y2030D01*
X1691Y2030D02*
X1700Y2030D01*
X1773Y2030D02*
X1790Y2030D01*
X1815Y2030D02*
X1824Y2030D01*
X1835Y2030D02*
X1844Y2030D01*
X1855Y2030D02*
X1864Y2030D01*
X1888Y2030D02*
X1897Y2030D01*
X1926Y2030D02*
X1936Y2030D01*
X1959Y2030D02*
X1972Y2030D01*
X1975Y2030D02*
X1990Y2030D01*
X2031Y2030D02*
X2079Y2030D01*
X2103Y2030D02*
X2112Y2030D01*
X2205Y2030D02*
X2222Y2030D01*
X2247Y2030D02*
X2256Y2030D01*
X2287Y2030D02*
X2296Y2030D01*
X2320Y2030D02*
X2329Y2030D01*
X2358Y2030D02*
X2368Y2030D01*
X2391Y2030D02*
X2400Y2030D01*
X2463Y2030D02*
X2511Y2030D01*
X2550Y2030D02*
X2569Y2030D01*
X2607Y2030D02*
X2616Y2030D01*
X2679Y2030D02*
X2688Y2030D01*
X2719Y2030D02*
X2728Y2030D01*
X2751Y2030D02*
X2760Y2030D01*
X2771Y2030D02*
X2780Y2030D01*
X2791Y2030D02*
X2800Y2030D01*
X1167Y2029D02*
X1177Y2029D01*
X1186Y2029D02*
X1197Y2029D01*
X1207Y2029D02*
X1216Y2029D01*
X1239Y2029D02*
X1249Y2029D01*
X1258Y2029D02*
X1269Y2029D01*
X1279Y2029D02*
X1288Y2029D01*
X1311Y2029D02*
X1321Y2029D01*
X1330Y2029D02*
X1341Y2029D01*
X1351Y2029D02*
X1360Y2029D01*
X1398Y2029D02*
X1417Y2029D01*
X1455Y2029D02*
X1464Y2029D01*
X1495Y2029D02*
X1504Y2029D01*
X1527Y2029D02*
X1536Y2029D01*
X1566Y2029D02*
X1575Y2029D01*
X1619Y2029D02*
X1628Y2029D01*
X1691Y2029D02*
X1700Y2029D01*
X1776Y2029D02*
X1790Y2029D01*
X1815Y2029D02*
X1824Y2029D01*
X1835Y2029D02*
X1844Y2029D01*
X1855Y2029D02*
X1864Y2029D01*
X1887Y2029D02*
X1897Y2029D01*
X1926Y2029D02*
X1936Y2029D01*
X1959Y2029D02*
X1971Y2029D01*
X1976Y2029D02*
X1991Y2029D01*
X2031Y2029D02*
X2078Y2029D01*
X2103Y2029D02*
X2112Y2029D01*
X2208Y2029D02*
X2222Y2029D01*
X2247Y2029D02*
X2256Y2029D01*
X2287Y2029D02*
X2296Y2029D01*
X2319Y2029D02*
X2329Y2029D01*
X2358Y2029D02*
X2368Y2029D01*
X2391Y2029D02*
X2400Y2029D01*
X2463Y2029D02*
X2510Y2029D01*
X2550Y2029D02*
X2569Y2029D01*
X2607Y2029D02*
X2616Y2029D01*
X2679Y2029D02*
X2688Y2029D01*
X2719Y2029D02*
X2728Y2029D01*
X2751Y2029D02*
X2760Y2029D01*
X2771Y2029D02*
X2780Y2029D01*
X2791Y2029D02*
X2800Y2029D01*
X1167Y2028D02*
X1177Y2028D01*
X1186Y2028D02*
X1198Y2028D01*
X1207Y2028D02*
X1216Y2028D01*
X1239Y2028D02*
X1249Y2028D01*
X1258Y2028D02*
X1270Y2028D01*
X1279Y2028D02*
X1288Y2028D01*
X1311Y2028D02*
X1321Y2028D01*
X1330Y2028D02*
X1342Y2028D01*
X1351Y2028D02*
X1360Y2028D01*
X1398Y2028D02*
X1417Y2028D01*
X1455Y2028D02*
X1465Y2028D01*
X1495Y2028D02*
X1504Y2028D01*
X1527Y2028D02*
X1536Y2028D01*
X1566Y2028D02*
X1576Y2028D01*
X1619Y2028D02*
X1628Y2028D01*
X1691Y2028D02*
X1700Y2028D01*
X1778Y2028D02*
X1791Y2028D01*
X1815Y2028D02*
X1824Y2028D01*
X1835Y2028D02*
X1844Y2028D01*
X1855Y2028D02*
X1864Y2028D01*
X1887Y2028D02*
X1897Y2028D01*
X1926Y2028D02*
X1936Y2028D01*
X1959Y2028D02*
X1970Y2028D01*
X1978Y2028D02*
X1992Y2028D01*
X2031Y2028D02*
X2041Y2028D01*
X2103Y2028D02*
X2112Y2028D01*
X2210Y2028D02*
X2223Y2028D01*
X2247Y2028D02*
X2257Y2028D01*
X2287Y2028D02*
X2296Y2028D01*
X2319Y2028D02*
X2329Y2028D01*
X2358Y2028D02*
X2368Y2028D01*
X2391Y2028D02*
X2401Y2028D01*
X2463Y2028D02*
X2473Y2028D01*
X2550Y2028D02*
X2569Y2028D01*
X2607Y2028D02*
X2617Y2028D01*
X2679Y2028D02*
X2688Y2028D01*
X2719Y2028D02*
X2728Y2028D01*
X2751Y2028D02*
X2760Y2028D01*
X2771Y2028D02*
X2780Y2028D01*
X2791Y2028D02*
X2800Y2028D01*
X1168Y2027D02*
X1177Y2027D01*
X1185Y2027D02*
X1198Y2027D01*
X1206Y2027D02*
X1216Y2027D01*
X1240Y2027D02*
X1249Y2027D01*
X1257Y2027D02*
X1270Y2027D01*
X1278Y2027D02*
X1288Y2027D01*
X1312Y2027D02*
X1321Y2027D01*
X1329Y2027D02*
X1342Y2027D01*
X1350Y2027D02*
X1360Y2027D01*
X1398Y2027D02*
X1417Y2027D01*
X1455Y2027D02*
X1465Y2027D01*
X1495Y2027D02*
X1504Y2027D01*
X1527Y2027D02*
X1536Y2027D01*
X1567Y2027D02*
X1576Y2027D01*
X1619Y2027D02*
X1628Y2027D01*
X1691Y2027D02*
X1700Y2027D01*
X1780Y2027D02*
X1791Y2027D01*
X1815Y2027D02*
X1824Y2027D01*
X1835Y2027D02*
X1844Y2027D01*
X1855Y2027D02*
X1864Y2027D01*
X1887Y2027D02*
X1896Y2027D01*
X1926Y2027D02*
X1936Y2027D01*
X1959Y2027D02*
X1969Y2027D01*
X1979Y2027D02*
X1993Y2027D01*
X2031Y2027D02*
X2040Y2027D01*
X2103Y2027D02*
X2112Y2027D01*
X2212Y2027D02*
X2223Y2027D01*
X2247Y2027D02*
X2257Y2027D01*
X2287Y2027D02*
X2296Y2027D01*
X2319Y2027D02*
X2328Y2027D01*
X2358Y2027D02*
X2368Y2027D01*
X2392Y2027D02*
X2401Y2027D01*
X2463Y2027D02*
X2472Y2027D01*
X2550Y2027D02*
X2569Y2027D01*
X2608Y2027D02*
X2617Y2027D01*
X2679Y2027D02*
X2688Y2027D01*
X2719Y2027D02*
X2728Y2027D01*
X2751Y2027D02*
X2760Y2027D01*
X2771Y2027D02*
X2780Y2027D01*
X2791Y2027D02*
X2800Y2027D01*
X1168Y2026D02*
X1177Y2026D01*
X1185Y2026D02*
X1199Y2026D01*
X1206Y2026D02*
X1216Y2026D01*
X1240Y2026D02*
X1249Y2026D01*
X1257Y2026D02*
X1271Y2026D01*
X1278Y2026D02*
X1288Y2026D01*
X1312Y2026D02*
X1321Y2026D01*
X1329Y2026D02*
X1343Y2026D01*
X1350Y2026D02*
X1360Y2026D01*
X1398Y2026D02*
X1417Y2026D01*
X1455Y2026D02*
X1465Y2026D01*
X1495Y2026D02*
X1504Y2026D01*
X1527Y2026D02*
X1536Y2026D01*
X1567Y2026D02*
X1576Y2026D01*
X1619Y2026D02*
X1628Y2026D01*
X1691Y2026D02*
X1700Y2026D01*
X1781Y2026D02*
X1792Y2026D01*
X1815Y2026D02*
X1824Y2026D01*
X1835Y2026D02*
X1844Y2026D01*
X1855Y2026D02*
X1864Y2026D01*
X1887Y2026D02*
X1896Y2026D01*
X1926Y2026D02*
X1936Y2026D01*
X1959Y2026D02*
X1968Y2026D01*
X1980Y2026D02*
X1994Y2026D01*
X2031Y2026D02*
X2040Y2026D01*
X2103Y2026D02*
X2112Y2026D01*
X2213Y2026D02*
X2224Y2026D01*
X2247Y2026D02*
X2257Y2026D01*
X2287Y2026D02*
X2296Y2026D01*
X2319Y2026D02*
X2328Y2026D01*
X2358Y2026D02*
X2368Y2026D01*
X2392Y2026D02*
X2402Y2026D01*
X2463Y2026D02*
X2472Y2026D01*
X2550Y2026D02*
X2569Y2026D01*
X2608Y2026D02*
X2618Y2026D01*
X2679Y2026D02*
X2688Y2026D01*
X2719Y2026D02*
X2728Y2026D01*
X2751Y2026D02*
X2760Y2026D01*
X2771Y2026D02*
X2780Y2026D01*
X2791Y2026D02*
X2800Y2026D01*
X1168Y2025D02*
X1178Y2025D01*
X1184Y2025D02*
X1199Y2025D01*
X1206Y2025D02*
X1215Y2025D01*
X1240Y2025D02*
X1250Y2025D01*
X1256Y2025D02*
X1271Y2025D01*
X1278Y2025D02*
X1287Y2025D01*
X1312Y2025D02*
X1322Y2025D01*
X1328Y2025D02*
X1343Y2025D01*
X1350Y2025D02*
X1359Y2025D01*
X1398Y2025D02*
X1417Y2025D01*
X1455Y2025D02*
X1466Y2025D01*
X1494Y2025D02*
X1504Y2025D01*
X1527Y2025D02*
X1536Y2025D01*
X1567Y2025D02*
X1576Y2025D01*
X1619Y2025D02*
X1628Y2025D01*
X1691Y2025D02*
X1700Y2025D01*
X1782Y2025D02*
X1792Y2025D01*
X1815Y2025D02*
X1824Y2025D01*
X1835Y2025D02*
X1844Y2025D01*
X1855Y2025D02*
X1864Y2025D01*
X1887Y2025D02*
X1896Y2025D01*
X1926Y2025D02*
X1936Y2025D01*
X1959Y2025D02*
X1968Y2025D01*
X1981Y2025D02*
X1996Y2025D01*
X2031Y2025D02*
X2040Y2025D01*
X2103Y2025D02*
X2112Y2025D01*
X2214Y2025D02*
X2224Y2025D01*
X2247Y2025D02*
X2258Y2025D01*
X2286Y2025D02*
X2296Y2025D01*
X2319Y2025D02*
X2328Y2025D01*
X2358Y2025D02*
X2368Y2025D01*
X2392Y2025D02*
X2403Y2025D01*
X2463Y2025D02*
X2472Y2025D01*
X2550Y2025D02*
X2569Y2025D01*
X2608Y2025D02*
X2619Y2025D01*
X2679Y2025D02*
X2688Y2025D01*
X2719Y2025D02*
X2728Y2025D01*
X2751Y2025D02*
X2760Y2025D01*
X2771Y2025D02*
X2780Y2025D01*
X2791Y2025D02*
X2800Y2025D01*
X1169Y2024D02*
X1178Y2024D01*
X1183Y2024D02*
X1200Y2024D01*
X1205Y2024D02*
X1215Y2024D01*
X1241Y2024D02*
X1250Y2024D01*
X1255Y2024D02*
X1272Y2024D01*
X1277Y2024D02*
X1287Y2024D01*
X1313Y2024D02*
X1322Y2024D01*
X1327Y2024D02*
X1344Y2024D01*
X1349Y2024D02*
X1359Y2024D01*
X1398Y2024D02*
X1417Y2024D01*
X1455Y2024D02*
X1467Y2024D01*
X1494Y2024D02*
X1504Y2024D01*
X1527Y2024D02*
X1536Y2024D01*
X1567Y2024D02*
X1576Y2024D01*
X1619Y2024D02*
X1628Y2024D01*
X1691Y2024D02*
X1700Y2024D01*
X1783Y2024D02*
X1792Y2024D01*
X1815Y2024D02*
X1824Y2024D01*
X1835Y2024D02*
X1844Y2024D01*
X1855Y2024D02*
X1864Y2024D01*
X1887Y2024D02*
X1896Y2024D01*
X1926Y2024D02*
X1936Y2024D01*
X1959Y2024D02*
X1968Y2024D01*
X1982Y2024D02*
X1997Y2024D01*
X2031Y2024D02*
X2041Y2024D01*
X2103Y2024D02*
X2112Y2024D01*
X2215Y2024D02*
X2224Y2024D01*
X2247Y2024D02*
X2259Y2024D01*
X2286Y2024D02*
X2296Y2024D01*
X2319Y2024D02*
X2328Y2024D01*
X2358Y2024D02*
X2368Y2024D01*
X2392Y2024D02*
X2404Y2024D01*
X2463Y2024D02*
X2473Y2024D01*
X2550Y2024D02*
X2569Y2024D01*
X2608Y2024D02*
X2620Y2024D01*
X2679Y2024D02*
X2689Y2024D01*
X2719Y2024D02*
X2728Y2024D01*
X2751Y2024D02*
X2760Y2024D01*
X2771Y2024D02*
X2780Y2024D01*
X2791Y2024D02*
X2800Y2024D01*
X1169Y2023D02*
X1178Y2023D01*
X1183Y2023D02*
X1201Y2023D01*
X1205Y2023D02*
X1215Y2023D01*
X1241Y2023D02*
X1250Y2023D01*
X1255Y2023D02*
X1273Y2023D01*
X1277Y2023D02*
X1287Y2023D01*
X1313Y2023D02*
X1322Y2023D01*
X1327Y2023D02*
X1345Y2023D01*
X1349Y2023D02*
X1359Y2023D01*
X1399Y2023D02*
X1417Y2023D01*
X1455Y2023D02*
X1468Y2023D01*
X1493Y2023D02*
X1503Y2023D01*
X1527Y2023D02*
X1536Y2023D01*
X1567Y2023D02*
X1576Y2023D01*
X1619Y2023D02*
X1628Y2023D01*
X1691Y2023D02*
X1700Y2023D01*
X1783Y2023D02*
X1792Y2023D01*
X1815Y2023D02*
X1824Y2023D01*
X1835Y2023D02*
X1844Y2023D01*
X1855Y2023D02*
X1864Y2023D01*
X1887Y2023D02*
X1896Y2023D01*
X1926Y2023D02*
X1936Y2023D01*
X1959Y2023D02*
X1968Y2023D01*
X1983Y2023D02*
X1998Y2023D01*
X2032Y2023D02*
X2041Y2023D01*
X2103Y2023D02*
X2112Y2023D01*
X2215Y2023D02*
X2224Y2023D01*
X2247Y2023D02*
X2260Y2023D01*
X2285Y2023D02*
X2295Y2023D01*
X2319Y2023D02*
X2328Y2023D01*
X2358Y2023D02*
X2368Y2023D01*
X2393Y2023D02*
X2405Y2023D01*
X2464Y2023D02*
X2473Y2023D01*
X2551Y2023D02*
X2569Y2023D01*
X2609Y2023D02*
X2621Y2023D01*
X2680Y2023D02*
X2689Y2023D01*
X2719Y2023D02*
X2728Y2023D01*
X2751Y2023D02*
X2760Y2023D01*
X2771Y2023D02*
X2780Y2023D01*
X2791Y2023D02*
X2800Y2023D01*
X1169Y2022D02*
X1179Y2022D01*
X1182Y2022D02*
X1201Y2022D01*
X1205Y2022D02*
X1214Y2022D01*
X1241Y2022D02*
X1251Y2022D01*
X1254Y2022D02*
X1273Y2022D01*
X1277Y2022D02*
X1286Y2022D01*
X1313Y2022D02*
X1323Y2022D01*
X1326Y2022D02*
X1345Y2022D01*
X1349Y2022D02*
X1358Y2022D01*
X1399Y2022D02*
X1416Y2022D01*
X1455Y2022D02*
X1469Y2022D01*
X1491Y2022D02*
X1503Y2022D01*
X1527Y2022D02*
X1536Y2022D01*
X1567Y2022D02*
X1576Y2022D01*
X1619Y2022D02*
X1628Y2022D01*
X1691Y2022D02*
X1700Y2022D01*
X1783Y2022D02*
X1792Y2022D01*
X1815Y2022D02*
X1824Y2022D01*
X1835Y2022D02*
X1844Y2022D01*
X1855Y2022D02*
X1864Y2022D01*
X1887Y2022D02*
X1896Y2022D01*
X1924Y2022D02*
X1936Y2022D01*
X1959Y2022D02*
X1968Y2022D01*
X1985Y2022D02*
X1999Y2022D01*
X2032Y2022D02*
X2042Y2022D01*
X2103Y2022D02*
X2112Y2022D01*
X2215Y2022D02*
X2224Y2022D01*
X2247Y2022D02*
X2261Y2022D01*
X2283Y2022D02*
X2295Y2022D01*
X2319Y2022D02*
X2328Y2022D01*
X2356Y2022D02*
X2368Y2022D01*
X2393Y2022D02*
X2406Y2022D01*
X2464Y2022D02*
X2474Y2022D01*
X2551Y2022D02*
X2568Y2022D01*
X2609Y2022D02*
X2622Y2022D01*
X2680Y2022D02*
X2690Y2022D01*
X2718Y2022D02*
X2728Y2022D01*
X2751Y2022D02*
X2760Y2022D01*
X2771Y2022D02*
X2780Y2022D01*
X2791Y2022D02*
X2800Y2022D01*
X1169Y2021D02*
X1179Y2021D01*
X1182Y2021D02*
X1202Y2021D01*
X1204Y2021D02*
X1214Y2021D01*
X1241Y2021D02*
X1251Y2021D01*
X1254Y2021D02*
X1274Y2021D01*
X1276Y2021D02*
X1286Y2021D01*
X1313Y2021D02*
X1323Y2021D01*
X1326Y2021D02*
X1346Y2021D01*
X1348Y2021D02*
X1358Y2021D01*
X1400Y2021D02*
X1415Y2021D01*
X1455Y2021D02*
X1470Y2021D01*
X1490Y2021D02*
X1503Y2021D01*
X1527Y2021D02*
X1536Y2021D01*
X1567Y2021D02*
X1576Y2021D01*
X1619Y2021D02*
X1628Y2021D01*
X1691Y2021D02*
X1700Y2021D01*
X1747Y2021D02*
X1749Y2021D01*
X1782Y2021D02*
X1792Y2021D01*
X1815Y2021D02*
X1824Y2021D01*
X1835Y2021D02*
X1844Y2021D01*
X1855Y2021D02*
X1865Y2021D01*
X1887Y2021D02*
X1897Y2021D01*
X1922Y2021D02*
X1936Y2021D01*
X1959Y2021D02*
X1968Y2021D01*
X1986Y2021D02*
X2000Y2021D01*
X2032Y2021D02*
X2042Y2021D01*
X2103Y2021D02*
X2112Y2021D01*
X2179Y2021D02*
X2181Y2021D01*
X2214Y2021D02*
X2224Y2021D01*
X2247Y2021D02*
X2262Y2021D01*
X2282Y2021D02*
X2295Y2021D01*
X2319Y2021D02*
X2329Y2021D01*
X2354Y2021D02*
X2368Y2021D01*
X2394Y2021D02*
X2408Y2021D01*
X2464Y2021D02*
X2474Y2021D01*
X2552Y2021D02*
X2567Y2021D01*
X2610Y2021D02*
X2624Y2021D01*
X2680Y2021D02*
X2690Y2021D01*
X2717Y2021D02*
X2728Y2021D01*
X2751Y2021D02*
X2760Y2021D01*
X2771Y2021D02*
X2780Y2021D01*
X2791Y2021D02*
X2801Y2021D01*
X1170Y2020D02*
X1179Y2020D01*
X1181Y2020D02*
X1202Y2020D01*
X1204Y2020D02*
X1214Y2020D01*
X1242Y2020D02*
X1251Y2020D01*
X1253Y2020D02*
X1274Y2020D01*
X1276Y2020D02*
X1286Y2020D01*
X1314Y2020D02*
X1323Y2020D01*
X1325Y2020D02*
X1346Y2020D01*
X1348Y2020D02*
X1358Y2020D01*
X1402Y2020D02*
X1414Y2020D01*
X1455Y2020D02*
X1471Y2020D01*
X1489Y2020D02*
X1502Y2020D01*
X1527Y2020D02*
X1536Y2020D01*
X1567Y2020D02*
X1576Y2020D01*
X1619Y2020D02*
X1628Y2020D01*
X1691Y2020D02*
X1700Y2020D01*
X1745Y2020D02*
X1751Y2020D01*
X1782Y2020D02*
X1792Y2020D01*
X1815Y2020D02*
X1824Y2020D01*
X1835Y2020D02*
X1844Y2020D01*
X1855Y2020D02*
X1865Y2020D01*
X1888Y2020D02*
X1897Y2020D01*
X1921Y2020D02*
X1936Y2020D01*
X1959Y2020D02*
X1968Y2020D01*
X1987Y2020D02*
X2002Y2020D01*
X2032Y2020D02*
X2044Y2020D01*
X2103Y2020D02*
X2112Y2020D01*
X2177Y2020D02*
X2183Y2020D01*
X2214Y2020D02*
X2224Y2020D01*
X2247Y2020D02*
X2263Y2020D01*
X2281Y2020D02*
X2294Y2020D01*
X2320Y2020D02*
X2329Y2020D01*
X2353Y2020D02*
X2368Y2020D01*
X2395Y2020D02*
X2409Y2020D01*
X2464Y2020D02*
X2476Y2020D01*
X2554Y2020D02*
X2566Y2020D01*
X2611Y2020D02*
X2625Y2020D01*
X2680Y2020D02*
X2692Y2020D01*
X2716Y2020D02*
X2727Y2020D01*
X2751Y2020D02*
X2760Y2020D01*
X2771Y2020D02*
X2780Y2020D01*
X2791Y2020D02*
X2801Y2020D01*
X1170Y2019D02*
X1213Y2019D01*
X1242Y2019D02*
X1285Y2019D01*
X1314Y2019D02*
X1357Y2019D01*
X1455Y2019D02*
X1472Y2019D01*
X1488Y2019D02*
X1502Y2019D01*
X1527Y2019D02*
X1536Y2019D01*
X1567Y2019D02*
X1576Y2019D01*
X1619Y2019D02*
X1628Y2019D01*
X1691Y2019D02*
X1700Y2019D01*
X1744Y2019D02*
X1752Y2019D01*
X1782Y2019D02*
X1792Y2019D01*
X1815Y2019D02*
X1824Y2019D01*
X1835Y2019D02*
X1844Y2019D01*
X1855Y2019D02*
X1865Y2019D01*
X1888Y2019D02*
X1898Y2019D01*
X1919Y2019D02*
X1936Y2019D01*
X1959Y2019D02*
X1968Y2019D01*
X1988Y2019D02*
X2003Y2019D01*
X2033Y2019D02*
X2045Y2019D01*
X2103Y2019D02*
X2112Y2019D01*
X2176Y2019D02*
X2184Y2019D01*
X2214Y2019D02*
X2224Y2019D01*
X2247Y2019D02*
X2264Y2019D01*
X2280Y2019D02*
X2294Y2019D01*
X2320Y2019D02*
X2330Y2019D01*
X2351Y2019D02*
X2368Y2019D01*
X2396Y2019D02*
X2410Y2019D01*
X2465Y2019D02*
X2477Y2019D01*
X2612Y2019D02*
X2626Y2019D01*
X2681Y2019D02*
X2693Y2019D01*
X2715Y2019D02*
X2727Y2019D01*
X2751Y2019D02*
X2760Y2019D01*
X2771Y2019D02*
X2780Y2019D01*
X2791Y2019D02*
X2801Y2019D01*
X1170Y2018D02*
X1191Y2018D01*
X1193Y2018D02*
X1213Y2018D01*
X1242Y2018D02*
X1263Y2018D01*
X1265Y2018D02*
X1285Y2018D01*
X1314Y2018D02*
X1335Y2018D01*
X1337Y2018D02*
X1357Y2018D01*
X1455Y2018D02*
X1473Y2018D01*
X1487Y2018D02*
X1501Y2018D01*
X1527Y2018D02*
X1536Y2018D01*
X1567Y2018D02*
X1576Y2018D01*
X1619Y2018D02*
X1628Y2018D01*
X1691Y2018D02*
X1700Y2018D01*
X1744Y2018D02*
X1754Y2018D01*
X1780Y2018D02*
X1791Y2018D01*
X1815Y2018D02*
X1824Y2018D01*
X1835Y2018D02*
X1844Y2018D01*
X1856Y2018D02*
X1865Y2018D01*
X1888Y2018D02*
X1899Y2018D01*
X1917Y2018D02*
X1936Y2018D01*
X1959Y2018D02*
X1968Y2018D01*
X1989Y2018D02*
X2004Y2018D01*
X2033Y2018D02*
X2046Y2018D01*
X2103Y2018D02*
X2112Y2018D01*
X2176Y2018D02*
X2186Y2018D01*
X2212Y2018D02*
X2223Y2018D01*
X2247Y2018D02*
X2265Y2018D01*
X2279Y2018D02*
X2293Y2018D01*
X2320Y2018D02*
X2331Y2018D01*
X2349Y2018D02*
X2368Y2018D01*
X2397Y2018D02*
X2411Y2018D01*
X2465Y2018D02*
X2478Y2018D01*
X2613Y2018D02*
X2627Y2018D01*
X2681Y2018D02*
X2694Y2018D01*
X2713Y2018D02*
X2726Y2018D01*
X2751Y2018D02*
X2760Y2018D01*
X2771Y2018D02*
X2780Y2018D01*
X2792Y2018D02*
X2801Y2018D01*
X1171Y2017D02*
X1190Y2017D01*
X1193Y2017D02*
X1213Y2017D01*
X1243Y2017D02*
X1262Y2017D01*
X1265Y2017D02*
X1285Y2017D01*
X1315Y2017D02*
X1334Y2017D01*
X1337Y2017D02*
X1357Y2017D01*
X1455Y2017D02*
X1474Y2017D01*
X1486Y2017D02*
X1500Y2017D01*
X1527Y2017D02*
X1536Y2017D01*
X1567Y2017D02*
X1576Y2017D01*
X1609Y2017D02*
X1638Y2017D01*
X1681Y2017D02*
X1710Y2017D01*
X1743Y2017D02*
X1791Y2017D01*
X1815Y2017D02*
X1824Y2017D01*
X1835Y2017D02*
X1844Y2017D01*
X1856Y2017D02*
X1865Y2017D01*
X1888Y2017D02*
X1936Y2017D01*
X1959Y2017D02*
X1968Y2017D01*
X1990Y2017D02*
X2005Y2017D01*
X2034Y2017D02*
X2075Y2017D01*
X2103Y2017D02*
X2112Y2017D01*
X2175Y2017D02*
X2223Y2017D01*
X2247Y2017D02*
X2266Y2017D01*
X2278Y2017D02*
X2292Y2017D01*
X2320Y2017D02*
X2368Y2017D01*
X2398Y2017D02*
X2435Y2017D01*
X2466Y2017D02*
X2507Y2017D01*
X2614Y2017D02*
X2651Y2017D01*
X2682Y2017D02*
X2726Y2017D01*
X2751Y2017D02*
X2760Y2017D01*
X2771Y2017D02*
X2780Y2017D01*
X2792Y2017D02*
X2801Y2017D01*
X1171Y2016D02*
X1189Y2016D01*
X1194Y2016D02*
X1213Y2016D01*
X1243Y2016D02*
X1261Y2016D01*
X1266Y2016D02*
X1285Y2016D01*
X1315Y2016D02*
X1333Y2016D01*
X1338Y2016D02*
X1357Y2016D01*
X1455Y2016D02*
X1475Y2016D01*
X1484Y2016D02*
X1499Y2016D01*
X1527Y2016D02*
X1536Y2016D01*
X1567Y2016D02*
X1576Y2016D01*
X1606Y2016D02*
X1641Y2016D01*
X1678Y2016D02*
X1713Y2016D01*
X1743Y2016D02*
X1791Y2016D01*
X1815Y2016D02*
X1824Y2016D01*
X1835Y2016D02*
X1844Y2016D01*
X1856Y2016D02*
X1865Y2016D01*
X1889Y2016D02*
X1936Y2016D01*
X1959Y2016D02*
X1968Y2016D01*
X1992Y2016D02*
X2006Y2016D01*
X2034Y2016D02*
X2078Y2016D01*
X2103Y2016D02*
X2112Y2016D01*
X2175Y2016D02*
X2223Y2016D01*
X2247Y2016D02*
X2267Y2016D01*
X2276Y2016D02*
X2291Y2016D01*
X2321Y2016D02*
X2368Y2016D01*
X2399Y2016D02*
X2438Y2016D01*
X2466Y2016D02*
X2510Y2016D01*
X2615Y2016D02*
X2654Y2016D01*
X2682Y2016D02*
X2725Y2016D01*
X2751Y2016D02*
X2760Y2016D01*
X2771Y2016D02*
X2780Y2016D01*
X2792Y2016D02*
X2801Y2016D01*
X1171Y2015D02*
X1189Y2015D01*
X1195Y2015D02*
X1212Y2015D01*
X1243Y2015D02*
X1261Y2015D01*
X1267Y2015D02*
X1284Y2015D01*
X1315Y2015D02*
X1333Y2015D01*
X1339Y2015D02*
X1356Y2015D01*
X1455Y2015D02*
X1478Y2015D01*
X1481Y2015D02*
X1498Y2015D01*
X1527Y2015D02*
X1536Y2015D01*
X1567Y2015D02*
X1576Y2015D01*
X1605Y2015D02*
X1642Y2015D01*
X1677Y2015D02*
X1714Y2015D01*
X1744Y2015D02*
X1790Y2015D01*
X1815Y2015D02*
X1824Y2015D01*
X1835Y2015D02*
X1844Y2015D01*
X1856Y2015D02*
X1865Y2015D01*
X1889Y2015D02*
X1936Y2015D01*
X1959Y2015D02*
X1968Y2015D01*
X1993Y2015D02*
X2007Y2015D01*
X2035Y2015D02*
X2079Y2015D01*
X2103Y2015D02*
X2112Y2015D01*
X2176Y2015D02*
X2222Y2015D01*
X2247Y2015D02*
X2270Y2015D01*
X2273Y2015D02*
X2290Y2015D01*
X2321Y2015D02*
X2368Y2015D01*
X2400Y2015D02*
X2439Y2015D01*
X2467Y2015D02*
X2511Y2015D01*
X2616Y2015D02*
X2655Y2015D01*
X2683Y2015D02*
X2724Y2015D01*
X2751Y2015D02*
X2760Y2015D01*
X2771Y2015D02*
X2780Y2015D01*
X2792Y2015D02*
X2801Y2015D01*
X1171Y2014D02*
X1188Y2014D01*
X1195Y2014D02*
X1212Y2014D01*
X1243Y2014D02*
X1260Y2014D01*
X1267Y2014D02*
X1284Y2014D01*
X1315Y2014D02*
X1332Y2014D01*
X1339Y2014D02*
X1356Y2014D01*
X1455Y2014D02*
X1497Y2014D01*
X1527Y2014D02*
X1536Y2014D01*
X1567Y2014D02*
X1576Y2014D01*
X1605Y2014D02*
X1643Y2014D01*
X1677Y2014D02*
X1715Y2014D01*
X1744Y2014D02*
X1790Y2014D01*
X1815Y2014D02*
X1824Y2014D01*
X1835Y2014D02*
X1844Y2014D01*
X1856Y2014D02*
X1865Y2014D01*
X1890Y2014D02*
X1936Y2014D01*
X1959Y2014D02*
X1968Y2014D01*
X1994Y2014D02*
X2008Y2014D01*
X2036Y2014D02*
X2080Y2014D01*
X2103Y2014D02*
X2112Y2014D01*
X2176Y2014D02*
X2222Y2014D01*
X2247Y2014D02*
X2289Y2014D01*
X2322Y2014D02*
X2368Y2014D01*
X2401Y2014D02*
X2440Y2014D01*
X2468Y2014D02*
X2512Y2014D01*
X2617Y2014D02*
X2656Y2014D01*
X2684Y2014D02*
X2723Y2014D01*
X2751Y2014D02*
X2760Y2014D01*
X2771Y2014D02*
X2780Y2014D01*
X2792Y2014D02*
X2801Y2014D01*
X1172Y2013D02*
X1188Y2013D01*
X1196Y2013D02*
X1212Y2013D01*
X1244Y2013D02*
X1260Y2013D01*
X1268Y2013D02*
X1284Y2013D01*
X1316Y2013D02*
X1332Y2013D01*
X1340Y2013D02*
X1356Y2013D01*
X1455Y2013D02*
X1495Y2013D01*
X1527Y2013D02*
X1536Y2013D01*
X1567Y2013D02*
X1576Y2013D01*
X1604Y2013D02*
X1643Y2013D01*
X1676Y2013D02*
X1715Y2013D01*
X1745Y2013D02*
X1789Y2013D01*
X1815Y2013D02*
X1824Y2013D01*
X1835Y2013D02*
X1844Y2013D01*
X1856Y2013D02*
X1865Y2013D01*
X1890Y2013D02*
X1936Y2013D01*
X1959Y2013D02*
X1968Y2013D01*
X1995Y2013D02*
X2008Y2013D01*
X2037Y2013D02*
X2080Y2013D01*
X2103Y2013D02*
X2112Y2013D01*
X2177Y2013D02*
X2221Y2013D01*
X2247Y2013D02*
X2287Y2013D01*
X2322Y2013D02*
X2368Y2013D01*
X2402Y2013D02*
X2440Y2013D01*
X2469Y2013D02*
X2512Y2013D01*
X2618Y2013D02*
X2656Y2013D01*
X2685Y2013D02*
X2722Y2013D01*
X2751Y2013D02*
X2760Y2013D01*
X2771Y2013D02*
X2780Y2013D01*
X2792Y2013D02*
X2801Y2013D01*
X1172Y2012D02*
X1187Y2012D01*
X1196Y2012D02*
X1211Y2012D01*
X1244Y2012D02*
X1259Y2012D01*
X1268Y2012D02*
X1283Y2012D01*
X1316Y2012D02*
X1331Y2012D01*
X1340Y2012D02*
X1355Y2012D01*
X1455Y2012D02*
X1494Y2012D01*
X1527Y2012D02*
X1536Y2012D01*
X1567Y2012D02*
X1576Y2012D01*
X1604Y2012D02*
X1643Y2012D01*
X1676Y2012D02*
X1715Y2012D01*
X1746Y2012D02*
X1788Y2012D01*
X1815Y2012D02*
X1824Y2012D01*
X1835Y2012D02*
X1844Y2012D01*
X1856Y2012D02*
X1865Y2012D01*
X1891Y2012D02*
X1936Y2012D01*
X1959Y2012D02*
X1968Y2012D01*
X1996Y2012D02*
X2008Y2012D01*
X2038Y2012D02*
X2080Y2012D01*
X2103Y2012D02*
X2112Y2012D01*
X2178Y2012D02*
X2220Y2012D01*
X2247Y2012D02*
X2286Y2012D01*
X2323Y2012D02*
X2368Y2012D01*
X2403Y2012D02*
X2440Y2012D01*
X2470Y2012D02*
X2512Y2012D01*
X2619Y2012D02*
X2656Y2012D01*
X2687Y2012D02*
X2721Y2012D01*
X2751Y2012D02*
X2760Y2012D01*
X2771Y2012D02*
X2780Y2012D01*
X2792Y2012D02*
X2801Y2012D01*
X1172Y2011D02*
X1187Y2011D01*
X1197Y2011D02*
X1211Y2011D01*
X1244Y2011D02*
X1259Y2011D01*
X1269Y2011D02*
X1283Y2011D01*
X1316Y2011D02*
X1331Y2011D01*
X1341Y2011D02*
X1355Y2011D01*
X1455Y2011D02*
X1464Y2011D01*
X1467Y2011D02*
X1493Y2011D01*
X1528Y2011D02*
X1536Y2011D01*
X1567Y2011D02*
X1576Y2011D01*
X1604Y2011D02*
X1643Y2011D01*
X1676Y2011D02*
X1715Y2011D01*
X1747Y2011D02*
X1787Y2011D01*
X1815Y2011D02*
X1823Y2011D01*
X1835Y2011D02*
X1844Y2011D01*
X1856Y2011D02*
X1865Y2011D01*
X1892Y2011D02*
X1924Y2011D01*
X1927Y2011D02*
X1936Y2011D01*
X1960Y2011D02*
X1968Y2011D01*
X1997Y2011D02*
X2008Y2011D01*
X2040Y2011D02*
X2080Y2011D01*
X2104Y2011D02*
X2112Y2011D01*
X2179Y2011D02*
X2219Y2011D01*
X2247Y2011D02*
X2256Y2011D01*
X2259Y2011D02*
X2285Y2011D01*
X2324Y2011D02*
X2356Y2011D01*
X2359Y2011D02*
X2368Y2011D01*
X2405Y2011D02*
X2440Y2011D01*
X2472Y2011D02*
X2512Y2011D01*
X2621Y2011D02*
X2656Y2011D01*
X2688Y2011D02*
X2720Y2011D01*
X2751Y2011D02*
X2759Y2011D01*
X2771Y2011D02*
X2780Y2011D01*
X2792Y2011D02*
X2801Y2011D01*
X1173Y2010D02*
X1186Y2010D01*
X1197Y2010D02*
X1211Y2010D01*
X1245Y2010D02*
X1258Y2010D01*
X1269Y2010D02*
X1283Y2010D01*
X1317Y2010D02*
X1330Y2010D01*
X1341Y2010D02*
X1355Y2010D01*
X1455Y2010D02*
X1464Y2010D01*
X1468Y2010D02*
X1492Y2010D01*
X1528Y2010D02*
X1536Y2010D01*
X1567Y2010D02*
X1576Y2010D01*
X1605Y2010D02*
X1643Y2010D01*
X1677Y2010D02*
X1715Y2010D01*
X1748Y2010D02*
X1786Y2010D01*
X1815Y2010D02*
X1823Y2010D01*
X1836Y2010D02*
X1844Y2010D01*
X1856Y2010D02*
X1864Y2010D01*
X1893Y2010D02*
X1923Y2010D01*
X1928Y2010D02*
X1936Y2010D01*
X1960Y2010D02*
X1968Y2010D01*
X1999Y2010D02*
X2008Y2010D01*
X2041Y2010D02*
X2080Y2010D01*
X2104Y2010D02*
X2112Y2010D01*
X2180Y2010D02*
X2218Y2010D01*
X2247Y2010D02*
X2256Y2010D01*
X2260Y2010D02*
X2284Y2010D01*
X2325Y2010D02*
X2355Y2010D01*
X2360Y2010D02*
X2368Y2010D01*
X2406Y2010D02*
X2440Y2010D01*
X2473Y2010D02*
X2512Y2010D01*
X2622Y2010D02*
X2656Y2010D01*
X2689Y2010D02*
X2718Y2010D01*
X2751Y2010D02*
X2759Y2010D01*
X2772Y2010D02*
X2780Y2010D01*
X2792Y2010D02*
X2800Y2010D01*
X1173Y2009D02*
X1185Y2009D01*
X1198Y2009D02*
X1210Y2009D01*
X1245Y2009D02*
X1257Y2009D01*
X1270Y2009D02*
X1282Y2009D01*
X1317Y2009D02*
X1329Y2009D01*
X1342Y2009D02*
X1354Y2009D01*
X1455Y2009D02*
X1464Y2009D01*
X1469Y2009D02*
X1491Y2009D01*
X1528Y2009D02*
X1535Y2009D01*
X1568Y2009D02*
X1575Y2009D01*
X1605Y2009D02*
X1642Y2009D01*
X1677Y2009D02*
X1714Y2009D01*
X1750Y2009D02*
X1784Y2009D01*
X1816Y2009D02*
X1822Y2009D01*
X1836Y2009D02*
X1843Y2009D01*
X1857Y2009D02*
X1864Y2009D01*
X1895Y2009D02*
X1921Y2009D01*
X1928Y2009D02*
X1935Y2009D01*
X1960Y2009D02*
X1967Y2009D01*
X2000Y2009D02*
X2007Y2009D01*
X2042Y2009D02*
X2079Y2009D01*
X2104Y2009D02*
X2111Y2009D01*
X2182Y2009D02*
X2216Y2009D01*
X2247Y2009D02*
X2256Y2009D01*
X2261Y2009D02*
X2283Y2009D01*
X2327Y2009D02*
X2353Y2009D01*
X2360Y2009D02*
X2367Y2009D01*
X2407Y2009D02*
X2439Y2009D01*
X2474Y2009D02*
X2511Y2009D01*
X2623Y2009D02*
X2655Y2009D01*
X2691Y2009D02*
X2717Y2009D01*
X2752Y2009D02*
X2758Y2009D01*
X2772Y2009D02*
X2779Y2009D01*
X2793Y2009D02*
X2800Y2009D01*
X1174Y2008D02*
X1184Y2008D01*
X1199Y2008D02*
X1209Y2008D01*
X1246Y2008D02*
X1256Y2008D01*
X1271Y2008D02*
X1281Y2008D01*
X1318Y2008D02*
X1328Y2008D01*
X1343Y2008D02*
X1353Y2008D01*
X1455Y2008D02*
X1464Y2008D01*
X1470Y2008D02*
X1490Y2008D01*
X1529Y2008D02*
X1534Y2008D01*
X1569Y2008D02*
X1574Y2008D01*
X1606Y2008D02*
X1641Y2008D01*
X1678Y2008D02*
X1713Y2008D01*
X1753Y2008D02*
X1782Y2008D01*
X1817Y2008D02*
X1821Y2008D01*
X1837Y2008D02*
X1842Y2008D01*
X1858Y2008D02*
X1863Y2008D01*
X1897Y2008D02*
X1919Y2008D01*
X1929Y2008D02*
X1934Y2008D01*
X1961Y2008D02*
X1966Y2008D01*
X2001Y2008D02*
X2006Y2008D01*
X2044Y2008D02*
X2078Y2008D01*
X2105Y2008D02*
X2110Y2008D01*
X2185Y2008D02*
X2214Y2008D01*
X2247Y2008D02*
X2256Y2008D01*
X2262Y2008D02*
X2282Y2008D01*
X2329Y2008D02*
X2351Y2008D01*
X2361Y2008D02*
X2366Y2008D01*
X2409Y2008D02*
X2438Y2008D01*
X2476Y2008D02*
X2510Y2008D01*
X2625Y2008D02*
X2654Y2008D01*
X2693Y2008D02*
X2715Y2008D01*
X2753Y2008D02*
X2757Y2008D01*
X2773Y2008D02*
X2778Y2008D01*
X2794Y2008D02*
X2799Y2008D01*
X1177Y2007D02*
X1181Y2007D01*
X1202Y2007D02*
X1206Y2007D01*
X1249Y2007D02*
X1253Y2007D01*
X1274Y2007D02*
X1278Y2007D01*
X1321Y2007D02*
X1325Y2007D01*
X1346Y2007D02*
X1350Y2007D01*
X1455Y2007D02*
X1464Y2007D01*
X1472Y2007D02*
X1488Y2007D01*
X1609Y2007D02*
X1638Y2007D01*
X1681Y2007D02*
X1710Y2007D01*
X1759Y2007D02*
X1777Y2007D01*
X1902Y2007D02*
X1916Y2007D01*
X2050Y2007D02*
X2075Y2007D01*
X2191Y2007D02*
X2209Y2007D01*
X2247Y2007D02*
X2256Y2007D01*
X2264Y2007D02*
X2280Y2007D01*
X2334Y2007D02*
X2348Y2007D01*
X2415Y2007D02*
X2435Y2007D01*
X2482Y2007D02*
X2507Y2007D01*
X2631Y2007D02*
X2651Y2007D01*
X2698Y2007D02*
X2710Y2007D01*
X1455Y2006D02*
X1464Y2006D01*
X1474Y2006D02*
X1486Y2006D01*
X2247Y2006D02*
X2256Y2006D01*
X2266Y2006D02*
X2278Y2006D01*
X1455Y2005D02*
X1464Y2005D01*
X1478Y2005D02*
X1482Y2005D01*
X2247Y2005D02*
X2256Y2005D01*
X2270Y2005D02*
X2274Y2005D01*
X1455Y2004D02*
X1464Y2004D01*
X2247Y2004D02*
X2256Y2004D01*
X1455Y2003D02*
X1464Y2003D01*
X2247Y2003D02*
X2256Y2003D01*
X1455Y2002D02*
X1464Y2002D01*
X2247Y2002D02*
X2256Y2002D01*
X1455Y2001D02*
X1464Y2001D01*
X2247Y2001D02*
X2256Y2001D01*
X1455Y2000D02*
X1464Y2000D01*
X2247Y2000D02*
X2256Y2000D01*
X1455Y1999D02*
X1464Y1999D01*
X2247Y1999D02*
X2256Y1999D01*
X1455Y1998D02*
X1464Y1998D01*
X2247Y1998D02*
X2256Y1998D01*
X1455Y1997D02*
X1464Y1997D01*
X2247Y1997D02*
X2256Y1997D01*
X1455Y1996D02*
X1464Y1996D01*
X2247Y1996D02*
X2256Y1996D01*
X1455Y1995D02*
X1464Y1995D01*
X2247Y1995D02*
X2256Y1995D01*
X1455Y1994D02*
X1464Y1994D01*
X2247Y1994D02*
X2256Y1994D01*
X1455Y1993D02*
X1464Y1993D01*
X2247Y1993D02*
X2256Y1993D01*
X1455Y1992D02*
X1464Y1992D01*
X2247Y1992D02*
X2256Y1992D01*
X1455Y1991D02*
X1464Y1991D01*
X2247Y1991D02*
X2256Y1991D01*
X1455Y1990D02*
X1464Y1990D01*
X2247Y1990D02*
X2256Y1990D01*
X1456Y1989D02*
X1464Y1989D01*
X2248Y1989D02*
X2256Y1989D01*
X1456Y1988D02*
X1463Y1988D01*
X2248Y1988D02*
X2255Y1988D01*
X1457Y1987D02*
X1463Y1987D01*
X2249Y1987D02*
X2255Y1987D01*
X1459Y1986D02*
X1460Y1986D01*
X2251Y1986D02*
X2252Y1986D01*
X668Y1693D02*
X691Y1693D01*
X871Y1693D02*
X887Y1693D01*
X668Y1692D02*
X696Y1692D01*
X869Y1692D02*
X888Y1692D01*
X668Y1691D02*
X697Y1691D01*
X868Y1691D02*
X888Y1691D01*
X668Y1690D02*
X698Y1690D01*
X828Y1690D02*
X828Y1690D01*
X868Y1690D02*
X888Y1690D01*
X668Y1689D02*
X699Y1689D01*
X826Y1689D02*
X830Y1689D01*
X868Y1689D02*
X888Y1689D01*
X668Y1688D02*
X700Y1688D01*
X825Y1688D02*
X831Y1688D01*
X868Y1688D02*
X888Y1688D01*
X668Y1687D02*
X701Y1687D01*
X825Y1687D02*
X831Y1687D01*
X869Y1687D02*
X888Y1687D01*
X668Y1686D02*
X675Y1686D01*
X692Y1686D02*
X701Y1686D01*
X825Y1686D02*
X831Y1686D01*
X881Y1686D02*
X888Y1686D01*
X668Y1685D02*
X674Y1685D01*
X694Y1685D02*
X701Y1685D01*
X825Y1685D02*
X831Y1685D01*
X882Y1685D02*
X888Y1685D01*
X668Y1684D02*
X674Y1684D01*
X695Y1684D02*
X701Y1684D01*
X825Y1684D02*
X831Y1684D01*
X882Y1684D02*
X888Y1684D01*
X668Y1683D02*
X674Y1683D01*
X695Y1683D02*
X702Y1683D01*
X825Y1683D02*
X831Y1683D01*
X882Y1683D02*
X888Y1683D01*
X668Y1682D02*
X674Y1682D01*
X696Y1682D02*
X702Y1682D01*
X825Y1682D02*
X831Y1682D01*
X882Y1682D02*
X888Y1682D01*
X668Y1681D02*
X674Y1681D01*
X696Y1681D02*
X702Y1681D01*
X825Y1681D02*
X831Y1681D01*
X882Y1681D02*
X888Y1681D01*
X668Y1680D02*
X674Y1680D01*
X696Y1680D02*
X702Y1680D01*
X825Y1680D02*
X831Y1680D01*
X882Y1680D02*
X888Y1680D01*
X668Y1679D02*
X674Y1679D01*
X696Y1679D02*
X702Y1679D01*
X825Y1679D02*
X831Y1679D01*
X882Y1679D02*
X888Y1679D01*
X668Y1678D02*
X674Y1678D01*
X696Y1678D02*
X702Y1678D01*
X727Y1678D02*
X743Y1678D01*
X770Y1678D02*
X772Y1678D01*
X784Y1678D02*
X794Y1678D01*
X820Y1678D02*
X846Y1678D01*
X882Y1678D02*
X888Y1678D01*
X668Y1677D02*
X674Y1677D01*
X696Y1677D02*
X702Y1677D01*
X726Y1677D02*
X745Y1677D01*
X769Y1677D02*
X773Y1677D01*
X782Y1677D02*
X796Y1677D01*
X819Y1677D02*
X847Y1677D01*
X882Y1677D02*
X888Y1677D01*
X668Y1676D02*
X674Y1676D01*
X696Y1676D02*
X702Y1676D01*
X725Y1676D02*
X747Y1676D01*
X768Y1676D02*
X774Y1676D01*
X781Y1676D02*
X798Y1676D01*
X818Y1676D02*
X848Y1676D01*
X882Y1676D02*
X888Y1676D01*
X668Y1675D02*
X674Y1675D01*
X696Y1675D02*
X702Y1675D01*
X725Y1675D02*
X748Y1675D01*
X768Y1675D02*
X774Y1675D01*
X780Y1675D02*
X799Y1675D01*
X818Y1675D02*
X848Y1675D01*
X882Y1675D02*
X888Y1675D01*
X668Y1674D02*
X674Y1674D01*
X696Y1674D02*
X702Y1674D01*
X725Y1674D02*
X749Y1674D01*
X768Y1674D02*
X774Y1674D01*
X779Y1674D02*
X800Y1674D01*
X818Y1674D02*
X848Y1674D01*
X882Y1674D02*
X888Y1674D01*
X668Y1673D02*
X674Y1673D01*
X696Y1673D02*
X702Y1673D01*
X725Y1673D02*
X749Y1673D01*
X768Y1673D02*
X774Y1673D01*
X778Y1673D02*
X800Y1673D01*
X819Y1673D02*
X848Y1673D01*
X882Y1673D02*
X888Y1673D01*
X668Y1672D02*
X674Y1672D01*
X696Y1672D02*
X702Y1672D01*
X726Y1672D02*
X750Y1672D01*
X768Y1672D02*
X774Y1672D01*
X777Y1672D02*
X801Y1672D01*
X819Y1672D02*
X847Y1672D01*
X882Y1672D02*
X888Y1672D01*
X668Y1671D02*
X674Y1671D01*
X696Y1671D02*
X702Y1671D01*
X743Y1671D02*
X750Y1671D01*
X768Y1671D02*
X785Y1671D01*
X793Y1671D02*
X801Y1671D01*
X825Y1671D02*
X831Y1671D01*
X882Y1671D02*
X888Y1671D01*
X668Y1670D02*
X674Y1670D01*
X696Y1670D02*
X702Y1670D01*
X744Y1670D02*
X750Y1670D01*
X768Y1670D02*
X784Y1670D01*
X795Y1670D02*
X801Y1670D01*
X825Y1670D02*
X831Y1670D01*
X882Y1670D02*
X888Y1670D01*
X668Y1669D02*
X674Y1669D01*
X695Y1669D02*
X702Y1669D01*
X744Y1669D02*
X751Y1669D01*
X768Y1669D02*
X783Y1669D01*
X795Y1669D02*
X801Y1669D01*
X825Y1669D02*
X831Y1669D01*
X882Y1669D02*
X888Y1669D01*
X668Y1668D02*
X674Y1668D01*
X695Y1668D02*
X701Y1668D01*
X745Y1668D02*
X751Y1668D01*
X768Y1668D02*
X782Y1668D01*
X796Y1668D02*
X802Y1668D01*
X825Y1668D02*
X831Y1668D01*
X882Y1668D02*
X888Y1668D01*
X668Y1667D02*
X674Y1667D01*
X694Y1667D02*
X701Y1667D01*
X745Y1667D02*
X751Y1667D01*
X768Y1667D02*
X781Y1667D01*
X796Y1667D02*
X802Y1667D01*
X825Y1667D02*
X831Y1667D01*
X882Y1667D02*
X888Y1667D01*
X668Y1666D02*
X701Y1666D01*
X745Y1666D02*
X751Y1666D01*
X768Y1666D02*
X779Y1666D01*
X796Y1666D02*
X802Y1666D01*
X825Y1666D02*
X831Y1666D01*
X882Y1666D02*
X888Y1666D01*
X668Y1665D02*
X700Y1665D01*
X745Y1665D02*
X751Y1665D01*
X768Y1665D02*
X778Y1665D01*
X796Y1665D02*
X801Y1665D01*
X825Y1665D02*
X831Y1665D01*
X882Y1665D02*
X888Y1665D01*
X668Y1664D02*
X700Y1664D01*
X745Y1664D02*
X751Y1664D01*
X768Y1664D02*
X777Y1664D01*
X796Y1664D02*
X801Y1664D01*
X825Y1664D02*
X831Y1664D01*
X882Y1664D02*
X888Y1664D01*
X668Y1663D02*
X699Y1663D01*
X725Y1663D02*
X751Y1663D01*
X768Y1663D02*
X776Y1663D01*
X797Y1663D02*
X800Y1663D01*
X825Y1663D02*
X831Y1663D01*
X882Y1663D02*
X888Y1663D01*
X897Y1663D02*
X900Y1663D01*
X668Y1662D02*
X698Y1662D01*
X723Y1662D02*
X751Y1662D01*
X768Y1662D02*
X775Y1662D01*
X825Y1662D02*
X831Y1662D01*
X882Y1662D02*
X888Y1662D01*
X896Y1662D02*
X901Y1662D01*
X668Y1661D02*
X696Y1661D01*
X722Y1661D02*
X751Y1661D01*
X768Y1661D02*
X774Y1661D01*
X825Y1661D02*
X831Y1661D01*
X882Y1661D02*
X888Y1661D01*
X896Y1661D02*
X901Y1661D01*
X668Y1660D02*
X694Y1660D01*
X721Y1660D02*
X751Y1660D01*
X768Y1660D02*
X774Y1660D01*
X825Y1660D02*
X831Y1660D01*
X882Y1660D02*
X888Y1660D01*
X896Y1660D02*
X902Y1660D01*
X668Y1659D02*
X674Y1659D01*
X720Y1659D02*
X751Y1659D01*
X768Y1659D02*
X774Y1659D01*
X825Y1659D02*
X831Y1659D01*
X882Y1659D02*
X888Y1659D01*
X896Y1659D02*
X902Y1659D01*
X668Y1658D02*
X674Y1658D01*
X719Y1658D02*
X751Y1658D01*
X768Y1658D02*
X774Y1658D01*
X825Y1658D02*
X831Y1658D01*
X882Y1658D02*
X888Y1658D01*
X896Y1658D02*
X902Y1658D01*
X668Y1657D02*
X674Y1657D01*
X719Y1657D02*
X751Y1657D01*
X768Y1657D02*
X774Y1657D01*
X825Y1657D02*
X831Y1657D01*
X882Y1657D02*
X888Y1657D01*
X896Y1657D02*
X902Y1657D01*
X668Y1656D02*
X674Y1656D01*
X718Y1656D02*
X726Y1656D01*
X743Y1656D02*
X751Y1656D01*
X768Y1656D02*
X774Y1656D01*
X825Y1656D02*
X831Y1656D01*
X882Y1656D02*
X888Y1656D01*
X896Y1656D02*
X902Y1656D01*
X668Y1655D02*
X674Y1655D01*
X718Y1655D02*
X725Y1655D01*
X745Y1655D02*
X751Y1655D01*
X768Y1655D02*
X774Y1655D01*
X825Y1655D02*
X831Y1655D01*
X882Y1655D02*
X888Y1655D01*
X896Y1655D02*
X902Y1655D01*
X668Y1654D02*
X674Y1654D01*
X718Y1654D02*
X724Y1654D01*
X745Y1654D02*
X751Y1654D01*
X768Y1654D02*
X774Y1654D01*
X825Y1654D02*
X831Y1654D01*
X882Y1654D02*
X888Y1654D01*
X896Y1654D02*
X902Y1654D01*
X668Y1653D02*
X674Y1653D01*
X718Y1653D02*
X724Y1653D01*
X745Y1653D02*
X751Y1653D01*
X768Y1653D02*
X774Y1653D01*
X825Y1653D02*
X831Y1653D01*
X882Y1653D02*
X888Y1653D01*
X896Y1653D02*
X902Y1653D01*
X668Y1652D02*
X674Y1652D01*
X718Y1652D02*
X724Y1652D01*
X745Y1652D02*
X751Y1652D01*
X768Y1652D02*
X774Y1652D01*
X825Y1652D02*
X831Y1652D01*
X882Y1652D02*
X888Y1652D01*
X896Y1652D02*
X902Y1652D01*
X668Y1651D02*
X674Y1651D01*
X718Y1651D02*
X724Y1651D01*
X745Y1651D02*
X751Y1651D01*
X768Y1651D02*
X774Y1651D01*
X825Y1651D02*
X831Y1651D01*
X847Y1651D02*
X850Y1651D01*
X882Y1651D02*
X888Y1651D01*
X896Y1651D02*
X902Y1651D01*
X668Y1650D02*
X674Y1650D01*
X718Y1650D02*
X724Y1650D01*
X745Y1650D02*
X751Y1650D01*
X768Y1650D02*
X774Y1650D01*
X825Y1650D02*
X831Y1650D01*
X846Y1650D02*
X851Y1650D01*
X882Y1650D02*
X888Y1650D01*
X896Y1650D02*
X902Y1650D01*
X668Y1649D02*
X674Y1649D01*
X718Y1649D02*
X724Y1649D01*
X743Y1649D02*
X751Y1649D01*
X768Y1649D02*
X774Y1649D01*
X825Y1649D02*
X831Y1649D01*
X846Y1649D02*
X851Y1649D01*
X882Y1649D02*
X888Y1649D01*
X896Y1649D02*
X902Y1649D01*
X668Y1648D02*
X674Y1648D01*
X718Y1648D02*
X724Y1648D01*
X741Y1648D02*
X751Y1648D01*
X768Y1648D02*
X774Y1648D01*
X825Y1648D02*
X831Y1648D01*
X845Y1648D02*
X852Y1648D01*
X882Y1648D02*
X888Y1648D01*
X896Y1648D02*
X902Y1648D01*
X668Y1647D02*
X674Y1647D01*
X718Y1647D02*
X725Y1647D01*
X740Y1647D02*
X751Y1647D01*
X768Y1647D02*
X774Y1647D01*
X825Y1647D02*
X832Y1647D01*
X845Y1647D02*
X851Y1647D01*
X882Y1647D02*
X888Y1647D01*
X896Y1647D02*
X902Y1647D01*
X668Y1646D02*
X674Y1646D01*
X719Y1646D02*
X727Y1646D01*
X738Y1646D02*
X751Y1646D01*
X768Y1646D02*
X774Y1646D01*
X825Y1646D02*
X834Y1646D01*
X843Y1646D02*
X851Y1646D01*
X881Y1646D02*
X888Y1646D01*
X895Y1646D02*
X902Y1646D01*
X668Y1645D02*
X674Y1645D01*
X719Y1645D02*
X752Y1645D01*
X768Y1645D02*
X774Y1645D01*
X826Y1645D02*
X851Y1645D01*
X869Y1645D02*
X902Y1645D01*
X668Y1644D02*
X674Y1644D01*
X719Y1644D02*
X752Y1644D01*
X768Y1644D02*
X774Y1644D01*
X826Y1644D02*
X850Y1644D01*
X868Y1644D02*
X902Y1644D01*
X668Y1643D02*
X674Y1643D01*
X720Y1643D02*
X752Y1643D01*
X768Y1643D02*
X774Y1643D01*
X827Y1643D02*
X849Y1643D01*
X868Y1643D02*
X902Y1643D01*
X668Y1642D02*
X674Y1642D01*
X721Y1642D02*
X752Y1642D01*
X768Y1642D02*
X774Y1642D01*
X828Y1642D02*
X848Y1642D01*
X868Y1642D02*
X902Y1642D01*
X668Y1641D02*
X674Y1641D01*
X722Y1641D02*
X742Y1641D01*
X746Y1641D02*
X751Y1641D01*
X768Y1641D02*
X774Y1641D01*
X829Y1641D02*
X847Y1641D01*
X868Y1641D02*
X901Y1641D01*
X669Y1640D02*
X673Y1640D01*
X724Y1640D02*
X741Y1640D01*
X747Y1640D02*
X751Y1640D01*
X769Y1640D02*
X773Y1640D01*
X831Y1640D02*
X846Y1640D01*
X869Y1640D02*
X901Y1640D01*
X671Y1639D02*
X671Y1639D01*
X727Y1639D02*
X739Y1639D01*
X748Y1639D02*
X749Y1639D01*
X771Y1639D02*
X771Y1639D01*
X834Y1639D02*
X843Y1639D01*
X871Y1639D02*
X899Y1639D01*
X3219Y1639D02*
X3223Y1639D01*
X3256Y1639D02*
X3258Y1639D01*
X3305Y1639D02*
X3336Y1639D01*
X3356Y1639D02*
X3373Y1639D01*
X3217Y1638D02*
X3225Y1638D01*
X3255Y1638D02*
X3260Y1638D01*
X3304Y1638D02*
X3337Y1638D01*
X3355Y1638D02*
X3375Y1638D01*
X3216Y1637D02*
X3227Y1637D01*
X3255Y1637D02*
X3260Y1637D01*
X3304Y1637D02*
X3338Y1637D01*
X3355Y1637D02*
X3376Y1637D01*
X3215Y1636D02*
X3228Y1636D01*
X3254Y1636D02*
X3260Y1636D01*
X3304Y1636D02*
X3338Y1636D01*
X3355Y1636D02*
X3377Y1636D01*
X3214Y1635D02*
X3228Y1635D01*
X3254Y1635D02*
X3260Y1635D01*
X3304Y1635D02*
X3338Y1635D01*
X3355Y1635D02*
X3378Y1635D01*
X3213Y1634D02*
X3229Y1634D01*
X3254Y1634D02*
X3260Y1634D01*
X3304Y1634D02*
X3337Y1634D01*
X3355Y1634D02*
X3379Y1634D01*
X3213Y1633D02*
X3230Y1633D01*
X3254Y1633D02*
X3260Y1633D01*
X3304Y1633D02*
X3336Y1633D01*
X3356Y1633D02*
X3380Y1633D01*
X3212Y1632D02*
X3220Y1632D01*
X3223Y1632D02*
X3230Y1632D01*
X3254Y1632D02*
X3260Y1632D01*
X3304Y1632D02*
X3311Y1632D01*
X3361Y1632D02*
X3367Y1632D01*
X3372Y1632D02*
X3380Y1632D01*
X3212Y1631D02*
X3219Y1631D01*
X3224Y1631D02*
X3231Y1631D01*
X3254Y1631D02*
X3260Y1631D01*
X3304Y1631D02*
X3310Y1631D01*
X3361Y1631D02*
X3367Y1631D01*
X3374Y1631D02*
X3381Y1631D01*
X3211Y1630D02*
X3218Y1630D01*
X3224Y1630D02*
X3231Y1630D01*
X3254Y1630D02*
X3260Y1630D01*
X3304Y1630D02*
X3310Y1630D01*
X3361Y1630D02*
X3367Y1630D01*
X3374Y1630D02*
X3381Y1630D01*
X3211Y1629D02*
X3218Y1629D01*
X3225Y1629D02*
X3232Y1629D01*
X3254Y1629D02*
X3260Y1629D01*
X3304Y1629D02*
X3310Y1629D01*
X3361Y1629D02*
X3367Y1629D01*
X3375Y1629D02*
X3382Y1629D01*
X3210Y1628D02*
X3217Y1628D01*
X3225Y1628D02*
X3232Y1628D01*
X3254Y1628D02*
X3260Y1628D01*
X3304Y1628D02*
X3310Y1628D01*
X3361Y1628D02*
X3367Y1628D01*
X3375Y1628D02*
X3382Y1628D01*
X3210Y1627D02*
X3217Y1627D01*
X3226Y1627D02*
X3233Y1627D01*
X3254Y1627D02*
X3260Y1627D01*
X3304Y1627D02*
X3310Y1627D01*
X3361Y1627D02*
X3367Y1627D01*
X3376Y1627D02*
X3383Y1627D01*
X3209Y1626D02*
X3216Y1626D01*
X3226Y1626D02*
X3233Y1626D01*
X3254Y1626D02*
X3260Y1626D01*
X3304Y1626D02*
X3310Y1626D01*
X3361Y1626D02*
X3367Y1626D01*
X3376Y1626D02*
X3383Y1626D01*
X3209Y1625D02*
X3216Y1625D01*
X3227Y1625D02*
X3234Y1625D01*
X3254Y1625D02*
X3260Y1625D01*
X3304Y1625D02*
X3310Y1625D01*
X3361Y1625D02*
X3367Y1625D01*
X3377Y1625D02*
X3384Y1625D01*
X3208Y1624D02*
X3215Y1624D01*
X3227Y1624D02*
X3234Y1624D01*
X3254Y1624D02*
X3260Y1624D01*
X3304Y1624D02*
X3310Y1624D01*
X3361Y1624D02*
X3367Y1624D01*
X3377Y1624D02*
X3384Y1624D01*
X3208Y1623D02*
X3215Y1623D01*
X3228Y1623D02*
X3235Y1623D01*
X3254Y1623D02*
X3260Y1623D01*
X3304Y1623D02*
X3310Y1623D01*
X3361Y1623D02*
X3367Y1623D01*
X3378Y1623D02*
X3385Y1623D01*
X3207Y1622D02*
X3214Y1622D01*
X3228Y1622D02*
X3235Y1622D01*
X3254Y1622D02*
X3260Y1622D01*
X3304Y1622D02*
X3310Y1622D01*
X3361Y1622D02*
X3367Y1622D01*
X3378Y1622D02*
X3385Y1622D01*
X3207Y1621D02*
X3214Y1621D01*
X3229Y1621D02*
X3236Y1621D01*
X3254Y1621D02*
X3260Y1621D01*
X3304Y1621D02*
X3310Y1621D01*
X3361Y1621D02*
X3367Y1621D01*
X3379Y1621D02*
X3386Y1621D01*
X3206Y1620D02*
X3213Y1620D01*
X3229Y1620D02*
X3236Y1620D01*
X3254Y1620D02*
X3260Y1620D01*
X3304Y1620D02*
X3310Y1620D01*
X3361Y1620D02*
X3367Y1620D01*
X3379Y1620D02*
X3386Y1620D01*
X3206Y1619D02*
X3213Y1619D01*
X3230Y1619D02*
X3236Y1619D01*
X3254Y1619D02*
X3260Y1619D01*
X3304Y1619D02*
X3310Y1619D01*
X3361Y1619D02*
X3367Y1619D01*
X3380Y1619D02*
X3386Y1619D01*
X3206Y1618D02*
X3212Y1618D01*
X3230Y1618D02*
X3237Y1618D01*
X3254Y1618D02*
X3260Y1618D01*
X3304Y1618D02*
X3310Y1618D01*
X3361Y1618D02*
X3367Y1618D01*
X3380Y1618D02*
X3387Y1618D01*
X3205Y1617D02*
X3212Y1617D01*
X3231Y1617D02*
X3237Y1617D01*
X3254Y1617D02*
X3260Y1617D01*
X3304Y1617D02*
X3310Y1617D01*
X3361Y1617D02*
X3367Y1617D01*
X3381Y1617D02*
X3387Y1617D01*
X3205Y1616D02*
X3211Y1616D01*
X3231Y1616D02*
X3238Y1616D01*
X3254Y1616D02*
X3260Y1616D01*
X3304Y1616D02*
X3311Y1616D01*
X3361Y1616D02*
X3367Y1616D01*
X3381Y1616D02*
X3388Y1616D01*
X3205Y1615D02*
X3211Y1615D01*
X3232Y1615D02*
X3238Y1615D01*
X3254Y1615D02*
X3260Y1615D01*
X3304Y1615D02*
X3323Y1615D01*
X3361Y1615D02*
X3367Y1615D01*
X3382Y1615D02*
X3388Y1615D01*
X3205Y1614D02*
X3211Y1614D01*
X3232Y1614D02*
X3238Y1614D01*
X3254Y1614D02*
X3260Y1614D01*
X3304Y1614D02*
X3324Y1614D01*
X3361Y1614D02*
X3367Y1614D01*
X3382Y1614D02*
X3388Y1614D01*
X3205Y1613D02*
X3211Y1613D01*
X3232Y1613D02*
X3238Y1613D01*
X3254Y1613D02*
X3260Y1613D01*
X3304Y1613D02*
X3324Y1613D01*
X3361Y1613D02*
X3367Y1613D01*
X3382Y1613D02*
X3388Y1613D01*
X3204Y1612D02*
X3211Y1612D01*
X3232Y1612D02*
X3238Y1612D01*
X3254Y1612D02*
X3260Y1612D01*
X3304Y1612D02*
X3324Y1612D01*
X3361Y1612D02*
X3367Y1612D01*
X3382Y1612D02*
X3388Y1612D01*
X3205Y1611D02*
X3211Y1611D01*
X3232Y1611D02*
X3238Y1611D01*
X3254Y1611D02*
X3260Y1611D01*
X3304Y1611D02*
X3324Y1611D01*
X3361Y1611D02*
X3367Y1611D01*
X3382Y1611D02*
X3388Y1611D01*
X3205Y1610D02*
X3211Y1610D01*
X3232Y1610D02*
X3238Y1610D01*
X3254Y1610D02*
X3260Y1610D01*
X3304Y1610D02*
X3323Y1610D01*
X3361Y1610D02*
X3367Y1610D01*
X3382Y1610D02*
X3388Y1610D01*
X3205Y1609D02*
X3211Y1609D01*
X3231Y1609D02*
X3238Y1609D01*
X3254Y1609D02*
X3260Y1609D01*
X3304Y1609D02*
X3322Y1609D01*
X3361Y1609D02*
X3367Y1609D01*
X3381Y1609D02*
X3388Y1609D01*
X3205Y1608D02*
X3212Y1608D01*
X3231Y1608D02*
X3237Y1608D01*
X3254Y1608D02*
X3260Y1608D01*
X3304Y1608D02*
X3310Y1608D01*
X3361Y1608D02*
X3367Y1608D01*
X3381Y1608D02*
X3387Y1608D01*
X3205Y1607D02*
X3212Y1607D01*
X3230Y1607D02*
X3237Y1607D01*
X3254Y1607D02*
X3260Y1607D01*
X3304Y1607D02*
X3310Y1607D01*
X3361Y1607D02*
X3367Y1607D01*
X3380Y1607D02*
X3387Y1607D01*
X3206Y1606D02*
X3213Y1606D01*
X3230Y1606D02*
X3237Y1606D01*
X3254Y1606D02*
X3260Y1606D01*
X3304Y1606D02*
X3310Y1606D01*
X3361Y1606D02*
X3367Y1606D01*
X3380Y1606D02*
X3387Y1606D01*
X3206Y1605D02*
X3213Y1605D01*
X3229Y1605D02*
X3236Y1605D01*
X3254Y1605D02*
X3260Y1605D01*
X3304Y1605D02*
X3310Y1605D01*
X3361Y1605D02*
X3367Y1605D01*
X3379Y1605D02*
X3386Y1605D01*
X3207Y1604D02*
X3214Y1604D01*
X3229Y1604D02*
X3236Y1604D01*
X3254Y1604D02*
X3260Y1604D01*
X3304Y1604D02*
X3310Y1604D01*
X3361Y1604D02*
X3367Y1604D01*
X3379Y1604D02*
X3386Y1604D01*
X3207Y1603D02*
X3214Y1603D01*
X3228Y1603D02*
X3235Y1603D01*
X3254Y1603D02*
X3260Y1603D01*
X3304Y1603D02*
X3310Y1603D01*
X3361Y1603D02*
X3367Y1603D01*
X3378Y1603D02*
X3385Y1603D01*
X3208Y1602D02*
X3215Y1602D01*
X3228Y1602D02*
X3235Y1602D01*
X3254Y1602D02*
X3260Y1602D01*
X3304Y1602D02*
X3310Y1602D01*
X3361Y1602D02*
X3367Y1602D01*
X3378Y1602D02*
X3385Y1602D01*
X3208Y1601D02*
X3215Y1601D01*
X3227Y1601D02*
X3234Y1601D01*
X3254Y1601D02*
X3260Y1601D01*
X3304Y1601D02*
X3310Y1601D01*
X3361Y1601D02*
X3367Y1601D01*
X3377Y1601D02*
X3384Y1601D01*
X3209Y1600D02*
X3216Y1600D01*
X3227Y1600D02*
X3234Y1600D01*
X3254Y1600D02*
X3260Y1600D01*
X3304Y1600D02*
X3310Y1600D01*
X3361Y1600D02*
X3367Y1600D01*
X3377Y1600D02*
X3384Y1600D01*
X3209Y1599D02*
X3216Y1599D01*
X3226Y1599D02*
X3233Y1599D01*
X3254Y1599D02*
X3260Y1599D01*
X3304Y1599D02*
X3310Y1599D01*
X3361Y1599D02*
X3367Y1599D01*
X3376Y1599D02*
X3383Y1599D01*
X3210Y1598D02*
X3217Y1598D01*
X3226Y1598D02*
X3233Y1598D01*
X3254Y1598D02*
X3260Y1598D01*
X3304Y1598D02*
X3310Y1598D01*
X3361Y1598D02*
X3367Y1598D01*
X3376Y1598D02*
X3383Y1598D01*
X3210Y1597D02*
X3217Y1597D01*
X3225Y1597D02*
X3232Y1597D01*
X3254Y1597D02*
X3260Y1597D01*
X3304Y1597D02*
X3310Y1597D01*
X3361Y1597D02*
X3367Y1597D01*
X3375Y1597D02*
X3382Y1597D01*
X3211Y1596D02*
X3218Y1596D01*
X3225Y1596D02*
X3232Y1596D01*
X3254Y1596D02*
X3260Y1596D01*
X3304Y1596D02*
X3310Y1596D01*
X3361Y1596D02*
X3367Y1596D01*
X3375Y1596D02*
X3382Y1596D01*
X3211Y1595D02*
X3218Y1595D01*
X3224Y1595D02*
X3231Y1595D01*
X3254Y1595D02*
X3260Y1595D01*
X3304Y1595D02*
X3310Y1595D01*
X3361Y1595D02*
X3367Y1595D01*
X3374Y1595D02*
X3381Y1595D01*
X3212Y1594D02*
X3219Y1594D01*
X3224Y1594D02*
X3231Y1594D01*
X3254Y1594D02*
X3260Y1594D01*
X3304Y1594D02*
X3310Y1594D01*
X3361Y1594D02*
X3367Y1594D01*
X3374Y1594D02*
X3381Y1594D01*
X3212Y1593D02*
X3219Y1593D01*
X3223Y1593D02*
X3230Y1593D01*
X3254Y1593D02*
X3260Y1593D01*
X3304Y1593D02*
X3310Y1593D01*
X3361Y1593D02*
X3367Y1593D01*
X3373Y1593D02*
X3380Y1593D01*
X3213Y1592D02*
X3230Y1592D01*
X3254Y1592D02*
X3286Y1592D01*
X3304Y1592D02*
X3336Y1592D01*
X3357Y1592D02*
X3380Y1592D01*
X3213Y1591D02*
X3229Y1591D01*
X3254Y1591D02*
X3287Y1591D01*
X3304Y1591D02*
X3337Y1591D01*
X3355Y1591D02*
X3379Y1591D01*
X3214Y1590D02*
X3229Y1590D01*
X3254Y1590D02*
X3288Y1590D01*
X3304Y1590D02*
X3338Y1590D01*
X3355Y1590D02*
X3379Y1590D01*
X3214Y1589D02*
X3228Y1589D01*
X3254Y1589D02*
X3288Y1589D01*
X3304Y1589D02*
X3338Y1589D01*
X3355Y1589D02*
X3378Y1589D01*
X3215Y1588D02*
X3227Y1588D01*
X3254Y1588D02*
X3288Y1588D01*
X3304Y1588D02*
X3338Y1588D01*
X3355Y1588D02*
X3377Y1588D01*
X3216Y1587D02*
X3226Y1587D01*
X3254Y1587D02*
X3288Y1587D01*
X3304Y1587D02*
X3338Y1587D01*
X3355Y1587D02*
X3376Y1587D01*
X3218Y1586D02*
X3224Y1586D01*
X3254Y1586D02*
X3287Y1586D01*
X3304Y1586D02*
X3337Y1586D01*
X3356Y1586D02*
X3374Y1586D01*
X2288Y426D02*
X2311Y426D01*
X2287Y425D02*
X2315Y425D01*
X2287Y424D02*
X2317Y424D01*
X2287Y423D02*
X2318Y423D01*
X2287Y422D02*
X2319Y422D01*
X2287Y421D02*
X2319Y421D01*
X2287Y420D02*
X2320Y420D01*
X2287Y419D02*
X2294Y419D01*
X2311Y419D02*
X2320Y419D01*
X2287Y418D02*
X2293Y418D01*
X2314Y418D02*
X2321Y418D01*
X2287Y417D02*
X2293Y417D01*
X2315Y417D02*
X2321Y417D01*
X2287Y416D02*
X2293Y416D01*
X2315Y416D02*
X2321Y416D01*
X2287Y415D02*
X2293Y415D01*
X2315Y415D02*
X2321Y415D01*
X2287Y414D02*
X2293Y414D01*
X2315Y414D02*
X2321Y414D01*
X2287Y413D02*
X2293Y413D01*
X2315Y413D02*
X2321Y413D01*
X2287Y412D02*
X2293Y412D01*
X2315Y412D02*
X2321Y412D01*
X2287Y411D02*
X2293Y411D01*
X2315Y411D02*
X2321Y411D01*
X2348Y411D02*
X2361Y411D01*
X2389Y411D02*
X2391Y411D01*
X2418Y411D02*
X2419Y411D01*
X2448Y411D02*
X2461Y411D01*
X2490Y411D02*
X2491Y411D01*
X2503Y411D02*
X2513Y411D01*
X2287Y410D02*
X2293Y410D01*
X2315Y410D02*
X2321Y410D01*
X2345Y410D02*
X2363Y410D01*
X2388Y410D02*
X2392Y410D01*
X2417Y410D02*
X2421Y410D01*
X2445Y410D02*
X2463Y410D01*
X2488Y410D02*
X2493Y410D01*
X2502Y410D02*
X2516Y410D01*
X2287Y409D02*
X2293Y409D01*
X2315Y409D02*
X2321Y409D01*
X2344Y409D02*
X2365Y409D01*
X2387Y409D02*
X2392Y409D01*
X2416Y409D02*
X2421Y409D01*
X2444Y409D02*
X2465Y409D01*
X2488Y409D02*
X2493Y409D01*
X2501Y409D02*
X2517Y409D01*
X2287Y408D02*
X2293Y408D01*
X2315Y408D02*
X2321Y408D01*
X2343Y408D02*
X2366Y408D01*
X2387Y408D02*
X2393Y408D01*
X2416Y408D02*
X2422Y408D01*
X2443Y408D02*
X2466Y408D01*
X2487Y408D02*
X2493Y408D01*
X2499Y408D02*
X2518Y408D01*
X2287Y407D02*
X2293Y407D01*
X2315Y407D02*
X2321Y407D01*
X2341Y407D02*
X2367Y407D01*
X2387Y407D02*
X2393Y407D01*
X2416Y407D02*
X2422Y407D01*
X2441Y407D02*
X2467Y407D01*
X2487Y407D02*
X2493Y407D01*
X2498Y407D02*
X2519Y407D01*
X2287Y406D02*
X2293Y406D01*
X2315Y406D02*
X2321Y406D01*
X2340Y406D02*
X2368Y406D01*
X2387Y406D02*
X2393Y406D01*
X2416Y406D02*
X2422Y406D01*
X2440Y406D02*
X2468Y406D01*
X2487Y406D02*
X2493Y406D01*
X2497Y406D02*
X2520Y406D01*
X2287Y405D02*
X2293Y405D01*
X2315Y405D02*
X2321Y405D01*
X2340Y405D02*
X2369Y405D01*
X2387Y405D02*
X2393Y405D01*
X2416Y405D02*
X2422Y405D01*
X2440Y405D02*
X2469Y405D01*
X2487Y405D02*
X2493Y405D01*
X2496Y405D02*
X2520Y405D01*
X2287Y404D02*
X2293Y404D01*
X2315Y404D02*
X2321Y404D01*
X2339Y404D02*
X2348Y404D01*
X2360Y404D02*
X2370Y404D01*
X2387Y404D02*
X2393Y404D01*
X2416Y404D02*
X2422Y404D01*
X2439Y404D02*
X2448Y404D01*
X2460Y404D02*
X2470Y404D01*
X2487Y404D02*
X2505Y404D01*
X2513Y404D02*
X2520Y404D01*
X2287Y403D02*
X2293Y403D01*
X2315Y403D02*
X2321Y403D01*
X2338Y403D02*
X2346Y403D01*
X2362Y403D02*
X2370Y403D01*
X2387Y403D02*
X2393Y403D01*
X2416Y403D02*
X2422Y403D01*
X2438Y403D02*
X2446Y403D01*
X2462Y403D02*
X2470Y403D01*
X2487Y403D02*
X2503Y403D01*
X2514Y403D02*
X2521Y403D01*
X2287Y402D02*
X2293Y402D01*
X2315Y402D02*
X2321Y402D01*
X2338Y402D02*
X2345Y402D01*
X2363Y402D02*
X2370Y402D01*
X2387Y402D02*
X2393Y402D01*
X2415Y402D02*
X2422Y402D01*
X2438Y402D02*
X2445Y402D01*
X2463Y402D02*
X2470Y402D01*
X2487Y402D02*
X2502Y402D01*
X2515Y402D02*
X2521Y402D01*
X2287Y401D02*
X2293Y401D01*
X2314Y401D02*
X2321Y401D01*
X2338Y401D02*
X2344Y401D01*
X2364Y401D02*
X2371Y401D01*
X2387Y401D02*
X2393Y401D01*
X2415Y401D02*
X2421Y401D01*
X2438Y401D02*
X2444Y401D01*
X2464Y401D02*
X2471Y401D01*
X2487Y401D02*
X2501Y401D01*
X2515Y401D02*
X2521Y401D01*
X2287Y400D02*
X2293Y400D01*
X2313Y400D02*
X2321Y400D01*
X2338Y400D02*
X2344Y400D01*
X2365Y400D02*
X2371Y400D01*
X2387Y400D02*
X2393Y400D01*
X2415Y400D02*
X2421Y400D01*
X2438Y400D02*
X2444Y400D01*
X2465Y400D02*
X2471Y400D01*
X2487Y400D02*
X2500Y400D01*
X2515Y400D02*
X2521Y400D01*
X2287Y399D02*
X2320Y399D01*
X2337Y399D02*
X2343Y399D01*
X2365Y399D02*
X2371Y399D01*
X2387Y399D02*
X2393Y399D01*
X2403Y399D02*
X2405Y399D01*
X2415Y399D02*
X2421Y399D01*
X2437Y399D02*
X2443Y399D01*
X2465Y399D02*
X2471Y399D01*
X2487Y399D02*
X2499Y399D01*
X2515Y399D02*
X2521Y399D01*
X2287Y398D02*
X2320Y398D01*
X2337Y398D02*
X2343Y398D01*
X2365Y398D02*
X2371Y398D01*
X2387Y398D02*
X2393Y398D01*
X2402Y398D02*
X2406Y398D01*
X2415Y398D02*
X2421Y398D01*
X2437Y398D02*
X2443Y398D01*
X2465Y398D02*
X2471Y398D01*
X2487Y398D02*
X2498Y398D01*
X2515Y398D02*
X2521Y398D01*
X2287Y397D02*
X2319Y397D01*
X2337Y397D02*
X2343Y397D01*
X2365Y397D02*
X2371Y397D01*
X2387Y397D02*
X2393Y397D01*
X2401Y397D02*
X2407Y397D01*
X2415Y397D02*
X2421Y397D01*
X2437Y397D02*
X2443Y397D01*
X2465Y397D02*
X2471Y397D01*
X2487Y397D02*
X2496Y397D01*
X2516Y397D02*
X2520Y397D01*
X2287Y396D02*
X2318Y396D01*
X2337Y396D02*
X2343Y396D01*
X2365Y396D02*
X2371Y396D01*
X2387Y396D02*
X2393Y396D01*
X2401Y396D02*
X2407Y396D01*
X2415Y396D02*
X2421Y396D01*
X2437Y396D02*
X2443Y396D01*
X2465Y396D02*
X2471Y396D01*
X2487Y396D02*
X2495Y396D01*
X2517Y396D02*
X2519Y396D01*
X2287Y395D02*
X2317Y395D01*
X2337Y395D02*
X2343Y395D01*
X2365Y395D02*
X2371Y395D01*
X2387Y395D02*
X2393Y395D01*
X2401Y395D02*
X2407Y395D01*
X2415Y395D02*
X2421Y395D01*
X2437Y395D02*
X2443Y395D01*
X2465Y395D02*
X2471Y395D01*
X2487Y395D02*
X2494Y395D01*
X2287Y394D02*
X2316Y394D01*
X2337Y394D02*
X2343Y394D01*
X2365Y394D02*
X2371Y394D01*
X2387Y394D02*
X2393Y394D01*
X2401Y394D02*
X2407Y394D01*
X2415Y394D02*
X2421Y394D01*
X2437Y394D02*
X2444Y394D01*
X2465Y394D02*
X2471Y394D01*
X2487Y394D02*
X2493Y394D01*
X2287Y393D02*
X2313Y393D01*
X2337Y393D02*
X2343Y393D01*
X2365Y393D02*
X2371Y393D01*
X2387Y393D02*
X2393Y393D01*
X2401Y393D02*
X2407Y393D01*
X2415Y393D02*
X2421Y393D01*
X2437Y393D02*
X2471Y393D01*
X2487Y393D02*
X2493Y393D01*
X2287Y392D02*
X2293Y392D01*
X2337Y392D02*
X2343Y392D01*
X2365Y392D02*
X2371Y392D01*
X2387Y392D02*
X2393Y392D01*
X2401Y392D02*
X2407Y392D01*
X2415Y392D02*
X2421Y392D01*
X2437Y392D02*
X2471Y392D01*
X2487Y392D02*
X2493Y392D01*
X2287Y391D02*
X2293Y391D01*
X2337Y391D02*
X2343Y391D01*
X2365Y391D02*
X2371Y391D01*
X2387Y391D02*
X2393Y391D01*
X2401Y391D02*
X2407Y391D01*
X2415Y391D02*
X2421Y391D01*
X2437Y391D02*
X2471Y391D01*
X2487Y391D02*
X2493Y391D01*
X2287Y390D02*
X2293Y390D01*
X2337Y390D02*
X2343Y390D01*
X2365Y390D02*
X2371Y390D01*
X2387Y390D02*
X2393Y390D01*
X2401Y390D02*
X2407Y390D01*
X2415Y390D02*
X2421Y390D01*
X2437Y390D02*
X2471Y390D01*
X2487Y390D02*
X2493Y390D01*
X2287Y389D02*
X2293Y389D01*
X2337Y389D02*
X2343Y389D01*
X2365Y389D02*
X2371Y389D01*
X2387Y389D02*
X2393Y389D01*
X2401Y389D02*
X2407Y389D01*
X2415Y389D02*
X2421Y389D01*
X2437Y389D02*
X2471Y389D01*
X2487Y389D02*
X2493Y389D01*
X2287Y388D02*
X2293Y388D01*
X2337Y388D02*
X2343Y388D01*
X2365Y388D02*
X2371Y388D01*
X2387Y388D02*
X2393Y388D01*
X2401Y388D02*
X2407Y388D01*
X2415Y388D02*
X2421Y388D01*
X2437Y388D02*
X2470Y388D01*
X2487Y388D02*
X2493Y388D01*
X2287Y387D02*
X2293Y387D01*
X2337Y387D02*
X2343Y387D01*
X2365Y387D02*
X2371Y387D01*
X2387Y387D02*
X2394Y387D01*
X2401Y387D02*
X2408Y387D01*
X2415Y387D02*
X2421Y387D01*
X2437Y387D02*
X2469Y387D01*
X2487Y387D02*
X2493Y387D01*
X2287Y386D02*
X2293Y386D01*
X2337Y386D02*
X2343Y386D01*
X2365Y386D02*
X2371Y386D01*
X2388Y386D02*
X2394Y386D01*
X2400Y386D02*
X2408Y386D01*
X2414Y386D02*
X2421Y386D01*
X2437Y386D02*
X2443Y386D01*
X2487Y386D02*
X2493Y386D01*
X2287Y385D02*
X2293Y385D01*
X2337Y385D02*
X2343Y385D01*
X2365Y385D02*
X2371Y385D01*
X2388Y385D02*
X2394Y385D01*
X2399Y385D02*
X2409Y385D01*
X2414Y385D02*
X2421Y385D01*
X2437Y385D02*
X2443Y385D01*
X2487Y385D02*
X2493Y385D01*
X2287Y384D02*
X2293Y384D01*
X2337Y384D02*
X2344Y384D01*
X2365Y384D02*
X2371Y384D01*
X2388Y384D02*
X2394Y384D01*
X2399Y384D02*
X2410Y384D01*
X2414Y384D02*
X2420Y384D01*
X2437Y384D02*
X2444Y384D01*
X2487Y384D02*
X2493Y384D01*
X2287Y383D02*
X2293Y383D01*
X2338Y383D02*
X2344Y383D01*
X2365Y383D02*
X2371Y383D01*
X2389Y383D02*
X2395Y383D01*
X2398Y383D02*
X2410Y383D01*
X2414Y383D02*
X2420Y383D01*
X2438Y383D02*
X2444Y383D01*
X2487Y383D02*
X2493Y383D01*
X2287Y382D02*
X2293Y382D01*
X2338Y382D02*
X2345Y382D01*
X2364Y382D02*
X2371Y382D01*
X2389Y382D02*
X2395Y382D01*
X2398Y382D02*
X2411Y382D01*
X2413Y382D02*
X2420Y382D01*
X2438Y382D02*
X2444Y382D01*
X2487Y382D02*
X2493Y382D01*
X2287Y381D02*
X2293Y381D01*
X2338Y381D02*
X2346Y381D01*
X2363Y381D02*
X2370Y381D01*
X2389Y381D02*
X2395Y381D01*
X2397Y381D02*
X2411Y381D01*
X2413Y381D02*
X2419Y381D01*
X2438Y381D02*
X2446Y381D01*
X2487Y381D02*
X2493Y381D01*
X2287Y380D02*
X2293Y380D01*
X2338Y380D02*
X2347Y380D01*
X2362Y380D02*
X2370Y380D01*
X2389Y380D02*
X2419Y380D01*
X2438Y380D02*
X2447Y380D01*
X2487Y380D02*
X2493Y380D01*
X2287Y379D02*
X2293Y379D01*
X2339Y379D02*
X2349Y379D01*
X2360Y379D02*
X2369Y379D01*
X2390Y379D02*
X2403Y379D01*
X2405Y379D02*
X2419Y379D01*
X2439Y379D02*
X2449Y379D01*
X2487Y379D02*
X2493Y379D01*
X2287Y378D02*
X2293Y378D01*
X2340Y378D02*
X2369Y378D01*
X2390Y378D02*
X2402Y378D01*
X2406Y378D02*
X2418Y378D01*
X2440Y378D02*
X2470Y378D01*
X2487Y378D02*
X2493Y378D01*
X2287Y377D02*
X2293Y377D01*
X2341Y377D02*
X2368Y377D01*
X2390Y377D02*
X2402Y377D01*
X2407Y377D02*
X2418Y377D01*
X2441Y377D02*
X2471Y377D01*
X2487Y377D02*
X2493Y377D01*
X2287Y376D02*
X2293Y376D01*
X2342Y376D02*
X2367Y376D01*
X2391Y376D02*
X2401Y376D01*
X2407Y376D02*
X2418Y376D01*
X2442Y376D02*
X2471Y376D01*
X2487Y376D02*
X2493Y376D01*
X2287Y375D02*
X2293Y375D01*
X2343Y375D02*
X2365Y375D01*
X2391Y375D02*
X2401Y375D01*
X2408Y375D02*
X2418Y375D01*
X2443Y375D02*
X2471Y375D01*
X2487Y375D02*
X2493Y375D01*
X2288Y374D02*
X2293Y374D01*
X2344Y374D02*
X2364Y374D01*
X2391Y374D02*
X2400Y374D01*
X2408Y374D02*
X2417Y374D01*
X2444Y374D02*
X2471Y374D01*
X2488Y374D02*
X2493Y374D01*
X2288Y373D02*
X2292Y373D01*
X2346Y373D02*
X2363Y373D01*
X2392Y373D02*
X2399Y373D01*
X2409Y373D02*
X2417Y373D01*
X2446Y373D02*
X2470Y373D01*
X2488Y373D02*
X2492Y373D01*
X2290Y372D02*
X2290Y372D01*
X2349Y372D02*
X2359Y372D01*
X2394Y372D02*
X2398Y372D01*
X2411Y372D02*
X2415Y372D01*
X2449Y372D02*
X2468Y372D01*
X2490Y372D02*
X2490Y372D01*
D02*
G04 End of Silk1*
M02*