G04 MADE WITH FRITZING*
G04 WWW.FRITZING.ORG*
G04 SINGLE SIDED*
G04 HOLES NOT PLATED*
G04 CONTOUR ON CENTER OF CONTOUR VECTOR*
%ASAXBY*%
%FSLAX23Y23*%
%MOIN*%
%OFA0B0*%
%SFA1.0B1.0*%
%ADD10C,0.074291*%
%ADD11C,0.078000*%
%ADD12C,0.074106*%
%ADD13R,0.077986X0.077944*%
%ADD14C,0.024000*%
%ADD15R,0.001000X0.001000*%
%LNCOPPER0*%
G90*
G70*
G54D10*
X107Y1576D03*
X207Y1576D03*
X308Y1576D03*
X408Y1576D03*
X509Y1576D03*
X609Y1576D03*
G54D11*
X2209Y276D03*
X2209Y176D03*
X2209Y276D03*
X2209Y176D03*
G54D12*
X807Y275D03*
X807Y375D03*
X807Y475D03*
X807Y575D03*
X807Y675D03*
X807Y776D03*
X807Y876D03*
X807Y976D03*
X807Y1076D03*
X807Y1176D03*
X807Y1276D03*
X807Y1376D03*
X807Y1477D03*
X807Y1577D03*
X807Y1677D03*
X1809Y275D03*
X1809Y375D03*
X1809Y475D03*
X1809Y575D03*
X1809Y675D03*
X1809Y776D03*
X1809Y876D03*
X1809Y976D03*
X1809Y1076D03*
X1809Y1176D03*
X1809Y1276D03*
X1809Y1376D03*
X1809Y1477D03*
X1809Y1577D03*
X1809Y1677D03*
X807Y275D03*
X807Y375D03*
X807Y475D03*
X807Y575D03*
X807Y675D03*
X807Y776D03*
X807Y876D03*
X807Y976D03*
X807Y1076D03*
X807Y1176D03*
X807Y1276D03*
X807Y1376D03*
X807Y1477D03*
X807Y1577D03*
X807Y1677D03*
X1809Y275D03*
X1809Y375D03*
X1809Y475D03*
X1809Y575D03*
X1809Y675D03*
X1809Y776D03*
X1809Y876D03*
X1809Y976D03*
X1809Y1076D03*
X1809Y1176D03*
X1809Y1276D03*
X1809Y1376D03*
X1809Y1477D03*
X1809Y1577D03*
X1809Y1677D03*
G54D11*
X2810Y1476D03*
X2710Y1476D03*
X2610Y1476D03*
X2510Y1476D03*
X2810Y1476D03*
X2710Y1476D03*
X2610Y1476D03*
X2510Y1476D03*
G54D13*
X2810Y1476D03*
X2810Y1476D03*
G54D14*
X790Y275D02*
X107Y276D01*
D02*
X107Y276D02*
X107Y1556D01*
D02*
X790Y375D02*
X207Y376D01*
D02*
X207Y376D02*
X207Y1556D01*
D02*
X790Y1276D02*
X410Y1276D01*
D02*
X410Y1276D02*
X408Y1556D01*
D02*
X1107Y1874D02*
X310Y1877D01*
D02*
X310Y1877D02*
X308Y1596D01*
D02*
X1809Y176D02*
X1809Y257D01*
D02*
X2190Y176D02*
X1809Y176D01*
D02*
X2209Y376D02*
X2209Y295D01*
D02*
X1309Y1776D02*
X1309Y1276D01*
D02*
X1309Y1276D02*
X825Y1276D01*
D02*
X2509Y1776D02*
X1309Y1776D01*
D02*
X2510Y1495D02*
X2509Y1776D01*
D02*
X2609Y1876D02*
X1107Y1874D01*
D02*
X2610Y1495D02*
X2609Y1876D01*
D02*
X2209Y376D02*
X1826Y375D01*
D02*
X2809Y376D02*
X2209Y376D01*
D02*
X2810Y1457D02*
X2809Y376D01*
D02*
X809Y76D02*
X807Y257D01*
D02*
X3009Y76D02*
X809Y76D01*
D02*
X3009Y1676D02*
X3009Y76D01*
D02*
X2709Y1676D02*
X3009Y1676D01*
D02*
X2710Y1495D02*
X2709Y1676D01*
D02*
X1107Y1874D02*
X1107Y1577D01*
D02*
X1107Y1577D02*
X825Y1577D01*
G54D15*
X801Y1713D02*
X814Y1713D01*
X1802Y1713D02*
X1816Y1713D01*
X797Y1712D02*
X818Y1712D01*
X1799Y1712D02*
X1820Y1712D01*
X795Y1711D02*
X821Y1711D01*
X1796Y1711D02*
X1822Y1711D01*
X792Y1710D02*
X823Y1710D01*
X1794Y1710D02*
X1824Y1710D01*
X790Y1709D02*
X825Y1709D01*
X1792Y1709D02*
X1827Y1709D01*
X789Y1708D02*
X827Y1708D01*
X1790Y1708D02*
X1828Y1708D01*
X787Y1707D02*
X828Y1707D01*
X1788Y1707D02*
X1830Y1707D01*
X786Y1706D02*
X830Y1706D01*
X1787Y1706D02*
X1831Y1706D01*
X784Y1705D02*
X831Y1705D01*
X1786Y1705D02*
X1833Y1705D01*
X783Y1704D02*
X832Y1704D01*
X1785Y1704D02*
X1834Y1704D01*
X782Y1703D02*
X833Y1703D01*
X1783Y1703D02*
X1835Y1703D01*
X781Y1702D02*
X834Y1702D01*
X1783Y1702D02*
X1836Y1702D01*
X780Y1701D02*
X835Y1701D01*
X1782Y1701D02*
X1837Y1701D01*
X779Y1700D02*
X836Y1700D01*
X1781Y1700D02*
X1837Y1700D01*
X779Y1699D02*
X837Y1699D01*
X1780Y1699D02*
X1838Y1699D01*
X778Y1698D02*
X837Y1698D01*
X1779Y1698D02*
X1839Y1698D01*
X777Y1697D02*
X838Y1697D01*
X1779Y1697D02*
X1839Y1697D01*
X777Y1696D02*
X839Y1696D01*
X1778Y1696D02*
X1840Y1696D01*
X776Y1695D02*
X839Y1695D01*
X1778Y1695D02*
X1841Y1695D01*
X776Y1694D02*
X803Y1694D01*
X812Y1694D02*
X840Y1694D01*
X1777Y1694D02*
X1805Y1694D01*
X1813Y1694D02*
X1841Y1694D01*
X775Y1693D02*
X800Y1693D01*
X815Y1693D02*
X840Y1693D01*
X1777Y1693D02*
X1802Y1693D01*
X1817Y1693D02*
X1842Y1693D01*
X775Y1692D02*
X798Y1692D01*
X817Y1692D02*
X841Y1692D01*
X1776Y1692D02*
X1800Y1692D01*
X1818Y1692D02*
X1842Y1692D01*
X774Y1691D02*
X797Y1691D01*
X818Y1691D02*
X841Y1691D01*
X1776Y1691D02*
X1798Y1691D01*
X1820Y1691D02*
X1843Y1691D01*
X774Y1690D02*
X796Y1690D01*
X820Y1690D02*
X842Y1690D01*
X1775Y1690D02*
X1797Y1690D01*
X1821Y1690D02*
X1843Y1690D01*
X773Y1689D02*
X795Y1689D01*
X821Y1689D02*
X842Y1689D01*
X1775Y1689D02*
X1796Y1689D01*
X1822Y1689D02*
X1843Y1689D01*
X773Y1688D02*
X794Y1688D01*
X822Y1688D02*
X842Y1688D01*
X1774Y1688D02*
X1795Y1688D01*
X1823Y1688D02*
X1844Y1688D01*
X773Y1687D02*
X793Y1687D01*
X822Y1687D02*
X843Y1687D01*
X1774Y1687D02*
X1794Y1687D01*
X1824Y1687D02*
X1844Y1687D01*
X772Y1686D02*
X792Y1686D01*
X823Y1686D02*
X843Y1686D01*
X1774Y1686D02*
X1794Y1686D01*
X1825Y1686D02*
X1844Y1686D01*
X772Y1685D02*
X792Y1685D01*
X824Y1685D02*
X843Y1685D01*
X1774Y1685D02*
X1793Y1685D01*
X1825Y1685D02*
X1845Y1685D01*
X772Y1684D02*
X791Y1684D01*
X824Y1684D02*
X843Y1684D01*
X1773Y1684D02*
X1792Y1684D01*
X1826Y1684D02*
X1845Y1684D01*
X772Y1683D02*
X791Y1683D01*
X825Y1683D02*
X844Y1683D01*
X1773Y1683D02*
X1792Y1683D01*
X1826Y1683D02*
X1845Y1683D01*
X772Y1682D02*
X790Y1682D01*
X825Y1682D02*
X844Y1682D01*
X1773Y1682D02*
X1792Y1682D01*
X1826Y1682D02*
X1845Y1682D01*
X771Y1681D02*
X790Y1681D01*
X825Y1681D02*
X844Y1681D01*
X1773Y1681D02*
X1791Y1681D01*
X1827Y1681D02*
X1845Y1681D01*
X771Y1680D02*
X790Y1680D01*
X825Y1680D02*
X844Y1680D01*
X1773Y1680D02*
X1791Y1680D01*
X1827Y1680D02*
X1845Y1680D01*
X771Y1679D02*
X790Y1679D01*
X825Y1679D02*
X844Y1679D01*
X1773Y1679D02*
X1791Y1679D01*
X1827Y1679D02*
X1846Y1679D01*
X771Y1678D02*
X790Y1678D01*
X826Y1678D02*
X844Y1678D01*
X1773Y1678D02*
X1791Y1678D01*
X1827Y1678D02*
X1846Y1678D01*
X771Y1677D02*
X790Y1677D01*
X826Y1677D02*
X844Y1677D01*
X1773Y1677D02*
X1791Y1677D01*
X1827Y1677D02*
X1846Y1677D01*
X771Y1676D02*
X790Y1676D01*
X826Y1676D02*
X844Y1676D01*
X1773Y1676D02*
X1791Y1676D01*
X1827Y1676D02*
X1846Y1676D01*
X771Y1675D02*
X790Y1675D01*
X826Y1675D02*
X844Y1675D01*
X1773Y1675D02*
X1791Y1675D01*
X1827Y1675D02*
X1846Y1675D01*
X771Y1674D02*
X790Y1674D01*
X825Y1674D02*
X844Y1674D01*
X1773Y1674D02*
X1791Y1674D01*
X1827Y1674D02*
X1845Y1674D01*
X771Y1673D02*
X790Y1673D01*
X825Y1673D02*
X844Y1673D01*
X1773Y1673D02*
X1791Y1673D01*
X1827Y1673D02*
X1845Y1673D01*
X771Y1672D02*
X790Y1672D01*
X825Y1672D02*
X844Y1672D01*
X1773Y1672D02*
X1792Y1672D01*
X1827Y1672D02*
X1845Y1672D01*
X772Y1671D02*
X791Y1671D01*
X825Y1671D02*
X844Y1671D01*
X1773Y1671D02*
X1792Y1671D01*
X1826Y1671D02*
X1845Y1671D01*
X772Y1670D02*
X791Y1670D01*
X824Y1670D02*
X843Y1670D01*
X1773Y1670D02*
X1792Y1670D01*
X1826Y1670D02*
X1845Y1670D01*
X772Y1669D02*
X791Y1669D01*
X824Y1669D02*
X843Y1669D01*
X1773Y1669D02*
X1793Y1669D01*
X1825Y1669D02*
X1845Y1669D01*
X772Y1668D02*
X792Y1668D01*
X823Y1668D02*
X843Y1668D01*
X1774Y1668D02*
X1793Y1668D01*
X1825Y1668D02*
X1844Y1668D01*
X773Y1667D02*
X793Y1667D01*
X823Y1667D02*
X843Y1667D01*
X1774Y1667D02*
X1794Y1667D01*
X1824Y1667D02*
X1844Y1667D01*
X773Y1666D02*
X793Y1666D01*
X822Y1666D02*
X842Y1666D01*
X1774Y1666D02*
X1795Y1666D01*
X1823Y1666D02*
X1844Y1666D01*
X773Y1665D02*
X794Y1665D01*
X821Y1665D02*
X842Y1665D01*
X1775Y1665D02*
X1796Y1665D01*
X1822Y1665D02*
X1844Y1665D01*
X774Y1664D02*
X795Y1664D01*
X820Y1664D02*
X842Y1664D01*
X1775Y1664D02*
X1797Y1664D01*
X1822Y1664D02*
X1843Y1664D01*
X774Y1663D02*
X796Y1663D01*
X819Y1663D02*
X841Y1663D01*
X1775Y1663D02*
X1798Y1663D01*
X1820Y1663D02*
X1843Y1663D01*
X774Y1662D02*
X798Y1662D01*
X818Y1662D02*
X841Y1662D01*
X1776Y1662D02*
X1799Y1662D01*
X1819Y1662D02*
X1842Y1662D01*
X775Y1661D02*
X799Y1661D01*
X816Y1661D02*
X840Y1661D01*
X1776Y1661D02*
X1801Y1661D01*
X1817Y1661D02*
X1842Y1661D01*
X775Y1660D02*
X802Y1660D01*
X813Y1660D02*
X840Y1660D01*
X1777Y1660D02*
X1803Y1660D01*
X1815Y1660D02*
X1841Y1660D01*
X776Y1659D02*
X839Y1659D01*
X1777Y1659D02*
X1841Y1659D01*
X776Y1658D02*
X839Y1658D01*
X1778Y1658D02*
X1840Y1658D01*
X777Y1657D02*
X838Y1657D01*
X1778Y1657D02*
X1840Y1657D01*
X778Y1656D02*
X838Y1656D01*
X1779Y1656D02*
X1839Y1656D01*
X778Y1655D02*
X837Y1655D01*
X1780Y1655D02*
X1838Y1655D01*
X779Y1654D02*
X836Y1654D01*
X1780Y1654D02*
X1838Y1654D01*
X780Y1653D02*
X835Y1653D01*
X1781Y1653D02*
X1837Y1653D01*
X781Y1652D02*
X835Y1652D01*
X1782Y1652D02*
X1836Y1652D01*
X782Y1651D02*
X834Y1651D01*
X1783Y1651D02*
X1835Y1651D01*
X783Y1650D02*
X833Y1650D01*
X1784Y1650D02*
X1834Y1650D01*
X784Y1649D02*
X832Y1649D01*
X1785Y1649D02*
X1833Y1649D01*
X785Y1648D02*
X830Y1648D01*
X1786Y1648D02*
X1832Y1648D01*
X786Y1647D02*
X829Y1647D01*
X1788Y1647D02*
X1830Y1647D01*
X788Y1646D02*
X828Y1646D01*
X1789Y1646D02*
X1829Y1646D01*
X789Y1645D02*
X826Y1645D01*
X1791Y1645D02*
X1827Y1645D01*
X791Y1644D02*
X824Y1644D01*
X1793Y1644D02*
X1825Y1644D01*
X793Y1643D02*
X822Y1643D01*
X1795Y1643D02*
X1823Y1643D01*
X796Y1642D02*
X819Y1642D01*
X1797Y1642D02*
X1821Y1642D01*
X799Y1641D02*
X816Y1641D01*
X1801Y1641D02*
X1817Y1641D01*
X804Y1640D02*
X811Y1640D01*
X1806Y1640D02*
X1812Y1640D01*
X801Y1613D02*
X814Y1613D01*
X1803Y1613D02*
X1815Y1613D01*
X798Y1612D02*
X818Y1612D01*
X1799Y1612D02*
X1819Y1612D01*
X795Y1611D02*
X820Y1611D01*
X1796Y1611D02*
X1822Y1611D01*
X792Y1610D02*
X823Y1610D01*
X1794Y1610D02*
X1824Y1610D01*
X790Y1609D02*
X825Y1609D01*
X1792Y1609D02*
X1826Y1609D01*
X789Y1608D02*
X827Y1608D01*
X1790Y1608D02*
X1828Y1608D01*
X787Y1607D02*
X828Y1607D01*
X1789Y1607D02*
X1830Y1607D01*
X786Y1606D02*
X830Y1606D01*
X1787Y1606D02*
X1831Y1606D01*
X784Y1605D02*
X831Y1605D01*
X1786Y1605D02*
X1832Y1605D01*
X783Y1604D02*
X832Y1604D01*
X1785Y1604D02*
X1834Y1604D01*
X782Y1603D02*
X833Y1603D01*
X1784Y1603D02*
X1835Y1603D01*
X781Y1602D02*
X834Y1602D01*
X1783Y1602D02*
X1836Y1602D01*
X780Y1601D02*
X835Y1601D01*
X1782Y1601D02*
X1836Y1601D01*
X779Y1600D02*
X836Y1600D01*
X1781Y1600D02*
X1837Y1600D01*
X779Y1599D02*
X837Y1599D01*
X1780Y1599D02*
X1838Y1599D01*
X778Y1598D02*
X837Y1598D01*
X1779Y1598D02*
X1839Y1598D01*
X777Y1597D02*
X838Y1597D01*
X1779Y1597D02*
X1839Y1597D01*
X777Y1596D02*
X839Y1596D01*
X1778Y1596D02*
X1840Y1596D01*
X776Y1595D02*
X839Y1595D01*
X1778Y1595D02*
X1841Y1595D01*
X776Y1594D02*
X805Y1594D01*
X811Y1594D02*
X840Y1594D01*
X1777Y1594D02*
X1806Y1594D01*
X1812Y1594D02*
X1841Y1594D01*
X775Y1593D02*
X800Y1593D01*
X815Y1593D02*
X840Y1593D01*
X1777Y1593D02*
X1802Y1593D01*
X1816Y1593D02*
X1842Y1593D01*
X775Y1592D02*
X799Y1592D01*
X817Y1592D02*
X841Y1592D01*
X1776Y1592D02*
X1800Y1592D01*
X1818Y1592D02*
X1842Y1592D01*
X774Y1591D02*
X797Y1591D01*
X818Y1591D02*
X841Y1591D01*
X1776Y1591D02*
X1798Y1591D01*
X1820Y1591D02*
X1843Y1591D01*
X774Y1590D02*
X796Y1590D01*
X819Y1590D02*
X841Y1590D01*
X1775Y1590D02*
X1797Y1590D01*
X1821Y1590D02*
X1843Y1590D01*
X773Y1589D02*
X795Y1589D01*
X821Y1589D02*
X842Y1589D01*
X1775Y1589D02*
X1796Y1589D01*
X1822Y1589D02*
X1843Y1589D01*
X773Y1588D02*
X794Y1588D01*
X821Y1588D02*
X842Y1588D01*
X1774Y1588D02*
X1795Y1588D01*
X1823Y1588D02*
X1844Y1588D01*
X773Y1587D02*
X793Y1587D01*
X822Y1587D02*
X843Y1587D01*
X1774Y1587D02*
X1794Y1587D01*
X1824Y1587D02*
X1844Y1587D01*
X772Y1586D02*
X792Y1586D01*
X823Y1586D02*
X843Y1586D01*
X1774Y1586D02*
X1794Y1586D01*
X1825Y1586D02*
X1844Y1586D01*
X772Y1585D02*
X792Y1585D01*
X824Y1585D02*
X843Y1585D01*
X1774Y1585D02*
X1793Y1585D01*
X1825Y1585D02*
X1845Y1585D01*
X772Y1584D02*
X791Y1584D01*
X824Y1584D02*
X843Y1584D01*
X1773Y1584D02*
X1793Y1584D01*
X1826Y1584D02*
X1845Y1584D01*
X772Y1583D02*
X791Y1583D01*
X825Y1583D02*
X844Y1583D01*
X1773Y1583D02*
X1792Y1583D01*
X1826Y1583D02*
X1845Y1583D01*
X772Y1582D02*
X790Y1582D01*
X825Y1582D02*
X844Y1582D01*
X1773Y1582D02*
X1792Y1582D01*
X1826Y1582D02*
X1845Y1582D01*
X771Y1581D02*
X790Y1581D01*
X825Y1581D02*
X844Y1581D01*
X1773Y1581D02*
X1792Y1581D01*
X1827Y1581D02*
X1845Y1581D01*
X771Y1580D02*
X790Y1580D01*
X825Y1580D02*
X844Y1580D01*
X1773Y1580D02*
X1791Y1580D01*
X1827Y1580D02*
X1845Y1580D01*
X771Y1579D02*
X790Y1579D01*
X825Y1579D02*
X844Y1579D01*
X1773Y1579D02*
X1791Y1579D01*
X1827Y1579D02*
X1845Y1579D01*
X771Y1578D02*
X790Y1578D01*
X826Y1578D02*
X844Y1578D01*
X1773Y1578D02*
X1791Y1578D01*
X1827Y1578D02*
X1846Y1578D01*
X771Y1577D02*
X790Y1577D01*
X826Y1577D02*
X844Y1577D01*
X1773Y1577D02*
X1791Y1577D01*
X1827Y1577D02*
X1846Y1577D01*
X771Y1576D02*
X790Y1576D01*
X826Y1576D02*
X844Y1576D01*
X1773Y1576D02*
X1791Y1576D01*
X1827Y1576D02*
X1846Y1576D01*
X771Y1575D02*
X790Y1575D01*
X826Y1575D02*
X844Y1575D01*
X1773Y1575D02*
X1791Y1575D01*
X1827Y1575D02*
X1846Y1575D01*
X771Y1574D02*
X790Y1574D01*
X825Y1574D02*
X844Y1574D01*
X1773Y1574D02*
X1791Y1574D01*
X1827Y1574D02*
X1845Y1574D01*
X771Y1573D02*
X790Y1573D01*
X825Y1573D02*
X844Y1573D01*
X1773Y1573D02*
X1791Y1573D01*
X1827Y1573D02*
X1845Y1573D01*
X771Y1572D02*
X790Y1572D01*
X825Y1572D02*
X844Y1572D01*
X1773Y1572D02*
X1792Y1572D01*
X1827Y1572D02*
X1845Y1572D01*
X772Y1571D02*
X790Y1571D01*
X825Y1571D02*
X844Y1571D01*
X1773Y1571D02*
X1792Y1571D01*
X1826Y1571D02*
X1845Y1571D01*
X772Y1570D02*
X791Y1570D01*
X825Y1570D02*
X843Y1570D01*
X1773Y1570D02*
X1792Y1570D01*
X1826Y1570D02*
X1845Y1570D01*
X772Y1569D02*
X791Y1569D01*
X824Y1569D02*
X843Y1569D01*
X1773Y1569D02*
X1793Y1569D01*
X1825Y1569D02*
X1845Y1569D01*
X772Y1568D02*
X792Y1568D01*
X823Y1568D02*
X843Y1568D01*
X1774Y1568D02*
X1793Y1568D01*
X1825Y1568D02*
X1844Y1568D01*
X773Y1567D02*
X792Y1567D01*
X823Y1567D02*
X843Y1567D01*
X1774Y1567D02*
X1794Y1567D01*
X1824Y1567D02*
X1844Y1567D01*
X773Y1566D02*
X793Y1566D01*
X822Y1566D02*
X842Y1566D01*
X1774Y1566D02*
X1795Y1566D01*
X1823Y1566D02*
X1844Y1566D01*
X773Y1565D02*
X794Y1565D01*
X821Y1565D02*
X842Y1565D01*
X1775Y1565D02*
X1796Y1565D01*
X1823Y1565D02*
X1844Y1565D01*
X774Y1564D02*
X795Y1564D01*
X820Y1564D02*
X842Y1564D01*
X1775Y1564D02*
X1797Y1564D01*
X1822Y1564D02*
X1843Y1564D01*
X774Y1563D02*
X796Y1563D01*
X819Y1563D02*
X841Y1563D01*
X1775Y1563D02*
X1798Y1563D01*
X1820Y1563D02*
X1843Y1563D01*
X774Y1562D02*
X797Y1562D01*
X818Y1562D02*
X841Y1562D01*
X1776Y1562D02*
X1799Y1562D01*
X1819Y1562D02*
X1842Y1562D01*
X775Y1561D02*
X799Y1561D01*
X816Y1561D02*
X840Y1561D01*
X1776Y1561D02*
X1801Y1561D01*
X1818Y1561D02*
X1842Y1561D01*
X775Y1560D02*
X801Y1560D01*
X814Y1560D02*
X840Y1560D01*
X1777Y1560D02*
X1803Y1560D01*
X1815Y1560D02*
X1841Y1560D01*
X776Y1559D02*
X840Y1559D01*
X1777Y1559D02*
X1841Y1559D01*
X776Y1558D02*
X839Y1558D01*
X1778Y1558D02*
X1840Y1558D01*
X777Y1557D02*
X838Y1557D01*
X1778Y1557D02*
X1840Y1557D01*
X778Y1556D02*
X838Y1556D01*
X1779Y1556D02*
X1839Y1556D01*
X778Y1555D02*
X837Y1555D01*
X1780Y1555D02*
X1838Y1555D01*
X779Y1554D02*
X836Y1554D01*
X1780Y1554D02*
X1838Y1554D01*
X780Y1553D02*
X836Y1553D01*
X1781Y1553D02*
X1837Y1553D01*
X781Y1552D02*
X835Y1552D01*
X1782Y1552D02*
X1836Y1552D01*
X781Y1551D02*
X834Y1551D01*
X1783Y1551D02*
X1835Y1551D01*
X782Y1550D02*
X833Y1550D01*
X1784Y1550D02*
X1834Y1550D01*
X784Y1549D02*
X832Y1549D01*
X1785Y1549D02*
X1833Y1549D01*
X785Y1548D02*
X830Y1548D01*
X1786Y1548D02*
X1832Y1548D01*
X786Y1547D02*
X829Y1547D01*
X1788Y1547D02*
X1831Y1547D01*
X788Y1546D02*
X828Y1546D01*
X1789Y1546D02*
X1829Y1546D01*
X789Y1545D02*
X826Y1545D01*
X1791Y1545D02*
X1827Y1545D01*
X791Y1544D02*
X824Y1544D01*
X1793Y1544D02*
X1826Y1544D01*
X793Y1543D02*
X822Y1543D01*
X1795Y1543D02*
X1824Y1543D01*
X796Y1542D02*
X820Y1542D01*
X1797Y1542D02*
X1821Y1542D01*
X799Y1541D02*
X816Y1541D01*
X1800Y1541D02*
X1818Y1541D01*
X804Y1540D02*
X812Y1540D01*
X1805Y1540D02*
X1813Y1540D01*
X802Y1513D02*
X813Y1513D01*
X1804Y1513D02*
X1815Y1513D01*
X798Y1512D02*
X817Y1512D01*
X1799Y1512D02*
X1819Y1512D01*
X795Y1511D02*
X820Y1511D01*
X1797Y1511D02*
X1822Y1511D01*
X793Y1510D02*
X823Y1510D01*
X1794Y1510D02*
X1824Y1510D01*
X791Y1509D02*
X825Y1509D01*
X1792Y1509D02*
X1826Y1509D01*
X789Y1508D02*
X826Y1508D01*
X1790Y1508D02*
X1828Y1508D01*
X787Y1507D02*
X828Y1507D01*
X1789Y1507D02*
X1829Y1507D01*
X786Y1506D02*
X829Y1506D01*
X1787Y1506D02*
X1831Y1506D01*
X784Y1505D02*
X831Y1505D01*
X1786Y1505D02*
X1832Y1505D01*
X783Y1504D02*
X832Y1504D01*
X1785Y1504D02*
X1833Y1504D01*
X782Y1503D02*
X833Y1503D01*
X1784Y1503D02*
X1834Y1503D01*
X781Y1502D02*
X834Y1502D01*
X1783Y1502D02*
X1835Y1502D01*
X780Y1501D02*
X835Y1501D01*
X1782Y1501D02*
X1836Y1501D01*
X780Y1500D02*
X836Y1500D01*
X1781Y1500D02*
X1837Y1500D01*
X779Y1499D02*
X836Y1499D01*
X1780Y1499D02*
X1838Y1499D01*
X778Y1498D02*
X837Y1498D01*
X1780Y1498D02*
X1839Y1498D01*
X777Y1497D02*
X838Y1497D01*
X1779Y1497D02*
X1839Y1497D01*
X777Y1496D02*
X838Y1496D01*
X1778Y1496D02*
X1840Y1496D01*
X776Y1495D02*
X839Y1495D01*
X1778Y1495D02*
X1841Y1495D01*
X776Y1494D02*
X806Y1494D01*
X809Y1494D02*
X840Y1494D01*
X1777Y1494D02*
X1808Y1494D01*
X1811Y1494D02*
X1841Y1494D01*
X775Y1493D02*
X801Y1493D01*
X815Y1493D02*
X840Y1493D01*
X1777Y1493D02*
X1802Y1493D01*
X1816Y1493D02*
X1842Y1493D01*
X775Y1492D02*
X799Y1492D01*
X817Y1492D02*
X841Y1492D01*
X1776Y1492D02*
X1800Y1492D01*
X1818Y1492D02*
X1842Y1492D01*
X774Y1491D02*
X797Y1491D01*
X818Y1491D02*
X841Y1491D01*
X1776Y1491D02*
X1799Y1491D01*
X1820Y1491D02*
X1842Y1491D01*
X774Y1490D02*
X796Y1490D01*
X819Y1490D02*
X841Y1490D01*
X1775Y1490D02*
X1797Y1490D01*
X1821Y1490D02*
X1843Y1490D01*
X773Y1489D02*
X795Y1489D01*
X820Y1489D02*
X842Y1489D01*
X1775Y1489D02*
X1796Y1489D01*
X1822Y1489D02*
X1843Y1489D01*
X773Y1488D02*
X794Y1488D01*
X821Y1488D02*
X842Y1488D01*
X1775Y1488D02*
X1795Y1488D01*
X1823Y1488D02*
X1844Y1488D01*
X773Y1487D02*
X793Y1487D01*
X822Y1487D02*
X843Y1487D01*
X1774Y1487D02*
X1795Y1487D01*
X1824Y1487D02*
X1844Y1487D01*
X772Y1486D02*
X792Y1486D01*
X823Y1486D02*
X843Y1486D01*
X1774Y1486D02*
X1794Y1486D01*
X1824Y1486D02*
X1844Y1486D01*
X772Y1485D02*
X792Y1485D01*
X824Y1485D02*
X843Y1485D01*
X1774Y1485D02*
X1793Y1485D01*
X1825Y1485D02*
X1844Y1485D01*
X772Y1484D02*
X791Y1484D01*
X824Y1484D02*
X843Y1484D01*
X1773Y1484D02*
X1793Y1484D01*
X1826Y1484D02*
X1845Y1484D01*
X772Y1483D02*
X791Y1483D01*
X825Y1483D02*
X844Y1483D01*
X1773Y1483D02*
X1792Y1483D01*
X1826Y1483D02*
X1845Y1483D01*
X772Y1482D02*
X790Y1482D01*
X825Y1482D02*
X844Y1482D01*
X1773Y1482D02*
X1792Y1482D01*
X1826Y1482D02*
X1845Y1482D01*
X771Y1481D02*
X790Y1481D01*
X825Y1481D02*
X844Y1481D01*
X1773Y1481D02*
X1792Y1481D01*
X1827Y1481D02*
X1845Y1481D01*
X771Y1480D02*
X790Y1480D01*
X825Y1480D02*
X844Y1480D01*
X1773Y1480D02*
X1791Y1480D01*
X1827Y1480D02*
X1845Y1480D01*
X771Y1479D02*
X790Y1479D01*
X825Y1479D02*
X844Y1479D01*
X1773Y1479D02*
X1791Y1479D01*
X1827Y1479D02*
X1845Y1479D01*
X771Y1478D02*
X790Y1478D01*
X826Y1478D02*
X844Y1478D01*
X1773Y1478D02*
X1791Y1478D01*
X1827Y1478D02*
X1846Y1478D01*
X771Y1477D02*
X790Y1477D01*
X826Y1477D02*
X844Y1477D01*
X1773Y1477D02*
X1791Y1477D01*
X1827Y1477D02*
X1846Y1477D01*
X771Y1476D02*
X790Y1476D01*
X826Y1476D02*
X844Y1476D01*
X1773Y1476D02*
X1791Y1476D01*
X1827Y1476D02*
X1846Y1476D01*
X771Y1475D02*
X790Y1475D01*
X826Y1475D02*
X844Y1475D01*
X1773Y1475D02*
X1791Y1475D01*
X1827Y1475D02*
X1846Y1475D01*
X771Y1474D02*
X790Y1474D01*
X825Y1474D02*
X844Y1474D01*
X1773Y1474D02*
X1791Y1474D01*
X1827Y1474D02*
X1845Y1474D01*
X771Y1473D02*
X790Y1473D01*
X825Y1473D02*
X844Y1473D01*
X1773Y1473D02*
X1791Y1473D01*
X1827Y1473D02*
X1845Y1473D01*
X771Y1472D02*
X790Y1472D01*
X825Y1472D02*
X844Y1472D01*
X1773Y1472D02*
X1792Y1472D01*
X1827Y1472D02*
X1845Y1472D01*
X772Y1471D02*
X790Y1471D01*
X825Y1471D02*
X844Y1471D01*
X1773Y1471D02*
X1792Y1471D01*
X1826Y1471D02*
X1845Y1471D01*
X772Y1470D02*
X791Y1470D01*
X825Y1470D02*
X843Y1470D01*
X1773Y1470D02*
X1792Y1470D01*
X1826Y1470D02*
X1845Y1470D01*
X772Y1469D02*
X791Y1469D01*
X824Y1469D02*
X843Y1469D01*
X1773Y1469D02*
X1793Y1469D01*
X1826Y1469D02*
X1845Y1469D01*
X772Y1468D02*
X792Y1468D01*
X824Y1468D02*
X843Y1468D01*
X1774Y1468D02*
X1793Y1468D01*
X1825Y1468D02*
X1844Y1468D01*
X773Y1467D02*
X792Y1467D01*
X823Y1467D02*
X843Y1467D01*
X1774Y1467D02*
X1794Y1467D01*
X1824Y1467D02*
X1844Y1467D01*
X773Y1466D02*
X793Y1466D01*
X822Y1466D02*
X842Y1466D01*
X1774Y1466D02*
X1795Y1466D01*
X1824Y1466D02*
X1844Y1466D01*
X773Y1465D02*
X794Y1465D01*
X821Y1465D02*
X842Y1465D01*
X1775Y1465D02*
X1795Y1465D01*
X1823Y1465D02*
X1844Y1465D01*
X774Y1464D02*
X795Y1464D01*
X820Y1464D02*
X842Y1464D01*
X1775Y1464D02*
X1796Y1464D01*
X1822Y1464D02*
X1843Y1464D01*
X774Y1463D02*
X796Y1463D01*
X819Y1463D02*
X841Y1463D01*
X1775Y1463D02*
X1798Y1463D01*
X1821Y1463D02*
X1843Y1463D01*
X774Y1462D02*
X797Y1462D01*
X818Y1462D02*
X841Y1462D01*
X1776Y1462D02*
X1799Y1462D01*
X1819Y1462D02*
X1842Y1462D01*
X775Y1461D02*
X799Y1461D01*
X816Y1461D02*
X841Y1461D01*
X1776Y1461D02*
X1800Y1461D01*
X1818Y1461D02*
X1842Y1461D01*
X775Y1460D02*
X801Y1460D01*
X814Y1460D02*
X840Y1460D01*
X1777Y1460D02*
X1802Y1460D01*
X1816Y1460D02*
X1841Y1460D01*
X776Y1459D02*
X840Y1459D01*
X1777Y1459D02*
X1841Y1459D01*
X776Y1458D02*
X839Y1458D01*
X1778Y1458D02*
X1840Y1458D01*
X777Y1457D02*
X838Y1457D01*
X1778Y1457D02*
X1840Y1457D01*
X777Y1456D02*
X838Y1456D01*
X1779Y1456D02*
X1839Y1456D01*
X778Y1455D02*
X837Y1455D01*
X1780Y1455D02*
X1839Y1455D01*
X779Y1454D02*
X836Y1454D01*
X1780Y1454D02*
X1838Y1454D01*
X780Y1453D02*
X836Y1453D01*
X1781Y1453D02*
X1837Y1453D01*
X780Y1452D02*
X835Y1452D01*
X1782Y1452D02*
X1836Y1452D01*
X781Y1451D02*
X834Y1451D01*
X1783Y1451D02*
X1835Y1451D01*
X782Y1450D02*
X833Y1450D01*
X1784Y1450D02*
X1834Y1450D01*
X783Y1449D02*
X832Y1449D01*
X1785Y1449D02*
X1833Y1449D01*
X785Y1448D02*
X831Y1448D01*
X1786Y1448D02*
X1832Y1448D01*
X786Y1447D02*
X829Y1447D01*
X1787Y1447D02*
X1831Y1447D01*
X787Y1446D02*
X828Y1446D01*
X1789Y1446D02*
X1829Y1446D01*
X789Y1445D02*
X826Y1445D01*
X1791Y1445D02*
X1828Y1445D01*
X791Y1444D02*
X824Y1444D01*
X1792Y1444D02*
X1826Y1444D01*
X793Y1443D02*
X822Y1443D01*
X1794Y1443D02*
X1824Y1443D01*
X795Y1442D02*
X820Y1442D01*
X1797Y1442D02*
X1821Y1442D01*
X798Y1441D02*
X817Y1441D01*
X1800Y1441D02*
X1818Y1441D01*
X803Y1440D02*
X812Y1440D01*
X1804Y1440D02*
X1814Y1440D01*
X803Y1413D02*
X812Y1413D01*
X1804Y1413D02*
X1814Y1413D01*
X798Y1412D02*
X817Y1412D01*
X1800Y1412D02*
X1818Y1412D01*
X795Y1411D02*
X820Y1411D01*
X1797Y1411D02*
X1821Y1411D01*
X793Y1410D02*
X822Y1410D01*
X1794Y1410D02*
X1824Y1410D01*
X791Y1409D02*
X824Y1409D01*
X1792Y1409D02*
X1826Y1409D01*
X789Y1408D02*
X826Y1408D01*
X1791Y1408D02*
X1828Y1408D01*
X787Y1407D02*
X828Y1407D01*
X1789Y1407D02*
X1829Y1407D01*
X786Y1406D02*
X829Y1406D01*
X1787Y1406D02*
X1831Y1406D01*
X785Y1405D02*
X831Y1405D01*
X1786Y1405D02*
X1832Y1405D01*
X783Y1404D02*
X832Y1404D01*
X1785Y1404D02*
X1833Y1404D01*
X782Y1403D02*
X833Y1403D01*
X1784Y1403D02*
X1834Y1403D01*
X781Y1402D02*
X834Y1402D01*
X1783Y1402D02*
X1835Y1402D01*
X780Y1401D02*
X835Y1401D01*
X1782Y1401D02*
X1836Y1401D01*
X780Y1400D02*
X836Y1400D01*
X1781Y1400D02*
X1837Y1400D01*
X779Y1399D02*
X836Y1399D01*
X1780Y1399D02*
X1838Y1399D01*
X778Y1398D02*
X837Y1398D01*
X1780Y1398D02*
X1839Y1398D01*
X777Y1397D02*
X838Y1397D01*
X1779Y1397D02*
X1839Y1397D01*
X777Y1396D02*
X838Y1396D01*
X1778Y1396D02*
X1840Y1396D01*
X776Y1395D02*
X839Y1395D01*
X1778Y1395D02*
X1840Y1395D01*
X776Y1394D02*
X840Y1394D01*
X1777Y1394D02*
X1841Y1394D01*
X775Y1393D02*
X801Y1393D01*
X814Y1393D02*
X840Y1393D01*
X1777Y1393D02*
X1802Y1393D01*
X1816Y1393D02*
X1841Y1393D01*
X775Y1392D02*
X799Y1392D01*
X816Y1392D02*
X841Y1392D01*
X1776Y1392D02*
X1800Y1392D01*
X1818Y1392D02*
X1842Y1392D01*
X774Y1391D02*
X797Y1391D01*
X818Y1391D02*
X841Y1391D01*
X1776Y1391D02*
X1799Y1391D01*
X1819Y1391D02*
X1842Y1391D01*
X774Y1390D02*
X796Y1390D01*
X819Y1390D02*
X841Y1390D01*
X1775Y1390D02*
X1798Y1390D01*
X1821Y1390D02*
X1843Y1390D01*
X773Y1389D02*
X795Y1389D01*
X820Y1389D02*
X842Y1389D01*
X1775Y1389D02*
X1796Y1389D01*
X1822Y1389D02*
X1843Y1389D01*
X773Y1388D02*
X794Y1388D01*
X821Y1388D02*
X842Y1388D01*
X1775Y1388D02*
X1795Y1388D01*
X1823Y1388D02*
X1844Y1388D01*
X773Y1387D02*
X793Y1387D01*
X822Y1387D02*
X842Y1387D01*
X1774Y1387D02*
X1795Y1387D01*
X1824Y1387D02*
X1844Y1387D01*
X773Y1386D02*
X792Y1386D01*
X823Y1386D02*
X843Y1386D01*
X1774Y1386D02*
X1794Y1386D01*
X1824Y1386D02*
X1844Y1386D01*
X772Y1385D02*
X792Y1385D01*
X824Y1385D02*
X843Y1385D01*
X1774Y1385D02*
X1793Y1385D01*
X1825Y1385D02*
X1844Y1385D01*
X772Y1384D02*
X791Y1384D01*
X824Y1384D02*
X843Y1384D01*
X1773Y1384D02*
X1793Y1384D01*
X1826Y1384D02*
X1845Y1384D01*
X772Y1383D02*
X791Y1383D01*
X825Y1383D02*
X843Y1383D01*
X1773Y1383D02*
X1792Y1383D01*
X1826Y1383D02*
X1845Y1383D01*
X772Y1382D02*
X790Y1382D01*
X825Y1382D02*
X844Y1382D01*
X1773Y1382D02*
X1792Y1382D01*
X1826Y1382D02*
X1845Y1382D01*
X771Y1381D02*
X790Y1381D01*
X825Y1381D02*
X844Y1381D01*
X1773Y1381D02*
X1792Y1381D01*
X1827Y1381D02*
X1845Y1381D01*
X771Y1380D02*
X790Y1380D01*
X825Y1380D02*
X844Y1380D01*
X1773Y1380D02*
X1791Y1380D01*
X1827Y1380D02*
X1845Y1380D01*
X771Y1379D02*
X790Y1379D01*
X825Y1379D02*
X844Y1379D01*
X1773Y1379D02*
X1791Y1379D01*
X1827Y1379D02*
X1845Y1379D01*
X771Y1378D02*
X790Y1378D01*
X826Y1378D02*
X844Y1378D01*
X1773Y1378D02*
X1791Y1378D01*
X1827Y1378D02*
X1846Y1378D01*
X771Y1377D02*
X790Y1377D01*
X826Y1377D02*
X844Y1377D01*
X1773Y1377D02*
X1791Y1377D01*
X1827Y1377D02*
X1846Y1377D01*
X771Y1376D02*
X790Y1376D01*
X826Y1376D02*
X844Y1376D01*
X1773Y1376D02*
X1791Y1376D01*
X1827Y1376D02*
X1846Y1376D01*
X771Y1375D02*
X790Y1375D01*
X826Y1375D02*
X844Y1375D01*
X1773Y1375D02*
X1791Y1375D01*
X1827Y1375D02*
X1846Y1375D01*
X771Y1374D02*
X790Y1374D01*
X825Y1374D02*
X844Y1374D01*
X1773Y1374D02*
X1791Y1374D01*
X1827Y1374D02*
X1845Y1374D01*
X771Y1373D02*
X790Y1373D01*
X825Y1373D02*
X844Y1373D01*
X1773Y1373D02*
X1791Y1373D01*
X1827Y1373D02*
X1845Y1373D01*
X771Y1372D02*
X790Y1372D01*
X825Y1372D02*
X844Y1372D01*
X1773Y1372D02*
X1792Y1372D01*
X1827Y1372D02*
X1845Y1372D01*
X772Y1371D02*
X790Y1371D01*
X825Y1371D02*
X844Y1371D01*
X1773Y1371D02*
X1792Y1371D01*
X1826Y1371D02*
X1845Y1371D01*
X772Y1370D02*
X791Y1370D01*
X825Y1370D02*
X844Y1370D01*
X1773Y1370D02*
X1792Y1370D01*
X1826Y1370D02*
X1845Y1370D01*
X772Y1369D02*
X791Y1369D01*
X824Y1369D02*
X843Y1369D01*
X1773Y1369D02*
X1793Y1369D01*
X1826Y1369D02*
X1845Y1369D01*
X772Y1368D02*
X792Y1368D01*
X824Y1368D02*
X843Y1368D01*
X1774Y1368D02*
X1793Y1368D01*
X1825Y1368D02*
X1844Y1368D01*
X772Y1367D02*
X792Y1367D01*
X823Y1367D02*
X843Y1367D01*
X1774Y1367D02*
X1794Y1367D01*
X1824Y1367D02*
X1844Y1367D01*
X773Y1366D02*
X793Y1366D01*
X822Y1366D02*
X843Y1366D01*
X1774Y1366D02*
X1795Y1366D01*
X1824Y1366D02*
X1844Y1366D01*
X773Y1365D02*
X794Y1365D01*
X821Y1365D02*
X842Y1365D01*
X1775Y1365D02*
X1795Y1365D01*
X1823Y1365D02*
X1844Y1365D01*
X773Y1364D02*
X795Y1364D01*
X820Y1364D02*
X842Y1364D01*
X1775Y1364D02*
X1796Y1364D01*
X1822Y1364D02*
X1843Y1364D01*
X774Y1363D02*
X796Y1363D01*
X819Y1363D02*
X841Y1363D01*
X1775Y1363D02*
X1797Y1363D01*
X1821Y1363D02*
X1843Y1363D01*
X774Y1362D02*
X797Y1362D01*
X818Y1362D02*
X841Y1362D01*
X1776Y1362D02*
X1799Y1362D01*
X1820Y1362D02*
X1842Y1362D01*
X775Y1361D02*
X799Y1361D01*
X817Y1361D02*
X841Y1361D01*
X1776Y1361D02*
X1800Y1361D01*
X1818Y1361D02*
X1842Y1361D01*
X775Y1360D02*
X801Y1360D01*
X815Y1360D02*
X840Y1360D01*
X1777Y1360D02*
X1802Y1360D01*
X1816Y1360D02*
X1842Y1360D01*
X776Y1359D02*
X806Y1359D01*
X809Y1359D02*
X840Y1359D01*
X1777Y1359D02*
X1808Y1359D01*
X1811Y1359D02*
X1841Y1359D01*
X776Y1358D02*
X839Y1358D01*
X1778Y1358D02*
X1841Y1358D01*
X777Y1357D02*
X838Y1357D01*
X1778Y1357D02*
X1840Y1357D01*
X777Y1356D02*
X838Y1356D01*
X1779Y1356D02*
X1839Y1356D01*
X778Y1355D02*
X837Y1355D01*
X1780Y1355D02*
X1839Y1355D01*
X779Y1354D02*
X836Y1354D01*
X1780Y1354D02*
X1838Y1354D01*
X780Y1353D02*
X836Y1353D01*
X1781Y1353D02*
X1837Y1353D01*
X780Y1352D02*
X835Y1352D01*
X1782Y1352D02*
X1836Y1352D01*
X781Y1351D02*
X834Y1351D01*
X1783Y1351D02*
X1835Y1351D01*
X782Y1350D02*
X833Y1350D01*
X1784Y1350D02*
X1834Y1350D01*
X783Y1349D02*
X832Y1349D01*
X1785Y1349D02*
X1833Y1349D01*
X784Y1348D02*
X831Y1348D01*
X1786Y1348D02*
X1832Y1348D01*
X786Y1347D02*
X829Y1347D01*
X1787Y1347D02*
X1831Y1347D01*
X787Y1346D02*
X828Y1346D01*
X1789Y1346D02*
X1829Y1346D01*
X789Y1345D02*
X826Y1345D01*
X1790Y1345D02*
X1828Y1345D01*
X791Y1344D02*
X825Y1344D01*
X1792Y1344D02*
X1826Y1344D01*
X793Y1343D02*
X823Y1343D01*
X1794Y1343D02*
X1824Y1343D01*
X795Y1342D02*
X820Y1342D01*
X1797Y1342D02*
X1822Y1342D01*
X798Y1341D02*
X817Y1341D01*
X1799Y1341D02*
X1819Y1341D01*
X802Y1340D02*
X813Y1340D01*
X1804Y1340D02*
X1814Y1340D01*
X803Y1313D02*
X812Y1313D01*
X1805Y1313D02*
X1813Y1313D01*
X799Y1312D02*
X816Y1312D01*
X1800Y1312D02*
X1818Y1312D01*
X796Y1311D02*
X820Y1311D01*
X1797Y1311D02*
X1821Y1311D01*
X793Y1310D02*
X822Y1310D01*
X1795Y1310D02*
X1824Y1310D01*
X791Y1309D02*
X824Y1309D01*
X1793Y1309D02*
X1826Y1309D01*
X789Y1308D02*
X826Y1308D01*
X1791Y1308D02*
X1827Y1308D01*
X788Y1307D02*
X828Y1307D01*
X1789Y1307D02*
X1829Y1307D01*
X786Y1306D02*
X829Y1306D01*
X1788Y1306D02*
X1831Y1306D01*
X785Y1305D02*
X831Y1305D01*
X1786Y1305D02*
X1832Y1305D01*
X784Y1304D02*
X832Y1304D01*
X1785Y1304D02*
X1833Y1304D01*
X782Y1303D02*
X833Y1303D01*
X1784Y1303D02*
X1834Y1303D01*
X781Y1302D02*
X834Y1302D01*
X1783Y1302D02*
X1835Y1302D01*
X781Y1301D02*
X835Y1301D01*
X1782Y1301D02*
X1836Y1301D01*
X780Y1300D02*
X836Y1300D01*
X1781Y1300D02*
X1837Y1300D01*
X779Y1299D02*
X836Y1299D01*
X1780Y1299D02*
X1838Y1299D01*
X778Y1298D02*
X837Y1298D01*
X1780Y1298D02*
X1838Y1298D01*
X778Y1297D02*
X838Y1297D01*
X1779Y1297D02*
X1839Y1297D01*
X777Y1296D02*
X838Y1296D01*
X1778Y1296D02*
X1840Y1296D01*
X776Y1295D02*
X839Y1295D01*
X1778Y1295D02*
X1840Y1295D01*
X776Y1294D02*
X840Y1294D01*
X1777Y1294D02*
X1841Y1294D01*
X775Y1293D02*
X801Y1293D01*
X814Y1293D02*
X840Y1293D01*
X1777Y1293D02*
X1803Y1293D01*
X1815Y1293D02*
X1841Y1293D01*
X775Y1292D02*
X799Y1292D01*
X816Y1292D02*
X840Y1292D01*
X1776Y1292D02*
X1801Y1292D01*
X1818Y1292D02*
X1842Y1292D01*
X774Y1291D02*
X797Y1291D01*
X818Y1291D02*
X841Y1291D01*
X1776Y1291D02*
X1799Y1291D01*
X1819Y1291D02*
X1842Y1291D01*
X774Y1290D02*
X796Y1290D01*
X819Y1290D02*
X841Y1290D01*
X1775Y1290D02*
X1798Y1290D01*
X1820Y1290D02*
X1843Y1290D01*
X774Y1289D02*
X795Y1289D01*
X820Y1289D02*
X842Y1289D01*
X1775Y1289D02*
X1797Y1289D01*
X1822Y1289D02*
X1843Y1289D01*
X773Y1288D02*
X794Y1288D01*
X821Y1288D02*
X842Y1288D01*
X1775Y1288D02*
X1796Y1288D01*
X1823Y1288D02*
X1844Y1288D01*
X773Y1287D02*
X793Y1287D01*
X822Y1287D02*
X842Y1287D01*
X1774Y1287D02*
X1795Y1287D01*
X1823Y1287D02*
X1844Y1287D01*
X773Y1286D02*
X792Y1286D01*
X823Y1286D02*
X843Y1286D01*
X1774Y1286D02*
X1794Y1286D01*
X1824Y1286D02*
X1844Y1286D01*
X772Y1285D02*
X792Y1285D01*
X823Y1285D02*
X843Y1285D01*
X1774Y1285D02*
X1793Y1285D01*
X1825Y1285D02*
X1844Y1285D01*
X772Y1284D02*
X791Y1284D01*
X824Y1284D02*
X843Y1284D01*
X1773Y1284D02*
X1793Y1284D01*
X1825Y1284D02*
X1845Y1284D01*
X772Y1283D02*
X791Y1283D01*
X825Y1283D02*
X843Y1283D01*
X1773Y1283D02*
X1792Y1283D01*
X1826Y1283D02*
X1845Y1283D01*
X772Y1282D02*
X790Y1282D01*
X825Y1282D02*
X844Y1282D01*
X1773Y1282D02*
X1792Y1282D01*
X1826Y1282D02*
X1845Y1282D01*
X771Y1281D02*
X790Y1281D01*
X825Y1281D02*
X844Y1281D01*
X1773Y1281D02*
X1792Y1281D01*
X1827Y1281D02*
X1845Y1281D01*
X771Y1280D02*
X790Y1280D01*
X825Y1280D02*
X844Y1280D01*
X1773Y1280D02*
X1791Y1280D01*
X1827Y1280D02*
X1845Y1280D01*
X771Y1279D02*
X790Y1279D01*
X825Y1279D02*
X844Y1279D01*
X1773Y1279D02*
X1791Y1279D01*
X1827Y1279D02*
X1845Y1279D01*
X771Y1278D02*
X790Y1278D01*
X826Y1278D02*
X844Y1278D01*
X1773Y1278D02*
X1791Y1278D01*
X1827Y1278D02*
X1846Y1278D01*
X771Y1277D02*
X790Y1277D01*
X826Y1277D02*
X844Y1277D01*
X1773Y1277D02*
X1791Y1277D01*
X1827Y1277D02*
X1846Y1277D01*
X771Y1276D02*
X790Y1276D01*
X826Y1276D02*
X844Y1276D01*
X1773Y1276D02*
X1791Y1276D01*
X1827Y1276D02*
X1846Y1276D01*
X771Y1275D02*
X790Y1275D01*
X826Y1275D02*
X844Y1275D01*
X1773Y1275D02*
X1791Y1275D01*
X1827Y1275D02*
X1846Y1275D01*
X771Y1274D02*
X790Y1274D01*
X825Y1274D02*
X844Y1274D01*
X1773Y1274D02*
X1791Y1274D01*
X1827Y1274D02*
X1845Y1274D01*
X771Y1273D02*
X790Y1273D01*
X825Y1273D02*
X844Y1273D01*
X1773Y1273D02*
X1791Y1273D01*
X1827Y1273D02*
X1845Y1273D01*
X771Y1272D02*
X790Y1272D01*
X825Y1272D02*
X844Y1272D01*
X1773Y1272D02*
X1792Y1272D01*
X1827Y1272D02*
X1845Y1272D01*
X772Y1271D02*
X790Y1271D01*
X825Y1271D02*
X844Y1271D01*
X1773Y1271D02*
X1792Y1271D01*
X1826Y1271D02*
X1845Y1271D01*
X772Y1270D02*
X791Y1270D01*
X825Y1270D02*
X844Y1270D01*
X1773Y1270D02*
X1792Y1270D01*
X1826Y1270D02*
X1845Y1270D01*
X772Y1269D02*
X791Y1269D01*
X824Y1269D02*
X843Y1269D01*
X1773Y1269D02*
X1793Y1269D01*
X1826Y1269D02*
X1845Y1269D01*
X772Y1268D02*
X792Y1268D01*
X824Y1268D02*
X843Y1268D01*
X1774Y1268D02*
X1793Y1268D01*
X1825Y1268D02*
X1845Y1268D01*
X772Y1267D02*
X792Y1267D01*
X823Y1267D02*
X843Y1267D01*
X1774Y1267D02*
X1794Y1267D01*
X1824Y1267D02*
X1844Y1267D01*
X773Y1266D02*
X793Y1266D01*
X822Y1266D02*
X843Y1266D01*
X1774Y1266D02*
X1794Y1266D01*
X1824Y1266D02*
X1844Y1266D01*
X773Y1265D02*
X794Y1265D01*
X821Y1265D02*
X842Y1265D01*
X1775Y1265D02*
X1795Y1265D01*
X1823Y1265D02*
X1844Y1265D01*
X773Y1264D02*
X795Y1264D01*
X821Y1264D02*
X842Y1264D01*
X1775Y1264D02*
X1796Y1264D01*
X1822Y1264D02*
X1843Y1264D01*
X774Y1263D02*
X796Y1263D01*
X819Y1263D02*
X841Y1263D01*
X1775Y1263D02*
X1797Y1263D01*
X1821Y1263D02*
X1843Y1263D01*
X774Y1262D02*
X797Y1262D01*
X818Y1262D02*
X841Y1262D01*
X1776Y1262D02*
X1798Y1262D01*
X1820Y1262D02*
X1843Y1262D01*
X775Y1261D02*
X799Y1261D01*
X817Y1261D02*
X841Y1261D01*
X1776Y1261D02*
X1800Y1261D01*
X1818Y1261D02*
X1842Y1261D01*
X775Y1260D02*
X800Y1260D01*
X815Y1260D02*
X840Y1260D01*
X1777Y1260D02*
X1802Y1260D01*
X1816Y1260D02*
X1842Y1260D01*
X776Y1259D02*
X805Y1259D01*
X810Y1259D02*
X840Y1259D01*
X1777Y1259D02*
X1806Y1259D01*
X1812Y1259D02*
X1841Y1259D01*
X776Y1258D02*
X839Y1258D01*
X1778Y1258D02*
X1841Y1258D01*
X777Y1257D02*
X839Y1257D01*
X1778Y1257D02*
X1840Y1257D01*
X777Y1256D02*
X838Y1256D01*
X1779Y1256D02*
X1839Y1256D01*
X778Y1255D02*
X837Y1255D01*
X1779Y1255D02*
X1839Y1255D01*
X779Y1254D02*
X837Y1254D01*
X1780Y1254D02*
X1838Y1254D01*
X779Y1253D02*
X836Y1253D01*
X1781Y1253D02*
X1837Y1253D01*
X780Y1252D02*
X835Y1252D01*
X1782Y1252D02*
X1836Y1252D01*
X781Y1251D02*
X834Y1251D01*
X1783Y1251D02*
X1836Y1251D01*
X782Y1250D02*
X833Y1250D01*
X1784Y1250D02*
X1835Y1250D01*
X783Y1249D02*
X832Y1249D01*
X1785Y1249D02*
X1833Y1249D01*
X784Y1248D02*
X831Y1248D01*
X1786Y1248D02*
X1832Y1248D01*
X786Y1247D02*
X830Y1247D01*
X1787Y1247D02*
X1831Y1247D01*
X787Y1246D02*
X828Y1246D01*
X1789Y1246D02*
X1830Y1246D01*
X789Y1245D02*
X827Y1245D01*
X1790Y1245D02*
X1828Y1245D01*
X790Y1244D02*
X825Y1244D01*
X1792Y1244D02*
X1826Y1244D01*
X792Y1243D02*
X823Y1243D01*
X1794Y1243D02*
X1824Y1243D01*
X795Y1242D02*
X820Y1242D01*
X1796Y1242D02*
X1822Y1242D01*
X798Y1241D02*
X818Y1241D01*
X1799Y1241D02*
X1819Y1241D01*
X802Y1240D02*
X814Y1240D01*
X1803Y1240D02*
X1815Y1240D01*
X804Y1213D02*
X811Y1213D01*
X1806Y1213D02*
X1812Y1213D01*
X799Y1212D02*
X816Y1212D01*
X1801Y1212D02*
X1817Y1212D01*
X796Y1211D02*
X819Y1211D01*
X1797Y1211D02*
X1821Y1211D01*
X793Y1210D02*
X822Y1210D01*
X1795Y1210D02*
X1823Y1210D01*
X791Y1209D02*
X824Y1209D01*
X1793Y1209D02*
X1825Y1209D01*
X789Y1208D02*
X826Y1208D01*
X1791Y1208D02*
X1827Y1208D01*
X788Y1207D02*
X828Y1207D01*
X1789Y1207D02*
X1829Y1207D01*
X786Y1206D02*
X829Y1206D01*
X1788Y1206D02*
X1830Y1206D01*
X785Y1205D02*
X830Y1205D01*
X1786Y1205D02*
X1832Y1205D01*
X784Y1204D02*
X832Y1204D01*
X1785Y1204D02*
X1833Y1204D01*
X783Y1203D02*
X833Y1203D01*
X1784Y1203D02*
X1834Y1203D01*
X782Y1202D02*
X834Y1202D01*
X1783Y1202D02*
X1835Y1202D01*
X781Y1201D02*
X835Y1201D01*
X1782Y1201D02*
X1836Y1201D01*
X780Y1200D02*
X835Y1200D01*
X1781Y1200D02*
X1837Y1200D01*
X779Y1199D02*
X836Y1199D01*
X1780Y1199D02*
X1838Y1199D01*
X778Y1198D02*
X837Y1198D01*
X1780Y1198D02*
X1838Y1198D01*
X778Y1197D02*
X838Y1197D01*
X1779Y1197D02*
X1839Y1197D01*
X777Y1196D02*
X838Y1196D01*
X1778Y1196D02*
X1840Y1196D01*
X776Y1195D02*
X839Y1195D01*
X1778Y1195D02*
X1840Y1195D01*
X776Y1194D02*
X839Y1194D01*
X1777Y1194D02*
X1841Y1194D01*
X775Y1193D02*
X802Y1193D01*
X813Y1193D02*
X840Y1193D01*
X1777Y1193D02*
X1803Y1193D01*
X1815Y1193D02*
X1841Y1193D01*
X775Y1192D02*
X799Y1192D01*
X816Y1192D02*
X840Y1192D01*
X1776Y1192D02*
X1801Y1192D01*
X1817Y1192D02*
X1842Y1192D01*
X774Y1191D02*
X798Y1191D01*
X818Y1191D02*
X841Y1191D01*
X1776Y1191D02*
X1799Y1191D01*
X1819Y1191D02*
X1842Y1191D01*
X774Y1190D02*
X796Y1190D01*
X819Y1190D02*
X841Y1190D01*
X1775Y1190D02*
X1798Y1190D01*
X1820Y1190D02*
X1843Y1190D01*
X774Y1189D02*
X795Y1189D01*
X820Y1189D02*
X842Y1189D01*
X1775Y1189D02*
X1797Y1189D01*
X1822Y1189D02*
X1843Y1189D01*
X773Y1188D02*
X794Y1188D01*
X821Y1188D02*
X842Y1188D01*
X1775Y1188D02*
X1796Y1188D01*
X1822Y1188D02*
X1844Y1188D01*
X773Y1187D02*
X793Y1187D01*
X822Y1187D02*
X842Y1187D01*
X1774Y1187D02*
X1795Y1187D01*
X1823Y1187D02*
X1844Y1187D01*
X773Y1186D02*
X793Y1186D01*
X823Y1186D02*
X843Y1186D01*
X1774Y1186D02*
X1794Y1186D01*
X1824Y1186D02*
X1844Y1186D01*
X772Y1185D02*
X792Y1185D01*
X823Y1185D02*
X843Y1185D01*
X1774Y1185D02*
X1793Y1185D01*
X1825Y1185D02*
X1844Y1185D01*
X772Y1184D02*
X791Y1184D01*
X824Y1184D02*
X843Y1184D01*
X1773Y1184D02*
X1793Y1184D01*
X1825Y1184D02*
X1845Y1184D01*
X772Y1183D02*
X791Y1183D01*
X824Y1183D02*
X843Y1183D01*
X1773Y1183D02*
X1792Y1183D01*
X1826Y1183D02*
X1845Y1183D01*
X772Y1182D02*
X790Y1182D01*
X825Y1182D02*
X844Y1182D01*
X1773Y1182D02*
X1792Y1182D01*
X1826Y1182D02*
X1845Y1182D01*
X771Y1181D02*
X790Y1181D01*
X825Y1181D02*
X844Y1181D01*
X1773Y1181D02*
X1792Y1181D01*
X1827Y1181D02*
X1845Y1181D01*
X771Y1180D02*
X790Y1180D01*
X825Y1180D02*
X844Y1180D01*
X1773Y1180D02*
X1791Y1180D01*
X1827Y1180D02*
X1845Y1180D01*
X771Y1179D02*
X790Y1179D01*
X825Y1179D02*
X844Y1179D01*
X1773Y1179D02*
X1791Y1179D01*
X1827Y1179D02*
X1845Y1179D01*
X771Y1178D02*
X790Y1178D01*
X826Y1178D02*
X844Y1178D01*
X1773Y1178D02*
X1791Y1178D01*
X1827Y1178D02*
X1846Y1178D01*
X771Y1177D02*
X790Y1177D01*
X826Y1177D02*
X844Y1177D01*
X1773Y1177D02*
X1791Y1177D01*
X1827Y1177D02*
X1846Y1177D01*
X771Y1176D02*
X790Y1176D01*
X826Y1176D02*
X844Y1176D01*
X1773Y1176D02*
X1791Y1176D01*
X1827Y1176D02*
X1846Y1176D01*
X771Y1175D02*
X790Y1175D01*
X826Y1175D02*
X844Y1175D01*
X1773Y1175D02*
X1791Y1175D01*
X1827Y1175D02*
X1846Y1175D01*
X771Y1174D02*
X790Y1174D01*
X825Y1174D02*
X844Y1174D01*
X1773Y1174D02*
X1791Y1174D01*
X1827Y1174D02*
X1846Y1174D01*
X771Y1173D02*
X790Y1173D01*
X825Y1173D02*
X844Y1173D01*
X1773Y1173D02*
X1791Y1173D01*
X1827Y1173D02*
X1845Y1173D01*
X771Y1172D02*
X790Y1172D01*
X825Y1172D02*
X844Y1172D01*
X1773Y1172D02*
X1791Y1172D01*
X1827Y1172D02*
X1845Y1172D01*
X772Y1171D02*
X790Y1171D01*
X825Y1171D02*
X844Y1171D01*
X1773Y1171D02*
X1792Y1171D01*
X1826Y1171D02*
X1845Y1171D01*
X772Y1170D02*
X791Y1170D01*
X825Y1170D02*
X844Y1170D01*
X1773Y1170D02*
X1792Y1170D01*
X1826Y1170D02*
X1845Y1170D01*
X772Y1169D02*
X791Y1169D01*
X824Y1169D02*
X843Y1169D01*
X1773Y1169D02*
X1792Y1169D01*
X1826Y1169D02*
X1845Y1169D01*
X772Y1168D02*
X792Y1168D01*
X824Y1168D02*
X843Y1168D01*
X1774Y1168D02*
X1793Y1168D01*
X1825Y1168D02*
X1845Y1168D01*
X772Y1167D02*
X792Y1167D01*
X823Y1167D02*
X843Y1167D01*
X1774Y1167D02*
X1794Y1167D01*
X1825Y1167D02*
X1844Y1167D01*
X773Y1166D02*
X793Y1166D01*
X822Y1166D02*
X843Y1166D01*
X1774Y1166D02*
X1794Y1166D01*
X1824Y1166D02*
X1844Y1166D01*
X773Y1165D02*
X794Y1165D01*
X822Y1165D02*
X842Y1165D01*
X1774Y1165D02*
X1795Y1165D01*
X1823Y1165D02*
X1844Y1165D01*
X773Y1164D02*
X795Y1164D01*
X821Y1164D02*
X842Y1164D01*
X1775Y1164D02*
X1796Y1164D01*
X1822Y1164D02*
X1843Y1164D01*
X774Y1163D02*
X796Y1163D01*
X820Y1163D02*
X842Y1163D01*
X1775Y1163D02*
X1797Y1163D01*
X1821Y1163D02*
X1843Y1163D01*
X774Y1162D02*
X797Y1162D01*
X818Y1162D02*
X841Y1162D01*
X1776Y1162D02*
X1798Y1162D01*
X1820Y1162D02*
X1843Y1162D01*
X775Y1161D02*
X798Y1161D01*
X817Y1161D02*
X841Y1161D01*
X1776Y1161D02*
X1800Y1161D01*
X1818Y1161D02*
X1842Y1161D01*
X775Y1160D02*
X800Y1160D01*
X815Y1160D02*
X840Y1160D01*
X1777Y1160D02*
X1802Y1160D01*
X1817Y1160D02*
X1842Y1160D01*
X776Y1159D02*
X803Y1159D01*
X812Y1159D02*
X840Y1159D01*
X1777Y1159D02*
X1805Y1159D01*
X1813Y1159D02*
X1841Y1159D01*
X776Y1158D02*
X839Y1158D01*
X1778Y1158D02*
X1841Y1158D01*
X777Y1157D02*
X839Y1157D01*
X1778Y1157D02*
X1840Y1157D01*
X777Y1156D02*
X838Y1156D01*
X1779Y1156D02*
X1839Y1156D01*
X778Y1155D02*
X837Y1155D01*
X1779Y1155D02*
X1839Y1155D01*
X779Y1154D02*
X837Y1154D01*
X1780Y1154D02*
X1838Y1154D01*
X779Y1153D02*
X836Y1153D01*
X1781Y1153D02*
X1837Y1153D01*
X780Y1152D02*
X835Y1152D01*
X1782Y1152D02*
X1837Y1152D01*
X781Y1151D02*
X834Y1151D01*
X1783Y1151D02*
X1836Y1151D01*
X782Y1150D02*
X833Y1150D01*
X1783Y1150D02*
X1835Y1150D01*
X783Y1149D02*
X832Y1149D01*
X1785Y1149D02*
X1834Y1149D01*
X784Y1148D02*
X831Y1148D01*
X1786Y1148D02*
X1833Y1148D01*
X786Y1147D02*
X830Y1147D01*
X1787Y1147D02*
X1831Y1147D01*
X787Y1146D02*
X828Y1146D01*
X1788Y1146D02*
X1830Y1146D01*
X789Y1145D02*
X827Y1145D01*
X1790Y1145D02*
X1828Y1145D01*
X790Y1144D02*
X825Y1144D01*
X1792Y1144D02*
X1826Y1144D01*
X792Y1143D02*
X823Y1143D01*
X1794Y1143D02*
X1824Y1143D01*
X795Y1142D02*
X821Y1142D01*
X1796Y1142D02*
X1822Y1142D01*
X797Y1141D02*
X818Y1141D01*
X1799Y1141D02*
X1819Y1141D01*
X801Y1140D02*
X814Y1140D01*
X1802Y1140D02*
X1816Y1140D01*
X805Y1113D02*
X810Y1113D01*
X1807Y1113D02*
X1811Y1113D01*
X800Y1112D02*
X816Y1112D01*
X1801Y1112D02*
X1817Y1112D01*
X796Y1111D02*
X819Y1111D01*
X1798Y1111D02*
X1820Y1111D01*
X794Y1110D02*
X822Y1110D01*
X1795Y1110D02*
X1823Y1110D01*
X792Y1109D02*
X824Y1109D01*
X1793Y1109D02*
X1825Y1109D01*
X790Y1108D02*
X826Y1108D01*
X1791Y1108D02*
X1827Y1108D01*
X788Y1107D02*
X827Y1107D01*
X1789Y1107D02*
X1829Y1107D01*
X786Y1106D02*
X829Y1106D01*
X1788Y1106D02*
X1830Y1106D01*
X785Y1105D02*
X830Y1105D01*
X1786Y1105D02*
X1832Y1105D01*
X784Y1104D02*
X831Y1104D01*
X1785Y1104D02*
X1833Y1104D01*
X783Y1103D02*
X833Y1103D01*
X1784Y1103D02*
X1834Y1103D01*
X782Y1102D02*
X834Y1102D01*
X1783Y1102D02*
X1835Y1102D01*
X781Y1101D02*
X835Y1101D01*
X1782Y1101D02*
X1836Y1101D01*
X780Y1100D02*
X835Y1100D01*
X1781Y1100D02*
X1837Y1100D01*
X779Y1099D02*
X836Y1099D01*
X1781Y1099D02*
X1838Y1099D01*
X778Y1098D02*
X837Y1098D01*
X1780Y1098D02*
X1838Y1098D01*
X778Y1097D02*
X838Y1097D01*
X1779Y1097D02*
X1839Y1097D01*
X777Y1096D02*
X838Y1096D01*
X1778Y1096D02*
X1840Y1096D01*
X776Y1095D02*
X839Y1095D01*
X1778Y1095D02*
X1840Y1095D01*
X776Y1094D02*
X839Y1094D01*
X1777Y1094D02*
X1841Y1094D01*
X775Y1093D02*
X802Y1093D01*
X813Y1093D02*
X840Y1093D01*
X1777Y1093D02*
X1804Y1093D01*
X1814Y1093D02*
X1841Y1093D01*
X775Y1092D02*
X799Y1092D01*
X816Y1092D02*
X840Y1092D01*
X1776Y1092D02*
X1801Y1092D01*
X1817Y1092D02*
X1842Y1092D01*
X774Y1091D02*
X798Y1091D01*
X818Y1091D02*
X841Y1091D01*
X1776Y1091D02*
X1799Y1091D01*
X1819Y1091D02*
X1842Y1091D01*
X774Y1090D02*
X796Y1090D01*
X819Y1090D02*
X841Y1090D01*
X1775Y1090D02*
X1798Y1090D01*
X1820Y1090D02*
X1843Y1090D01*
X774Y1089D02*
X795Y1089D01*
X820Y1089D02*
X842Y1089D01*
X1775Y1089D02*
X1797Y1089D01*
X1821Y1089D02*
X1843Y1089D01*
X773Y1088D02*
X794Y1088D01*
X821Y1088D02*
X842Y1088D01*
X1775Y1088D02*
X1796Y1088D01*
X1822Y1088D02*
X1843Y1088D01*
X773Y1087D02*
X793Y1087D01*
X822Y1087D02*
X842Y1087D01*
X1774Y1087D02*
X1795Y1087D01*
X1823Y1087D02*
X1844Y1087D01*
X773Y1086D02*
X793Y1086D01*
X823Y1086D02*
X843Y1086D01*
X1774Y1086D02*
X1794Y1086D01*
X1824Y1086D02*
X1844Y1086D01*
X772Y1085D02*
X792Y1085D01*
X823Y1085D02*
X843Y1085D01*
X1774Y1085D02*
X1793Y1085D01*
X1825Y1085D02*
X1844Y1085D01*
X772Y1084D02*
X791Y1084D01*
X824Y1084D02*
X843Y1084D01*
X1774Y1084D02*
X1793Y1084D01*
X1825Y1084D02*
X1845Y1084D01*
X772Y1083D02*
X791Y1083D01*
X824Y1083D02*
X843Y1083D01*
X1773Y1083D02*
X1792Y1083D01*
X1826Y1083D02*
X1845Y1083D01*
X772Y1082D02*
X791Y1082D01*
X825Y1082D02*
X844Y1082D01*
X1773Y1082D02*
X1792Y1082D01*
X1826Y1082D02*
X1845Y1082D01*
X772Y1081D02*
X790Y1081D01*
X825Y1081D02*
X844Y1081D01*
X1773Y1081D02*
X1792Y1081D01*
X1826Y1081D02*
X1845Y1081D01*
X771Y1080D02*
X790Y1080D01*
X825Y1080D02*
X844Y1080D01*
X1773Y1080D02*
X1791Y1080D01*
X1827Y1080D02*
X1845Y1080D01*
X771Y1079D02*
X790Y1079D01*
X825Y1079D02*
X844Y1079D01*
X1773Y1079D02*
X1791Y1079D01*
X1827Y1079D02*
X1845Y1079D01*
X771Y1078D02*
X790Y1078D01*
X826Y1078D02*
X844Y1078D01*
X1773Y1078D02*
X1791Y1078D01*
X1827Y1078D02*
X1846Y1078D01*
X771Y1077D02*
X790Y1077D01*
X826Y1077D02*
X844Y1077D01*
X1773Y1077D02*
X1791Y1077D01*
X1827Y1077D02*
X1846Y1077D01*
X771Y1076D02*
X790Y1076D01*
X826Y1076D02*
X844Y1076D01*
X1773Y1076D02*
X1791Y1076D01*
X1827Y1076D02*
X1846Y1076D01*
X771Y1075D02*
X790Y1075D01*
X826Y1075D02*
X844Y1075D01*
X1773Y1075D02*
X1791Y1075D01*
X1827Y1075D02*
X1846Y1075D01*
X771Y1074D02*
X790Y1074D01*
X825Y1074D02*
X844Y1074D01*
X1773Y1074D02*
X1791Y1074D01*
X1827Y1074D02*
X1846Y1074D01*
X771Y1073D02*
X790Y1073D01*
X825Y1073D02*
X844Y1073D01*
X1773Y1073D02*
X1791Y1073D01*
X1827Y1073D02*
X1845Y1073D01*
X771Y1072D02*
X790Y1072D01*
X825Y1072D02*
X844Y1072D01*
X1773Y1072D02*
X1791Y1072D01*
X1827Y1072D02*
X1845Y1072D01*
X772Y1071D02*
X790Y1071D01*
X825Y1071D02*
X844Y1071D01*
X1773Y1071D02*
X1792Y1071D01*
X1826Y1071D02*
X1845Y1071D01*
X772Y1070D02*
X791Y1070D01*
X825Y1070D02*
X844Y1070D01*
X1773Y1070D02*
X1792Y1070D01*
X1826Y1070D02*
X1845Y1070D01*
X772Y1069D02*
X791Y1069D01*
X824Y1069D02*
X843Y1069D01*
X1773Y1069D02*
X1792Y1069D01*
X1826Y1069D02*
X1845Y1069D01*
X772Y1068D02*
X792Y1068D01*
X824Y1068D02*
X843Y1068D01*
X1774Y1068D02*
X1793Y1068D01*
X1825Y1068D02*
X1845Y1068D01*
X772Y1067D02*
X792Y1067D01*
X823Y1067D02*
X843Y1067D01*
X1774Y1067D02*
X1794Y1067D01*
X1825Y1067D02*
X1844Y1067D01*
X773Y1066D02*
X793Y1066D01*
X822Y1066D02*
X843Y1066D01*
X1774Y1066D02*
X1794Y1066D01*
X1824Y1066D02*
X1844Y1066D01*
X773Y1065D02*
X794Y1065D01*
X822Y1065D02*
X842Y1065D01*
X1774Y1065D02*
X1795Y1065D01*
X1823Y1065D02*
X1844Y1065D01*
X773Y1064D02*
X795Y1064D01*
X821Y1064D02*
X842Y1064D01*
X1775Y1064D02*
X1796Y1064D01*
X1822Y1064D02*
X1843Y1064D01*
X774Y1063D02*
X796Y1063D01*
X820Y1063D02*
X842Y1063D01*
X1775Y1063D02*
X1797Y1063D01*
X1821Y1063D02*
X1843Y1063D01*
X774Y1062D02*
X797Y1062D01*
X819Y1062D02*
X841Y1062D01*
X1776Y1062D02*
X1798Y1062D01*
X1820Y1062D02*
X1843Y1062D01*
X775Y1061D02*
X798Y1061D01*
X817Y1061D02*
X841Y1061D01*
X1776Y1061D02*
X1800Y1061D01*
X1819Y1061D02*
X1842Y1061D01*
X775Y1060D02*
X800Y1060D01*
X815Y1060D02*
X840Y1060D01*
X1776Y1060D02*
X1801Y1060D01*
X1817Y1060D02*
X1842Y1060D01*
X775Y1059D02*
X803Y1059D01*
X812Y1059D02*
X840Y1059D01*
X1777Y1059D02*
X1804Y1059D01*
X1814Y1059D02*
X1841Y1059D01*
X776Y1058D02*
X839Y1058D01*
X1777Y1058D02*
X1841Y1058D01*
X777Y1057D02*
X839Y1057D01*
X1778Y1057D02*
X1840Y1057D01*
X777Y1056D02*
X838Y1056D01*
X1779Y1056D02*
X1840Y1056D01*
X778Y1055D02*
X837Y1055D01*
X1779Y1055D02*
X1839Y1055D01*
X779Y1054D02*
X837Y1054D01*
X1780Y1054D02*
X1838Y1054D01*
X779Y1053D02*
X836Y1053D01*
X1781Y1053D02*
X1837Y1053D01*
X780Y1052D02*
X835Y1052D01*
X1782Y1052D02*
X1837Y1052D01*
X781Y1051D02*
X834Y1051D01*
X1782Y1051D02*
X1836Y1051D01*
X782Y1050D02*
X833Y1050D01*
X1783Y1050D02*
X1835Y1050D01*
X783Y1049D02*
X832Y1049D01*
X1784Y1049D02*
X1834Y1049D01*
X784Y1048D02*
X831Y1048D01*
X1786Y1048D02*
X1833Y1048D01*
X785Y1047D02*
X830Y1047D01*
X1787Y1047D02*
X1831Y1047D01*
X787Y1046D02*
X829Y1046D01*
X1788Y1046D02*
X1830Y1046D01*
X788Y1045D02*
X827Y1045D01*
X1790Y1045D02*
X1828Y1045D01*
X790Y1044D02*
X825Y1044D01*
X1791Y1044D02*
X1827Y1044D01*
X792Y1043D02*
X823Y1043D01*
X1793Y1043D02*
X1825Y1043D01*
X794Y1042D02*
X821Y1042D01*
X1796Y1042D02*
X1822Y1042D01*
X797Y1041D02*
X818Y1041D01*
X1798Y1041D02*
X1820Y1041D01*
X800Y1040D02*
X815Y1040D01*
X1802Y1040D02*
X1816Y1040D01*
X807Y1013D02*
X808Y1013D01*
X1809Y1013D02*
X1809Y1013D01*
X800Y1012D02*
X815Y1012D01*
X1801Y1012D02*
X1817Y1012D01*
X797Y1011D02*
X819Y1011D01*
X1798Y1011D02*
X1820Y1011D01*
X794Y1010D02*
X821Y1010D01*
X1795Y1010D02*
X1823Y1010D01*
X792Y1009D02*
X824Y1009D01*
X1793Y1009D02*
X1825Y1009D01*
X790Y1008D02*
X825Y1008D01*
X1791Y1008D02*
X1827Y1008D01*
X788Y1007D02*
X827Y1007D01*
X1790Y1007D02*
X1829Y1007D01*
X787Y1006D02*
X829Y1006D01*
X1788Y1006D02*
X1830Y1006D01*
X785Y1005D02*
X830Y1005D01*
X1787Y1005D02*
X1831Y1005D01*
X784Y1004D02*
X831Y1004D01*
X1785Y1004D02*
X1833Y1004D01*
X783Y1003D02*
X832Y1003D01*
X1784Y1003D02*
X1834Y1003D01*
X782Y1002D02*
X834Y1002D01*
X1783Y1002D02*
X1835Y1002D01*
X781Y1001D02*
X834Y1001D01*
X1782Y1001D02*
X1836Y1001D01*
X780Y1000D02*
X835Y1000D01*
X1781Y1000D02*
X1837Y1000D01*
X779Y999D02*
X836Y999D01*
X1781Y999D02*
X1838Y999D01*
X778Y998D02*
X837Y998D01*
X1780Y998D02*
X1838Y998D01*
X778Y997D02*
X838Y997D01*
X1779Y997D02*
X1839Y997D01*
X777Y996D02*
X838Y996D01*
X1779Y996D02*
X1840Y996D01*
X777Y995D02*
X839Y995D01*
X1778Y995D02*
X1840Y995D01*
X776Y994D02*
X839Y994D01*
X1777Y994D02*
X1841Y994D01*
X775Y993D02*
X803Y993D01*
X813Y993D02*
X840Y993D01*
X1777Y993D02*
X1804Y993D01*
X1814Y993D02*
X1841Y993D01*
X775Y992D02*
X800Y992D01*
X816Y992D02*
X840Y992D01*
X1776Y992D02*
X1801Y992D01*
X1817Y992D02*
X1842Y992D01*
X774Y991D02*
X798Y991D01*
X817Y991D02*
X841Y991D01*
X1776Y991D02*
X1799Y991D01*
X1819Y991D02*
X1842Y991D01*
X774Y990D02*
X797Y990D01*
X819Y990D02*
X841Y990D01*
X1775Y990D02*
X1798Y990D01*
X1820Y990D02*
X1843Y990D01*
X774Y989D02*
X795Y989D01*
X820Y989D02*
X842Y989D01*
X1775Y989D02*
X1797Y989D01*
X1821Y989D02*
X1843Y989D01*
X773Y988D02*
X794Y988D01*
X821Y988D02*
X842Y988D01*
X1775Y988D02*
X1796Y988D01*
X1822Y988D02*
X1843Y988D01*
X773Y987D02*
X794Y987D01*
X822Y987D02*
X842Y987D01*
X1774Y987D02*
X1795Y987D01*
X1823Y987D02*
X1844Y987D01*
X773Y986D02*
X793Y986D01*
X823Y986D02*
X843Y986D01*
X1774Y986D02*
X1794Y986D01*
X1824Y986D02*
X1844Y986D01*
X772Y985D02*
X792Y985D01*
X823Y985D02*
X843Y985D01*
X1774Y985D02*
X1793Y985D01*
X1825Y985D02*
X1844Y985D01*
X772Y984D02*
X791Y984D01*
X824Y984D02*
X843Y984D01*
X1774Y984D02*
X1793Y984D01*
X1825Y984D02*
X1845Y984D01*
X772Y983D02*
X791Y983D01*
X824Y983D02*
X843Y983D01*
X1773Y983D02*
X1792Y983D01*
X1826Y983D02*
X1845Y983D01*
X772Y982D02*
X791Y982D01*
X825Y982D02*
X844Y982D01*
X1773Y982D02*
X1792Y982D01*
X1826Y982D02*
X1845Y982D01*
X772Y981D02*
X790Y981D01*
X825Y981D02*
X844Y981D01*
X1773Y981D02*
X1792Y981D01*
X1826Y981D02*
X1845Y981D01*
X771Y980D02*
X790Y980D01*
X825Y980D02*
X844Y980D01*
X1773Y980D02*
X1791Y980D01*
X1827Y980D02*
X1845Y980D01*
X771Y979D02*
X790Y979D01*
X825Y979D02*
X844Y979D01*
X1773Y979D02*
X1791Y979D01*
X1827Y979D02*
X1845Y979D01*
X771Y978D02*
X790Y978D01*
X826Y978D02*
X844Y978D01*
X1773Y978D02*
X1791Y978D01*
X1827Y978D02*
X1846Y978D01*
X771Y977D02*
X790Y977D01*
X826Y977D02*
X844Y977D01*
X1773Y977D02*
X1791Y977D01*
X1827Y977D02*
X1846Y977D01*
X771Y976D02*
X790Y976D01*
X826Y976D02*
X844Y976D01*
X1773Y976D02*
X1791Y976D01*
X1827Y976D02*
X1846Y976D01*
X771Y975D02*
X790Y975D01*
X826Y975D02*
X844Y975D01*
X1773Y975D02*
X1791Y975D01*
X1827Y975D02*
X1846Y975D01*
X771Y974D02*
X790Y974D01*
X826Y974D02*
X844Y974D01*
X1773Y974D02*
X1791Y974D01*
X1827Y974D02*
X1846Y974D01*
X771Y973D02*
X790Y973D01*
X825Y973D02*
X844Y973D01*
X1773Y973D02*
X1791Y973D01*
X1827Y973D02*
X1845Y973D01*
X771Y972D02*
X790Y972D01*
X825Y972D02*
X844Y972D01*
X1773Y972D02*
X1791Y972D01*
X1827Y972D02*
X1845Y972D01*
X772Y971D02*
X790Y971D01*
X825Y971D02*
X844Y971D01*
X1773Y971D02*
X1792Y971D01*
X1826Y971D02*
X1845Y971D01*
X772Y970D02*
X791Y970D01*
X825Y970D02*
X844Y970D01*
X1773Y970D02*
X1792Y970D01*
X1826Y970D02*
X1845Y970D01*
X772Y969D02*
X791Y969D01*
X824Y969D02*
X843Y969D01*
X1773Y969D02*
X1792Y969D01*
X1826Y969D02*
X1845Y969D01*
X772Y968D02*
X791Y968D01*
X824Y968D02*
X843Y968D01*
X1774Y968D02*
X1793Y968D01*
X1825Y968D02*
X1845Y968D01*
X772Y967D02*
X792Y967D01*
X823Y967D02*
X843Y967D01*
X1774Y967D02*
X1793Y967D01*
X1825Y967D02*
X1844Y967D01*
X773Y966D02*
X793Y966D01*
X823Y966D02*
X843Y966D01*
X1774Y966D02*
X1794Y966D01*
X1824Y966D02*
X1844Y966D01*
X773Y965D02*
X794Y965D01*
X822Y965D02*
X842Y965D01*
X1774Y965D02*
X1795Y965D01*
X1823Y965D02*
X1844Y965D01*
X773Y964D02*
X794Y964D01*
X821Y964D02*
X842Y964D01*
X1775Y964D02*
X1796Y964D01*
X1822Y964D02*
X1843Y964D01*
X774Y963D02*
X795Y963D01*
X820Y963D02*
X842Y963D01*
X1775Y963D02*
X1797Y963D01*
X1821Y963D02*
X1843Y963D01*
X774Y962D02*
X797Y962D01*
X819Y962D02*
X841Y962D01*
X1775Y962D02*
X1798Y962D01*
X1820Y962D02*
X1843Y962D01*
X774Y961D02*
X798Y961D01*
X817Y961D02*
X841Y961D01*
X1776Y961D02*
X1799Y961D01*
X1819Y961D02*
X1842Y961D01*
X775Y960D02*
X800Y960D01*
X816Y960D02*
X840Y960D01*
X1776Y960D02*
X1801Y960D01*
X1817Y960D02*
X1842Y960D01*
X775Y959D02*
X803Y959D01*
X813Y959D02*
X840Y959D01*
X1777Y959D02*
X1804Y959D01*
X1814Y959D02*
X1841Y959D01*
X776Y958D02*
X839Y958D01*
X1777Y958D02*
X1841Y958D01*
X777Y957D02*
X839Y957D01*
X1778Y957D02*
X1840Y957D01*
X777Y956D02*
X838Y956D01*
X1779Y956D02*
X1840Y956D01*
X778Y955D02*
X838Y955D01*
X1779Y955D02*
X1839Y955D01*
X778Y954D02*
X837Y954D01*
X1780Y954D02*
X1838Y954D01*
X779Y953D02*
X836Y953D01*
X1781Y953D02*
X1838Y953D01*
X780Y952D02*
X835Y952D01*
X1781Y952D02*
X1837Y952D01*
X781Y951D02*
X834Y951D01*
X1782Y951D02*
X1836Y951D01*
X782Y950D02*
X833Y950D01*
X1783Y950D02*
X1835Y950D01*
X783Y949D02*
X832Y949D01*
X1784Y949D02*
X1834Y949D01*
X784Y948D02*
X831Y948D01*
X1785Y948D02*
X1833Y948D01*
X785Y947D02*
X830Y947D01*
X1787Y947D02*
X1831Y947D01*
X787Y946D02*
X829Y946D01*
X1788Y946D02*
X1830Y946D01*
X788Y945D02*
X827Y945D01*
X1790Y945D02*
X1829Y945D01*
X790Y944D02*
X825Y944D01*
X1791Y944D02*
X1827Y944D01*
X792Y943D02*
X823Y943D01*
X1793Y943D02*
X1825Y943D01*
X794Y942D02*
X821Y942D01*
X1795Y942D02*
X1823Y942D01*
X797Y941D02*
X819Y941D01*
X1798Y941D02*
X1820Y941D01*
X800Y940D02*
X815Y940D01*
X1801Y940D02*
X1817Y940D01*
X807Y939D02*
X808Y939D01*
X1809Y939D02*
X1809Y939D01*
X800Y912D02*
X815Y912D01*
X1802Y912D02*
X1816Y912D01*
X797Y911D02*
X818Y911D01*
X1798Y911D02*
X1820Y911D01*
X794Y910D02*
X821Y910D01*
X1796Y910D02*
X1823Y910D01*
X792Y909D02*
X823Y909D01*
X1793Y909D02*
X1825Y909D01*
X790Y908D02*
X825Y908D01*
X1791Y908D02*
X1827Y908D01*
X788Y907D02*
X827Y907D01*
X1790Y907D02*
X1828Y907D01*
X787Y906D02*
X829Y906D01*
X1788Y906D02*
X1830Y906D01*
X785Y905D02*
X830Y905D01*
X1787Y905D02*
X1831Y905D01*
X784Y904D02*
X831Y904D01*
X1786Y904D02*
X1833Y904D01*
X783Y903D02*
X832Y903D01*
X1784Y903D02*
X1834Y903D01*
X782Y902D02*
X833Y902D01*
X1783Y902D02*
X1835Y902D01*
X781Y901D02*
X834Y901D01*
X1782Y901D02*
X1836Y901D01*
X780Y900D02*
X835Y900D01*
X1782Y900D02*
X1837Y900D01*
X779Y899D02*
X836Y899D01*
X1781Y899D02*
X1837Y899D01*
X779Y898D02*
X837Y898D01*
X1780Y898D02*
X1838Y898D01*
X778Y897D02*
X837Y897D01*
X1779Y897D02*
X1839Y897D01*
X777Y896D02*
X838Y896D01*
X1779Y896D02*
X1840Y896D01*
X777Y895D02*
X839Y895D01*
X1778Y895D02*
X1840Y895D01*
X776Y894D02*
X839Y894D01*
X1777Y894D02*
X1841Y894D01*
X775Y893D02*
X803Y893D01*
X812Y893D02*
X840Y893D01*
X1777Y893D02*
X1804Y893D01*
X1814Y893D02*
X1841Y893D01*
X775Y892D02*
X800Y892D01*
X815Y892D02*
X840Y892D01*
X1776Y892D02*
X1801Y892D01*
X1817Y892D02*
X1842Y892D01*
X775Y891D02*
X798Y891D01*
X817Y891D02*
X841Y891D01*
X1776Y891D02*
X1800Y891D01*
X1819Y891D02*
X1842Y891D01*
X774Y890D02*
X797Y890D01*
X819Y890D02*
X841Y890D01*
X1776Y890D02*
X1798Y890D01*
X1820Y890D02*
X1843Y890D01*
X774Y889D02*
X796Y889D01*
X820Y889D02*
X842Y889D01*
X1775Y889D02*
X1797Y889D01*
X1821Y889D02*
X1843Y889D01*
X773Y888D02*
X795Y888D01*
X821Y888D02*
X842Y888D01*
X1775Y888D02*
X1796Y888D01*
X1822Y888D02*
X1843Y888D01*
X773Y887D02*
X794Y887D01*
X822Y887D02*
X842Y887D01*
X1774Y887D02*
X1795Y887D01*
X1823Y887D02*
X1844Y887D01*
X773Y886D02*
X793Y886D01*
X822Y886D02*
X843Y886D01*
X1774Y886D02*
X1794Y886D01*
X1824Y886D02*
X1844Y886D01*
X772Y885D02*
X792Y885D01*
X823Y885D02*
X843Y885D01*
X1774Y885D02*
X1794Y885D01*
X1825Y885D02*
X1844Y885D01*
X772Y884D02*
X792Y884D01*
X824Y884D02*
X843Y884D01*
X1774Y884D02*
X1793Y884D01*
X1825Y884D02*
X1845Y884D01*
X772Y883D02*
X791Y883D01*
X824Y883D02*
X843Y883D01*
X1773Y883D02*
X1792Y883D01*
X1826Y883D02*
X1845Y883D01*
X772Y882D02*
X791Y882D01*
X825Y882D02*
X844Y882D01*
X1773Y882D02*
X1792Y882D01*
X1826Y882D02*
X1845Y882D01*
X772Y881D02*
X790Y881D01*
X825Y881D02*
X844Y881D01*
X1773Y881D02*
X1792Y881D01*
X1826Y881D02*
X1845Y881D01*
X771Y880D02*
X790Y880D01*
X825Y880D02*
X844Y880D01*
X1773Y880D02*
X1791Y880D01*
X1827Y880D02*
X1845Y880D01*
X771Y879D02*
X790Y879D01*
X825Y879D02*
X844Y879D01*
X1773Y879D02*
X1791Y879D01*
X1827Y879D02*
X1845Y879D01*
X771Y878D02*
X790Y878D01*
X825Y878D02*
X844Y878D01*
X1773Y878D02*
X1791Y878D01*
X1827Y878D02*
X1846Y878D01*
X771Y877D02*
X790Y877D01*
X826Y877D02*
X844Y877D01*
X1773Y877D02*
X1791Y877D01*
X1827Y877D02*
X1846Y877D01*
X771Y876D02*
X790Y876D01*
X826Y876D02*
X844Y876D01*
X1773Y876D02*
X1791Y876D01*
X1827Y876D02*
X1846Y876D01*
X771Y875D02*
X790Y875D01*
X826Y875D02*
X844Y875D01*
X1773Y875D02*
X1791Y875D01*
X1827Y875D02*
X1846Y875D01*
X771Y874D02*
X790Y874D01*
X826Y874D02*
X844Y874D01*
X1773Y874D02*
X1791Y874D01*
X1827Y874D02*
X1846Y874D01*
X771Y873D02*
X790Y873D01*
X825Y873D02*
X844Y873D01*
X1773Y873D02*
X1791Y873D01*
X1827Y873D02*
X1845Y873D01*
X771Y872D02*
X790Y872D01*
X825Y872D02*
X844Y872D01*
X1773Y872D02*
X1791Y872D01*
X1827Y872D02*
X1845Y872D01*
X772Y871D02*
X790Y871D01*
X825Y871D02*
X844Y871D01*
X1773Y871D02*
X1792Y871D01*
X1826Y871D02*
X1845Y871D01*
X772Y870D02*
X791Y870D01*
X825Y870D02*
X844Y870D01*
X1773Y870D02*
X1792Y870D01*
X1826Y870D02*
X1845Y870D01*
X772Y869D02*
X791Y869D01*
X824Y869D02*
X843Y869D01*
X1773Y869D02*
X1792Y869D01*
X1826Y869D02*
X1845Y869D01*
X772Y868D02*
X791Y868D01*
X824Y868D02*
X843Y868D01*
X1774Y868D02*
X1793Y868D01*
X1825Y868D02*
X1845Y868D01*
X772Y867D02*
X792Y867D01*
X823Y867D02*
X843Y867D01*
X1774Y867D02*
X1793Y867D01*
X1825Y867D02*
X1844Y867D01*
X773Y866D02*
X793Y866D01*
X823Y866D02*
X843Y866D01*
X1774Y866D02*
X1794Y866D01*
X1824Y866D02*
X1844Y866D01*
X773Y865D02*
X793Y865D01*
X822Y865D02*
X842Y865D01*
X1774Y865D02*
X1795Y865D01*
X1823Y865D02*
X1844Y865D01*
X773Y864D02*
X794Y864D01*
X821Y864D02*
X842Y864D01*
X1775Y864D02*
X1796Y864D01*
X1822Y864D02*
X1843Y864D01*
X774Y863D02*
X795Y863D01*
X820Y863D02*
X842Y863D01*
X1775Y863D02*
X1797Y863D01*
X1821Y863D02*
X1843Y863D01*
X774Y862D02*
X796Y862D01*
X819Y862D02*
X841Y862D01*
X1775Y862D02*
X1798Y862D01*
X1820Y862D02*
X1843Y862D01*
X774Y861D02*
X798Y861D01*
X818Y861D02*
X841Y861D01*
X1776Y861D02*
X1799Y861D01*
X1819Y861D02*
X1842Y861D01*
X775Y860D02*
X800Y860D01*
X816Y860D02*
X840Y860D01*
X1776Y860D02*
X1801Y860D01*
X1817Y860D02*
X1842Y860D01*
X775Y859D02*
X802Y859D01*
X813Y859D02*
X840Y859D01*
X1777Y859D02*
X1804Y859D01*
X1814Y859D02*
X1841Y859D01*
X776Y858D02*
X839Y858D01*
X1777Y858D02*
X1841Y858D01*
X776Y857D02*
X839Y857D01*
X1778Y857D02*
X1840Y857D01*
X777Y856D02*
X838Y856D01*
X1779Y856D02*
X1840Y856D01*
X778Y855D02*
X838Y855D01*
X1779Y855D02*
X1839Y855D01*
X778Y854D02*
X837Y854D01*
X1780Y854D02*
X1838Y854D01*
X779Y853D02*
X836Y853D01*
X1781Y853D02*
X1838Y853D01*
X780Y852D02*
X835Y852D01*
X1781Y852D02*
X1837Y852D01*
X781Y851D02*
X835Y851D01*
X1782Y851D02*
X1836Y851D01*
X782Y850D02*
X834Y850D01*
X1783Y850D02*
X1835Y850D01*
X783Y849D02*
X833Y849D01*
X1784Y849D02*
X1834Y849D01*
X784Y848D02*
X831Y848D01*
X1785Y848D02*
X1833Y848D01*
X785Y847D02*
X830Y847D01*
X1787Y847D02*
X1832Y847D01*
X786Y846D02*
X829Y846D01*
X1788Y846D02*
X1830Y846D01*
X788Y845D02*
X827Y845D01*
X1789Y845D02*
X1829Y845D01*
X790Y844D02*
X826Y844D01*
X1791Y844D02*
X1827Y844D01*
X792Y843D02*
X824Y843D01*
X1793Y843D02*
X1825Y843D01*
X794Y842D02*
X822Y842D01*
X1795Y842D02*
X1823Y842D01*
X796Y841D02*
X819Y841D01*
X1798Y841D02*
X1820Y841D01*
X800Y840D02*
X816Y840D01*
X1801Y840D02*
X1817Y840D01*
X806Y839D02*
X810Y839D01*
X1807Y839D02*
X1811Y839D01*
X801Y812D02*
X814Y812D01*
X1802Y812D02*
X1816Y812D01*
X797Y811D02*
X818Y811D01*
X1799Y811D02*
X1820Y811D01*
X794Y810D02*
X821Y810D01*
X1796Y810D02*
X1822Y810D01*
X792Y809D02*
X823Y809D01*
X1794Y809D02*
X1824Y809D01*
X790Y808D02*
X825Y808D01*
X1792Y808D02*
X1827Y808D01*
X788Y807D02*
X827Y807D01*
X1790Y807D02*
X1828Y807D01*
X787Y806D02*
X828Y806D01*
X1788Y806D02*
X1830Y806D01*
X786Y805D02*
X830Y805D01*
X1787Y805D02*
X1831Y805D01*
X784Y804D02*
X831Y804D01*
X1786Y804D02*
X1833Y804D01*
X783Y803D02*
X832Y803D01*
X1785Y803D02*
X1834Y803D01*
X782Y802D02*
X833Y802D01*
X1783Y802D02*
X1835Y802D01*
X781Y801D02*
X834Y801D01*
X1783Y801D02*
X1836Y801D01*
X780Y800D02*
X835Y800D01*
X1782Y800D02*
X1837Y800D01*
X779Y799D02*
X836Y799D01*
X1781Y799D02*
X1837Y799D01*
X779Y798D02*
X837Y798D01*
X1780Y798D02*
X1838Y798D01*
X778Y797D02*
X837Y797D01*
X1779Y797D02*
X1839Y797D01*
X777Y796D02*
X838Y796D01*
X1779Y796D02*
X1839Y796D01*
X777Y795D02*
X839Y795D01*
X1778Y795D02*
X1840Y795D01*
X776Y794D02*
X839Y794D01*
X1778Y794D02*
X1841Y794D01*
X776Y793D02*
X803Y793D01*
X812Y793D02*
X840Y793D01*
X1777Y793D02*
X1805Y793D01*
X1813Y793D02*
X1841Y793D01*
X775Y792D02*
X800Y792D01*
X815Y792D02*
X840Y792D01*
X1776Y792D02*
X1802Y792D01*
X1817Y792D02*
X1842Y792D01*
X775Y791D02*
X798Y791D01*
X817Y791D02*
X841Y791D01*
X1776Y791D02*
X1800Y791D01*
X1818Y791D02*
X1842Y791D01*
X774Y790D02*
X797Y790D01*
X818Y790D02*
X841Y790D01*
X1776Y790D02*
X1798Y790D01*
X1820Y790D02*
X1843Y790D01*
X774Y789D02*
X796Y789D01*
X820Y789D02*
X842Y789D01*
X1775Y789D02*
X1797Y789D01*
X1821Y789D02*
X1843Y789D01*
X773Y788D02*
X795Y788D01*
X821Y788D02*
X842Y788D01*
X1775Y788D02*
X1796Y788D01*
X1822Y788D02*
X1843Y788D01*
X773Y787D02*
X794Y787D01*
X822Y787D02*
X842Y787D01*
X1774Y787D02*
X1795Y787D01*
X1823Y787D02*
X1844Y787D01*
X773Y786D02*
X793Y786D01*
X822Y786D02*
X843Y786D01*
X1774Y786D02*
X1794Y786D01*
X1824Y786D02*
X1844Y786D01*
X772Y785D02*
X792Y785D01*
X823Y785D02*
X843Y785D01*
X1774Y785D02*
X1794Y785D01*
X1825Y785D02*
X1844Y785D01*
X772Y784D02*
X792Y784D01*
X824Y784D02*
X843Y784D01*
X1774Y784D02*
X1793Y784D01*
X1825Y784D02*
X1845Y784D01*
X772Y783D02*
X791Y783D01*
X824Y783D02*
X843Y783D01*
X1773Y783D02*
X1792Y783D01*
X1826Y783D02*
X1845Y783D01*
X772Y782D02*
X791Y782D01*
X825Y782D02*
X844Y782D01*
X1773Y782D02*
X1792Y782D01*
X1826Y782D02*
X1845Y782D01*
X772Y781D02*
X790Y781D01*
X825Y781D02*
X844Y781D01*
X1773Y781D02*
X1792Y781D01*
X1826Y781D02*
X1845Y781D01*
X771Y780D02*
X790Y780D01*
X825Y780D02*
X844Y780D01*
X1773Y780D02*
X1791Y780D01*
X1827Y780D02*
X1845Y780D01*
X771Y779D02*
X790Y779D01*
X825Y779D02*
X844Y779D01*
X1773Y779D02*
X1791Y779D01*
X1827Y779D02*
X1845Y779D01*
X771Y778D02*
X790Y778D01*
X825Y778D02*
X844Y778D01*
X1773Y778D02*
X1791Y778D01*
X1827Y778D02*
X1846Y778D01*
X771Y777D02*
X790Y777D01*
X826Y777D02*
X844Y777D01*
X1773Y777D02*
X1791Y777D01*
X1827Y777D02*
X1846Y777D01*
X771Y776D02*
X790Y776D01*
X826Y776D02*
X844Y776D01*
X1773Y776D02*
X1791Y776D01*
X1827Y776D02*
X1846Y776D01*
X771Y775D02*
X790Y775D01*
X826Y775D02*
X844Y775D01*
X1773Y775D02*
X1791Y775D01*
X1827Y775D02*
X1846Y775D01*
X771Y774D02*
X790Y774D01*
X826Y774D02*
X844Y774D01*
X1773Y774D02*
X1791Y774D01*
X1827Y774D02*
X1846Y774D01*
X771Y773D02*
X790Y773D01*
X825Y773D02*
X844Y773D01*
X1773Y773D02*
X1791Y773D01*
X1827Y773D02*
X1845Y773D01*
X771Y772D02*
X790Y772D01*
X825Y772D02*
X844Y772D01*
X1773Y772D02*
X1791Y772D01*
X1827Y772D02*
X1845Y772D01*
X771Y771D02*
X790Y771D01*
X825Y771D02*
X844Y771D01*
X1773Y771D02*
X1792Y771D01*
X1827Y771D02*
X1845Y771D01*
X772Y770D02*
X791Y770D01*
X825Y770D02*
X844Y770D01*
X1773Y770D02*
X1792Y770D01*
X1826Y770D02*
X1845Y770D01*
X772Y769D02*
X791Y769D01*
X824Y769D02*
X843Y769D01*
X1773Y769D02*
X1792Y769D01*
X1826Y769D02*
X1845Y769D01*
X772Y768D02*
X791Y768D01*
X824Y768D02*
X843Y768D01*
X1773Y768D02*
X1793Y768D01*
X1825Y768D02*
X1845Y768D01*
X772Y767D02*
X792Y767D01*
X823Y767D02*
X843Y767D01*
X1774Y767D02*
X1793Y767D01*
X1825Y767D02*
X1844Y767D01*
X773Y766D02*
X793Y766D01*
X823Y766D02*
X843Y766D01*
X1774Y766D02*
X1794Y766D01*
X1824Y766D02*
X1844Y766D01*
X773Y765D02*
X793Y765D01*
X822Y765D02*
X842Y765D01*
X1774Y765D02*
X1795Y765D01*
X1823Y765D02*
X1844Y765D01*
X773Y764D02*
X794Y764D01*
X821Y764D02*
X842Y764D01*
X1775Y764D02*
X1796Y764D01*
X1822Y764D02*
X1844Y764D01*
X774Y763D02*
X795Y763D01*
X820Y763D02*
X842Y763D01*
X1775Y763D02*
X1797Y763D01*
X1822Y763D02*
X1843Y763D01*
X774Y762D02*
X796Y762D01*
X819Y762D02*
X841Y762D01*
X1775Y762D02*
X1798Y762D01*
X1820Y762D02*
X1843Y762D01*
X774Y761D02*
X798Y761D01*
X818Y761D02*
X841Y761D01*
X1776Y761D02*
X1799Y761D01*
X1819Y761D02*
X1842Y761D01*
X775Y760D02*
X799Y760D01*
X816Y760D02*
X840Y760D01*
X1776Y760D02*
X1801Y760D01*
X1817Y760D02*
X1842Y760D01*
X775Y759D02*
X802Y759D01*
X813Y759D02*
X840Y759D01*
X1777Y759D02*
X1803Y759D01*
X1815Y759D02*
X1841Y759D01*
X776Y758D02*
X839Y758D01*
X1777Y758D02*
X1841Y758D01*
X776Y757D02*
X839Y757D01*
X1778Y757D02*
X1840Y757D01*
X777Y756D02*
X838Y756D01*
X1778Y756D02*
X1840Y756D01*
X778Y755D02*
X838Y755D01*
X1779Y755D02*
X1839Y755D01*
X778Y754D02*
X837Y754D01*
X1780Y754D02*
X1838Y754D01*
X779Y753D02*
X836Y753D01*
X1780Y753D02*
X1838Y753D01*
X780Y752D02*
X835Y752D01*
X1781Y752D02*
X1837Y752D01*
X781Y751D02*
X835Y751D01*
X1782Y751D02*
X1836Y751D01*
X782Y750D02*
X834Y750D01*
X1783Y750D02*
X1835Y750D01*
X783Y749D02*
X833Y749D01*
X1784Y749D02*
X1834Y749D01*
X784Y748D02*
X832Y748D01*
X1785Y748D02*
X1833Y748D01*
X785Y747D02*
X830Y747D01*
X1786Y747D02*
X1832Y747D01*
X786Y746D02*
X829Y746D01*
X1788Y746D02*
X1830Y746D01*
X788Y745D02*
X828Y745D01*
X1789Y745D02*
X1829Y745D01*
X789Y744D02*
X826Y744D01*
X1791Y744D02*
X1827Y744D01*
X791Y743D02*
X824Y743D01*
X1793Y743D02*
X1825Y743D01*
X793Y742D02*
X822Y742D01*
X1795Y742D02*
X1823Y742D01*
X796Y741D02*
X819Y741D01*
X1797Y741D02*
X1821Y741D01*
X799Y740D02*
X816Y740D01*
X1801Y740D02*
X1817Y740D01*
X804Y739D02*
X811Y739D01*
X1806Y739D02*
X1812Y739D01*
X801Y712D02*
X814Y712D01*
X1803Y712D02*
X1815Y712D01*
X798Y711D02*
X818Y711D01*
X1799Y711D02*
X1819Y711D01*
X795Y710D02*
X820Y710D01*
X1796Y710D02*
X1822Y710D01*
X792Y709D02*
X823Y709D01*
X1794Y709D02*
X1824Y709D01*
X790Y708D02*
X825Y708D01*
X1792Y708D02*
X1826Y708D01*
X789Y707D02*
X827Y707D01*
X1790Y707D02*
X1828Y707D01*
X787Y706D02*
X828Y706D01*
X1789Y706D02*
X1830Y706D01*
X786Y705D02*
X830Y705D01*
X1787Y705D02*
X1831Y705D01*
X784Y704D02*
X831Y704D01*
X1786Y704D02*
X1832Y704D01*
X783Y703D02*
X832Y703D01*
X1785Y703D02*
X1834Y703D01*
X782Y702D02*
X833Y702D01*
X1784Y702D02*
X1835Y702D01*
X781Y701D02*
X834Y701D01*
X1783Y701D02*
X1836Y701D01*
X780Y700D02*
X835Y700D01*
X1782Y700D02*
X1836Y700D01*
X779Y699D02*
X836Y699D01*
X1781Y699D02*
X1837Y699D01*
X779Y698D02*
X837Y698D01*
X1780Y698D02*
X1838Y698D01*
X778Y697D02*
X837Y697D01*
X1779Y697D02*
X1839Y697D01*
X777Y696D02*
X838Y696D01*
X1779Y696D02*
X1839Y696D01*
X777Y695D02*
X839Y695D01*
X1778Y695D02*
X1840Y695D01*
X776Y694D02*
X839Y694D01*
X1778Y694D02*
X1841Y694D01*
X776Y693D02*
X805Y693D01*
X811Y693D02*
X840Y693D01*
X1777Y693D02*
X1806Y693D01*
X1812Y693D02*
X1841Y693D01*
X775Y692D02*
X800Y692D01*
X815Y692D02*
X840Y692D01*
X1777Y692D02*
X1802Y692D01*
X1816Y692D02*
X1842Y692D01*
X775Y691D02*
X799Y691D01*
X817Y691D02*
X841Y691D01*
X1776Y691D02*
X1800Y691D01*
X1818Y691D02*
X1842Y691D01*
X774Y690D02*
X797Y690D01*
X818Y690D02*
X841Y690D01*
X1776Y690D02*
X1798Y690D01*
X1820Y690D02*
X1843Y690D01*
X774Y689D02*
X796Y689D01*
X819Y689D02*
X841Y689D01*
X1775Y689D02*
X1797Y689D01*
X1821Y689D02*
X1843Y689D01*
X773Y688D02*
X795Y688D01*
X821Y688D02*
X842Y688D01*
X1775Y688D02*
X1796Y688D01*
X1822Y688D02*
X1843Y688D01*
X773Y687D02*
X794Y687D01*
X821Y687D02*
X842Y687D01*
X1774Y687D02*
X1795Y687D01*
X1823Y687D02*
X1844Y687D01*
X773Y686D02*
X793Y686D01*
X822Y686D02*
X843Y686D01*
X1774Y686D02*
X1794Y686D01*
X1824Y686D02*
X1844Y686D01*
X772Y685D02*
X792Y685D01*
X823Y685D02*
X843Y685D01*
X1774Y685D02*
X1794Y685D01*
X1825Y685D02*
X1844Y685D01*
X772Y684D02*
X792Y684D01*
X824Y684D02*
X843Y684D01*
X1774Y684D02*
X1793Y684D01*
X1825Y684D02*
X1845Y684D01*
X772Y683D02*
X791Y683D01*
X824Y683D02*
X843Y683D01*
X1773Y683D02*
X1793Y683D01*
X1826Y683D02*
X1845Y683D01*
X772Y682D02*
X791Y682D01*
X825Y682D02*
X844Y682D01*
X1773Y682D02*
X1792Y682D01*
X1826Y682D02*
X1845Y682D01*
X772Y681D02*
X790Y681D01*
X825Y681D02*
X844Y681D01*
X1773Y681D02*
X1792Y681D01*
X1826Y681D02*
X1845Y681D01*
X771Y680D02*
X790Y680D01*
X825Y680D02*
X844Y680D01*
X1773Y680D02*
X1792Y680D01*
X1827Y680D02*
X1845Y680D01*
X771Y679D02*
X790Y679D01*
X825Y679D02*
X844Y679D01*
X1773Y679D02*
X1791Y679D01*
X1827Y679D02*
X1845Y679D01*
X771Y678D02*
X790Y678D01*
X825Y678D02*
X844Y678D01*
X1773Y678D02*
X1791Y678D01*
X1827Y678D02*
X1845Y678D01*
X771Y677D02*
X790Y677D01*
X826Y677D02*
X844Y677D01*
X1773Y677D02*
X1791Y677D01*
X1827Y677D02*
X1846Y677D01*
X771Y676D02*
X790Y676D01*
X826Y676D02*
X844Y676D01*
X1773Y676D02*
X1791Y676D01*
X1827Y676D02*
X1846Y676D01*
X771Y675D02*
X790Y675D01*
X826Y675D02*
X844Y675D01*
X1773Y675D02*
X1791Y675D01*
X1827Y675D02*
X1846Y675D01*
X771Y674D02*
X790Y674D01*
X826Y674D02*
X844Y674D01*
X1773Y674D02*
X1791Y674D01*
X1827Y674D02*
X1846Y674D01*
X771Y673D02*
X790Y673D01*
X825Y673D02*
X844Y673D01*
X1773Y673D02*
X1791Y673D01*
X1827Y673D02*
X1845Y673D01*
X771Y672D02*
X790Y672D01*
X825Y672D02*
X844Y672D01*
X1773Y672D02*
X1791Y672D01*
X1827Y672D02*
X1845Y672D01*
X771Y671D02*
X790Y671D01*
X825Y671D02*
X844Y671D01*
X1773Y671D02*
X1792Y671D01*
X1827Y671D02*
X1845Y671D01*
X772Y670D02*
X790Y670D01*
X825Y670D02*
X844Y670D01*
X1773Y670D02*
X1792Y670D01*
X1826Y670D02*
X1845Y670D01*
X772Y669D02*
X791Y669D01*
X825Y669D02*
X843Y669D01*
X1773Y669D02*
X1792Y669D01*
X1826Y669D02*
X1845Y669D01*
X772Y668D02*
X791Y668D01*
X824Y668D02*
X843Y668D01*
X1773Y668D02*
X1793Y668D01*
X1825Y668D02*
X1845Y668D01*
X772Y667D02*
X792Y667D01*
X823Y667D02*
X843Y667D01*
X1774Y667D02*
X1793Y667D01*
X1825Y667D02*
X1844Y667D01*
X773Y666D02*
X792Y666D01*
X823Y666D02*
X843Y666D01*
X1774Y666D02*
X1794Y666D01*
X1824Y666D02*
X1844Y666D01*
X773Y665D02*
X793Y665D01*
X822Y665D02*
X842Y665D01*
X1774Y665D02*
X1795Y665D01*
X1823Y665D02*
X1844Y665D01*
X773Y664D02*
X794Y664D01*
X821Y664D02*
X842Y664D01*
X1775Y664D02*
X1796Y664D01*
X1823Y664D02*
X1844Y664D01*
X774Y663D02*
X795Y663D01*
X820Y663D02*
X842Y663D01*
X1775Y663D02*
X1797Y663D01*
X1822Y663D02*
X1843Y663D01*
X774Y662D02*
X796Y662D01*
X819Y662D02*
X841Y662D01*
X1775Y662D02*
X1798Y662D01*
X1820Y662D02*
X1843Y662D01*
X774Y661D02*
X797Y661D01*
X818Y661D02*
X841Y661D01*
X1776Y661D02*
X1799Y661D01*
X1819Y661D02*
X1842Y661D01*
X775Y660D02*
X799Y660D01*
X816Y660D02*
X840Y660D01*
X1776Y660D02*
X1801Y660D01*
X1818Y660D02*
X1842Y660D01*
X775Y659D02*
X801Y659D01*
X814Y659D02*
X840Y659D01*
X1777Y659D02*
X1803Y659D01*
X1815Y659D02*
X1841Y659D01*
X776Y658D02*
X840Y658D01*
X1777Y658D02*
X1841Y658D01*
X776Y657D02*
X839Y657D01*
X1778Y657D02*
X1840Y657D01*
X777Y656D02*
X838Y656D01*
X1778Y656D02*
X1840Y656D01*
X778Y655D02*
X838Y655D01*
X1779Y655D02*
X1839Y655D01*
X778Y654D02*
X837Y654D01*
X1780Y654D02*
X1838Y654D01*
X779Y653D02*
X836Y653D01*
X1780Y653D02*
X1838Y653D01*
X780Y652D02*
X836Y652D01*
X1781Y652D02*
X1837Y652D01*
X781Y651D02*
X835Y651D01*
X1782Y651D02*
X1836Y651D01*
X781Y650D02*
X834Y650D01*
X1783Y650D02*
X1835Y650D01*
X782Y649D02*
X833Y649D01*
X1784Y649D02*
X1834Y649D01*
X784Y648D02*
X832Y648D01*
X1785Y648D02*
X1833Y648D01*
X785Y647D02*
X830Y647D01*
X1786Y647D02*
X1832Y647D01*
X786Y646D02*
X829Y646D01*
X1788Y646D02*
X1831Y646D01*
X788Y645D02*
X828Y645D01*
X1789Y645D02*
X1829Y645D01*
X789Y644D02*
X826Y644D01*
X1791Y644D02*
X1827Y644D01*
X791Y643D02*
X824Y643D01*
X1793Y643D02*
X1826Y643D01*
X793Y642D02*
X822Y642D01*
X1795Y642D02*
X1824Y642D01*
X796Y641D02*
X820Y641D01*
X1797Y641D02*
X1821Y641D01*
X799Y640D02*
X816Y640D01*
X1800Y640D02*
X1818Y640D01*
X804Y639D02*
X812Y639D01*
X1805Y639D02*
X1813Y639D01*
X802Y612D02*
X813Y612D01*
X1804Y612D02*
X1815Y612D01*
X798Y611D02*
X817Y611D01*
X1799Y611D02*
X1819Y611D01*
X795Y610D02*
X820Y610D01*
X1797Y610D02*
X1822Y610D01*
X793Y609D02*
X823Y609D01*
X1794Y609D02*
X1824Y609D01*
X791Y608D02*
X825Y608D01*
X1792Y608D02*
X1826Y608D01*
X789Y607D02*
X826Y607D01*
X1790Y607D02*
X1828Y607D01*
X787Y606D02*
X828Y606D01*
X1789Y606D02*
X1829Y606D01*
X786Y605D02*
X829Y605D01*
X1787Y605D02*
X1831Y605D01*
X784Y604D02*
X831Y604D01*
X1786Y604D02*
X1832Y604D01*
X783Y603D02*
X832Y603D01*
X1785Y603D02*
X1833Y603D01*
X782Y602D02*
X833Y602D01*
X1784Y602D02*
X1834Y602D01*
X781Y601D02*
X834Y601D01*
X1783Y601D02*
X1835Y601D01*
X780Y600D02*
X835Y600D01*
X1782Y600D02*
X1836Y600D01*
X780Y599D02*
X836Y599D01*
X1781Y599D02*
X1837Y599D01*
X779Y598D02*
X836Y598D01*
X1780Y598D02*
X1838Y598D01*
X778Y597D02*
X837Y597D01*
X1780Y597D02*
X1839Y597D01*
X777Y596D02*
X838Y596D01*
X1779Y596D02*
X1839Y596D01*
X777Y595D02*
X838Y595D01*
X1778Y595D02*
X1840Y595D01*
X776Y594D02*
X839Y594D01*
X1778Y594D02*
X1841Y594D01*
X776Y593D02*
X806Y593D01*
X809Y593D02*
X840Y593D01*
X1777Y593D02*
X1808Y593D01*
X1811Y593D02*
X1841Y593D01*
X775Y592D02*
X801Y592D01*
X815Y592D02*
X840Y592D01*
X1777Y592D02*
X1802Y592D01*
X1816Y592D02*
X1842Y592D01*
X775Y591D02*
X799Y591D01*
X817Y591D02*
X841Y591D01*
X1776Y591D02*
X1800Y591D01*
X1818Y591D02*
X1842Y591D01*
X774Y590D02*
X797Y590D01*
X818Y590D02*
X841Y590D01*
X1776Y590D02*
X1799Y590D01*
X1820Y590D02*
X1842Y590D01*
X774Y589D02*
X796Y589D01*
X819Y589D02*
X841Y589D01*
X1775Y589D02*
X1797Y589D01*
X1821Y589D02*
X1843Y589D01*
X773Y588D02*
X795Y588D01*
X820Y588D02*
X842Y588D01*
X1775Y588D02*
X1796Y588D01*
X1822Y588D02*
X1843Y588D01*
X773Y587D02*
X794Y587D01*
X821Y587D02*
X842Y587D01*
X1775Y587D02*
X1795Y587D01*
X1823Y587D02*
X1844Y587D01*
X773Y586D02*
X793Y586D01*
X822Y586D02*
X843Y586D01*
X1774Y586D02*
X1795Y586D01*
X1824Y586D02*
X1844Y586D01*
X772Y585D02*
X792Y585D01*
X823Y585D02*
X843Y585D01*
X1774Y585D02*
X1794Y585D01*
X1824Y585D02*
X1844Y585D01*
X772Y584D02*
X792Y584D01*
X824Y584D02*
X843Y584D01*
X1774Y584D02*
X1793Y584D01*
X1825Y584D02*
X1844Y584D01*
X772Y583D02*
X791Y583D01*
X824Y583D02*
X843Y583D01*
X1773Y583D02*
X1793Y583D01*
X1826Y583D02*
X1845Y583D01*
X772Y582D02*
X791Y582D01*
X825Y582D02*
X844Y582D01*
X1773Y582D02*
X1792Y582D01*
X1826Y582D02*
X1845Y582D01*
X772Y581D02*
X790Y581D01*
X825Y581D02*
X844Y581D01*
X1773Y581D02*
X1792Y581D01*
X1826Y581D02*
X1845Y581D01*
X771Y580D02*
X790Y580D01*
X825Y580D02*
X844Y580D01*
X1773Y580D02*
X1792Y580D01*
X1827Y580D02*
X1845Y580D01*
X771Y579D02*
X790Y579D01*
X825Y579D02*
X844Y579D01*
X1773Y579D02*
X1791Y579D01*
X1827Y579D02*
X1845Y579D01*
X771Y578D02*
X790Y578D01*
X825Y578D02*
X844Y578D01*
X1773Y578D02*
X1791Y578D01*
X1827Y578D02*
X1845Y578D01*
X771Y577D02*
X790Y577D01*
X826Y577D02*
X844Y577D01*
X1773Y577D02*
X1791Y577D01*
X1827Y577D02*
X1846Y577D01*
X771Y576D02*
X790Y576D01*
X826Y576D02*
X844Y576D01*
X1773Y576D02*
X1791Y576D01*
X1827Y576D02*
X1846Y576D01*
X771Y575D02*
X790Y575D01*
X826Y575D02*
X844Y575D01*
X1773Y575D02*
X1791Y575D01*
X1827Y575D02*
X1846Y575D01*
X771Y574D02*
X790Y574D01*
X826Y574D02*
X844Y574D01*
X1773Y574D02*
X1791Y574D01*
X1827Y574D02*
X1846Y574D01*
X771Y573D02*
X790Y573D01*
X825Y573D02*
X844Y573D01*
X1773Y573D02*
X1791Y573D01*
X1827Y573D02*
X1845Y573D01*
X771Y572D02*
X790Y572D01*
X825Y572D02*
X844Y572D01*
X1773Y572D02*
X1791Y572D01*
X1827Y572D02*
X1845Y572D01*
X771Y571D02*
X790Y571D01*
X825Y571D02*
X844Y571D01*
X1773Y571D02*
X1792Y571D01*
X1827Y571D02*
X1845Y571D01*
X772Y570D02*
X790Y570D01*
X825Y570D02*
X844Y570D01*
X1773Y570D02*
X1792Y570D01*
X1826Y570D02*
X1845Y570D01*
X772Y569D02*
X791Y569D01*
X825Y569D02*
X843Y569D01*
X1773Y569D02*
X1792Y569D01*
X1826Y569D02*
X1845Y569D01*
X772Y568D02*
X791Y568D01*
X824Y568D02*
X843Y568D01*
X1773Y568D02*
X1793Y568D01*
X1826Y568D02*
X1845Y568D01*
X772Y567D02*
X792Y567D01*
X824Y567D02*
X843Y567D01*
X1774Y567D02*
X1793Y567D01*
X1825Y567D02*
X1844Y567D01*
X773Y566D02*
X792Y566D01*
X823Y566D02*
X843Y566D01*
X1774Y566D02*
X1794Y566D01*
X1824Y566D02*
X1844Y566D01*
X773Y565D02*
X793Y565D01*
X822Y565D02*
X842Y565D01*
X1774Y565D02*
X1795Y565D01*
X1824Y565D02*
X1844Y565D01*
X773Y564D02*
X794Y564D01*
X821Y564D02*
X842Y564D01*
X1775Y564D02*
X1795Y564D01*
X1823Y564D02*
X1844Y564D01*
X774Y563D02*
X795Y563D01*
X820Y563D02*
X842Y563D01*
X1775Y563D02*
X1796Y563D01*
X1822Y563D02*
X1843Y563D01*
X774Y562D02*
X796Y562D01*
X819Y562D02*
X841Y562D01*
X1775Y562D02*
X1798Y562D01*
X1821Y562D02*
X1843Y562D01*
X774Y561D02*
X797Y561D01*
X818Y561D02*
X841Y561D01*
X1776Y561D02*
X1799Y561D01*
X1819Y561D02*
X1842Y561D01*
X775Y560D02*
X799Y560D01*
X816Y560D02*
X841Y560D01*
X1776Y560D02*
X1800Y560D01*
X1818Y560D02*
X1842Y560D01*
X775Y559D02*
X801Y559D01*
X814Y559D02*
X840Y559D01*
X1777Y559D02*
X1803Y559D01*
X1816Y559D02*
X1841Y559D01*
X776Y558D02*
X840Y558D01*
X1777Y558D02*
X1841Y558D01*
X776Y557D02*
X839Y557D01*
X1778Y557D02*
X1840Y557D01*
X777Y556D02*
X838Y556D01*
X1778Y556D02*
X1840Y556D01*
X777Y555D02*
X838Y555D01*
X1779Y555D02*
X1839Y555D01*
X778Y554D02*
X837Y554D01*
X1780Y554D02*
X1839Y554D01*
X779Y553D02*
X836Y553D01*
X1780Y553D02*
X1838Y553D01*
X780Y552D02*
X836Y552D01*
X1781Y552D02*
X1837Y552D01*
X780Y551D02*
X835Y551D01*
X1782Y551D02*
X1836Y551D01*
X781Y550D02*
X834Y550D01*
X1783Y550D02*
X1835Y550D01*
X782Y549D02*
X833Y549D01*
X1784Y549D02*
X1834Y549D01*
X783Y548D02*
X832Y548D01*
X1785Y548D02*
X1833Y548D01*
X785Y547D02*
X831Y547D01*
X1786Y547D02*
X1832Y547D01*
X786Y546D02*
X829Y546D01*
X1787Y546D02*
X1831Y546D01*
X787Y545D02*
X828Y545D01*
X1789Y545D02*
X1829Y545D01*
X789Y544D02*
X826Y544D01*
X1791Y544D02*
X1828Y544D01*
X791Y543D02*
X824Y543D01*
X1792Y543D02*
X1826Y543D01*
X793Y542D02*
X822Y542D01*
X1794Y542D02*
X1824Y542D01*
X795Y541D02*
X820Y541D01*
X1797Y541D02*
X1821Y541D01*
X798Y540D02*
X817Y540D01*
X1800Y540D02*
X1818Y540D01*
X803Y539D02*
X812Y539D01*
X1804Y539D02*
X1814Y539D01*
X803Y512D02*
X812Y512D01*
X1804Y512D02*
X1814Y512D01*
X798Y511D02*
X817Y511D01*
X1800Y511D02*
X1818Y511D01*
X795Y510D02*
X820Y510D01*
X1797Y510D02*
X1821Y510D01*
X793Y509D02*
X822Y509D01*
X1794Y509D02*
X1824Y509D01*
X791Y508D02*
X824Y508D01*
X1792Y508D02*
X1826Y508D01*
X789Y507D02*
X826Y507D01*
X1791Y507D02*
X1828Y507D01*
X787Y506D02*
X828Y506D01*
X1789Y506D02*
X1829Y506D01*
X786Y505D02*
X829Y505D01*
X1787Y505D02*
X1831Y505D01*
X785Y504D02*
X831Y504D01*
X1786Y504D02*
X1832Y504D01*
X783Y503D02*
X832Y503D01*
X1785Y503D02*
X1833Y503D01*
X782Y502D02*
X833Y502D01*
X1784Y502D02*
X1834Y502D01*
X781Y501D02*
X834Y501D01*
X1783Y501D02*
X1835Y501D01*
X780Y500D02*
X835Y500D01*
X1782Y500D02*
X1836Y500D01*
X780Y499D02*
X836Y499D01*
X1781Y499D02*
X1837Y499D01*
X779Y498D02*
X836Y498D01*
X1780Y498D02*
X1838Y498D01*
X778Y497D02*
X837Y497D01*
X1780Y497D02*
X1839Y497D01*
X777Y496D02*
X838Y496D01*
X1779Y496D02*
X1839Y496D01*
X777Y495D02*
X838Y495D01*
X1778Y495D02*
X1840Y495D01*
X776Y494D02*
X839Y494D01*
X1778Y494D02*
X1840Y494D01*
X776Y493D02*
X840Y493D01*
X1777Y493D02*
X1841Y493D01*
X775Y492D02*
X801Y492D01*
X814Y492D02*
X840Y492D01*
X1777Y492D02*
X1802Y492D01*
X1816Y492D02*
X1841Y492D01*
X775Y491D02*
X799Y491D01*
X816Y491D02*
X841Y491D01*
X1776Y491D02*
X1800Y491D01*
X1818Y491D02*
X1842Y491D01*
X774Y490D02*
X797Y490D01*
X818Y490D02*
X841Y490D01*
X1776Y490D02*
X1799Y490D01*
X1819Y490D02*
X1842Y490D01*
X774Y489D02*
X796Y489D01*
X819Y489D02*
X841Y489D01*
X1775Y489D02*
X1798Y489D01*
X1821Y489D02*
X1843Y489D01*
X773Y488D02*
X795Y488D01*
X820Y488D02*
X842Y488D01*
X1775Y488D02*
X1796Y488D01*
X1822Y488D02*
X1843Y488D01*
X773Y487D02*
X794Y487D01*
X821Y487D02*
X842Y487D01*
X1775Y487D02*
X1795Y487D01*
X1823Y487D02*
X1844Y487D01*
X773Y486D02*
X793Y486D01*
X822Y486D02*
X842Y486D01*
X1774Y486D02*
X1795Y486D01*
X1824Y486D02*
X1844Y486D01*
X773Y485D02*
X792Y485D01*
X823Y485D02*
X843Y485D01*
X1774Y485D02*
X1794Y485D01*
X1824Y485D02*
X1844Y485D01*
X772Y484D02*
X792Y484D01*
X824Y484D02*
X843Y484D01*
X1774Y484D02*
X1793Y484D01*
X1825Y484D02*
X1844Y484D01*
X772Y483D02*
X791Y483D01*
X824Y483D02*
X843Y483D01*
X1773Y483D02*
X1793Y483D01*
X1826Y483D02*
X1845Y483D01*
X772Y482D02*
X791Y482D01*
X825Y482D02*
X843Y482D01*
X1773Y482D02*
X1792Y482D01*
X1826Y482D02*
X1845Y482D01*
X772Y481D02*
X790Y481D01*
X825Y481D02*
X844Y481D01*
X1773Y481D02*
X1792Y481D01*
X1826Y481D02*
X1845Y481D01*
X771Y480D02*
X790Y480D01*
X825Y480D02*
X844Y480D01*
X1773Y480D02*
X1792Y480D01*
X1827Y480D02*
X1845Y480D01*
X771Y479D02*
X790Y479D01*
X825Y479D02*
X844Y479D01*
X1773Y479D02*
X1791Y479D01*
X1827Y479D02*
X1845Y479D01*
X771Y478D02*
X790Y478D01*
X825Y478D02*
X844Y478D01*
X1773Y478D02*
X1791Y478D01*
X1827Y478D02*
X1845Y478D01*
X771Y477D02*
X790Y477D01*
X826Y477D02*
X844Y477D01*
X1773Y477D02*
X1791Y477D01*
X1827Y477D02*
X1846Y477D01*
X771Y476D02*
X790Y476D01*
X826Y476D02*
X844Y476D01*
X1773Y476D02*
X1791Y476D01*
X1827Y476D02*
X1846Y476D01*
X771Y475D02*
X790Y475D01*
X826Y475D02*
X844Y475D01*
X1773Y475D02*
X1791Y475D01*
X1827Y475D02*
X1846Y475D01*
X771Y474D02*
X790Y474D01*
X826Y474D02*
X844Y474D01*
X1773Y474D02*
X1791Y474D01*
X1827Y474D02*
X1846Y474D01*
X771Y473D02*
X790Y473D01*
X825Y473D02*
X844Y473D01*
X1773Y473D02*
X1791Y473D01*
X1827Y473D02*
X1845Y473D01*
X771Y472D02*
X790Y472D01*
X825Y472D02*
X844Y472D01*
X1773Y472D02*
X1791Y472D01*
X1827Y472D02*
X1845Y472D01*
X771Y471D02*
X790Y471D01*
X825Y471D02*
X844Y471D01*
X1773Y471D02*
X1792Y471D01*
X1827Y471D02*
X1845Y471D01*
X772Y470D02*
X790Y470D01*
X825Y470D02*
X844Y470D01*
X1773Y470D02*
X1792Y470D01*
X1826Y470D02*
X1845Y470D01*
X772Y469D02*
X791Y469D01*
X825Y469D02*
X844Y469D01*
X1773Y469D02*
X1792Y469D01*
X1826Y469D02*
X1845Y469D01*
X772Y468D02*
X791Y468D01*
X824Y468D02*
X843Y468D01*
X1773Y468D02*
X1793Y468D01*
X1826Y468D02*
X1845Y468D01*
X772Y467D02*
X792Y467D01*
X824Y467D02*
X843Y467D01*
X1774Y467D02*
X1793Y467D01*
X1825Y467D02*
X1844Y467D01*
X772Y466D02*
X792Y466D01*
X823Y466D02*
X843Y466D01*
X1774Y466D02*
X1794Y466D01*
X1824Y466D02*
X1844Y466D01*
X773Y465D02*
X793Y465D01*
X822Y465D02*
X843Y465D01*
X1774Y465D02*
X1795Y465D01*
X1824Y465D02*
X1844Y465D01*
X773Y464D02*
X794Y464D01*
X821Y464D02*
X842Y464D01*
X1775Y464D02*
X1795Y464D01*
X1823Y464D02*
X1844Y464D01*
X773Y463D02*
X795Y463D01*
X820Y463D02*
X842Y463D01*
X1775Y463D02*
X1796Y463D01*
X1822Y463D02*
X1843Y463D01*
X774Y462D02*
X796Y462D01*
X819Y462D02*
X841Y462D01*
X1775Y462D02*
X1797Y462D01*
X1821Y462D02*
X1843Y462D01*
X774Y461D02*
X797Y461D01*
X818Y461D02*
X841Y461D01*
X1776Y461D02*
X1799Y461D01*
X1820Y461D02*
X1842Y461D01*
X775Y460D02*
X799Y460D01*
X817Y460D02*
X841Y460D01*
X1776Y460D02*
X1800Y460D01*
X1818Y460D02*
X1842Y460D01*
X775Y459D02*
X801Y459D01*
X815Y459D02*
X840Y459D01*
X1777Y459D02*
X1802Y459D01*
X1816Y459D02*
X1842Y459D01*
X776Y458D02*
X806Y458D01*
X809Y458D02*
X840Y458D01*
X1777Y458D02*
X1808Y458D01*
X1811Y458D02*
X1841Y458D01*
X776Y457D02*
X839Y457D01*
X1778Y457D02*
X1841Y457D01*
X777Y456D02*
X838Y456D01*
X1778Y456D02*
X1840Y456D01*
X777Y455D02*
X838Y455D01*
X1779Y455D02*
X1839Y455D01*
X778Y454D02*
X837Y454D01*
X1780Y454D02*
X1839Y454D01*
X779Y453D02*
X836Y453D01*
X1780Y453D02*
X1838Y453D01*
X780Y452D02*
X836Y452D01*
X1781Y452D02*
X1837Y452D01*
X780Y451D02*
X835Y451D01*
X1782Y451D02*
X1836Y451D01*
X781Y450D02*
X834Y450D01*
X1783Y450D02*
X1835Y450D01*
X782Y449D02*
X833Y449D01*
X1784Y449D02*
X1834Y449D01*
X783Y448D02*
X832Y448D01*
X1785Y448D02*
X1833Y448D01*
X784Y447D02*
X831Y447D01*
X1786Y447D02*
X1832Y447D01*
X786Y446D02*
X829Y446D01*
X1787Y446D02*
X1831Y446D01*
X787Y445D02*
X828Y445D01*
X1789Y445D02*
X1829Y445D01*
X789Y444D02*
X826Y444D01*
X1790Y444D02*
X1828Y444D01*
X791Y443D02*
X825Y443D01*
X1792Y443D02*
X1826Y443D01*
X793Y442D02*
X823Y442D01*
X1794Y442D02*
X1824Y442D01*
X795Y441D02*
X820Y441D01*
X1797Y441D02*
X1822Y441D01*
X798Y440D02*
X817Y440D01*
X1799Y440D02*
X1819Y440D01*
X802Y439D02*
X813Y439D01*
X1804Y439D02*
X1814Y439D01*
X803Y412D02*
X812Y412D01*
X1805Y412D02*
X1813Y412D01*
X799Y411D02*
X816Y411D01*
X1800Y411D02*
X1818Y411D01*
X796Y410D02*
X820Y410D01*
X1797Y410D02*
X1821Y410D01*
X793Y409D02*
X822Y409D01*
X1795Y409D02*
X1824Y409D01*
X791Y408D02*
X824Y408D01*
X1793Y408D02*
X1826Y408D01*
X789Y407D02*
X826Y407D01*
X1791Y407D02*
X1827Y407D01*
X788Y406D02*
X828Y406D01*
X1789Y406D02*
X1829Y406D01*
X786Y405D02*
X829Y405D01*
X1788Y405D02*
X1831Y405D01*
X785Y404D02*
X831Y404D01*
X1786Y404D02*
X1832Y404D01*
X784Y403D02*
X832Y403D01*
X1785Y403D02*
X1833Y403D01*
X782Y402D02*
X833Y402D01*
X1784Y402D02*
X1834Y402D01*
X781Y401D02*
X834Y401D01*
X1783Y401D02*
X1835Y401D01*
X781Y400D02*
X835Y400D01*
X1782Y400D02*
X1836Y400D01*
X780Y399D02*
X836Y399D01*
X1781Y399D02*
X1837Y399D01*
X779Y398D02*
X836Y398D01*
X1780Y398D02*
X1838Y398D01*
X778Y397D02*
X837Y397D01*
X1780Y397D02*
X1838Y397D01*
X778Y396D02*
X838Y396D01*
X1779Y396D02*
X1839Y396D01*
X777Y395D02*
X838Y395D01*
X1778Y395D02*
X1840Y395D01*
X776Y394D02*
X839Y394D01*
X1778Y394D02*
X1840Y394D01*
X776Y393D02*
X840Y393D01*
X1777Y393D02*
X1841Y393D01*
X775Y392D02*
X801Y392D01*
X814Y392D02*
X840Y392D01*
X1777Y392D02*
X1803Y392D01*
X1815Y392D02*
X1841Y392D01*
X775Y391D02*
X799Y391D01*
X816Y391D02*
X840Y391D01*
X1776Y391D02*
X1801Y391D01*
X1818Y391D02*
X1842Y391D01*
X774Y390D02*
X797Y390D01*
X818Y390D02*
X841Y390D01*
X1776Y390D02*
X1799Y390D01*
X1819Y390D02*
X1842Y390D01*
X774Y389D02*
X796Y389D01*
X819Y389D02*
X841Y389D01*
X1775Y389D02*
X1798Y389D01*
X1820Y389D02*
X1843Y389D01*
X774Y388D02*
X795Y388D01*
X820Y388D02*
X842Y388D01*
X1775Y388D02*
X1797Y388D01*
X1822Y388D02*
X1843Y388D01*
X773Y387D02*
X794Y387D01*
X821Y387D02*
X842Y387D01*
X1775Y387D02*
X1796Y387D01*
X1823Y387D02*
X1844Y387D01*
X773Y386D02*
X793Y386D01*
X822Y386D02*
X842Y386D01*
X1774Y386D02*
X1795Y386D01*
X1823Y386D02*
X1844Y386D01*
X773Y385D02*
X792Y385D01*
X823Y385D02*
X843Y385D01*
X1774Y385D02*
X1794Y385D01*
X1824Y385D02*
X1844Y385D01*
X772Y384D02*
X792Y384D01*
X823Y384D02*
X843Y384D01*
X1774Y384D02*
X1793Y384D01*
X1825Y384D02*
X1844Y384D01*
X772Y383D02*
X791Y383D01*
X824Y383D02*
X843Y383D01*
X1773Y383D02*
X1793Y383D01*
X1825Y383D02*
X1845Y383D01*
X772Y382D02*
X791Y382D01*
X825Y382D02*
X843Y382D01*
X1773Y382D02*
X1792Y382D01*
X1826Y382D02*
X1845Y382D01*
X772Y381D02*
X790Y381D01*
X825Y381D02*
X844Y381D01*
X1773Y381D02*
X1792Y381D01*
X1826Y381D02*
X1845Y381D01*
X771Y380D02*
X790Y380D01*
X825Y380D02*
X844Y380D01*
X1773Y380D02*
X1792Y380D01*
X1827Y380D02*
X1845Y380D01*
X771Y379D02*
X790Y379D01*
X825Y379D02*
X844Y379D01*
X1773Y379D02*
X1791Y379D01*
X1827Y379D02*
X1845Y379D01*
X771Y378D02*
X790Y378D01*
X825Y378D02*
X844Y378D01*
X1773Y378D02*
X1791Y378D01*
X1827Y378D02*
X1845Y378D01*
X771Y377D02*
X790Y377D01*
X826Y377D02*
X844Y377D01*
X1773Y377D02*
X1791Y377D01*
X1827Y377D02*
X1846Y377D01*
X771Y376D02*
X790Y376D01*
X826Y376D02*
X844Y376D01*
X1773Y376D02*
X1791Y376D01*
X1827Y376D02*
X1846Y376D01*
X771Y375D02*
X790Y375D01*
X826Y375D02*
X844Y375D01*
X1773Y375D02*
X1791Y375D01*
X1827Y375D02*
X1846Y375D01*
X771Y374D02*
X790Y374D01*
X826Y374D02*
X844Y374D01*
X1773Y374D02*
X1791Y374D01*
X1827Y374D02*
X1846Y374D01*
X771Y373D02*
X790Y373D01*
X825Y373D02*
X844Y373D01*
X1773Y373D02*
X1791Y373D01*
X1827Y373D02*
X1845Y373D01*
X771Y372D02*
X790Y372D01*
X825Y372D02*
X844Y372D01*
X1773Y372D02*
X1791Y372D01*
X1827Y372D02*
X1845Y372D01*
X771Y371D02*
X790Y371D01*
X825Y371D02*
X844Y371D01*
X1773Y371D02*
X1792Y371D01*
X1827Y371D02*
X1845Y371D01*
X772Y370D02*
X790Y370D01*
X825Y370D02*
X844Y370D01*
X1773Y370D02*
X1792Y370D01*
X1826Y370D02*
X1845Y370D01*
X772Y369D02*
X791Y369D01*
X825Y369D02*
X844Y369D01*
X1773Y369D02*
X1792Y369D01*
X1826Y369D02*
X1845Y369D01*
X772Y368D02*
X791Y368D01*
X824Y368D02*
X843Y368D01*
X1773Y368D02*
X1793Y368D01*
X1826Y368D02*
X1845Y368D01*
X772Y367D02*
X792Y367D01*
X824Y367D02*
X843Y367D01*
X1774Y367D02*
X1793Y367D01*
X1825Y367D02*
X1845Y367D01*
X772Y366D02*
X792Y366D01*
X823Y366D02*
X843Y366D01*
X1774Y366D02*
X1794Y366D01*
X1824Y366D02*
X1844Y366D01*
X773Y365D02*
X793Y365D01*
X822Y365D02*
X843Y365D01*
X1774Y365D02*
X1794Y365D01*
X1824Y365D02*
X1844Y365D01*
X773Y364D02*
X794Y364D01*
X821Y364D02*
X842Y364D01*
X1775Y364D02*
X1795Y364D01*
X1823Y364D02*
X1844Y364D01*
X773Y363D02*
X795Y363D01*
X821Y363D02*
X842Y363D01*
X1775Y363D02*
X1796Y363D01*
X1822Y363D02*
X1843Y363D01*
X774Y362D02*
X796Y362D01*
X819Y362D02*
X841Y362D01*
X1775Y362D02*
X1797Y362D01*
X1821Y362D02*
X1843Y362D01*
X774Y361D02*
X797Y361D01*
X818Y361D02*
X841Y361D01*
X1776Y361D02*
X1798Y361D01*
X1820Y361D02*
X1843Y361D01*
X775Y360D02*
X799Y360D01*
X817Y360D02*
X841Y360D01*
X1776Y360D02*
X1800Y360D01*
X1818Y360D02*
X1842Y360D01*
X775Y359D02*
X800Y359D01*
X815Y359D02*
X840Y359D01*
X1777Y359D02*
X1802Y359D01*
X1816Y359D02*
X1842Y359D01*
X776Y358D02*
X805Y358D01*
X810Y358D02*
X840Y358D01*
X1777Y358D02*
X1806Y358D01*
X1812Y358D02*
X1841Y358D01*
X776Y357D02*
X839Y357D01*
X1778Y357D02*
X1841Y357D01*
X777Y356D02*
X839Y356D01*
X1778Y356D02*
X1840Y356D01*
X777Y355D02*
X838Y355D01*
X1779Y355D02*
X1839Y355D01*
X778Y354D02*
X837Y354D01*
X1779Y354D02*
X1839Y354D01*
X779Y353D02*
X837Y353D01*
X1780Y353D02*
X1838Y353D01*
X779Y352D02*
X836Y352D01*
X1781Y352D02*
X1837Y352D01*
X780Y351D02*
X835Y351D01*
X1782Y351D02*
X1836Y351D01*
X781Y350D02*
X834Y350D01*
X1783Y350D02*
X1836Y350D01*
X782Y349D02*
X833Y349D01*
X1784Y349D02*
X1835Y349D01*
X783Y348D02*
X832Y348D01*
X1785Y348D02*
X1834Y348D01*
X784Y347D02*
X831Y347D01*
X1786Y347D02*
X1832Y347D01*
X786Y346D02*
X830Y346D01*
X1787Y346D02*
X1831Y346D01*
X787Y345D02*
X828Y345D01*
X1789Y345D02*
X1830Y345D01*
X789Y344D02*
X827Y344D01*
X1790Y344D02*
X1828Y344D01*
X790Y343D02*
X825Y343D01*
X1792Y343D02*
X1826Y343D01*
X792Y342D02*
X823Y342D01*
X1794Y342D02*
X1824Y342D01*
X795Y341D02*
X820Y341D01*
X1796Y341D02*
X1822Y341D01*
X798Y340D02*
X818Y340D01*
X1799Y340D02*
X1819Y340D01*
X802Y339D02*
X814Y339D01*
X1803Y339D02*
X1815Y339D01*
X804Y312D02*
X811Y312D01*
X1806Y312D02*
X1813Y312D01*
X799Y311D02*
X816Y311D01*
X1801Y311D02*
X1818Y311D01*
X796Y310D02*
X819Y310D01*
X1797Y310D02*
X1821Y310D01*
X793Y309D02*
X822Y309D01*
X1795Y309D02*
X1823Y309D01*
X791Y308D02*
X824Y308D01*
X1793Y308D02*
X1825Y308D01*
X789Y307D02*
X826Y307D01*
X1791Y307D02*
X1827Y307D01*
X788Y306D02*
X828Y306D01*
X1789Y306D02*
X1829Y306D01*
X786Y305D02*
X829Y305D01*
X1788Y305D02*
X1830Y305D01*
X785Y304D02*
X830Y304D01*
X1786Y304D02*
X1832Y304D01*
X784Y303D02*
X832Y303D01*
X1785Y303D02*
X1833Y303D01*
X783Y302D02*
X833Y302D01*
X1784Y302D02*
X1834Y302D01*
X782Y301D02*
X834Y301D01*
X1783Y301D02*
X1835Y301D01*
X781Y300D02*
X835Y300D01*
X1782Y300D02*
X1836Y300D01*
X780Y299D02*
X835Y299D01*
X1781Y299D02*
X1837Y299D01*
X779Y298D02*
X836Y298D01*
X1780Y298D02*
X1838Y298D01*
X778Y297D02*
X837Y297D01*
X1780Y297D02*
X1838Y297D01*
X778Y296D02*
X838Y296D01*
X1779Y296D02*
X1839Y296D01*
X777Y295D02*
X838Y295D01*
X1778Y295D02*
X1840Y295D01*
X776Y294D02*
X839Y294D01*
X1778Y294D02*
X1840Y294D01*
X776Y293D02*
X839Y293D01*
X1777Y293D02*
X1841Y293D01*
X775Y292D02*
X802Y292D01*
X813Y292D02*
X840Y292D01*
X1777Y292D02*
X1803Y292D01*
X1815Y292D02*
X1841Y292D01*
X775Y291D02*
X799Y291D01*
X816Y291D02*
X840Y291D01*
X1776Y291D02*
X1801Y291D01*
X1817Y291D02*
X1842Y291D01*
X774Y290D02*
X798Y290D01*
X818Y290D02*
X841Y290D01*
X1776Y290D02*
X1799Y290D01*
X1819Y290D02*
X1842Y290D01*
X774Y289D02*
X796Y289D01*
X819Y289D02*
X841Y289D01*
X1775Y289D02*
X1798Y289D01*
X1820Y289D02*
X1843Y289D01*
X774Y288D02*
X795Y288D01*
X820Y288D02*
X842Y288D01*
X1775Y288D02*
X1797Y288D01*
X1822Y288D02*
X1843Y288D01*
X773Y287D02*
X794Y287D01*
X821Y287D02*
X842Y287D01*
X1775Y287D02*
X1796Y287D01*
X1822Y287D02*
X1844Y287D01*
X773Y286D02*
X793Y286D01*
X822Y286D02*
X842Y286D01*
X1774Y286D02*
X1795Y286D01*
X1823Y286D02*
X1844Y286D01*
X773Y285D02*
X792Y285D01*
X823Y285D02*
X843Y285D01*
X1774Y285D02*
X1794Y285D01*
X1824Y285D02*
X1844Y285D01*
X772Y284D02*
X792Y284D01*
X823Y284D02*
X843Y284D01*
X1774Y284D02*
X1793Y284D01*
X1825Y284D02*
X1844Y284D01*
X772Y283D02*
X791Y283D01*
X824Y283D02*
X843Y283D01*
X1773Y283D02*
X1793Y283D01*
X1825Y283D02*
X1845Y283D01*
X772Y282D02*
X791Y282D01*
X824Y282D02*
X843Y282D01*
X1773Y282D02*
X1792Y282D01*
X1826Y282D02*
X1845Y282D01*
X772Y281D02*
X790Y281D01*
X825Y281D02*
X844Y281D01*
X1773Y281D02*
X1792Y281D01*
X1826Y281D02*
X1845Y281D01*
X771Y280D02*
X790Y280D01*
X825Y280D02*
X844Y280D01*
X1773Y280D02*
X1792Y280D01*
X1827Y280D02*
X1845Y280D01*
X771Y279D02*
X790Y279D01*
X825Y279D02*
X844Y279D01*
X1773Y279D02*
X1791Y279D01*
X1827Y279D02*
X1845Y279D01*
X771Y278D02*
X790Y278D01*
X825Y278D02*
X844Y278D01*
X1773Y278D02*
X1791Y278D01*
X1827Y278D02*
X1845Y278D01*
X771Y277D02*
X790Y277D01*
X826Y277D02*
X844Y277D01*
X1773Y277D02*
X1791Y277D01*
X1827Y277D02*
X1846Y277D01*
X771Y276D02*
X790Y276D01*
X826Y276D02*
X844Y276D01*
X1773Y276D02*
X1791Y276D01*
X1827Y276D02*
X1846Y276D01*
X771Y275D02*
X790Y275D01*
X826Y275D02*
X844Y275D01*
X1773Y275D02*
X1791Y275D01*
X1827Y275D02*
X1846Y275D01*
X771Y274D02*
X790Y274D01*
X826Y274D02*
X844Y274D01*
X1773Y274D02*
X1791Y274D01*
X1827Y274D02*
X1846Y274D01*
X771Y273D02*
X790Y273D01*
X825Y273D02*
X844Y273D01*
X1773Y273D02*
X1791Y273D01*
X1827Y273D02*
X1845Y273D01*
X771Y272D02*
X790Y272D01*
X825Y272D02*
X844Y272D01*
X1773Y272D02*
X1791Y272D01*
X1827Y272D02*
X1845Y272D01*
X771Y271D02*
X790Y271D01*
X825Y271D02*
X844Y271D01*
X1773Y271D02*
X1791Y271D01*
X1827Y271D02*
X1845Y271D01*
X772Y270D02*
X790Y270D01*
X825Y270D02*
X844Y270D01*
X1773Y270D02*
X1792Y270D01*
X1826Y270D02*
X1845Y270D01*
X772Y269D02*
X791Y269D01*
X825Y269D02*
X844Y269D01*
X1773Y269D02*
X1792Y269D01*
X1826Y269D02*
X1845Y269D01*
X772Y268D02*
X791Y268D01*
X824Y268D02*
X843Y268D01*
X1773Y268D02*
X1792Y268D01*
X1826Y268D02*
X1845Y268D01*
X772Y267D02*
X792Y267D01*
X824Y267D02*
X843Y267D01*
X1774Y267D02*
X1793Y267D01*
X1825Y267D02*
X1845Y267D01*
X772Y266D02*
X792Y266D01*
X823Y266D02*
X843Y266D01*
X1774Y266D02*
X1794Y266D01*
X1825Y266D02*
X1844Y266D01*
X773Y265D02*
X793Y265D01*
X822Y265D02*
X843Y265D01*
X1774Y265D02*
X1794Y265D01*
X1824Y265D02*
X1844Y265D01*
X773Y264D02*
X794Y264D01*
X822Y264D02*
X842Y264D01*
X1774Y264D02*
X1795Y264D01*
X1823Y264D02*
X1844Y264D01*
X773Y263D02*
X795Y263D01*
X821Y263D02*
X842Y263D01*
X1775Y263D02*
X1796Y263D01*
X1822Y263D02*
X1843Y263D01*
X774Y262D02*
X796Y262D01*
X820Y262D02*
X842Y262D01*
X1775Y262D02*
X1797Y262D01*
X1821Y262D02*
X1843Y262D01*
X774Y261D02*
X797Y261D01*
X818Y261D02*
X841Y261D01*
X1776Y261D02*
X1798Y261D01*
X1820Y261D02*
X1843Y261D01*
X775Y260D02*
X798Y260D01*
X817Y260D02*
X841Y260D01*
X1776Y260D02*
X1800Y260D01*
X1818Y260D02*
X1842Y260D01*
X775Y259D02*
X800Y259D01*
X815Y259D02*
X840Y259D01*
X1777Y259D02*
X1802Y259D01*
X1817Y259D02*
X1842Y259D01*
X776Y258D02*
X804Y258D01*
X812Y258D02*
X840Y258D01*
X1777Y258D02*
X1805Y258D01*
X1813Y258D02*
X1841Y258D01*
X776Y257D02*
X839Y257D01*
X1778Y257D02*
X1841Y257D01*
X777Y256D02*
X839Y256D01*
X1778Y256D02*
X1840Y256D01*
X777Y255D02*
X838Y255D01*
X1779Y255D02*
X1839Y255D01*
X778Y254D02*
X837Y254D01*
X1779Y254D02*
X1839Y254D01*
X779Y253D02*
X837Y253D01*
X1780Y253D02*
X1838Y253D01*
X779Y252D02*
X836Y252D01*
X1781Y252D02*
X1837Y252D01*
X780Y251D02*
X835Y251D01*
X1782Y251D02*
X1837Y251D01*
X781Y250D02*
X834Y250D01*
X1783Y250D02*
X1836Y250D01*
X782Y249D02*
X833Y249D01*
X1783Y249D02*
X1835Y249D01*
X783Y248D02*
X832Y248D01*
X1785Y248D02*
X1834Y248D01*
X784Y247D02*
X831Y247D01*
X1786Y247D02*
X1833Y247D01*
X786Y246D02*
X830Y246D01*
X1787Y246D02*
X1831Y246D01*
X787Y245D02*
X828Y245D01*
X1788Y245D02*
X1830Y245D01*
X789Y244D02*
X827Y244D01*
X1790Y244D02*
X1828Y244D01*
X790Y243D02*
X825Y243D01*
X1792Y243D02*
X1826Y243D01*
X792Y242D02*
X823Y242D01*
X1794Y242D02*
X1824Y242D01*
X795Y241D02*
X821Y241D01*
X1796Y241D02*
X1822Y241D01*
X797Y240D02*
X818Y240D01*
X1799Y240D02*
X1819Y240D01*
X801Y239D02*
X814Y239D01*
X1802Y239D02*
X1816Y239D01*
D02*
G04 End of Copper0*
M02*