G04 MADE WITH FRITZING*
G04 WWW.FRITZING.ORG*
G04 SINGLE SIDED*
G04 HOLES NOT PLATED*
G04 CONTOUR ON CENTER OF CONTOUR VECTOR*
%ASAXBY*%
%FSLAX23Y23*%
%MOIN*%
%OFA0B0*%
%SFA1.0B1.0*%
%ADD10C,0.084291*%
%ADD11C,0.088000*%
%ADD12R,0.087986X0.087944*%
%ADD13R,0.001000X0.001000*%
%LNMASK0*%
G90*
G70*
G54D10*
X107Y1576D03*
X207Y1576D03*
X308Y1576D03*
X408Y1576D03*
X509Y1576D03*
X609Y1576D03*
G54D11*
X2209Y276D03*
X2209Y176D03*
X2209Y276D03*
X2209Y176D03*
X2810Y1476D03*
X2710Y1476D03*
X2610Y1476D03*
X2510Y1476D03*
X2810Y1476D03*
X2710Y1476D03*
X2610Y1476D03*
X2510Y1476D03*
G54D12*
X2810Y1476D03*
X2810Y1476D03*
G54D13*
X800Y1718D02*
X815Y1718D01*
X1802Y1718D02*
X1816Y1718D01*
X796Y1717D02*
X819Y1717D01*
X1798Y1717D02*
X1821Y1717D01*
X793Y1716D02*
X822Y1716D01*
X1795Y1716D02*
X1824Y1716D01*
X791Y1715D02*
X825Y1715D01*
X1792Y1715D02*
X1826Y1715D01*
X789Y1714D02*
X827Y1714D01*
X1790Y1714D02*
X1828Y1714D01*
X787Y1713D02*
X828Y1713D01*
X1788Y1713D02*
X1830Y1713D01*
X785Y1712D02*
X830Y1712D01*
X1787Y1712D02*
X1831Y1712D01*
X784Y1711D02*
X831Y1711D01*
X1785Y1711D02*
X1833Y1711D01*
X783Y1710D02*
X833Y1710D01*
X1784Y1710D02*
X1834Y1710D01*
X781Y1709D02*
X834Y1709D01*
X1783Y1709D02*
X1836Y1709D01*
X780Y1708D02*
X835Y1708D01*
X1782Y1708D02*
X1837Y1708D01*
X779Y1707D02*
X836Y1707D01*
X1780Y1707D02*
X1838Y1707D01*
X778Y1706D02*
X837Y1706D01*
X1779Y1706D02*
X1839Y1706D01*
X777Y1705D02*
X838Y1705D01*
X1778Y1705D02*
X1840Y1705D01*
X776Y1704D02*
X839Y1704D01*
X1778Y1704D02*
X1841Y1704D01*
X775Y1703D02*
X840Y1703D01*
X1777Y1703D02*
X1841Y1703D01*
X775Y1702D02*
X841Y1702D01*
X1776Y1702D02*
X1842Y1702D01*
X774Y1701D02*
X841Y1701D01*
X1775Y1701D02*
X1843Y1701D01*
X773Y1700D02*
X842Y1700D01*
X1775Y1700D02*
X1844Y1700D01*
X773Y1699D02*
X843Y1699D01*
X1774Y1699D02*
X1844Y1699D01*
X772Y1698D02*
X843Y1698D01*
X1773Y1698D02*
X1845Y1698D01*
X771Y1697D02*
X844Y1697D01*
X1773Y1697D02*
X1845Y1697D01*
X771Y1696D02*
X844Y1696D01*
X1772Y1696D02*
X1846Y1696D01*
X770Y1695D02*
X845Y1695D01*
X1772Y1695D02*
X1846Y1695D01*
X770Y1694D02*
X845Y1694D01*
X1771Y1694D02*
X1847Y1694D01*
X769Y1693D02*
X846Y1693D01*
X1771Y1693D02*
X1847Y1693D01*
X769Y1692D02*
X846Y1692D01*
X1770Y1692D02*
X1848Y1692D01*
X769Y1691D02*
X847Y1691D01*
X1770Y1691D02*
X1848Y1691D01*
X768Y1690D02*
X847Y1690D01*
X1770Y1690D02*
X1848Y1690D01*
X768Y1689D02*
X847Y1689D01*
X1769Y1689D02*
X1849Y1689D01*
X768Y1688D02*
X848Y1688D01*
X1769Y1688D02*
X1849Y1688D01*
X767Y1687D02*
X848Y1687D01*
X1769Y1687D02*
X1849Y1687D01*
X767Y1686D02*
X848Y1686D01*
X1769Y1686D02*
X1850Y1686D01*
X767Y1685D02*
X848Y1685D01*
X1768Y1685D02*
X1850Y1685D01*
X767Y1684D02*
X848Y1684D01*
X1768Y1684D02*
X1850Y1684D01*
X767Y1683D02*
X849Y1683D01*
X1768Y1683D02*
X1850Y1683D01*
X766Y1682D02*
X849Y1682D01*
X1768Y1682D02*
X1850Y1682D01*
X766Y1681D02*
X849Y1681D01*
X1768Y1681D02*
X1850Y1681D01*
X766Y1680D02*
X849Y1680D01*
X1768Y1680D02*
X1850Y1680D01*
X766Y1679D02*
X849Y1679D01*
X1768Y1679D02*
X1850Y1679D01*
X766Y1678D02*
X849Y1678D01*
X1768Y1678D02*
X1851Y1678D01*
X766Y1677D02*
X849Y1677D01*
X1768Y1677D02*
X1851Y1677D01*
X766Y1676D02*
X849Y1676D01*
X1768Y1676D02*
X1851Y1676D01*
X766Y1675D02*
X849Y1675D01*
X1768Y1675D02*
X1851Y1675D01*
X766Y1674D02*
X849Y1674D01*
X1768Y1674D02*
X1850Y1674D01*
X766Y1673D02*
X849Y1673D01*
X1768Y1673D02*
X1850Y1673D01*
X766Y1672D02*
X849Y1672D01*
X1768Y1672D02*
X1850Y1672D01*
X767Y1671D02*
X849Y1671D01*
X1768Y1671D02*
X1850Y1671D01*
X767Y1670D02*
X849Y1670D01*
X1768Y1670D02*
X1850Y1670D01*
X767Y1669D02*
X848Y1669D01*
X1768Y1669D02*
X1850Y1669D01*
X767Y1668D02*
X848Y1668D01*
X1769Y1668D02*
X1850Y1668D01*
X767Y1667D02*
X848Y1667D01*
X1769Y1667D02*
X1849Y1667D01*
X768Y1666D02*
X848Y1666D01*
X1769Y1666D02*
X1849Y1666D01*
X768Y1665D02*
X847Y1665D01*
X1769Y1665D02*
X1849Y1665D01*
X768Y1664D02*
X847Y1664D01*
X1770Y1664D02*
X1849Y1664D01*
X768Y1663D02*
X847Y1663D01*
X1770Y1663D02*
X1848Y1663D01*
X769Y1662D02*
X846Y1662D01*
X1770Y1662D02*
X1848Y1662D01*
X769Y1661D02*
X846Y1661D01*
X1771Y1661D02*
X1848Y1661D01*
X770Y1660D02*
X846Y1660D01*
X1771Y1660D02*
X1847Y1660D01*
X770Y1659D02*
X845Y1659D01*
X1772Y1659D02*
X1847Y1659D01*
X771Y1658D02*
X845Y1658D01*
X1772Y1658D02*
X1846Y1658D01*
X771Y1657D02*
X844Y1657D01*
X1773Y1657D02*
X1846Y1657D01*
X772Y1656D02*
X844Y1656D01*
X1773Y1656D02*
X1845Y1656D01*
X772Y1655D02*
X843Y1655D01*
X1774Y1655D02*
X1844Y1655D01*
X773Y1654D02*
X842Y1654D01*
X1774Y1654D02*
X1844Y1654D01*
X774Y1653D02*
X842Y1653D01*
X1775Y1653D02*
X1843Y1653D01*
X774Y1652D02*
X841Y1652D01*
X1776Y1652D02*
X1842Y1652D01*
X775Y1651D02*
X840Y1651D01*
X1776Y1651D02*
X1842Y1651D01*
X776Y1650D02*
X839Y1650D01*
X1777Y1650D02*
X1841Y1650D01*
X777Y1649D02*
X839Y1649D01*
X1778Y1649D02*
X1840Y1649D01*
X778Y1648D02*
X838Y1648D01*
X1779Y1648D02*
X1839Y1648D01*
X778Y1647D02*
X837Y1647D01*
X1780Y1647D02*
X1838Y1647D01*
X780Y1646D02*
X836Y1646D01*
X1781Y1646D02*
X1837Y1646D01*
X781Y1645D02*
X835Y1645D01*
X1782Y1645D02*
X1836Y1645D01*
X782Y1644D02*
X833Y1644D01*
X1783Y1644D02*
X1835Y1644D01*
X783Y1643D02*
X832Y1643D01*
X1785Y1643D02*
X1833Y1643D01*
X785Y1642D02*
X831Y1642D01*
X1786Y1642D02*
X1832Y1642D01*
X786Y1641D02*
X829Y1641D01*
X1788Y1641D02*
X1830Y1641D01*
X788Y1640D02*
X827Y1640D01*
X1789Y1640D02*
X1829Y1640D01*
X790Y1639D02*
X825Y1639D01*
X1791Y1639D02*
X1827Y1639D01*
X792Y1638D02*
X823Y1638D01*
X1793Y1638D02*
X1825Y1638D01*
X795Y1637D02*
X821Y1637D01*
X1796Y1637D02*
X1822Y1637D01*
X798Y1636D02*
X817Y1636D01*
X1800Y1636D02*
X1818Y1636D01*
X804Y1635D02*
X811Y1635D01*
X1805Y1635D02*
X1813Y1635D01*
X801Y1618D02*
X814Y1618D01*
X1802Y1618D02*
X1816Y1618D01*
X797Y1617D02*
X819Y1617D01*
X1798Y1617D02*
X1820Y1617D01*
X793Y1616D02*
X822Y1616D01*
X1795Y1616D02*
X1823Y1616D01*
X791Y1615D02*
X824Y1615D01*
X1792Y1615D02*
X1826Y1615D01*
X789Y1614D02*
X826Y1614D01*
X1790Y1614D02*
X1828Y1614D01*
X787Y1613D02*
X828Y1613D01*
X1789Y1613D02*
X1830Y1613D01*
X786Y1612D02*
X830Y1612D01*
X1787Y1612D02*
X1831Y1612D01*
X784Y1611D02*
X831Y1611D01*
X1785Y1611D02*
X1833Y1611D01*
X783Y1610D02*
X833Y1610D01*
X1784Y1610D02*
X1834Y1610D01*
X781Y1609D02*
X834Y1609D01*
X1783Y1609D02*
X1835Y1609D01*
X780Y1608D02*
X835Y1608D01*
X1782Y1608D02*
X1837Y1608D01*
X779Y1607D02*
X836Y1607D01*
X1781Y1607D02*
X1838Y1607D01*
X778Y1606D02*
X837Y1606D01*
X1779Y1606D02*
X1839Y1606D01*
X777Y1605D02*
X838Y1605D01*
X1779Y1605D02*
X1840Y1605D01*
X776Y1604D02*
X839Y1604D01*
X1778Y1604D02*
X1840Y1604D01*
X775Y1603D02*
X840Y1603D01*
X1777Y1603D02*
X1841Y1603D01*
X775Y1602D02*
X841Y1602D01*
X1776Y1602D02*
X1842Y1602D01*
X774Y1601D02*
X841Y1601D01*
X1775Y1601D02*
X1843Y1601D01*
X773Y1600D02*
X842Y1600D01*
X1775Y1600D02*
X1843Y1600D01*
X773Y1599D02*
X843Y1599D01*
X1774Y1599D02*
X1844Y1599D01*
X772Y1598D02*
X843Y1598D01*
X1773Y1598D02*
X1845Y1598D01*
X771Y1597D02*
X844Y1597D01*
X1773Y1597D02*
X1845Y1597D01*
X771Y1596D02*
X844Y1596D01*
X1772Y1596D02*
X1846Y1596D01*
X770Y1595D02*
X845Y1595D01*
X1772Y1595D02*
X1846Y1595D01*
X770Y1594D02*
X845Y1594D01*
X1771Y1594D02*
X1847Y1594D01*
X769Y1593D02*
X846Y1593D01*
X1771Y1593D02*
X1847Y1593D01*
X769Y1592D02*
X846Y1592D01*
X1770Y1592D02*
X1848Y1592D01*
X769Y1591D02*
X847Y1591D01*
X1770Y1591D02*
X1848Y1591D01*
X768Y1590D02*
X847Y1590D01*
X1770Y1590D02*
X1848Y1590D01*
X768Y1589D02*
X847Y1589D01*
X1769Y1589D02*
X1849Y1589D01*
X768Y1588D02*
X848Y1588D01*
X1769Y1588D02*
X1849Y1588D01*
X767Y1587D02*
X848Y1587D01*
X1769Y1587D02*
X1849Y1587D01*
X767Y1586D02*
X848Y1586D01*
X1769Y1586D02*
X1849Y1586D01*
X767Y1585D02*
X848Y1585D01*
X1768Y1585D02*
X1850Y1585D01*
X767Y1584D02*
X848Y1584D01*
X1768Y1584D02*
X1850Y1584D01*
X767Y1583D02*
X849Y1583D01*
X1768Y1583D02*
X1850Y1583D01*
X767Y1582D02*
X849Y1582D01*
X1768Y1582D02*
X1850Y1582D01*
X766Y1581D02*
X849Y1581D01*
X1768Y1581D02*
X1850Y1581D01*
X766Y1580D02*
X849Y1580D01*
X1768Y1580D02*
X1850Y1580D01*
X766Y1579D02*
X849Y1579D01*
X1768Y1579D02*
X1850Y1579D01*
X766Y1578D02*
X849Y1578D01*
X1768Y1578D02*
X1851Y1578D01*
X766Y1577D02*
X849Y1577D01*
X1768Y1577D02*
X1851Y1577D01*
X766Y1576D02*
X849Y1576D01*
X1768Y1576D02*
X1851Y1576D01*
X766Y1575D02*
X849Y1575D01*
X1768Y1575D02*
X1851Y1575D01*
X766Y1574D02*
X849Y1574D01*
X1768Y1574D02*
X1850Y1574D01*
X766Y1573D02*
X849Y1573D01*
X1768Y1573D02*
X1850Y1573D01*
X766Y1572D02*
X849Y1572D01*
X1768Y1572D02*
X1850Y1572D01*
X767Y1571D02*
X849Y1571D01*
X1768Y1571D02*
X1850Y1571D01*
X767Y1570D02*
X849Y1570D01*
X1768Y1570D02*
X1850Y1570D01*
X767Y1569D02*
X848Y1569D01*
X1768Y1569D02*
X1850Y1569D01*
X767Y1568D02*
X848Y1568D01*
X1769Y1568D02*
X1850Y1568D01*
X767Y1567D02*
X848Y1567D01*
X1769Y1567D02*
X1849Y1567D01*
X768Y1566D02*
X848Y1566D01*
X1769Y1566D02*
X1849Y1566D01*
X768Y1565D02*
X847Y1565D01*
X1769Y1565D02*
X1849Y1565D01*
X768Y1564D02*
X847Y1564D01*
X1770Y1564D02*
X1849Y1564D01*
X768Y1563D02*
X847Y1563D01*
X1770Y1563D02*
X1848Y1563D01*
X769Y1562D02*
X846Y1562D01*
X1770Y1562D02*
X1848Y1562D01*
X769Y1561D02*
X846Y1561D01*
X1771Y1561D02*
X1848Y1561D01*
X770Y1560D02*
X846Y1560D01*
X1771Y1560D02*
X1847Y1560D01*
X770Y1559D02*
X845Y1559D01*
X1771Y1559D02*
X1847Y1559D01*
X771Y1558D02*
X845Y1558D01*
X1772Y1558D02*
X1846Y1558D01*
X771Y1557D02*
X844Y1557D01*
X1772Y1557D02*
X1846Y1557D01*
X772Y1556D02*
X844Y1556D01*
X1773Y1556D02*
X1845Y1556D01*
X772Y1555D02*
X843Y1555D01*
X1774Y1555D02*
X1844Y1555D01*
X773Y1554D02*
X842Y1554D01*
X1774Y1554D02*
X1844Y1554D01*
X773Y1553D02*
X842Y1553D01*
X1775Y1553D02*
X1843Y1553D01*
X774Y1552D02*
X841Y1552D01*
X1776Y1552D02*
X1843Y1552D01*
X775Y1551D02*
X840Y1551D01*
X1776Y1551D02*
X1842Y1551D01*
X776Y1550D02*
X840Y1550D01*
X1777Y1550D02*
X1841Y1550D01*
X777Y1549D02*
X839Y1549D01*
X1778Y1549D02*
X1840Y1549D01*
X777Y1548D02*
X838Y1548D01*
X1779Y1548D02*
X1839Y1548D01*
X778Y1547D02*
X837Y1547D01*
X1780Y1547D02*
X1838Y1547D01*
X779Y1546D02*
X836Y1546D01*
X1781Y1546D02*
X1837Y1546D01*
X781Y1545D02*
X835Y1545D01*
X1782Y1545D02*
X1836Y1545D01*
X782Y1544D02*
X833Y1544D01*
X1783Y1544D02*
X1835Y1544D01*
X783Y1543D02*
X832Y1543D01*
X1785Y1543D02*
X1834Y1543D01*
X784Y1542D02*
X831Y1542D01*
X1786Y1542D02*
X1832Y1542D01*
X786Y1541D02*
X829Y1541D01*
X1788Y1541D02*
X1831Y1541D01*
X788Y1540D02*
X828Y1540D01*
X1789Y1540D02*
X1829Y1540D01*
X790Y1539D02*
X826Y1539D01*
X1791Y1539D02*
X1827Y1539D01*
X792Y1538D02*
X824Y1538D01*
X1793Y1538D02*
X1825Y1538D01*
X794Y1537D02*
X821Y1537D01*
X1796Y1537D02*
X1822Y1537D01*
X798Y1536D02*
X817Y1536D01*
X1799Y1536D02*
X1819Y1536D01*
X803Y1535D02*
X812Y1535D01*
X1805Y1535D02*
X1814Y1535D01*
X802Y1518D02*
X813Y1518D01*
X1803Y1518D02*
X1815Y1518D01*
X797Y1517D02*
X818Y1517D01*
X1798Y1517D02*
X1820Y1517D01*
X794Y1516D02*
X821Y1516D01*
X1795Y1516D02*
X1823Y1516D01*
X791Y1515D02*
X824Y1515D01*
X1793Y1515D02*
X1826Y1515D01*
X789Y1514D02*
X826Y1514D01*
X1791Y1514D02*
X1828Y1514D01*
X787Y1513D02*
X828Y1513D01*
X1789Y1513D02*
X1829Y1513D01*
X786Y1512D02*
X830Y1512D01*
X1787Y1512D02*
X1831Y1512D01*
X784Y1511D02*
X831Y1511D01*
X1786Y1511D02*
X1833Y1511D01*
X783Y1510D02*
X832Y1510D01*
X1784Y1510D02*
X1834Y1510D01*
X781Y1509D02*
X834Y1509D01*
X1783Y1509D02*
X1835Y1509D01*
X780Y1508D02*
X835Y1508D01*
X1782Y1508D02*
X1836Y1508D01*
X779Y1507D02*
X836Y1507D01*
X1781Y1507D02*
X1838Y1507D01*
X778Y1506D02*
X837Y1506D01*
X1780Y1506D02*
X1839Y1506D01*
X777Y1505D02*
X838Y1505D01*
X1779Y1505D02*
X1839Y1505D01*
X776Y1504D02*
X839Y1504D01*
X1778Y1504D02*
X1840Y1504D01*
X776Y1503D02*
X840Y1503D01*
X1777Y1503D02*
X1841Y1503D01*
X775Y1502D02*
X840Y1502D01*
X1776Y1502D02*
X1842Y1502D01*
X774Y1501D02*
X841Y1501D01*
X1775Y1501D02*
X1843Y1501D01*
X773Y1500D02*
X842Y1500D01*
X1775Y1500D02*
X1843Y1500D01*
X773Y1499D02*
X843Y1499D01*
X1774Y1499D02*
X1844Y1499D01*
X772Y1498D02*
X843Y1498D01*
X1774Y1498D02*
X1845Y1498D01*
X771Y1497D02*
X844Y1497D01*
X1773Y1497D02*
X1845Y1497D01*
X771Y1496D02*
X844Y1496D01*
X1772Y1496D02*
X1846Y1496D01*
X770Y1495D02*
X845Y1495D01*
X1772Y1495D02*
X1846Y1495D01*
X770Y1494D02*
X845Y1494D01*
X1771Y1494D02*
X1847Y1494D01*
X769Y1493D02*
X846Y1493D01*
X1771Y1493D02*
X1847Y1493D01*
X769Y1492D02*
X846Y1492D01*
X1771Y1492D02*
X1848Y1492D01*
X769Y1491D02*
X847Y1491D01*
X1770Y1491D02*
X1848Y1491D01*
X768Y1490D02*
X847Y1490D01*
X1770Y1490D02*
X1848Y1490D01*
X768Y1489D02*
X847Y1489D01*
X1769Y1489D02*
X1849Y1489D01*
X768Y1488D02*
X848Y1488D01*
X1769Y1488D02*
X1849Y1488D01*
X768Y1487D02*
X848Y1487D01*
X1769Y1487D02*
X1849Y1487D01*
X767Y1486D02*
X848Y1486D01*
X1769Y1486D02*
X1849Y1486D01*
X767Y1485D02*
X848Y1485D01*
X1768Y1485D02*
X1850Y1485D01*
X767Y1484D02*
X848Y1484D01*
X1768Y1484D02*
X1850Y1484D01*
X767Y1483D02*
X849Y1483D01*
X1768Y1483D02*
X1850Y1483D01*
X767Y1482D02*
X849Y1482D01*
X1768Y1482D02*
X1850Y1482D01*
X766Y1481D02*
X849Y1481D01*
X1768Y1481D02*
X1850Y1481D01*
X766Y1480D02*
X849Y1480D01*
X1768Y1480D02*
X1850Y1480D01*
X766Y1479D02*
X849Y1479D01*
X1768Y1479D02*
X1850Y1479D01*
X766Y1478D02*
X849Y1478D01*
X1768Y1478D02*
X1851Y1478D01*
X766Y1477D02*
X849Y1477D01*
X1768Y1477D02*
X1851Y1477D01*
X766Y1476D02*
X849Y1476D01*
X1768Y1476D02*
X1851Y1476D01*
X766Y1475D02*
X849Y1475D01*
X1768Y1475D02*
X1851Y1475D01*
X766Y1474D02*
X849Y1474D01*
X1768Y1474D02*
X1850Y1474D01*
X766Y1473D02*
X849Y1473D01*
X1768Y1473D02*
X1850Y1473D01*
X766Y1472D02*
X849Y1472D01*
X1768Y1472D02*
X1850Y1472D01*
X767Y1471D02*
X849Y1471D01*
X1768Y1471D02*
X1850Y1471D01*
X767Y1470D02*
X849Y1470D01*
X1768Y1470D02*
X1850Y1470D01*
X767Y1469D02*
X848Y1469D01*
X1768Y1469D02*
X1850Y1469D01*
X767Y1468D02*
X848Y1468D01*
X1768Y1468D02*
X1850Y1468D01*
X767Y1467D02*
X848Y1467D01*
X1769Y1467D02*
X1849Y1467D01*
X768Y1466D02*
X848Y1466D01*
X1769Y1466D02*
X1849Y1466D01*
X768Y1465D02*
X847Y1465D01*
X1769Y1465D02*
X1849Y1465D01*
X768Y1464D02*
X847Y1464D01*
X1769Y1464D02*
X1849Y1464D01*
X768Y1463D02*
X847Y1463D01*
X1770Y1463D02*
X1848Y1463D01*
X769Y1462D02*
X847Y1462D01*
X1770Y1462D02*
X1848Y1462D01*
X769Y1461D02*
X846Y1461D01*
X1771Y1461D02*
X1848Y1461D01*
X769Y1460D02*
X846Y1460D01*
X1771Y1460D02*
X1847Y1460D01*
X770Y1459D02*
X845Y1459D01*
X1771Y1459D02*
X1847Y1459D01*
X770Y1458D02*
X845Y1458D01*
X1772Y1458D02*
X1846Y1458D01*
X771Y1457D02*
X844Y1457D01*
X1772Y1457D02*
X1846Y1457D01*
X772Y1456D02*
X844Y1456D01*
X1773Y1456D02*
X1845Y1456D01*
X772Y1455D02*
X843Y1455D01*
X1774Y1455D02*
X1845Y1455D01*
X773Y1454D02*
X843Y1454D01*
X1774Y1454D02*
X1844Y1454D01*
X773Y1453D02*
X842Y1453D01*
X1775Y1453D02*
X1843Y1453D01*
X774Y1452D02*
X841Y1452D01*
X1776Y1452D02*
X1843Y1452D01*
X775Y1451D02*
X840Y1451D01*
X1776Y1451D02*
X1842Y1451D01*
X776Y1450D02*
X840Y1450D01*
X1777Y1450D02*
X1841Y1450D01*
X776Y1449D02*
X839Y1449D01*
X1778Y1449D02*
X1840Y1449D01*
X777Y1448D02*
X838Y1448D01*
X1779Y1448D02*
X1839Y1448D01*
X778Y1447D02*
X837Y1447D01*
X1780Y1447D02*
X1838Y1447D01*
X779Y1446D02*
X836Y1446D01*
X1781Y1446D02*
X1837Y1446D01*
X780Y1445D02*
X835Y1445D01*
X1782Y1445D02*
X1836Y1445D01*
X782Y1444D02*
X834Y1444D01*
X1783Y1444D02*
X1835Y1444D01*
X783Y1443D02*
X832Y1443D01*
X1784Y1443D02*
X1834Y1443D01*
X784Y1442D02*
X831Y1442D01*
X1786Y1442D02*
X1832Y1442D01*
X786Y1441D02*
X829Y1441D01*
X1787Y1441D02*
X1831Y1441D01*
X788Y1440D02*
X828Y1440D01*
X1789Y1440D02*
X1829Y1440D01*
X789Y1439D02*
X826Y1439D01*
X1791Y1439D02*
X1827Y1439D01*
X791Y1438D02*
X824Y1438D01*
X1793Y1438D02*
X1825Y1438D01*
X794Y1437D02*
X821Y1437D01*
X1796Y1437D02*
X1823Y1437D01*
X797Y1436D02*
X818Y1436D01*
X1799Y1436D02*
X1819Y1436D01*
X803Y1435D02*
X813Y1435D01*
X1804Y1435D02*
X1814Y1435D01*
X802Y1418D02*
X813Y1418D01*
X1804Y1418D02*
X1814Y1418D01*
X797Y1417D02*
X818Y1417D01*
X1799Y1417D02*
X1819Y1417D01*
X794Y1416D02*
X821Y1416D01*
X1795Y1416D02*
X1823Y1416D01*
X791Y1415D02*
X824Y1415D01*
X1793Y1415D02*
X1825Y1415D01*
X789Y1414D02*
X826Y1414D01*
X1791Y1414D02*
X1827Y1414D01*
X788Y1413D02*
X828Y1413D01*
X1789Y1413D02*
X1829Y1413D01*
X786Y1412D02*
X829Y1412D01*
X1787Y1412D02*
X1831Y1412D01*
X784Y1411D02*
X831Y1411D01*
X1786Y1411D02*
X1832Y1411D01*
X783Y1410D02*
X832Y1410D01*
X1784Y1410D02*
X1834Y1410D01*
X782Y1409D02*
X834Y1409D01*
X1783Y1409D02*
X1835Y1409D01*
X780Y1408D02*
X835Y1408D01*
X1782Y1408D02*
X1836Y1408D01*
X779Y1407D02*
X836Y1407D01*
X1781Y1407D02*
X1837Y1407D01*
X778Y1406D02*
X837Y1406D01*
X1780Y1406D02*
X1838Y1406D01*
X777Y1405D02*
X838Y1405D01*
X1779Y1405D02*
X1839Y1405D01*
X776Y1404D02*
X839Y1404D01*
X1778Y1404D02*
X1840Y1404D01*
X776Y1403D02*
X840Y1403D01*
X1777Y1403D02*
X1841Y1403D01*
X775Y1402D02*
X840Y1402D01*
X1776Y1402D02*
X1842Y1402D01*
X774Y1401D02*
X841Y1401D01*
X1776Y1401D02*
X1843Y1401D01*
X773Y1400D02*
X842Y1400D01*
X1775Y1400D02*
X1843Y1400D01*
X773Y1399D02*
X843Y1399D01*
X1774Y1399D02*
X1844Y1399D01*
X772Y1398D02*
X843Y1398D01*
X1774Y1398D02*
X1845Y1398D01*
X772Y1397D02*
X844Y1397D01*
X1773Y1397D02*
X1845Y1397D01*
X771Y1396D02*
X844Y1396D01*
X1772Y1396D02*
X1846Y1396D01*
X770Y1395D02*
X845Y1395D01*
X1772Y1395D02*
X1846Y1395D01*
X770Y1394D02*
X845Y1394D01*
X1771Y1394D02*
X1847Y1394D01*
X769Y1393D02*
X846Y1393D01*
X1771Y1393D02*
X1847Y1393D01*
X769Y1392D02*
X846Y1392D01*
X1771Y1392D02*
X1848Y1392D01*
X769Y1391D02*
X847Y1391D01*
X1770Y1391D02*
X1848Y1391D01*
X768Y1390D02*
X847Y1390D01*
X1770Y1390D02*
X1848Y1390D01*
X768Y1389D02*
X847Y1389D01*
X1769Y1389D02*
X1849Y1389D01*
X768Y1388D02*
X847Y1388D01*
X1769Y1388D02*
X1849Y1388D01*
X768Y1387D02*
X848Y1387D01*
X1769Y1387D02*
X1849Y1387D01*
X767Y1386D02*
X848Y1386D01*
X1769Y1386D02*
X1849Y1386D01*
X767Y1385D02*
X848Y1385D01*
X1768Y1385D02*
X1850Y1385D01*
X767Y1384D02*
X848Y1384D01*
X1768Y1384D02*
X1850Y1384D01*
X767Y1383D02*
X849Y1383D01*
X1768Y1383D02*
X1850Y1383D01*
X767Y1382D02*
X849Y1382D01*
X1768Y1382D02*
X1850Y1382D01*
X766Y1381D02*
X849Y1381D01*
X1768Y1381D02*
X1850Y1381D01*
X766Y1380D02*
X849Y1380D01*
X1768Y1380D02*
X1850Y1380D01*
X766Y1379D02*
X849Y1379D01*
X1768Y1379D02*
X1850Y1379D01*
X766Y1378D02*
X849Y1378D01*
X1768Y1378D02*
X1851Y1378D01*
X766Y1377D02*
X849Y1377D01*
X1768Y1377D02*
X1851Y1377D01*
X766Y1376D02*
X849Y1376D01*
X1768Y1376D02*
X1851Y1376D01*
X766Y1375D02*
X849Y1375D01*
X1768Y1375D02*
X1851Y1375D01*
X766Y1374D02*
X849Y1374D01*
X1768Y1374D02*
X1850Y1374D01*
X766Y1373D02*
X849Y1373D01*
X1768Y1373D02*
X1850Y1373D01*
X766Y1372D02*
X849Y1372D01*
X1768Y1372D02*
X1850Y1372D01*
X767Y1371D02*
X849Y1371D01*
X1768Y1371D02*
X1850Y1371D01*
X767Y1370D02*
X849Y1370D01*
X1768Y1370D02*
X1850Y1370D01*
X767Y1369D02*
X848Y1369D01*
X1768Y1369D02*
X1850Y1369D01*
X767Y1368D02*
X848Y1368D01*
X1768Y1368D02*
X1850Y1368D01*
X767Y1367D02*
X848Y1367D01*
X1769Y1367D02*
X1849Y1367D01*
X768Y1366D02*
X848Y1366D01*
X1769Y1366D02*
X1849Y1366D01*
X768Y1365D02*
X848Y1365D01*
X1769Y1365D02*
X1849Y1365D01*
X768Y1364D02*
X847Y1364D01*
X1769Y1364D02*
X1849Y1364D01*
X768Y1363D02*
X847Y1363D01*
X1770Y1363D02*
X1848Y1363D01*
X769Y1362D02*
X847Y1362D01*
X1770Y1362D02*
X1848Y1362D01*
X769Y1361D02*
X846Y1361D01*
X1771Y1361D02*
X1848Y1361D01*
X769Y1360D02*
X846Y1360D01*
X1771Y1360D02*
X1847Y1360D01*
X770Y1359D02*
X845Y1359D01*
X1771Y1359D02*
X1847Y1359D01*
X770Y1358D02*
X845Y1358D01*
X1772Y1358D02*
X1846Y1358D01*
X771Y1357D02*
X844Y1357D01*
X1772Y1357D02*
X1846Y1357D01*
X771Y1356D02*
X844Y1356D01*
X1773Y1356D02*
X1845Y1356D01*
X772Y1355D02*
X843Y1355D01*
X1774Y1355D02*
X1845Y1355D01*
X773Y1354D02*
X843Y1354D01*
X1774Y1354D02*
X1844Y1354D01*
X773Y1353D02*
X842Y1353D01*
X1775Y1353D02*
X1843Y1353D01*
X774Y1352D02*
X841Y1352D01*
X1775Y1352D02*
X1843Y1352D01*
X775Y1351D02*
X840Y1351D01*
X1776Y1351D02*
X1842Y1351D01*
X776Y1350D02*
X840Y1350D01*
X1777Y1350D02*
X1841Y1350D01*
X776Y1349D02*
X839Y1349D01*
X1778Y1349D02*
X1840Y1349D01*
X777Y1348D02*
X838Y1348D01*
X1779Y1348D02*
X1839Y1348D01*
X778Y1347D02*
X837Y1347D01*
X1780Y1347D02*
X1839Y1347D01*
X779Y1346D02*
X836Y1346D01*
X1781Y1346D02*
X1838Y1346D01*
X780Y1345D02*
X835Y1345D01*
X1782Y1345D02*
X1836Y1345D01*
X781Y1344D02*
X834Y1344D01*
X1783Y1344D02*
X1835Y1344D01*
X783Y1343D02*
X832Y1343D01*
X1784Y1343D02*
X1834Y1343D01*
X784Y1342D02*
X831Y1342D01*
X1786Y1342D02*
X1833Y1342D01*
X786Y1341D02*
X830Y1341D01*
X1787Y1341D02*
X1831Y1341D01*
X787Y1340D02*
X828Y1340D01*
X1789Y1340D02*
X1829Y1340D01*
X789Y1339D02*
X826Y1339D01*
X1791Y1339D02*
X1828Y1339D01*
X791Y1338D02*
X824Y1338D01*
X1793Y1338D02*
X1826Y1338D01*
X794Y1337D02*
X821Y1337D01*
X1795Y1337D02*
X1823Y1337D01*
X797Y1336D02*
X818Y1336D01*
X1798Y1336D02*
X1820Y1336D01*
X802Y1335D02*
X813Y1335D01*
X1803Y1335D02*
X1815Y1335D01*
X803Y1318D02*
X812Y1318D01*
X1805Y1318D02*
X1814Y1318D01*
X798Y1317D02*
X817Y1317D01*
X1799Y1317D02*
X1819Y1317D01*
X794Y1316D02*
X821Y1316D01*
X1796Y1316D02*
X1822Y1316D01*
X792Y1315D02*
X824Y1315D01*
X1793Y1315D02*
X1825Y1315D01*
X790Y1314D02*
X826Y1314D01*
X1791Y1314D02*
X1827Y1314D01*
X788Y1313D02*
X828Y1313D01*
X1789Y1313D02*
X1829Y1313D01*
X786Y1312D02*
X829Y1312D01*
X1787Y1312D02*
X1831Y1312D01*
X784Y1311D02*
X831Y1311D01*
X1786Y1311D02*
X1832Y1311D01*
X783Y1310D02*
X832Y1310D01*
X1785Y1310D02*
X1834Y1310D01*
X782Y1309D02*
X834Y1309D01*
X1783Y1309D02*
X1835Y1309D01*
X781Y1308D02*
X835Y1308D01*
X1782Y1308D02*
X1836Y1308D01*
X779Y1307D02*
X836Y1307D01*
X1781Y1307D02*
X1837Y1307D01*
X778Y1306D02*
X837Y1306D01*
X1780Y1306D02*
X1838Y1306D01*
X777Y1305D02*
X838Y1305D01*
X1779Y1305D02*
X1839Y1305D01*
X777Y1304D02*
X839Y1304D01*
X1778Y1304D02*
X1840Y1304D01*
X776Y1303D02*
X840Y1303D01*
X1777Y1303D02*
X1841Y1303D01*
X775Y1302D02*
X840Y1302D01*
X1776Y1302D02*
X1842Y1302D01*
X774Y1301D02*
X841Y1301D01*
X1776Y1301D02*
X1843Y1301D01*
X773Y1300D02*
X842Y1300D01*
X1775Y1300D02*
X1843Y1300D01*
X773Y1299D02*
X842Y1299D01*
X1774Y1299D02*
X1844Y1299D01*
X772Y1298D02*
X843Y1298D01*
X1774Y1298D02*
X1845Y1298D01*
X772Y1297D02*
X844Y1297D01*
X1773Y1297D02*
X1845Y1297D01*
X771Y1296D02*
X844Y1296D01*
X1772Y1296D02*
X1846Y1296D01*
X771Y1295D02*
X845Y1295D01*
X1772Y1295D02*
X1846Y1295D01*
X770Y1294D02*
X845Y1294D01*
X1771Y1294D02*
X1847Y1294D01*
X770Y1293D02*
X846Y1293D01*
X1771Y1293D02*
X1847Y1293D01*
X769Y1292D02*
X846Y1292D01*
X1771Y1292D02*
X1848Y1292D01*
X769Y1291D02*
X846Y1291D01*
X1770Y1291D02*
X1848Y1291D01*
X768Y1290D02*
X847Y1290D01*
X1770Y1290D02*
X1848Y1290D01*
X768Y1289D02*
X847Y1289D01*
X1770Y1289D02*
X1849Y1289D01*
X768Y1288D02*
X847Y1288D01*
X1769Y1288D02*
X1849Y1288D01*
X768Y1287D02*
X848Y1287D01*
X1769Y1287D02*
X1849Y1287D01*
X767Y1286D02*
X848Y1286D01*
X1769Y1286D02*
X1849Y1286D01*
X767Y1285D02*
X848Y1285D01*
X1769Y1285D02*
X1850Y1285D01*
X767Y1284D02*
X848Y1284D01*
X1768Y1284D02*
X1850Y1284D01*
X767Y1283D02*
X849Y1283D01*
X1768Y1283D02*
X1850Y1283D01*
X767Y1282D02*
X849Y1282D01*
X1768Y1282D02*
X1850Y1282D01*
X766Y1281D02*
X849Y1281D01*
X1768Y1281D02*
X1850Y1281D01*
X766Y1280D02*
X849Y1280D01*
X1768Y1280D02*
X1850Y1280D01*
X766Y1279D02*
X849Y1279D01*
X1768Y1279D02*
X1850Y1279D01*
X766Y1278D02*
X849Y1278D01*
X1768Y1278D02*
X1851Y1278D01*
X766Y1277D02*
X849Y1277D01*
X1768Y1277D02*
X1851Y1277D01*
X766Y1276D02*
X849Y1276D01*
X1768Y1276D02*
X1851Y1276D01*
X766Y1275D02*
X849Y1275D01*
X1768Y1275D02*
X1851Y1275D01*
X766Y1274D02*
X849Y1274D01*
X1768Y1274D02*
X1850Y1274D01*
X766Y1273D02*
X849Y1273D01*
X1768Y1273D02*
X1850Y1273D01*
X766Y1272D02*
X849Y1272D01*
X1768Y1272D02*
X1850Y1272D01*
X767Y1271D02*
X849Y1271D01*
X1768Y1271D02*
X1850Y1271D01*
X767Y1270D02*
X849Y1270D01*
X1768Y1270D02*
X1850Y1270D01*
X767Y1269D02*
X848Y1269D01*
X1768Y1269D02*
X1850Y1269D01*
X767Y1268D02*
X848Y1268D01*
X1768Y1268D02*
X1850Y1268D01*
X767Y1267D02*
X848Y1267D01*
X1769Y1267D02*
X1849Y1267D01*
X767Y1266D02*
X848Y1266D01*
X1769Y1266D02*
X1849Y1266D01*
X768Y1265D02*
X848Y1265D01*
X1769Y1265D02*
X1849Y1265D01*
X768Y1264D02*
X847Y1264D01*
X1769Y1264D02*
X1849Y1264D01*
X768Y1263D02*
X847Y1263D01*
X1770Y1263D02*
X1848Y1263D01*
X769Y1262D02*
X847Y1262D01*
X1770Y1262D02*
X1848Y1262D01*
X769Y1261D02*
X846Y1261D01*
X1770Y1261D02*
X1848Y1261D01*
X769Y1260D02*
X846Y1260D01*
X1771Y1260D02*
X1847Y1260D01*
X770Y1259D02*
X845Y1259D01*
X1771Y1259D02*
X1847Y1259D01*
X770Y1258D02*
X845Y1258D01*
X1772Y1258D02*
X1846Y1258D01*
X771Y1257D02*
X844Y1257D01*
X1772Y1257D02*
X1846Y1257D01*
X771Y1256D02*
X844Y1256D01*
X1773Y1256D02*
X1845Y1256D01*
X772Y1255D02*
X843Y1255D01*
X1773Y1255D02*
X1845Y1255D01*
X773Y1254D02*
X843Y1254D01*
X1774Y1254D02*
X1844Y1254D01*
X773Y1253D02*
X842Y1253D01*
X1775Y1253D02*
X1843Y1253D01*
X774Y1252D02*
X841Y1252D01*
X1775Y1252D02*
X1843Y1252D01*
X775Y1251D02*
X841Y1251D01*
X1776Y1251D02*
X1842Y1251D01*
X775Y1250D02*
X840Y1250D01*
X1777Y1250D02*
X1841Y1250D01*
X776Y1249D02*
X839Y1249D01*
X1778Y1249D02*
X1840Y1249D01*
X777Y1248D02*
X838Y1248D01*
X1779Y1248D02*
X1840Y1248D01*
X778Y1247D02*
X837Y1247D01*
X1779Y1247D02*
X1839Y1247D01*
X779Y1246D02*
X836Y1246D01*
X1781Y1246D02*
X1838Y1246D01*
X780Y1245D02*
X835Y1245D01*
X1782Y1245D02*
X1837Y1245D01*
X781Y1244D02*
X834Y1244D01*
X1783Y1244D02*
X1835Y1244D01*
X783Y1243D02*
X833Y1243D01*
X1784Y1243D02*
X1834Y1243D01*
X784Y1242D02*
X831Y1242D01*
X1785Y1242D02*
X1833Y1242D01*
X786Y1241D02*
X830Y1241D01*
X1787Y1241D02*
X1831Y1241D01*
X787Y1240D02*
X828Y1240D01*
X1789Y1240D02*
X1830Y1240D01*
X789Y1239D02*
X826Y1239D01*
X1790Y1239D02*
X1828Y1239D01*
X791Y1238D02*
X824Y1238D01*
X1792Y1238D02*
X1826Y1238D01*
X793Y1237D02*
X822Y1237D01*
X1795Y1237D02*
X1823Y1237D01*
X797Y1236D02*
X819Y1236D01*
X1798Y1236D02*
X1820Y1236D01*
X801Y1235D02*
X814Y1235D01*
X1803Y1235D02*
X1816Y1235D01*
X804Y1218D02*
X811Y1218D01*
X1805Y1218D02*
X1813Y1218D01*
X798Y1217D02*
X817Y1217D01*
X1800Y1217D02*
X1818Y1217D01*
X795Y1216D02*
X821Y1216D01*
X1796Y1216D02*
X1822Y1216D01*
X792Y1215D02*
X823Y1215D01*
X1793Y1215D02*
X1825Y1215D01*
X790Y1214D02*
X825Y1214D01*
X1791Y1214D02*
X1827Y1214D01*
X788Y1213D02*
X827Y1213D01*
X1789Y1213D02*
X1829Y1213D01*
X786Y1212D02*
X829Y1212D01*
X1788Y1212D02*
X1830Y1212D01*
X785Y1211D02*
X831Y1211D01*
X1786Y1211D02*
X1832Y1211D01*
X783Y1210D02*
X832Y1210D01*
X1785Y1210D02*
X1833Y1210D01*
X782Y1209D02*
X833Y1209D01*
X1783Y1209D02*
X1835Y1209D01*
X781Y1208D02*
X835Y1208D01*
X1782Y1208D02*
X1836Y1208D01*
X780Y1207D02*
X836Y1207D01*
X1781Y1207D02*
X1837Y1207D01*
X778Y1206D02*
X837Y1206D01*
X1780Y1206D02*
X1838Y1206D01*
X778Y1205D02*
X838Y1205D01*
X1779Y1205D02*
X1839Y1205D01*
X777Y1204D02*
X839Y1204D01*
X1778Y1204D02*
X1840Y1204D01*
X776Y1203D02*
X839Y1203D01*
X1777Y1203D02*
X1841Y1203D01*
X775Y1202D02*
X840Y1202D01*
X1776Y1202D02*
X1842Y1202D01*
X774Y1201D02*
X841Y1201D01*
X1776Y1201D02*
X1842Y1201D01*
X774Y1200D02*
X842Y1200D01*
X1775Y1200D02*
X1843Y1200D01*
X773Y1199D02*
X842Y1199D01*
X1774Y1199D02*
X1844Y1199D01*
X772Y1198D02*
X843Y1198D01*
X1774Y1198D02*
X1844Y1198D01*
X772Y1197D02*
X844Y1197D01*
X1773Y1197D02*
X1845Y1197D01*
X771Y1196D02*
X844Y1196D01*
X1773Y1196D02*
X1846Y1196D01*
X771Y1195D02*
X845Y1195D01*
X1772Y1195D02*
X1846Y1195D01*
X770Y1194D02*
X845Y1194D01*
X1772Y1194D02*
X1847Y1194D01*
X770Y1193D02*
X846Y1193D01*
X1771Y1193D02*
X1847Y1193D01*
X769Y1192D02*
X846Y1192D01*
X1771Y1192D02*
X1848Y1192D01*
X769Y1191D02*
X846Y1191D01*
X1770Y1191D02*
X1848Y1191D01*
X768Y1190D02*
X847Y1190D01*
X1770Y1190D02*
X1848Y1190D01*
X768Y1189D02*
X847Y1189D01*
X1770Y1189D02*
X1849Y1189D01*
X768Y1188D02*
X847Y1188D01*
X1769Y1188D02*
X1849Y1188D01*
X768Y1187D02*
X848Y1187D01*
X1769Y1187D02*
X1849Y1187D01*
X767Y1186D02*
X848Y1186D01*
X1769Y1186D02*
X1849Y1186D01*
X767Y1185D02*
X848Y1185D01*
X1769Y1185D02*
X1850Y1185D01*
X767Y1184D02*
X848Y1184D01*
X1768Y1184D02*
X1850Y1184D01*
X767Y1183D02*
X849Y1183D01*
X1768Y1183D02*
X1850Y1183D01*
X767Y1182D02*
X849Y1182D01*
X1768Y1182D02*
X1850Y1182D01*
X766Y1181D02*
X849Y1181D01*
X1768Y1181D02*
X1850Y1181D01*
X766Y1180D02*
X849Y1180D01*
X1768Y1180D02*
X1850Y1180D01*
X766Y1179D02*
X849Y1179D01*
X1768Y1179D02*
X1850Y1179D01*
X766Y1178D02*
X849Y1178D01*
X1768Y1178D02*
X1851Y1178D01*
X766Y1177D02*
X849Y1177D01*
X1768Y1177D02*
X1851Y1177D01*
X766Y1176D02*
X849Y1176D01*
X1768Y1176D02*
X1851Y1176D01*
X766Y1175D02*
X849Y1175D01*
X1768Y1175D02*
X1851Y1175D01*
X766Y1174D02*
X849Y1174D01*
X1768Y1174D02*
X1850Y1174D01*
X766Y1173D02*
X849Y1173D01*
X1768Y1173D02*
X1850Y1173D01*
X766Y1172D02*
X849Y1172D01*
X1768Y1172D02*
X1850Y1172D01*
X766Y1171D02*
X849Y1171D01*
X1768Y1171D02*
X1850Y1171D01*
X767Y1170D02*
X849Y1170D01*
X1768Y1170D02*
X1850Y1170D01*
X767Y1169D02*
X848Y1169D01*
X1768Y1169D02*
X1850Y1169D01*
X767Y1168D02*
X848Y1168D01*
X1768Y1168D02*
X1850Y1168D01*
X767Y1167D02*
X848Y1167D01*
X1769Y1167D02*
X1850Y1167D01*
X767Y1166D02*
X848Y1166D01*
X1769Y1166D02*
X1849Y1166D01*
X768Y1165D02*
X848Y1165D01*
X1769Y1165D02*
X1849Y1165D01*
X768Y1164D02*
X847Y1164D01*
X1769Y1164D02*
X1849Y1164D01*
X768Y1163D02*
X847Y1163D01*
X1770Y1163D02*
X1848Y1163D01*
X769Y1162D02*
X847Y1162D01*
X1770Y1162D02*
X1848Y1162D01*
X769Y1161D02*
X846Y1161D01*
X1770Y1161D02*
X1848Y1161D01*
X769Y1160D02*
X846Y1160D01*
X1771Y1160D02*
X1847Y1160D01*
X770Y1159D02*
X845Y1159D01*
X1771Y1159D02*
X1847Y1159D01*
X770Y1158D02*
X845Y1158D01*
X1772Y1158D02*
X1846Y1158D01*
X771Y1157D02*
X844Y1157D01*
X1772Y1157D02*
X1846Y1157D01*
X771Y1156D02*
X844Y1156D01*
X1773Y1156D02*
X1845Y1156D01*
X772Y1155D02*
X843Y1155D01*
X1773Y1155D02*
X1845Y1155D01*
X773Y1154D02*
X843Y1154D01*
X1774Y1154D02*
X1844Y1154D01*
X773Y1153D02*
X842Y1153D01*
X1775Y1153D02*
X1844Y1153D01*
X774Y1152D02*
X841Y1152D01*
X1775Y1152D02*
X1843Y1152D01*
X775Y1151D02*
X841Y1151D01*
X1776Y1151D02*
X1842Y1151D01*
X775Y1150D02*
X840Y1150D01*
X1777Y1150D02*
X1841Y1150D01*
X776Y1149D02*
X839Y1149D01*
X1778Y1149D02*
X1841Y1149D01*
X777Y1148D02*
X838Y1148D01*
X1778Y1148D02*
X1840Y1148D01*
X778Y1147D02*
X837Y1147D01*
X1779Y1147D02*
X1839Y1147D01*
X779Y1146D02*
X836Y1146D01*
X1780Y1146D02*
X1838Y1146D01*
X780Y1145D02*
X835Y1145D01*
X1782Y1145D02*
X1837Y1145D01*
X781Y1144D02*
X834Y1144D01*
X1783Y1144D02*
X1836Y1144D01*
X783Y1143D02*
X833Y1143D01*
X1784Y1143D02*
X1834Y1143D01*
X784Y1142D02*
X831Y1142D01*
X1785Y1142D02*
X1833Y1142D01*
X785Y1141D02*
X830Y1141D01*
X1787Y1141D02*
X1831Y1141D01*
X787Y1140D02*
X828Y1140D01*
X1788Y1140D02*
X1830Y1140D01*
X789Y1139D02*
X827Y1139D01*
X1790Y1139D02*
X1828Y1139D01*
X791Y1138D02*
X825Y1138D01*
X1792Y1138D02*
X1826Y1138D01*
X793Y1137D02*
X822Y1137D01*
X1795Y1137D02*
X1824Y1137D01*
X796Y1136D02*
X819Y1136D01*
X1798Y1136D02*
X1821Y1136D01*
X800Y1135D02*
X815Y1135D01*
X1802Y1135D02*
X1816Y1135D01*
X805Y1118D02*
X810Y1118D01*
X1807Y1118D02*
X1811Y1118D01*
X799Y1117D02*
X816Y1117D01*
X1800Y1117D02*
X1818Y1117D01*
X795Y1116D02*
X820Y1116D01*
X1796Y1116D02*
X1822Y1116D01*
X792Y1115D02*
X823Y1115D01*
X1794Y1115D02*
X1825Y1115D01*
X790Y1114D02*
X825Y1114D01*
X1791Y1114D02*
X1827Y1114D01*
X788Y1113D02*
X827Y1113D01*
X1789Y1113D02*
X1829Y1113D01*
X786Y1112D02*
X829Y1112D01*
X1788Y1112D02*
X1830Y1112D01*
X785Y1111D02*
X830Y1111D01*
X1786Y1111D02*
X1832Y1111D01*
X783Y1110D02*
X832Y1110D01*
X1785Y1110D02*
X1833Y1110D01*
X782Y1109D02*
X833Y1109D01*
X1783Y1109D02*
X1835Y1109D01*
X781Y1108D02*
X834Y1108D01*
X1782Y1108D02*
X1836Y1108D01*
X780Y1107D02*
X836Y1107D01*
X1781Y1107D02*
X1837Y1107D01*
X779Y1106D02*
X837Y1106D01*
X1780Y1106D02*
X1838Y1106D01*
X778Y1105D02*
X838Y1105D01*
X1779Y1105D02*
X1839Y1105D01*
X777Y1104D02*
X839Y1104D01*
X1778Y1104D02*
X1840Y1104D01*
X776Y1103D02*
X839Y1103D01*
X1777Y1103D02*
X1841Y1103D01*
X775Y1102D02*
X840Y1102D01*
X1777Y1102D02*
X1842Y1102D01*
X774Y1101D02*
X841Y1101D01*
X1776Y1101D02*
X1842Y1101D01*
X774Y1100D02*
X842Y1100D01*
X1775Y1100D02*
X1843Y1100D01*
X773Y1099D02*
X842Y1099D01*
X1774Y1099D02*
X1844Y1099D01*
X772Y1098D02*
X843Y1098D01*
X1774Y1098D02*
X1844Y1098D01*
X772Y1097D02*
X844Y1097D01*
X1773Y1097D02*
X1845Y1097D01*
X771Y1096D02*
X844Y1096D01*
X1773Y1096D02*
X1846Y1096D01*
X771Y1095D02*
X845Y1095D01*
X1772Y1095D02*
X1846Y1095D01*
X770Y1094D02*
X845Y1094D01*
X1772Y1094D02*
X1847Y1094D01*
X770Y1093D02*
X846Y1093D01*
X1771Y1093D02*
X1847Y1093D01*
X769Y1092D02*
X846Y1092D01*
X1771Y1092D02*
X1847Y1092D01*
X769Y1091D02*
X846Y1091D01*
X1770Y1091D02*
X1848Y1091D01*
X769Y1090D02*
X847Y1090D01*
X1770Y1090D02*
X1848Y1090D01*
X768Y1089D02*
X847Y1089D01*
X1770Y1089D02*
X1849Y1089D01*
X768Y1088D02*
X847Y1088D01*
X1769Y1088D02*
X1849Y1088D01*
X768Y1087D02*
X848Y1087D01*
X1769Y1087D02*
X1849Y1087D01*
X767Y1086D02*
X848Y1086D01*
X1769Y1086D02*
X1849Y1086D01*
X767Y1085D02*
X848Y1085D01*
X1769Y1085D02*
X1850Y1085D01*
X767Y1084D02*
X848Y1084D01*
X1768Y1084D02*
X1850Y1084D01*
X767Y1083D02*
X849Y1083D01*
X1768Y1083D02*
X1850Y1083D01*
X767Y1082D02*
X849Y1082D01*
X1768Y1082D02*
X1850Y1082D01*
X766Y1081D02*
X849Y1081D01*
X1768Y1081D02*
X1850Y1081D01*
X766Y1080D02*
X849Y1080D01*
X1768Y1080D02*
X1850Y1080D01*
X766Y1079D02*
X849Y1079D01*
X1768Y1079D02*
X1850Y1079D01*
X766Y1078D02*
X849Y1078D01*
X1768Y1078D02*
X1851Y1078D01*
X766Y1077D02*
X849Y1077D01*
X1768Y1077D02*
X1851Y1077D01*
X766Y1076D02*
X849Y1076D01*
X1768Y1076D02*
X1851Y1076D01*
X766Y1075D02*
X849Y1075D01*
X1768Y1075D02*
X1851Y1075D01*
X766Y1074D02*
X849Y1074D01*
X1768Y1074D02*
X1851Y1074D01*
X766Y1073D02*
X849Y1073D01*
X1768Y1073D02*
X1850Y1073D01*
X766Y1072D02*
X849Y1072D01*
X1768Y1072D02*
X1850Y1072D01*
X766Y1071D02*
X849Y1071D01*
X1768Y1071D02*
X1850Y1071D01*
X767Y1070D02*
X849Y1070D01*
X1768Y1070D02*
X1850Y1070D01*
X767Y1069D02*
X848Y1069D01*
X1768Y1069D02*
X1850Y1069D01*
X767Y1068D02*
X848Y1068D01*
X1768Y1068D02*
X1850Y1068D01*
X767Y1067D02*
X848Y1067D01*
X1769Y1067D02*
X1850Y1067D01*
X767Y1066D02*
X848Y1066D01*
X1769Y1066D02*
X1849Y1066D01*
X768Y1065D02*
X848Y1065D01*
X1769Y1065D02*
X1849Y1065D01*
X768Y1064D02*
X847Y1064D01*
X1769Y1064D02*
X1849Y1064D01*
X768Y1063D02*
X847Y1063D01*
X1770Y1063D02*
X1848Y1063D01*
X769Y1062D02*
X847Y1062D01*
X1770Y1062D02*
X1848Y1062D01*
X769Y1061D02*
X846Y1061D01*
X1770Y1061D02*
X1848Y1061D01*
X769Y1060D02*
X846Y1060D01*
X1771Y1060D02*
X1847Y1060D01*
X770Y1059D02*
X846Y1059D01*
X1771Y1059D02*
X1847Y1059D01*
X770Y1058D02*
X845Y1058D01*
X1772Y1058D02*
X1846Y1058D01*
X771Y1057D02*
X845Y1057D01*
X1772Y1057D02*
X1846Y1057D01*
X771Y1056D02*
X844Y1056D01*
X1773Y1056D02*
X1845Y1056D01*
X772Y1055D02*
X843Y1055D01*
X1773Y1055D02*
X1845Y1055D01*
X772Y1054D02*
X843Y1054D01*
X1774Y1054D02*
X1844Y1054D01*
X773Y1053D02*
X842Y1053D01*
X1775Y1053D02*
X1844Y1053D01*
X774Y1052D02*
X841Y1052D01*
X1775Y1052D02*
X1843Y1052D01*
X775Y1051D02*
X841Y1051D01*
X1776Y1051D02*
X1842Y1051D01*
X775Y1050D02*
X840Y1050D01*
X1777Y1050D02*
X1841Y1050D01*
X776Y1049D02*
X839Y1049D01*
X1778Y1049D02*
X1841Y1049D01*
X777Y1048D02*
X838Y1048D01*
X1778Y1048D02*
X1840Y1048D01*
X778Y1047D02*
X837Y1047D01*
X1779Y1047D02*
X1839Y1047D01*
X779Y1046D02*
X836Y1046D01*
X1780Y1046D02*
X1838Y1046D01*
X780Y1045D02*
X835Y1045D01*
X1781Y1045D02*
X1837Y1045D01*
X781Y1044D02*
X834Y1044D01*
X1783Y1044D02*
X1836Y1044D01*
X782Y1043D02*
X833Y1043D01*
X1784Y1043D02*
X1834Y1043D01*
X784Y1042D02*
X832Y1042D01*
X1785Y1042D02*
X1833Y1042D01*
X785Y1041D02*
X830Y1041D01*
X1787Y1041D02*
X1832Y1041D01*
X787Y1040D02*
X828Y1040D01*
X1788Y1040D02*
X1830Y1040D01*
X788Y1039D02*
X827Y1039D01*
X1790Y1039D02*
X1828Y1039D01*
X791Y1038D02*
X825Y1038D01*
X1792Y1038D02*
X1826Y1038D01*
X793Y1037D02*
X822Y1037D01*
X1794Y1037D02*
X1824Y1037D01*
X796Y1036D02*
X820Y1036D01*
X1797Y1036D02*
X1821Y1036D01*
X800Y1035D02*
X815Y1035D01*
X1801Y1035D02*
X1817Y1035D01*
X807Y1018D02*
X808Y1018D01*
X1809Y1018D02*
X1809Y1018D01*
X799Y1017D02*
X816Y1017D01*
X1801Y1017D02*
X1817Y1017D01*
X795Y1016D02*
X820Y1016D01*
X1797Y1016D02*
X1821Y1016D01*
X793Y1015D02*
X823Y1015D01*
X1794Y1015D02*
X1824Y1015D01*
X790Y1014D02*
X825Y1014D01*
X1792Y1014D02*
X1826Y1014D01*
X788Y1013D02*
X827Y1013D01*
X1790Y1013D02*
X1828Y1013D01*
X787Y1012D02*
X829Y1012D01*
X1788Y1012D02*
X1830Y1012D01*
X785Y1011D02*
X830Y1011D01*
X1786Y1011D02*
X1832Y1011D01*
X784Y1010D02*
X832Y1010D01*
X1785Y1010D02*
X1833Y1010D01*
X782Y1009D02*
X833Y1009D01*
X1784Y1009D02*
X1834Y1009D01*
X781Y1008D02*
X834Y1008D01*
X1782Y1008D02*
X1836Y1008D01*
X780Y1007D02*
X835Y1007D01*
X1781Y1007D02*
X1837Y1007D01*
X779Y1006D02*
X837Y1006D01*
X1780Y1006D02*
X1838Y1006D01*
X778Y1005D02*
X838Y1005D01*
X1779Y1005D02*
X1839Y1005D01*
X777Y1004D02*
X838Y1004D01*
X1778Y1004D02*
X1840Y1004D01*
X776Y1003D02*
X839Y1003D01*
X1777Y1003D02*
X1841Y1003D01*
X775Y1002D02*
X840Y1002D01*
X1777Y1002D02*
X1842Y1002D01*
X774Y1001D02*
X841Y1001D01*
X1776Y1001D02*
X1842Y1001D01*
X774Y1000D02*
X842Y1000D01*
X1775Y1000D02*
X1843Y1000D01*
X773Y999D02*
X842Y999D01*
X1774Y999D02*
X1844Y999D01*
X772Y998D02*
X843Y998D01*
X1774Y998D02*
X1844Y998D01*
X772Y997D02*
X843Y997D01*
X1773Y997D02*
X1845Y997D01*
X771Y996D02*
X844Y996D01*
X1773Y996D02*
X1846Y996D01*
X771Y995D02*
X845Y995D01*
X1772Y995D02*
X1846Y995D01*
X770Y994D02*
X845Y994D01*
X1772Y994D02*
X1847Y994D01*
X770Y993D02*
X846Y993D01*
X1771Y993D02*
X1847Y993D01*
X769Y992D02*
X846Y992D01*
X1771Y992D02*
X1847Y992D01*
X769Y991D02*
X846Y991D01*
X1770Y991D02*
X1848Y991D01*
X769Y990D02*
X847Y990D01*
X1770Y990D02*
X1848Y990D01*
X768Y989D02*
X847Y989D01*
X1770Y989D02*
X1849Y989D01*
X768Y988D02*
X847Y988D01*
X1769Y988D02*
X1849Y988D01*
X768Y987D02*
X848Y987D01*
X1769Y987D02*
X1849Y987D01*
X767Y986D02*
X848Y986D01*
X1769Y986D02*
X1849Y986D01*
X767Y985D02*
X848Y985D01*
X1769Y985D02*
X1850Y985D01*
X767Y984D02*
X848Y984D01*
X1768Y984D02*
X1850Y984D01*
X767Y983D02*
X848Y983D01*
X1768Y983D02*
X1850Y983D01*
X767Y982D02*
X849Y982D01*
X1768Y982D02*
X1850Y982D01*
X766Y981D02*
X849Y981D01*
X1768Y981D02*
X1850Y981D01*
X766Y980D02*
X849Y980D01*
X1768Y980D02*
X1850Y980D01*
X766Y979D02*
X849Y979D01*
X1768Y979D02*
X1850Y979D01*
X766Y978D02*
X849Y978D01*
X1768Y978D02*
X1851Y978D01*
X766Y977D02*
X849Y977D01*
X1768Y977D02*
X1851Y977D01*
X766Y976D02*
X849Y976D01*
X1768Y976D02*
X1851Y976D01*
X766Y975D02*
X849Y975D01*
X1768Y975D02*
X1851Y975D01*
X766Y974D02*
X849Y974D01*
X1768Y974D02*
X1851Y974D01*
X766Y973D02*
X849Y973D01*
X1768Y973D02*
X1850Y973D01*
X766Y972D02*
X849Y972D01*
X1768Y972D02*
X1850Y972D01*
X766Y971D02*
X849Y971D01*
X1768Y971D02*
X1850Y971D01*
X767Y970D02*
X849Y970D01*
X1768Y970D02*
X1850Y970D01*
X767Y969D02*
X848Y969D01*
X1768Y969D02*
X1850Y969D01*
X767Y968D02*
X848Y968D01*
X1768Y968D02*
X1850Y968D01*
X767Y967D02*
X848Y967D01*
X1769Y967D02*
X1850Y967D01*
X767Y966D02*
X848Y966D01*
X1769Y966D02*
X1849Y966D01*
X768Y965D02*
X848Y965D01*
X1769Y965D02*
X1849Y965D01*
X768Y964D02*
X847Y964D01*
X1769Y964D02*
X1849Y964D01*
X768Y963D02*
X847Y963D01*
X1770Y963D02*
X1849Y963D01*
X769Y962D02*
X847Y962D01*
X1770Y962D02*
X1848Y962D01*
X769Y961D02*
X846Y961D01*
X1770Y961D02*
X1848Y961D01*
X769Y960D02*
X846Y960D01*
X1771Y960D02*
X1847Y960D01*
X770Y959D02*
X846Y959D01*
X1771Y959D02*
X1847Y959D01*
X770Y958D02*
X845Y958D01*
X1772Y958D02*
X1847Y958D01*
X771Y957D02*
X845Y957D01*
X1772Y957D02*
X1846Y957D01*
X771Y956D02*
X844Y956D01*
X1773Y956D02*
X1846Y956D01*
X772Y955D02*
X843Y955D01*
X1773Y955D02*
X1845Y955D01*
X772Y954D02*
X843Y954D01*
X1774Y954D02*
X1844Y954D01*
X773Y953D02*
X842Y953D01*
X1774Y953D02*
X1844Y953D01*
X774Y952D02*
X842Y952D01*
X1775Y952D02*
X1843Y952D01*
X774Y951D02*
X841Y951D01*
X1776Y951D02*
X1842Y951D01*
X775Y950D02*
X840Y950D01*
X1777Y950D02*
X1842Y950D01*
X776Y949D02*
X839Y949D01*
X1777Y949D02*
X1841Y949D01*
X777Y948D02*
X838Y948D01*
X1778Y948D02*
X1840Y948D01*
X778Y947D02*
X838Y947D01*
X1779Y947D02*
X1839Y947D01*
X779Y946D02*
X837Y946D01*
X1780Y946D02*
X1838Y946D01*
X780Y945D02*
X835Y945D01*
X1781Y945D02*
X1837Y945D01*
X781Y944D02*
X834Y944D01*
X1782Y944D02*
X1836Y944D01*
X782Y943D02*
X833Y943D01*
X1784Y943D02*
X1834Y943D01*
X784Y942D02*
X832Y942D01*
X1785Y942D02*
X1833Y942D01*
X785Y941D02*
X830Y941D01*
X1786Y941D02*
X1832Y941D01*
X787Y940D02*
X829Y940D01*
X1788Y940D02*
X1830Y940D01*
X788Y939D02*
X827Y939D01*
X1790Y939D02*
X1828Y939D01*
X790Y938D02*
X825Y938D01*
X1792Y938D02*
X1826Y938D01*
X793Y937D02*
X823Y937D01*
X1794Y937D02*
X1824Y937D01*
X795Y936D02*
X820Y936D01*
X1797Y936D02*
X1821Y936D01*
X799Y935D02*
X816Y935D01*
X1801Y935D02*
X1817Y935D01*
X807Y934D02*
X808Y934D01*
X1809Y934D02*
X1809Y934D01*
X800Y917D02*
X816Y917D01*
X1801Y917D02*
X1817Y917D01*
X796Y916D02*
X820Y916D01*
X1797Y916D02*
X1821Y916D01*
X793Y915D02*
X822Y915D01*
X1794Y915D02*
X1824Y915D01*
X790Y914D02*
X825Y914D01*
X1792Y914D02*
X1826Y914D01*
X788Y913D02*
X827Y913D01*
X1790Y913D02*
X1828Y913D01*
X787Y912D02*
X828Y912D01*
X1788Y912D02*
X1830Y912D01*
X785Y911D02*
X830Y911D01*
X1787Y911D02*
X1832Y911D01*
X784Y910D02*
X832Y910D01*
X1785Y910D02*
X1833Y910D01*
X782Y909D02*
X833Y909D01*
X1784Y909D02*
X1834Y909D01*
X781Y908D02*
X834Y908D01*
X1783Y908D02*
X1836Y908D01*
X780Y907D02*
X835Y907D01*
X1781Y907D02*
X1837Y907D01*
X779Y906D02*
X836Y906D01*
X1780Y906D02*
X1838Y906D01*
X778Y905D02*
X837Y905D01*
X1779Y905D02*
X1839Y905D01*
X777Y904D02*
X838Y904D01*
X1778Y904D02*
X1840Y904D01*
X776Y903D02*
X839Y903D01*
X1778Y903D02*
X1841Y903D01*
X775Y902D02*
X840Y902D01*
X1777Y902D02*
X1841Y902D01*
X775Y901D02*
X841Y901D01*
X1776Y901D02*
X1842Y901D01*
X774Y900D02*
X841Y900D01*
X1775Y900D02*
X1843Y900D01*
X773Y899D02*
X842Y899D01*
X1775Y899D02*
X1844Y899D01*
X772Y898D02*
X843Y898D01*
X1774Y898D02*
X1844Y898D01*
X772Y897D02*
X843Y897D01*
X1773Y897D02*
X1845Y897D01*
X771Y896D02*
X844Y896D01*
X1773Y896D02*
X1845Y896D01*
X771Y895D02*
X845Y895D01*
X1772Y895D02*
X1846Y895D01*
X770Y894D02*
X845Y894D01*
X1772Y894D02*
X1846Y894D01*
X770Y893D02*
X846Y893D01*
X1771Y893D02*
X1847Y893D01*
X769Y892D02*
X846Y892D01*
X1771Y892D02*
X1847Y892D01*
X769Y891D02*
X846Y891D01*
X1770Y891D02*
X1848Y891D01*
X769Y890D02*
X847Y890D01*
X1770Y890D02*
X1848Y890D01*
X768Y889D02*
X847Y889D01*
X1770Y889D02*
X1848Y889D01*
X768Y888D02*
X847Y888D01*
X1769Y888D02*
X1849Y888D01*
X768Y887D02*
X848Y887D01*
X1769Y887D02*
X1849Y887D01*
X767Y886D02*
X848Y886D01*
X1769Y886D02*
X1849Y886D01*
X767Y885D02*
X848Y885D01*
X1769Y885D02*
X1850Y885D01*
X767Y884D02*
X848Y884D01*
X1768Y884D02*
X1850Y884D01*
X767Y883D02*
X848Y883D01*
X1768Y883D02*
X1850Y883D01*
X767Y882D02*
X849Y882D01*
X1768Y882D02*
X1850Y882D01*
X766Y881D02*
X849Y881D01*
X1768Y881D02*
X1850Y881D01*
X766Y880D02*
X849Y880D01*
X1768Y880D02*
X1850Y880D01*
X766Y879D02*
X849Y879D01*
X1768Y879D02*
X1850Y879D01*
X766Y878D02*
X849Y878D01*
X1768Y878D02*
X1851Y878D01*
X766Y877D02*
X849Y877D01*
X1768Y877D02*
X1851Y877D01*
X766Y876D02*
X849Y876D01*
X1768Y876D02*
X1851Y876D01*
X766Y875D02*
X849Y875D01*
X1768Y875D02*
X1851Y875D01*
X766Y874D02*
X849Y874D01*
X1768Y874D02*
X1851Y874D01*
X766Y873D02*
X849Y873D01*
X1768Y873D02*
X1850Y873D01*
X766Y872D02*
X849Y872D01*
X1768Y872D02*
X1850Y872D01*
X766Y871D02*
X849Y871D01*
X1768Y871D02*
X1850Y871D01*
X767Y870D02*
X849Y870D01*
X1768Y870D02*
X1850Y870D01*
X767Y869D02*
X849Y869D01*
X1768Y869D02*
X1850Y869D01*
X767Y868D02*
X848Y868D01*
X1768Y868D02*
X1850Y868D01*
X767Y867D02*
X848Y867D01*
X1769Y867D02*
X1850Y867D01*
X767Y866D02*
X848Y866D01*
X1769Y866D02*
X1849Y866D01*
X768Y865D02*
X848Y865D01*
X1769Y865D02*
X1849Y865D01*
X768Y864D02*
X847Y864D01*
X1769Y864D02*
X1849Y864D01*
X768Y863D02*
X847Y863D01*
X1770Y863D02*
X1849Y863D01*
X769Y862D02*
X847Y862D01*
X1770Y862D02*
X1848Y862D01*
X769Y861D02*
X846Y861D01*
X1770Y861D02*
X1848Y861D01*
X769Y860D02*
X846Y860D01*
X1771Y860D02*
X1847Y860D01*
X770Y859D02*
X846Y859D01*
X1771Y859D02*
X1847Y859D01*
X770Y858D02*
X845Y858D01*
X1772Y858D02*
X1847Y858D01*
X771Y857D02*
X845Y857D01*
X1772Y857D02*
X1846Y857D01*
X771Y856D02*
X844Y856D01*
X1773Y856D02*
X1846Y856D01*
X772Y855D02*
X844Y855D01*
X1773Y855D02*
X1845Y855D01*
X772Y854D02*
X843Y854D01*
X1774Y854D02*
X1844Y854D01*
X773Y853D02*
X842Y853D01*
X1774Y853D02*
X1844Y853D01*
X774Y852D02*
X842Y852D01*
X1775Y852D02*
X1843Y852D01*
X774Y851D02*
X841Y851D01*
X1776Y851D02*
X1842Y851D01*
X775Y850D02*
X840Y850D01*
X1777Y850D02*
X1842Y850D01*
X776Y849D02*
X839Y849D01*
X1777Y849D02*
X1841Y849D01*
X777Y848D02*
X839Y848D01*
X1778Y848D02*
X1840Y848D01*
X778Y847D02*
X838Y847D01*
X1779Y847D02*
X1839Y847D01*
X779Y846D02*
X837Y846D01*
X1780Y846D02*
X1838Y846D01*
X780Y845D02*
X836Y845D01*
X1781Y845D02*
X1837Y845D01*
X781Y844D02*
X834Y844D01*
X1782Y844D02*
X1836Y844D01*
X782Y843D02*
X833Y843D01*
X1784Y843D02*
X1835Y843D01*
X783Y842D02*
X832Y842D01*
X1785Y842D02*
X1833Y842D01*
X785Y841D02*
X830Y841D01*
X1786Y841D02*
X1832Y841D01*
X786Y840D02*
X829Y840D01*
X1788Y840D02*
X1830Y840D01*
X788Y839D02*
X827Y839D01*
X1790Y839D02*
X1829Y839D01*
X790Y838D02*
X825Y838D01*
X1791Y838D02*
X1827Y838D01*
X792Y837D02*
X823Y837D01*
X1794Y837D02*
X1825Y837D01*
X795Y836D02*
X820Y836D01*
X1796Y836D02*
X1822Y836D01*
X799Y835D02*
X816Y835D01*
X1800Y835D02*
X1818Y835D01*
X806Y834D02*
X810Y834D01*
X1807Y834D02*
X1811Y834D01*
X800Y817D02*
X815Y817D01*
X1802Y817D02*
X1816Y817D01*
X796Y816D02*
X819Y816D01*
X1798Y816D02*
X1821Y816D01*
X793Y815D02*
X822Y815D01*
X1795Y815D02*
X1824Y815D01*
X791Y814D02*
X825Y814D01*
X1792Y814D02*
X1826Y814D01*
X789Y813D02*
X827Y813D01*
X1790Y813D02*
X1828Y813D01*
X787Y812D02*
X828Y812D01*
X1788Y812D02*
X1830Y812D01*
X785Y811D02*
X830Y811D01*
X1787Y811D02*
X1831Y811D01*
X784Y810D02*
X831Y810D01*
X1785Y810D02*
X1833Y810D01*
X783Y809D02*
X833Y809D01*
X1784Y809D02*
X1834Y809D01*
X781Y808D02*
X834Y808D01*
X1783Y808D02*
X1836Y808D01*
X780Y807D02*
X835Y807D01*
X1782Y807D02*
X1837Y807D01*
X779Y806D02*
X836Y806D01*
X1780Y806D02*
X1838Y806D01*
X778Y805D02*
X837Y805D01*
X1779Y805D02*
X1839Y805D01*
X777Y804D02*
X838Y804D01*
X1778Y804D02*
X1840Y804D01*
X776Y803D02*
X839Y803D01*
X1778Y803D02*
X1841Y803D01*
X775Y802D02*
X840Y802D01*
X1777Y802D02*
X1841Y802D01*
X775Y801D02*
X841Y801D01*
X1776Y801D02*
X1842Y801D01*
X774Y800D02*
X841Y800D01*
X1775Y800D02*
X1843Y800D01*
X773Y799D02*
X842Y799D01*
X1775Y799D02*
X1844Y799D01*
X773Y798D02*
X843Y798D01*
X1774Y798D02*
X1844Y798D01*
X772Y797D02*
X843Y797D01*
X1773Y797D02*
X1845Y797D01*
X771Y796D02*
X844Y796D01*
X1773Y796D02*
X1845Y796D01*
X771Y795D02*
X844Y795D01*
X1772Y795D02*
X1846Y795D01*
X770Y794D02*
X845Y794D01*
X1772Y794D02*
X1846Y794D01*
X770Y793D02*
X845Y793D01*
X1771Y793D02*
X1847Y793D01*
X769Y792D02*
X846Y792D01*
X1771Y792D02*
X1847Y792D01*
X769Y791D02*
X846Y791D01*
X1770Y791D02*
X1848Y791D01*
X769Y790D02*
X847Y790D01*
X1770Y790D02*
X1848Y790D01*
X768Y789D02*
X847Y789D01*
X1770Y789D02*
X1848Y789D01*
X768Y788D02*
X847Y788D01*
X1769Y788D02*
X1849Y788D01*
X768Y787D02*
X848Y787D01*
X1769Y787D02*
X1849Y787D01*
X767Y786D02*
X848Y786D01*
X1769Y786D02*
X1849Y786D01*
X767Y785D02*
X848Y785D01*
X1769Y785D02*
X1850Y785D01*
X767Y784D02*
X848Y784D01*
X1768Y784D02*
X1850Y784D01*
X767Y783D02*
X848Y783D01*
X1768Y783D02*
X1850Y783D01*
X767Y782D02*
X849Y782D01*
X1768Y782D02*
X1850Y782D01*
X766Y781D02*
X849Y781D01*
X1768Y781D02*
X1850Y781D01*
X766Y780D02*
X849Y780D01*
X1768Y780D02*
X1850Y780D01*
X766Y779D02*
X849Y779D01*
X1768Y779D02*
X1850Y779D01*
X766Y778D02*
X849Y778D01*
X1768Y778D02*
X1850Y778D01*
X766Y777D02*
X849Y777D01*
X1768Y777D02*
X1851Y777D01*
X766Y776D02*
X849Y776D01*
X1768Y776D02*
X1851Y776D01*
X766Y775D02*
X849Y775D01*
X1768Y775D02*
X1851Y775D01*
X766Y774D02*
X849Y774D01*
X1768Y774D02*
X1851Y774D01*
X766Y773D02*
X849Y773D01*
X1768Y773D02*
X1850Y773D01*
X766Y772D02*
X849Y772D01*
X1768Y772D02*
X1850Y772D01*
X766Y771D02*
X849Y771D01*
X1768Y771D02*
X1850Y771D01*
X767Y770D02*
X849Y770D01*
X1768Y770D02*
X1850Y770D01*
X767Y769D02*
X849Y769D01*
X1768Y769D02*
X1850Y769D01*
X767Y768D02*
X848Y768D01*
X1768Y768D02*
X1850Y768D01*
X767Y767D02*
X848Y767D01*
X1769Y767D02*
X1850Y767D01*
X767Y766D02*
X848Y766D01*
X1769Y766D02*
X1849Y766D01*
X768Y765D02*
X848Y765D01*
X1769Y765D02*
X1849Y765D01*
X768Y764D02*
X847Y764D01*
X1769Y764D02*
X1849Y764D01*
X768Y763D02*
X847Y763D01*
X1770Y763D02*
X1849Y763D01*
X768Y762D02*
X847Y762D01*
X1770Y762D02*
X1848Y762D01*
X769Y761D02*
X846Y761D01*
X1770Y761D02*
X1848Y761D01*
X769Y760D02*
X846Y760D01*
X1771Y760D02*
X1848Y760D01*
X770Y759D02*
X846Y759D01*
X1771Y759D02*
X1847Y759D01*
X770Y758D02*
X845Y758D01*
X1772Y758D02*
X1847Y758D01*
X771Y757D02*
X845Y757D01*
X1772Y757D02*
X1846Y757D01*
X771Y756D02*
X844Y756D01*
X1773Y756D02*
X1846Y756D01*
X772Y755D02*
X844Y755D01*
X1773Y755D02*
X1845Y755D01*
X772Y754D02*
X843Y754D01*
X1774Y754D02*
X1844Y754D01*
X773Y753D02*
X842Y753D01*
X1774Y753D02*
X1844Y753D01*
X774Y752D02*
X842Y752D01*
X1775Y752D02*
X1843Y752D01*
X774Y751D02*
X841Y751D01*
X1776Y751D02*
X1842Y751D01*
X775Y750D02*
X840Y750D01*
X1776Y750D02*
X1842Y750D01*
X776Y749D02*
X839Y749D01*
X1777Y749D02*
X1841Y749D01*
X777Y748D02*
X839Y748D01*
X1778Y748D02*
X1840Y748D01*
X778Y747D02*
X838Y747D01*
X1779Y747D02*
X1839Y747D01*
X778Y746D02*
X837Y746D01*
X1780Y746D02*
X1838Y746D01*
X780Y745D02*
X836Y745D01*
X1781Y745D02*
X1837Y745D01*
X781Y744D02*
X835Y744D01*
X1782Y744D02*
X1836Y744D01*
X782Y743D02*
X833Y743D01*
X1783Y743D02*
X1835Y743D01*
X783Y742D02*
X832Y742D01*
X1785Y742D02*
X1833Y742D01*
X785Y741D02*
X831Y741D01*
X1786Y741D02*
X1832Y741D01*
X786Y740D02*
X829Y740D01*
X1788Y740D02*
X1830Y740D01*
X788Y739D02*
X827Y739D01*
X1789Y739D02*
X1829Y739D01*
X790Y738D02*
X825Y738D01*
X1791Y738D02*
X1827Y738D01*
X792Y737D02*
X823Y737D01*
X1793Y737D02*
X1825Y737D01*
X795Y736D02*
X821Y736D01*
X1796Y736D02*
X1822Y736D01*
X798Y735D02*
X817Y735D01*
X1800Y735D02*
X1818Y735D01*
X804Y734D02*
X811Y734D01*
X1805Y734D02*
X1813Y734D01*
X801Y717D02*
X814Y717D01*
X1802Y717D02*
X1816Y717D01*
X797Y716D02*
X819Y716D01*
X1798Y716D02*
X1820Y716D01*
X793Y715D02*
X822Y715D01*
X1795Y715D02*
X1823Y715D01*
X791Y714D02*
X824Y714D01*
X1792Y714D02*
X1826Y714D01*
X789Y713D02*
X826Y713D01*
X1790Y713D02*
X1828Y713D01*
X787Y712D02*
X828Y712D01*
X1789Y712D02*
X1830Y712D01*
X786Y711D02*
X830Y711D01*
X1787Y711D02*
X1831Y711D01*
X784Y710D02*
X831Y710D01*
X1785Y710D02*
X1833Y710D01*
X783Y709D02*
X833Y709D01*
X1784Y709D02*
X1834Y709D01*
X781Y708D02*
X834Y708D01*
X1783Y708D02*
X1835Y708D01*
X780Y707D02*
X835Y707D01*
X1782Y707D02*
X1837Y707D01*
X779Y706D02*
X836Y706D01*
X1781Y706D02*
X1838Y706D01*
X778Y705D02*
X837Y705D01*
X1779Y705D02*
X1839Y705D01*
X777Y704D02*
X838Y704D01*
X1779Y704D02*
X1840Y704D01*
X776Y703D02*
X839Y703D01*
X1778Y703D02*
X1840Y703D01*
X775Y702D02*
X840Y702D01*
X1777Y702D02*
X1841Y702D01*
X775Y701D02*
X841Y701D01*
X1776Y701D02*
X1842Y701D01*
X774Y700D02*
X841Y700D01*
X1775Y700D02*
X1843Y700D01*
X773Y699D02*
X842Y699D01*
X1775Y699D02*
X1843Y699D01*
X773Y698D02*
X843Y698D01*
X1774Y698D02*
X1844Y698D01*
X772Y697D02*
X843Y697D01*
X1773Y697D02*
X1845Y697D01*
X771Y696D02*
X844Y696D01*
X1773Y696D02*
X1845Y696D01*
X771Y695D02*
X844Y695D01*
X1772Y695D02*
X1846Y695D01*
X770Y694D02*
X845Y694D01*
X1772Y694D02*
X1846Y694D01*
X770Y693D02*
X845Y693D01*
X1771Y693D02*
X1847Y693D01*
X769Y692D02*
X846Y692D01*
X1771Y692D02*
X1847Y692D01*
X769Y691D02*
X846Y691D01*
X1770Y691D02*
X1848Y691D01*
X769Y690D02*
X847Y690D01*
X1770Y690D02*
X1848Y690D01*
X768Y689D02*
X847Y689D01*
X1770Y689D02*
X1848Y689D01*
X768Y688D02*
X847Y688D01*
X1769Y688D02*
X1849Y688D01*
X768Y687D02*
X848Y687D01*
X1769Y687D02*
X1849Y687D01*
X767Y686D02*
X848Y686D01*
X1769Y686D02*
X1849Y686D01*
X767Y685D02*
X848Y685D01*
X1769Y685D02*
X1849Y685D01*
X767Y684D02*
X848Y684D01*
X1768Y684D02*
X1850Y684D01*
X767Y683D02*
X848Y683D01*
X1768Y683D02*
X1850Y683D01*
X767Y682D02*
X849Y682D01*
X1768Y682D02*
X1850Y682D01*
X767Y681D02*
X849Y681D01*
X1768Y681D02*
X1850Y681D01*
X766Y680D02*
X849Y680D01*
X1768Y680D02*
X1850Y680D01*
X766Y679D02*
X849Y679D01*
X1768Y679D02*
X1850Y679D01*
X766Y678D02*
X849Y678D01*
X1768Y678D02*
X1850Y678D01*
X766Y677D02*
X849Y677D01*
X1768Y677D02*
X1851Y677D01*
X766Y676D02*
X849Y676D01*
X1768Y676D02*
X1851Y676D01*
X766Y675D02*
X849Y675D01*
X1768Y675D02*
X1851Y675D01*
X766Y674D02*
X849Y674D01*
X1768Y674D02*
X1851Y674D01*
X766Y673D02*
X849Y673D01*
X1768Y673D02*
X1850Y673D01*
X766Y672D02*
X849Y672D01*
X1768Y672D02*
X1850Y672D01*
X766Y671D02*
X849Y671D01*
X1768Y671D02*
X1850Y671D01*
X767Y670D02*
X849Y670D01*
X1768Y670D02*
X1850Y670D01*
X767Y669D02*
X849Y669D01*
X1768Y669D02*
X1850Y669D01*
X767Y668D02*
X848Y668D01*
X1768Y668D02*
X1850Y668D01*
X767Y667D02*
X848Y667D01*
X1769Y667D02*
X1850Y667D01*
X767Y666D02*
X848Y666D01*
X1769Y666D02*
X1849Y666D01*
X768Y665D02*
X848Y665D01*
X1769Y665D02*
X1849Y665D01*
X768Y664D02*
X847Y664D01*
X1769Y664D02*
X1849Y664D01*
X768Y663D02*
X847Y663D01*
X1770Y663D02*
X1849Y663D01*
X768Y662D02*
X847Y662D01*
X1770Y662D02*
X1848Y662D01*
X769Y661D02*
X846Y661D01*
X1770Y661D02*
X1848Y661D01*
X769Y660D02*
X846Y660D01*
X1771Y660D02*
X1848Y660D01*
X770Y659D02*
X846Y659D01*
X1771Y659D02*
X1847Y659D01*
X770Y658D02*
X845Y658D01*
X1771Y658D02*
X1847Y658D01*
X771Y657D02*
X845Y657D01*
X1772Y657D02*
X1846Y657D01*
X771Y656D02*
X844Y656D01*
X1772Y656D02*
X1846Y656D01*
X772Y655D02*
X844Y655D01*
X1773Y655D02*
X1845Y655D01*
X772Y654D02*
X843Y654D01*
X1774Y654D02*
X1844Y654D01*
X773Y653D02*
X842Y653D01*
X1774Y653D02*
X1844Y653D01*
X773Y652D02*
X842Y652D01*
X1775Y652D02*
X1843Y652D01*
X774Y651D02*
X841Y651D01*
X1776Y651D02*
X1843Y651D01*
X775Y650D02*
X840Y650D01*
X1776Y650D02*
X1842Y650D01*
X776Y649D02*
X840Y649D01*
X1777Y649D02*
X1841Y649D01*
X777Y648D02*
X839Y648D01*
X1778Y648D02*
X1840Y648D01*
X777Y647D02*
X838Y647D01*
X1779Y647D02*
X1839Y647D01*
X778Y646D02*
X837Y646D01*
X1780Y646D02*
X1838Y646D01*
X779Y645D02*
X836Y645D01*
X1781Y645D02*
X1837Y645D01*
X781Y644D02*
X835Y644D01*
X1782Y644D02*
X1836Y644D01*
X782Y643D02*
X833Y643D01*
X1783Y643D02*
X1835Y643D01*
X783Y642D02*
X832Y642D01*
X1785Y642D02*
X1834Y642D01*
X784Y641D02*
X831Y641D01*
X1786Y641D02*
X1832Y641D01*
X786Y640D02*
X829Y640D01*
X1788Y640D02*
X1831Y640D01*
X788Y639D02*
X828Y639D01*
X1789Y639D02*
X1829Y639D01*
X790Y638D02*
X826Y638D01*
X1791Y638D02*
X1827Y638D01*
X792Y637D02*
X824Y637D01*
X1793Y637D02*
X1825Y637D01*
X794Y636D02*
X821Y636D01*
X1796Y636D02*
X1822Y636D01*
X798Y635D02*
X817Y635D01*
X1799Y635D02*
X1819Y635D01*
X803Y634D02*
X812Y634D01*
X1805Y634D02*
X1814Y634D01*
X802Y617D02*
X814Y617D01*
X1803Y617D02*
X1815Y617D01*
X797Y616D02*
X818Y616D01*
X1798Y616D02*
X1820Y616D01*
X794Y615D02*
X822Y615D01*
X1795Y615D02*
X1823Y615D01*
X791Y614D02*
X824Y614D01*
X1793Y614D02*
X1826Y614D01*
X789Y613D02*
X826Y613D01*
X1791Y613D02*
X1828Y613D01*
X787Y612D02*
X828Y612D01*
X1789Y612D02*
X1829Y612D01*
X786Y611D02*
X830Y611D01*
X1787Y611D02*
X1831Y611D01*
X784Y610D02*
X831Y610D01*
X1786Y610D02*
X1833Y610D01*
X783Y609D02*
X832Y609D01*
X1784Y609D02*
X1834Y609D01*
X781Y608D02*
X834Y608D01*
X1783Y608D02*
X1835Y608D01*
X780Y607D02*
X835Y607D01*
X1782Y607D02*
X1836Y607D01*
X779Y606D02*
X836Y606D01*
X1781Y606D02*
X1838Y606D01*
X778Y605D02*
X837Y605D01*
X1780Y605D02*
X1839Y605D01*
X777Y604D02*
X838Y604D01*
X1779Y604D02*
X1839Y604D01*
X776Y603D02*
X839Y603D01*
X1778Y603D02*
X1840Y603D01*
X776Y602D02*
X840Y602D01*
X1777Y602D02*
X1841Y602D01*
X775Y601D02*
X840Y601D01*
X1776Y601D02*
X1842Y601D01*
X774Y600D02*
X841Y600D01*
X1775Y600D02*
X1843Y600D01*
X773Y599D02*
X842Y599D01*
X1775Y599D02*
X1843Y599D01*
X773Y598D02*
X843Y598D01*
X1774Y598D02*
X1844Y598D01*
X772Y597D02*
X843Y597D01*
X1774Y597D02*
X1845Y597D01*
X771Y596D02*
X844Y596D01*
X1773Y596D02*
X1845Y596D01*
X771Y595D02*
X844Y595D01*
X1772Y595D02*
X1846Y595D01*
X770Y594D02*
X845Y594D01*
X1772Y594D02*
X1846Y594D01*
X770Y593D02*
X845Y593D01*
X1771Y593D02*
X1847Y593D01*
X769Y592D02*
X846Y592D01*
X1771Y592D02*
X1847Y592D01*
X769Y591D02*
X846Y591D01*
X1771Y591D02*
X1848Y591D01*
X769Y590D02*
X847Y590D01*
X1770Y590D02*
X1848Y590D01*
X768Y589D02*
X847Y589D01*
X1770Y589D02*
X1848Y589D01*
X768Y588D02*
X847Y588D01*
X1769Y588D02*
X1849Y588D01*
X768Y587D02*
X848Y587D01*
X1769Y587D02*
X1849Y587D01*
X768Y586D02*
X848Y586D01*
X1769Y586D02*
X1849Y586D01*
X767Y585D02*
X848Y585D01*
X1769Y585D02*
X1849Y585D01*
X767Y584D02*
X848Y584D01*
X1768Y584D02*
X1850Y584D01*
X767Y583D02*
X848Y583D01*
X1768Y583D02*
X1850Y583D01*
X767Y582D02*
X849Y582D01*
X1768Y582D02*
X1850Y582D01*
X767Y581D02*
X849Y581D01*
X1768Y581D02*
X1850Y581D01*
X766Y580D02*
X849Y580D01*
X1768Y580D02*
X1850Y580D01*
X766Y579D02*
X849Y579D01*
X1768Y579D02*
X1850Y579D01*
X766Y578D02*
X849Y578D01*
X1768Y578D02*
X1850Y578D01*
X766Y577D02*
X849Y577D01*
X1768Y577D02*
X1851Y577D01*
X766Y576D02*
X849Y576D01*
X1768Y576D02*
X1851Y576D01*
X766Y575D02*
X849Y575D01*
X1768Y575D02*
X1851Y575D01*
X766Y574D02*
X849Y574D01*
X1768Y574D02*
X1851Y574D01*
X766Y573D02*
X849Y573D01*
X1768Y573D02*
X1850Y573D01*
X766Y572D02*
X849Y572D01*
X1768Y572D02*
X1850Y572D01*
X766Y571D02*
X849Y571D01*
X1768Y571D02*
X1850Y571D01*
X767Y570D02*
X849Y570D01*
X1768Y570D02*
X1850Y570D01*
X767Y569D02*
X849Y569D01*
X1768Y569D02*
X1850Y569D01*
X767Y568D02*
X848Y568D01*
X1768Y568D02*
X1850Y568D01*
X767Y567D02*
X848Y567D01*
X1768Y567D02*
X1850Y567D01*
X767Y566D02*
X848Y566D01*
X1769Y566D02*
X1849Y566D01*
X768Y565D02*
X848Y565D01*
X1769Y565D02*
X1849Y565D01*
X768Y564D02*
X847Y564D01*
X1769Y564D02*
X1849Y564D01*
X768Y563D02*
X847Y563D01*
X1769Y563D02*
X1849Y563D01*
X768Y562D02*
X847Y562D01*
X1770Y562D02*
X1848Y562D01*
X769Y561D02*
X847Y561D01*
X1770Y561D02*
X1848Y561D01*
X769Y560D02*
X846Y560D01*
X1771Y560D02*
X1848Y560D01*
X769Y559D02*
X846Y559D01*
X1771Y559D02*
X1847Y559D01*
X770Y558D02*
X845Y558D01*
X1771Y558D02*
X1847Y558D01*
X770Y557D02*
X845Y557D01*
X1772Y557D02*
X1846Y557D01*
X771Y556D02*
X844Y556D01*
X1772Y556D02*
X1846Y556D01*
X772Y555D02*
X844Y555D01*
X1773Y555D02*
X1845Y555D01*
X772Y554D02*
X843Y554D01*
X1774Y554D02*
X1845Y554D01*
X773Y553D02*
X843Y553D01*
X1774Y553D02*
X1844Y553D01*
X773Y552D02*
X842Y552D01*
X1775Y552D02*
X1843Y552D01*
X774Y551D02*
X841Y551D01*
X1776Y551D02*
X1843Y551D01*
X775Y550D02*
X840Y550D01*
X1776Y550D02*
X1842Y550D01*
X776Y549D02*
X840Y549D01*
X1777Y549D02*
X1841Y549D01*
X776Y548D02*
X839Y548D01*
X1778Y548D02*
X1840Y548D01*
X777Y547D02*
X838Y547D01*
X1779Y547D02*
X1839Y547D01*
X778Y546D02*
X837Y546D01*
X1780Y546D02*
X1838Y546D01*
X779Y545D02*
X836Y545D01*
X1781Y545D02*
X1837Y545D01*
X780Y544D02*
X835Y544D01*
X1782Y544D02*
X1836Y544D01*
X782Y543D02*
X834Y543D01*
X1783Y543D02*
X1835Y543D01*
X783Y542D02*
X832Y542D01*
X1784Y542D02*
X1834Y542D01*
X784Y541D02*
X831Y541D01*
X1786Y541D02*
X1832Y541D01*
X786Y540D02*
X829Y540D01*
X1787Y540D02*
X1831Y540D01*
X788Y539D02*
X828Y539D01*
X1789Y539D02*
X1829Y539D01*
X789Y538D02*
X826Y538D01*
X1791Y538D02*
X1827Y538D01*
X791Y537D02*
X824Y537D01*
X1793Y537D02*
X1825Y537D01*
X794Y536D02*
X821Y536D01*
X1796Y536D02*
X1823Y536D01*
X797Y535D02*
X818Y535D01*
X1799Y535D02*
X1819Y535D01*
X803Y534D02*
X813Y534D01*
X1804Y534D02*
X1814Y534D01*
X802Y517D02*
X813Y517D01*
X1804Y517D02*
X1814Y517D01*
X797Y516D02*
X818Y516D01*
X1799Y516D02*
X1819Y516D01*
X794Y515D02*
X821Y515D01*
X1795Y515D02*
X1823Y515D01*
X791Y514D02*
X824Y514D01*
X1793Y514D02*
X1825Y514D01*
X789Y513D02*
X826Y513D01*
X1791Y513D02*
X1827Y513D01*
X788Y512D02*
X828Y512D01*
X1789Y512D02*
X1829Y512D01*
X786Y511D02*
X829Y511D01*
X1787Y511D02*
X1831Y511D01*
X784Y510D02*
X831Y510D01*
X1786Y510D02*
X1832Y510D01*
X783Y509D02*
X832Y509D01*
X1784Y509D02*
X1834Y509D01*
X782Y508D02*
X834Y508D01*
X1783Y508D02*
X1835Y508D01*
X780Y507D02*
X835Y507D01*
X1782Y507D02*
X1836Y507D01*
X779Y506D02*
X836Y506D01*
X1781Y506D02*
X1837Y506D01*
X778Y505D02*
X837Y505D01*
X1780Y505D02*
X1838Y505D01*
X777Y504D02*
X838Y504D01*
X1779Y504D02*
X1839Y504D01*
X776Y503D02*
X839Y503D01*
X1778Y503D02*
X1840Y503D01*
X776Y502D02*
X840Y502D01*
X1777Y502D02*
X1841Y502D01*
X775Y501D02*
X840Y501D01*
X1776Y501D02*
X1842Y501D01*
X774Y500D02*
X841Y500D01*
X1776Y500D02*
X1843Y500D01*
X773Y499D02*
X842Y499D01*
X1775Y499D02*
X1843Y499D01*
X773Y498D02*
X843Y498D01*
X1774Y498D02*
X1844Y498D01*
X772Y497D02*
X843Y497D01*
X1774Y497D02*
X1845Y497D01*
X772Y496D02*
X844Y496D01*
X1773Y496D02*
X1845Y496D01*
X771Y495D02*
X844Y495D01*
X1772Y495D02*
X1846Y495D01*
X770Y494D02*
X845Y494D01*
X1772Y494D02*
X1846Y494D01*
X770Y493D02*
X845Y493D01*
X1771Y493D02*
X1847Y493D01*
X769Y492D02*
X846Y492D01*
X1771Y492D02*
X1847Y492D01*
X769Y491D02*
X846Y491D01*
X1771Y491D02*
X1848Y491D01*
X769Y490D02*
X847Y490D01*
X1770Y490D02*
X1848Y490D01*
X768Y489D02*
X847Y489D01*
X1770Y489D02*
X1848Y489D01*
X768Y488D02*
X847Y488D01*
X1769Y488D02*
X1849Y488D01*
X768Y487D02*
X847Y487D01*
X1769Y487D02*
X1849Y487D01*
X768Y486D02*
X848Y486D01*
X1769Y486D02*
X1849Y486D01*
X767Y485D02*
X848Y485D01*
X1769Y485D02*
X1849Y485D01*
X767Y484D02*
X848Y484D01*
X1768Y484D02*
X1850Y484D01*
X767Y483D02*
X848Y483D01*
X1768Y483D02*
X1850Y483D01*
X767Y482D02*
X849Y482D01*
X1768Y482D02*
X1850Y482D01*
X767Y481D02*
X849Y481D01*
X1768Y481D02*
X1850Y481D01*
X766Y480D02*
X849Y480D01*
X1768Y480D02*
X1850Y480D01*
X766Y479D02*
X849Y479D01*
X1768Y479D02*
X1850Y479D01*
X766Y478D02*
X849Y478D01*
X1768Y478D02*
X1850Y478D01*
X766Y477D02*
X849Y477D01*
X1768Y477D02*
X1851Y477D01*
X766Y476D02*
X849Y476D01*
X1768Y476D02*
X1851Y476D01*
X766Y475D02*
X849Y475D01*
X1768Y475D02*
X1851Y475D01*
X766Y474D02*
X849Y474D01*
X1768Y474D02*
X1851Y474D01*
X766Y473D02*
X849Y473D01*
X1768Y473D02*
X1850Y473D01*
X766Y472D02*
X849Y472D01*
X1768Y472D02*
X1850Y472D01*
X766Y471D02*
X849Y471D01*
X1768Y471D02*
X1850Y471D01*
X767Y470D02*
X849Y470D01*
X1768Y470D02*
X1850Y470D01*
X767Y469D02*
X849Y469D01*
X1768Y469D02*
X1850Y469D01*
X767Y468D02*
X848Y468D01*
X1768Y468D02*
X1850Y468D01*
X767Y467D02*
X848Y467D01*
X1768Y467D02*
X1850Y467D01*
X767Y466D02*
X848Y466D01*
X1769Y466D02*
X1849Y466D01*
X768Y465D02*
X848Y465D01*
X1769Y465D02*
X1849Y465D01*
X768Y464D02*
X848Y464D01*
X1769Y464D02*
X1849Y464D01*
X768Y463D02*
X847Y463D01*
X1769Y463D02*
X1849Y463D01*
X768Y462D02*
X847Y462D01*
X1770Y462D02*
X1848Y462D01*
X769Y461D02*
X847Y461D01*
X1770Y461D02*
X1848Y461D01*
X769Y460D02*
X846Y460D01*
X1771Y460D02*
X1848Y460D01*
X769Y459D02*
X846Y459D01*
X1771Y459D02*
X1847Y459D01*
X770Y458D02*
X845Y458D01*
X1771Y458D02*
X1847Y458D01*
X770Y457D02*
X845Y457D01*
X1772Y457D02*
X1846Y457D01*
X771Y456D02*
X844Y456D01*
X1772Y456D02*
X1846Y456D01*
X771Y455D02*
X844Y455D01*
X1773Y455D02*
X1845Y455D01*
X772Y454D02*
X843Y454D01*
X1774Y454D02*
X1845Y454D01*
X773Y453D02*
X843Y453D01*
X1774Y453D02*
X1844Y453D01*
X773Y452D02*
X842Y452D01*
X1775Y452D02*
X1843Y452D01*
X774Y451D02*
X841Y451D01*
X1775Y451D02*
X1843Y451D01*
X775Y450D02*
X840Y450D01*
X1776Y450D02*
X1842Y450D01*
X776Y449D02*
X840Y449D01*
X1777Y449D02*
X1841Y449D01*
X776Y448D02*
X839Y448D01*
X1778Y448D02*
X1840Y448D01*
X777Y447D02*
X838Y447D01*
X1779Y447D02*
X1839Y447D01*
X778Y446D02*
X837Y446D01*
X1780Y446D02*
X1839Y446D01*
X779Y445D02*
X836Y445D01*
X1781Y445D02*
X1838Y445D01*
X780Y444D02*
X835Y444D01*
X1782Y444D02*
X1836Y444D01*
X781Y443D02*
X834Y443D01*
X1783Y443D02*
X1835Y443D01*
X783Y442D02*
X832Y442D01*
X1784Y442D02*
X1834Y442D01*
X784Y441D02*
X831Y441D01*
X1786Y441D02*
X1833Y441D01*
X786Y440D02*
X830Y440D01*
X1787Y440D02*
X1831Y440D01*
X787Y439D02*
X828Y439D01*
X1789Y439D02*
X1829Y439D01*
X789Y438D02*
X826Y438D01*
X1791Y438D02*
X1828Y438D01*
X791Y437D02*
X824Y437D01*
X1793Y437D02*
X1826Y437D01*
X794Y436D02*
X821Y436D01*
X1795Y436D02*
X1823Y436D01*
X797Y435D02*
X818Y435D01*
X1798Y435D02*
X1820Y435D01*
X802Y434D02*
X813Y434D01*
X1803Y434D02*
X1815Y434D01*
X803Y417D02*
X812Y417D01*
X1805Y417D02*
X1814Y417D01*
X798Y416D02*
X817Y416D01*
X1799Y416D02*
X1819Y416D01*
X794Y415D02*
X821Y415D01*
X1796Y415D02*
X1822Y415D01*
X792Y414D02*
X824Y414D01*
X1793Y414D02*
X1825Y414D01*
X790Y413D02*
X826Y413D01*
X1791Y413D02*
X1827Y413D01*
X788Y412D02*
X828Y412D01*
X1789Y412D02*
X1829Y412D01*
X786Y411D02*
X829Y411D01*
X1788Y411D02*
X1831Y411D01*
X784Y410D02*
X831Y410D01*
X1786Y410D02*
X1832Y410D01*
X783Y409D02*
X832Y409D01*
X1785Y409D02*
X1834Y409D01*
X782Y408D02*
X834Y408D01*
X1783Y408D02*
X1835Y408D01*
X781Y407D02*
X835Y407D01*
X1782Y407D02*
X1836Y407D01*
X779Y406D02*
X836Y406D01*
X1781Y406D02*
X1837Y406D01*
X778Y405D02*
X837Y405D01*
X1780Y405D02*
X1838Y405D01*
X777Y404D02*
X838Y404D01*
X1779Y404D02*
X1839Y404D01*
X777Y403D02*
X839Y403D01*
X1778Y403D02*
X1840Y403D01*
X776Y402D02*
X840Y402D01*
X1777Y402D02*
X1841Y402D01*
X775Y401D02*
X840Y401D01*
X1776Y401D02*
X1842Y401D01*
X774Y400D02*
X841Y400D01*
X1776Y400D02*
X1843Y400D01*
X773Y399D02*
X842Y399D01*
X1775Y399D02*
X1843Y399D01*
X773Y398D02*
X842Y398D01*
X1774Y398D02*
X1844Y398D01*
X772Y397D02*
X843Y397D01*
X1774Y397D02*
X1845Y397D01*
X772Y396D02*
X844Y396D01*
X1773Y396D02*
X1845Y396D01*
X771Y395D02*
X844Y395D01*
X1772Y395D02*
X1846Y395D01*
X771Y394D02*
X845Y394D01*
X1772Y394D02*
X1846Y394D01*
X770Y393D02*
X845Y393D01*
X1771Y393D02*
X1847Y393D01*
X770Y392D02*
X846Y392D01*
X1771Y392D02*
X1847Y392D01*
X769Y391D02*
X846Y391D01*
X1771Y391D02*
X1848Y391D01*
X769Y390D02*
X846Y390D01*
X1770Y390D02*
X1848Y390D01*
X768Y389D02*
X847Y389D01*
X1770Y389D02*
X1848Y389D01*
X768Y388D02*
X847Y388D01*
X1770Y388D02*
X1849Y388D01*
X768Y387D02*
X847Y387D01*
X1769Y387D02*
X1849Y387D01*
X768Y386D02*
X848Y386D01*
X1769Y386D02*
X1849Y386D01*
X767Y385D02*
X848Y385D01*
X1769Y385D02*
X1849Y385D01*
X767Y384D02*
X848Y384D01*
X1769Y384D02*
X1850Y384D01*
X767Y383D02*
X848Y383D01*
X1768Y383D02*
X1850Y383D01*
X767Y382D02*
X849Y382D01*
X1768Y382D02*
X1850Y382D01*
X767Y381D02*
X849Y381D01*
X1768Y381D02*
X1850Y381D01*
X766Y380D02*
X849Y380D01*
X1768Y380D02*
X1850Y380D01*
X766Y379D02*
X849Y379D01*
X1768Y379D02*
X1850Y379D01*
X766Y378D02*
X849Y378D01*
X1768Y378D02*
X1850Y378D01*
X766Y377D02*
X849Y377D01*
X1768Y377D02*
X1851Y377D01*
X766Y376D02*
X849Y376D01*
X1768Y376D02*
X1851Y376D01*
X766Y375D02*
X849Y375D01*
X1768Y375D02*
X1851Y375D01*
X766Y374D02*
X849Y374D01*
X1768Y374D02*
X1851Y374D01*
X766Y373D02*
X849Y373D01*
X1768Y373D02*
X1850Y373D01*
X766Y372D02*
X849Y372D01*
X1768Y372D02*
X1850Y372D01*
X766Y371D02*
X849Y371D01*
X1768Y371D02*
X1850Y371D01*
X767Y370D02*
X849Y370D01*
X1768Y370D02*
X1850Y370D01*
X767Y369D02*
X849Y369D01*
X1768Y369D02*
X1850Y369D01*
X767Y368D02*
X848Y368D01*
X1768Y368D02*
X1850Y368D01*
X767Y367D02*
X848Y367D01*
X1768Y367D02*
X1850Y367D01*
X767Y366D02*
X848Y366D01*
X1769Y366D02*
X1849Y366D01*
X767Y365D02*
X848Y365D01*
X1769Y365D02*
X1849Y365D01*
X768Y364D02*
X848Y364D01*
X1769Y364D02*
X1849Y364D01*
X768Y363D02*
X847Y363D01*
X1769Y363D02*
X1849Y363D01*
X768Y362D02*
X847Y362D01*
X1770Y362D02*
X1848Y362D01*
X769Y361D02*
X847Y361D01*
X1770Y361D02*
X1848Y361D01*
X769Y360D02*
X846Y360D01*
X1770Y360D02*
X1848Y360D01*
X769Y359D02*
X846Y359D01*
X1771Y359D02*
X1847Y359D01*
X770Y358D02*
X845Y358D01*
X1771Y358D02*
X1847Y358D01*
X770Y357D02*
X845Y357D01*
X1772Y357D02*
X1846Y357D01*
X771Y356D02*
X844Y356D01*
X1772Y356D02*
X1846Y356D01*
X771Y355D02*
X844Y355D01*
X1773Y355D02*
X1845Y355D01*
X772Y354D02*
X843Y354D01*
X1773Y354D02*
X1845Y354D01*
X773Y353D02*
X843Y353D01*
X1774Y353D02*
X1844Y353D01*
X773Y352D02*
X842Y352D01*
X1775Y352D02*
X1843Y352D01*
X774Y351D02*
X841Y351D01*
X1775Y351D02*
X1843Y351D01*
X775Y350D02*
X841Y350D01*
X1776Y350D02*
X1842Y350D01*
X775Y349D02*
X840Y349D01*
X1777Y349D02*
X1841Y349D01*
X776Y348D02*
X839Y348D01*
X1778Y348D02*
X1840Y348D01*
X777Y347D02*
X838Y347D01*
X1779Y347D02*
X1840Y347D01*
X778Y346D02*
X837Y346D01*
X1779Y346D02*
X1839Y346D01*
X779Y345D02*
X836Y345D01*
X1781Y345D02*
X1838Y345D01*
X780Y344D02*
X835Y344D01*
X1782Y344D02*
X1837Y344D01*
X781Y343D02*
X834Y343D01*
X1783Y343D02*
X1835Y343D01*
X783Y342D02*
X833Y342D01*
X1784Y342D02*
X1834Y342D01*
X784Y341D02*
X831Y341D01*
X1785Y341D02*
X1833Y341D01*
X786Y340D02*
X830Y340D01*
X1787Y340D02*
X1831Y340D01*
X787Y339D02*
X828Y339D01*
X1789Y339D02*
X1830Y339D01*
X789Y338D02*
X826Y338D01*
X1790Y338D02*
X1828Y338D01*
X791Y337D02*
X824Y337D01*
X1792Y337D02*
X1826Y337D01*
X793Y336D02*
X822Y336D01*
X1795Y336D02*
X1823Y336D01*
X797Y335D02*
X819Y335D01*
X1798Y335D02*
X1820Y335D01*
X801Y334D02*
X814Y334D01*
X1803Y334D02*
X1816Y334D01*
X804Y317D02*
X811Y317D01*
X1805Y317D02*
X1813Y317D01*
X798Y316D02*
X817Y316D01*
X1800Y316D02*
X1818Y316D01*
X795Y315D02*
X821Y315D01*
X1796Y315D02*
X1822Y315D01*
X792Y314D02*
X823Y314D01*
X1793Y314D02*
X1825Y314D01*
X790Y313D02*
X825Y313D01*
X1791Y313D02*
X1827Y313D01*
X788Y312D02*
X827Y312D01*
X1789Y312D02*
X1829Y312D01*
X786Y311D02*
X829Y311D01*
X1788Y311D02*
X1830Y311D01*
X785Y310D02*
X831Y310D01*
X1786Y310D02*
X1832Y310D01*
X783Y309D02*
X832Y309D01*
X1785Y309D02*
X1833Y309D01*
X782Y308D02*
X833Y308D01*
X1783Y308D02*
X1835Y308D01*
X781Y307D02*
X835Y307D01*
X1782Y307D02*
X1836Y307D01*
X780Y306D02*
X836Y306D01*
X1781Y306D02*
X1837Y306D01*
X778Y305D02*
X837Y305D01*
X1780Y305D02*
X1838Y305D01*
X778Y304D02*
X838Y304D01*
X1779Y304D02*
X1839Y304D01*
X777Y303D02*
X839Y303D01*
X1778Y303D02*
X1840Y303D01*
X776Y302D02*
X839Y302D01*
X1777Y302D02*
X1841Y302D01*
X775Y301D02*
X840Y301D01*
X1776Y301D02*
X1842Y301D01*
X774Y300D02*
X841Y300D01*
X1776Y300D02*
X1842Y300D01*
X774Y299D02*
X842Y299D01*
X1775Y299D02*
X1843Y299D01*
X773Y298D02*
X842Y298D01*
X1774Y298D02*
X1844Y298D01*
X772Y297D02*
X843Y297D01*
X1774Y297D02*
X1844Y297D01*
X772Y296D02*
X844Y296D01*
X1773Y296D02*
X1845Y296D01*
X771Y295D02*
X844Y295D01*
X1773Y295D02*
X1846Y295D01*
X771Y294D02*
X845Y294D01*
X1772Y294D02*
X1846Y294D01*
X770Y293D02*
X845Y293D01*
X1772Y293D02*
X1847Y293D01*
X770Y292D02*
X846Y292D01*
X1771Y292D02*
X1847Y292D01*
X769Y291D02*
X846Y291D01*
X1771Y291D02*
X1848Y291D01*
X769Y290D02*
X846Y290D01*
X1770Y290D02*
X1848Y290D01*
X768Y289D02*
X847Y289D01*
X1770Y289D02*
X1848Y289D01*
X768Y288D02*
X847Y288D01*
X1770Y288D02*
X1849Y288D01*
X768Y287D02*
X847Y287D01*
X1769Y287D02*
X1849Y287D01*
X768Y286D02*
X848Y286D01*
X1769Y286D02*
X1849Y286D01*
X767Y285D02*
X848Y285D01*
X1769Y285D02*
X1849Y285D01*
X767Y284D02*
X848Y284D01*
X1769Y284D02*
X1850Y284D01*
X767Y283D02*
X848Y283D01*
X1768Y283D02*
X1850Y283D01*
X767Y282D02*
X849Y282D01*
X1768Y282D02*
X1850Y282D01*
X767Y281D02*
X849Y281D01*
X1768Y281D02*
X1850Y281D01*
X766Y280D02*
X849Y280D01*
X1768Y280D02*
X1850Y280D01*
X766Y279D02*
X849Y279D01*
X1768Y279D02*
X1850Y279D01*
X766Y278D02*
X849Y278D01*
X1768Y278D02*
X1850Y278D01*
X766Y277D02*
X849Y277D01*
X1768Y277D02*
X1851Y277D01*
X766Y276D02*
X849Y276D01*
X1768Y276D02*
X1851Y276D01*
X766Y275D02*
X849Y275D01*
X1768Y275D02*
X1851Y275D01*
X766Y274D02*
X849Y274D01*
X1768Y274D02*
X1851Y274D01*
X766Y273D02*
X849Y273D01*
X1768Y273D02*
X1850Y273D01*
X766Y272D02*
X849Y272D01*
X1768Y272D02*
X1850Y272D01*
X766Y271D02*
X849Y271D01*
X1768Y271D02*
X1850Y271D01*
X766Y270D02*
X849Y270D01*
X1768Y270D02*
X1850Y270D01*
X767Y269D02*
X849Y269D01*
X1768Y269D02*
X1850Y269D01*
X767Y268D02*
X848Y268D01*
X1768Y268D02*
X1850Y268D01*
X767Y267D02*
X848Y267D01*
X1768Y267D02*
X1850Y267D01*
X767Y266D02*
X848Y266D01*
X1769Y266D02*
X1850Y266D01*
X767Y265D02*
X848Y265D01*
X1769Y265D02*
X1849Y265D01*
X768Y264D02*
X848Y264D01*
X1769Y264D02*
X1849Y264D01*
X768Y263D02*
X847Y263D01*
X1769Y263D02*
X1849Y263D01*
X768Y262D02*
X847Y262D01*
X1770Y262D02*
X1848Y262D01*
X769Y261D02*
X847Y261D01*
X1770Y261D02*
X1848Y261D01*
X769Y260D02*
X846Y260D01*
X1770Y260D02*
X1848Y260D01*
X769Y259D02*
X846Y259D01*
X1771Y259D02*
X1847Y259D01*
X770Y258D02*
X845Y258D01*
X1771Y258D02*
X1847Y258D01*
X770Y257D02*
X845Y257D01*
X1772Y257D02*
X1846Y257D01*
X771Y256D02*
X844Y256D01*
X1772Y256D02*
X1846Y256D01*
X771Y255D02*
X844Y255D01*
X1773Y255D02*
X1845Y255D01*
X772Y254D02*
X843Y254D01*
X1773Y254D02*
X1845Y254D01*
X773Y253D02*
X843Y253D01*
X1774Y253D02*
X1844Y253D01*
X773Y252D02*
X842Y252D01*
X1775Y252D02*
X1844Y252D01*
X774Y251D02*
X841Y251D01*
X1775Y251D02*
X1843Y251D01*
X775Y250D02*
X841Y250D01*
X1776Y250D02*
X1842Y250D01*
X775Y249D02*
X840Y249D01*
X1777Y249D02*
X1841Y249D01*
X776Y248D02*
X839Y248D01*
X1778Y248D02*
X1841Y248D01*
X777Y247D02*
X838Y247D01*
X1778Y247D02*
X1840Y247D01*
X778Y246D02*
X837Y246D01*
X1779Y246D02*
X1839Y246D01*
X779Y245D02*
X836Y245D01*
X1780Y245D02*
X1838Y245D01*
X780Y244D02*
X835Y244D01*
X1782Y244D02*
X1837Y244D01*
X781Y243D02*
X834Y243D01*
X1783Y243D02*
X1836Y243D01*
X783Y242D02*
X833Y242D01*
X1784Y242D02*
X1834Y242D01*
X784Y241D02*
X831Y241D01*
X1785Y241D02*
X1833Y241D01*
X785Y240D02*
X830Y240D01*
X1787Y240D02*
X1831Y240D01*
X787Y239D02*
X828Y239D01*
X1788Y239D02*
X1830Y239D01*
X789Y238D02*
X827Y238D01*
X1790Y238D02*
X1828Y238D01*
X791Y237D02*
X825Y237D01*
X1792Y237D02*
X1826Y237D01*
X793Y236D02*
X822Y236D01*
X1795Y236D02*
X1824Y236D01*
X796Y235D02*
X819Y235D01*
X1798Y235D02*
X1821Y235D01*
X800Y234D02*
X815Y234D01*
X1802Y234D02*
X1816Y234D01*
D02*
G04 End of Mask0*
M02*