; NON-PLATED HOLES START AT T1
; THROUGH (PLATED) HOLES START AT T100
M48
INCH
T100C0.035050
T101C0.040157
T102C0.038000
%
T100
X018085Y015766
X008071Y014765
X018085Y014765
X018085Y002748
X018085Y013763
X008071Y013763
X008071Y012762
X008071Y003749
X008071Y008756
X018085Y011761
X018085Y016768
X008071Y011761
X008071Y015766
X018085Y007755
X008071Y004750
X018085Y008756
X008071Y007755
X018085Y006753
X008071Y010759
X008071Y005752
X018085Y003749
X018085Y005752
X018085Y010759
X008071Y016768
X008071Y002748
X018085Y009758
X008071Y009758
X018085Y004750
X008071Y006753
X018085Y012762
T101
X004081Y015758
X002074Y015758
X003077Y015758
X006089Y015758
X005085Y015758
X001070Y015758
T102
X026096Y014758
X028097Y014758
X025096Y014758
X027097Y014758
X022085Y001758
X022085Y002758
T00
M30
